<?xml version='1.0' encoding='UTF-8' standalone='no'?>
<svg width="297mm" height="210mm" xmlns:xlink="http://www.w3.org/1999/xlink" baseProfile="tiny" xmlns:svg="http://www.w3.org/2000/svg" version="1.2" xmlns:cc="http://creativecommons.org/ns#" xmlns:sodipodi="http://sodipodi.sourceforge.net/DTD/sodipodi-0.dtd" xmlns:dc="http://purl.org/dc/elements/1.1/" xmlns:rdf="http://www.w3.org/1999/02/22-rdf-syntax-ns#" xmlns:freecad="http://www.freecadweb.org/wiki/index.php?title=Svg_Namespace" xmlns:inkscape="http://www.inkscape.org/namespaces/inkscape" xmlns="http://www.w3.org/2000/svg" viewBox="0 0 5000 3000">
 <title>FreeCAD SVG Export</title>
 <desc>Drawing page: Page exported from FreeCAD document: Unnamed</desc>
 <defs/>
 <g inkscape:groupmode="layer" id="Page" inkscape:label="TechDraw">
  <g stroke-width="1" stroke-linecap="square" fill="none" stroke-linejoin="bevel" id="DrawingContent" stroke="black" fill-rule="evenodd">
   <g stroke-width="1" transform="matrix(1,0,0,1,1485,1050)" stroke-linecap="square" font-size="29.1042" fill="none" stroke-opacity="1" stroke-linejoin="bevel" stroke="#000000" font-family="MS Shell Dlg 2" font-style="normal" font-weight="400">
    <rect x="0" width="0" height="0" y="0"/>
   </g>
   <g transform="matrix(1,0,0,1,1485,1050)" font-size="29.1042" fill="#ffffff" stroke="none" font-family="MS Shell Dlg 2" font-style="normal" fill-opacity="1" font-weight="400">
    <path vector-effect="non-scaling-stroke" d="M99.3121,2.84217e-14 C99.3121,54.8485 54.8485,99.3121 0,99.3121 C-54.8485,99.3121 -99.3121,54.8485 -99.3121,2.84217e-14 C-99.3121,-54.8485 -54.8485,-99.3121 0,-99.3121 C54.8485,-99.3121 99.3121,-54.8485 99.3121,2.84217e-14 " fill-rule="evenodd"/>
   </g>
   <g transform="matrix(1,0,0,1,1485,1050)" font-size="29.1042" fill="#ffffff" stroke="none" font-family="MS Shell Dlg 2" font-style="normal" fill-opacity="1" font-weight="400">
    <path vector-effect="non-scaling-stroke" d="M30.0188,7.10543e-15 C30.0188,16.5789 16.5789,30.0188 0,30.0188 C-16.5789,30.0188 -30.0188,16.5789 -30.0188,7.10543e-15 C-30.0188,-16.5789 -16.5789,-30.0188 0,-30.0188 C16.5789,-30.0188 30.0188,-16.5789 30.0188,7.10543e-15 " fill-rule="evenodd"/>
   </g>
   <g stroke-width="1.3" transform="matrix(1,0,0,1,1485,1050)" stroke-dashoffset="0" stroke-linecap="round" font-size="29.1042" fill="none" stroke-opacity="1" stroke-linejoin="bevel" stroke="#000000" stroke-dasharray="5.2,2.6" font-family="MS Shell Dlg 2" font-style="normal" font-weight="400">
    <path vector-effect="none" d="M99.3121,2.84217e-14 C99.3121,54.8485 54.8485,99.3121 0,99.3121 C-54.8485,99.3121 -99.3121,54.8485 -99.3121,2.84217e-14 C-99.3121,-54.8485 -54.8485,-99.3121 0,-99.3121 C54.8485,-99.3121 99.3121,-54.8485 99.3121,2.84217e-14 " fill-rule="evenodd"/>
   </g>
   <g stroke-width="1.3" transform="matrix(1,0,0,1,1485,1050)" stroke-dashoffset="0" stroke-linecap="round" font-size="29.1042" fill="none" stroke-opacity="1" stroke-linejoin="bevel" stroke="#000000" stroke-dasharray="5.2,2.6" font-family="MS Shell Dlg 2" font-style="normal" font-weight="400">
    <path vector-effect="none" d="M30.0188,7.10543e-15 C30.0188,16.5789 16.5789,30.0188 0,30.0188 C-16.5789,30.0188 -30.0188,16.5789 -30.0188,7.10543e-15 C-30.0188,-16.5789 -16.5789,-30.0188 0,-30.0188 C16.5789,-30.0188 30.0188,-16.5789 30.0188,7.10543e-15 " fill-rule="evenodd"/>
   </g>
   <g stroke-width="2.5" transform="matrix(1,0,0,1,1485,1050)" stroke-linecap="round" font-size="29.1042" fill="none" stroke-opacity="1" stroke-linejoin="bevel" stroke="#000000" font-family="MS Shell Dlg 2" font-style="normal" font-weight="400">
    <path vector-effect="none" d="M99.3121,2.84217e-14 C99.3121,54.8485 54.8485,99.3121 0,99.3121 C-54.8485,99.3121 -99.3121,54.8485 -99.3121,2.84217e-14 C-99.3121,-54.8485 -54.8485,-99.3121 0,-99.3121 C54.8485,-99.3121 99.3121,-54.8485 99.3121,2.84217e-14 " fill-rule="evenodd"/>
   </g>
   <g stroke-width="2.5" transform="matrix(1,0,0,1,1485,1050)" stroke-linecap="round" font-size="29.1042" fill="none" stroke-opacity="1" stroke-linejoin="bevel" stroke="#000000" font-family="MS Shell Dlg 2" font-style="normal" font-weight="400">
    <path vector-effect="none" d="M30.0188,7.10543e-15 C30.0188,16.5789 16.5789,30.0188 0,30.0188 C-16.5789,30.0188 -30.0188,16.5789 -30.0188,7.10543e-15 C-30.0188,-16.5789 -16.5789,-30.0188 0,-30.0188 C16.5789,-30.0188 30.0188,-16.5789 30.0188,7.10543e-15 " fill-rule="evenodd"/>
   </g>
   <g transform="matrix(1,0,0,1,1485,-200.435)" font-size="29.1042" fill="#ffffff" stroke="none" font-family="MS Shell Dlg 2" font-style="normal" fill-opacity="1" font-weight="400">
    <path vector-effect="non-scaling-stroke" d="M-99.3121,430.016 L-99.3121,550.091 L99.3121,550.091 L99.3121,430.016 L96.8221,430.016 L89.4771,430.016 L77.6453,430.016 L61.9201,430.016 L43.0899,430.016 L30.0188,430.016 L30.0188,-550.597 L-30.0188,-550.597 L-30.0188,430.016 L-43.0899,430.016 L-61.9201,430.016 L-77.6453,430.016 L-89.4771,430.016 L-96.8221,430.016 L-99.3121,430.016" fill-rule="evenodd"/>
   </g>
   <g transform="matrix(1,0,0,1,1485,-200.435)" font-size="29.1042" fill="#ffffff" stroke="none" font-family="MS Shell Dlg 2" font-style="normal" fill-opacity="1" font-weight="400">
    <path vector-effect="non-scaling-stroke" d="M-30.0188,-550.597 L-30.0188,430.016 L-22.099,430.016 L-1.77636e-14,430.016 L22.099,430.016 L30.0188,430.016 L30.0188,-550.597 L-30.0188,-550.597" fill-rule="evenodd"/>
   </g>
   <g transform="matrix(1,0,0,1,1485,-200.435)" font-size="29.1042" fill="#ffffff" stroke="none" font-family="MS Shell Dlg 2" font-style="normal" fill-opacity="1" font-weight="400">
    <path vector-effect="non-scaling-stroke" d="M-99.3121,430.016 L-99.3121,550.091 L99.3121,550.091 L99.3121,430.016 L96.8221,430.016 L89.4771,430.016 L77.6453,430.016 L61.9201,430.016 L43.0899,430.016 L30.0188,430.016 L22.099,430.016 L-1.77636e-14,430.016 L-22.099,430.016 L-30.0188,430.016 L-43.0899,430.016 L-61.9201,430.016 L-77.6453,430.016 L-89.4771,430.016 L-96.8221,430.016 L-99.3121,430.016" fill-rule="evenodd"/>
   </g>
   <g stroke-width="1.3" transform="matrix(1,0,0,1,1485,-200.435)" stroke-dashoffset="0" stroke-linecap="round" font-size="29.1042" fill="none" stroke-opacity="1" stroke-linejoin="bevel" stroke="#000000" stroke-dasharray="5.2,2.6" font-family="MS Shell Dlg 2" font-style="normal" font-weight="400">
    <path vector-effect="none" d="M99.3121,430.016 L-99.3121,430.016" fill-rule="evenodd"/>
   </g>
   <g stroke-width="1.3" transform="matrix(1,0,0,1,1485,-200.435)" stroke-dashoffset="0" stroke-linecap="round" font-size="29.1042" fill="none" stroke-opacity="1" stroke-linejoin="bevel" stroke="#000000" stroke-dasharray="5.2,2.6" font-family="MS Shell Dlg 2" font-style="normal" font-weight="400">
    <path vector-effect="none" d="M99.3121,550.091 L-99.3121,550.091" fill-rule="evenodd"/>
   </g>
   <g stroke-width="1.3" transform="matrix(1,0,0,1,1485,-200.435)" stroke-dashoffset="0" stroke-linecap="round" font-size="29.1042" fill="none" stroke-opacity="1" stroke-linejoin="bevel" stroke="#000000" stroke-dasharray="5.2,2.6" font-family="MS Shell Dlg 2" font-style="normal" font-weight="400">
    <path vector-effect="none" d="M-30.0188,430.016 L30.0188,430.016" fill-rule="evenodd"/>
   </g>
   <g stroke-width="1.3" transform="matrix(1,0,0,1,1485,-200.435)" stroke-dashoffset="0" stroke-linecap="round" font-size="29.1042" fill="none" stroke-opacity="1" stroke-linejoin="bevel" stroke="#000000" stroke-dasharray="5.2,2.6" font-family="MS Shell Dlg 2" font-style="normal" font-weight="400">
    <path vector-effect="none" d="M30.0188,430.016 L-30.0188,430.016" fill-rule="evenodd"/>
   </g>
   <g stroke-width="1.3" transform="matrix(1,0,0,1,1485,-200.435)" stroke-dashoffset="0" stroke-linecap="round" font-size="29.1042" fill="none" stroke-opacity="1" stroke-linejoin="bevel" stroke="#000000" stroke-dasharray="5.2,2.6" font-family="MS Shell Dlg 2" font-style="normal" font-weight="400">
    <path vector-effect="none" d="M30.0188,-550.597 L-30.0188,-550.597" fill-rule="evenodd"/>
   </g>
   <g stroke-width="2.5" transform="matrix(1,0,0,1,1485,-200.435)" stroke-linecap="round" font-size="29.1042" fill="none" stroke-opacity="1" stroke-linejoin="bevel" stroke="#000000" font-family="MS Shell Dlg 2" font-style="normal" font-weight="400">
    <path vector-effect="none" d="M-99.3121,430.016 L99.3121,430.016" fill-rule="evenodd"/>
   </g>
   <g stroke-width="2.5" transform="matrix(1,0,0,1,1485,-200.435)" stroke-linecap="round" font-size="29.1042" fill="none" stroke-opacity="1" stroke-linejoin="bevel" stroke="#000000" font-family="MS Shell Dlg 2" font-style="normal" font-weight="400">
    <path vector-effect="none" d="M-99.3121,430.016 L-99.3121,550.091" fill-rule="evenodd"/>
   </g>
   <g stroke-width="2.5" transform="matrix(1,0,0,1,1485,-200.435)" stroke-linecap="round" font-size="29.1042" fill="none" stroke-opacity="1" stroke-linejoin="bevel" stroke="#000000" font-family="MS Shell Dlg 2" font-style="normal" font-weight="400">
    <path vector-effect="none" d="M-99.3121,550.091 L99.3121,550.091" fill-rule="evenodd"/>
   </g>
   <g stroke-width="2.5" transform="matrix(1,0,0,1,1485,-200.435)" stroke-linecap="round" font-size="29.1042" fill="none" stroke-opacity="1" stroke-linejoin="bevel" stroke="#000000" font-family="MS Shell Dlg 2" font-style="normal" font-weight="400">
    <path vector-effect="none" d="M-30.0188,-550.597 L30.0188,-550.597" fill-rule="evenodd"/>
   </g>
   <g stroke-width="2.5" transform="matrix(1,0,0,1,1485,-200.435)" stroke-linecap="round" font-size="29.1042" fill="none" stroke-opacity="1" stroke-linejoin="bevel" stroke="#000000" font-family="MS Shell Dlg 2" font-style="normal" font-weight="400">
    <path vector-effect="none" d="M-30.0188,-550.597 L-30.0188,430.016" fill-rule="evenodd"/>
   </g>
   <g stroke-width="2.5" transform="matrix(1,0,0,1,1485,-200.435)" stroke-linecap="round" font-size="29.1042" fill="none" stroke-opacity="1" stroke-linejoin="bevel" stroke="#000000" font-family="MS Shell Dlg 2" font-style="normal" font-weight="400">
    <path vector-effect="none" d="M99.3121,550.091 L99.3121,430.016" fill-rule="evenodd"/>
   </g>
   <g stroke-width="2.5" transform="matrix(1,0,0,1,1485,-200.435)" stroke-linecap="round" font-size="29.1042" fill="none" stroke-opacity="1" stroke-linejoin="bevel" stroke="#000000" font-family="MS Shell Dlg 2" font-style="normal" font-weight="400">
    <path vector-effect="none" d="M30.0188,430.016 L30.0188,-550.597" fill-rule="evenodd"/>
   </g>
   <g transform="matrix(1,0,0,1,2735.44,1050)" font-size="29.1042" fill="#ffffff" stroke="none" font-family="MS Shell Dlg 2" font-style="normal" fill-opacity="1" font-weight="400">
    <path vector-effect="non-scaling-stroke" d="M-550.091,-99.3121 L-430.016,-99.3121 L-430.016,-98.6876 L-430.016,-96.8221 L-430.016,-93.739 L-430.016,-89.4771 L-430.016,-84.0899 L-430.016,-77.6453 L-430.016,-70.2242 L-430.016,-61.9201 L-430.016,-52.8372 L-430.016,-43.0899 L-430.016,-32.8007 L-430.016,-30.0188 L550.597,-30.0188 L550.597,1.53486e-15 L550.597,30.0188 L-430.016,30.0188 L-430.016,32.8007 L-430.016,43.0899 L-430.016,52.8372 L-430.016,61.9201 L-430.016,70.2242 L-430.016,77.6453 L-430.016,84.0899 L-430.016,89.4771 L-430.016,93.739 L-430.016,96.8221 L-430.016,98.6876 L-430.016,99.3121 L-550.091,99.3121 L-550.091,-1.54371e-14 L-550.091,-99.3121" fill-rule="evenodd"/>
   </g>
   <g transform="matrix(1,0,0,1,2735.44,1050)" font-size="29.1042" fill="#ffffff" stroke="none" font-family="MS Shell Dlg 2" font-style="normal" fill-opacity="1" font-weight="400">
    <path vector-effect="non-scaling-stroke" d="M-430.016,-30.0188 L550.597,-30.0188 L550.597,1.53486e-15 L550.597,30.0188 L-430.016,30.0188 L-430.016,22.099 L-430.016,11.1194 L-430.016,-2.22045e-15 L-430.016,-2.77556e-14 L-430.016,-11.1194 L-430.016,-22.099 L-430.016,-30.0188" fill-rule="evenodd"/>
   </g>
   <g transform="matrix(1,0,0,1,2735.44,1050)" font-size="29.1042" fill="#ffffff" stroke="none" font-family="MS Shell Dlg 2" font-style="normal" fill-opacity="1" font-weight="400">
    <path vector-effect="non-scaling-stroke" d="M-550.091,-99.3121 L-430.016,-99.3121 L-430.016,-98.6876 L-430.016,-96.8221 L-430.016,-93.739 L-430.016,-89.4771 L-430.016,-84.0899 L-430.016,-77.6453 L-430.016,-70.2242 L-430.016,-61.9201 L-430.016,-52.8372 L-430.016,-43.0899 L-430.016,-32.8007 L-430.016,-30.0188 L-430.016,-22.099 L-430.016,-11.1194 L-430.016,-2.77556e-14 L-430.016,-2.22045e-15 L-430.016,11.1194 L-430.016,22.099 L-430.016,30.0188 L-430.016,32.8007 L-430.016,43.0899 L-430.016,52.8372 L-430.016,61.9201 L-430.016,70.2242 L-430.016,77.6453 L-430.016,84.0899 L-430.016,89.4771 L-430.016,93.739 L-430.016,96.8221 L-430.016,98.6876 L-430.016,99.3121 L-550.091,99.3121 L-550.091,-1.54371e-14 L-550.091,-99.3121" fill-rule="evenodd"/>
   </g>
   <g stroke-width="1.3" transform="matrix(1,0,0,1,2735.44,1050)" stroke-dashoffset="0" stroke-linecap="round" font-size="29.1042" fill="none" stroke-opacity="1" stroke-linejoin="bevel" stroke="#000000" stroke-dasharray="5.2,2.6" font-family="MS Shell Dlg 2" font-style="normal" font-weight="400">
    <path vector-effect="none" d="M-430.016,99.3121 L-430.016,-99.3121" fill-rule="evenodd"/>
   </g>
   <g stroke-width="1.3" transform="matrix(1,0,0,1,2735.44,1050)" stroke-dashoffset="0" stroke-linecap="round" font-size="29.1042" fill="none" stroke-opacity="1" stroke-linejoin="bevel" stroke="#000000" stroke-dasharray="5.2,2.6" font-family="MS Shell Dlg 2" font-style="normal" font-weight="400">
    <path vector-effect="none" d="M-550.091,99.3121 L-550.091,-99.3121" fill-rule="evenodd"/>
   </g>
   <g stroke-width="1.3" transform="matrix(1,0,0,1,2735.44,1050)" stroke-dashoffset="0" stroke-linecap="round" font-size="29.1042" fill="none" stroke-opacity="1" stroke-linejoin="bevel" stroke="#000000" stroke-dasharray="5.2,2.6" font-family="MS Shell Dlg 2" font-style="normal" font-weight="400">
    <path vector-effect="none" d="M-430.016,5.2111e-15 L-430.016,30.0188" fill-rule="evenodd"/>
   </g>
   <g stroke-width="1.3" transform="matrix(1,0,0,1,2735.44,1050)" stroke-dashoffset="0" stroke-linecap="round" font-size="29.1042" fill="none" stroke-opacity="1" stroke-linejoin="bevel" stroke="#000000" stroke-dasharray="5.2,2.6" font-family="MS Shell Dlg 2" font-style="normal" font-weight="400">
    <path vector-effect="none" d="M-430.016,30.0188 L-430.016,-30.0188" fill-rule="evenodd"/>
   </g>
   <g stroke-width="1.3" transform="matrix(1,0,0,1,2735.44,1050)" stroke-dashoffset="0" stroke-linecap="round" font-size="29.1042" fill="none" stroke-opacity="1" stroke-linejoin="bevel" stroke="#000000" stroke-dasharray="5.2,2.6" font-family="MS Shell Dlg 2" font-style="normal" font-weight="400">
    <path vector-effect="none" d="M-430.016,-30.0188 L-430.016,-2.14138e-15" fill-rule="evenodd"/>
   </g>
   <g stroke-width="1.3" transform="matrix(1,0,0,1,2735.44,1050)" stroke-dashoffset="0" stroke-linecap="round" font-size="29.1042" fill="none" stroke-opacity="1" stroke-linejoin="bevel" stroke="#000000" stroke-dasharray="5.2,2.6" font-family="MS Shell Dlg 2" font-style="normal" font-weight="400">
    <path vector-effect="none" d="M550.597,30.0188 L550.597,-30.0188" fill-rule="evenodd"/>
   </g>
   <g stroke-width="2.5" transform="matrix(1,0,0,1,2735.44,1050)" stroke-linecap="round" font-size="29.1042" fill="none" stroke-opacity="1" stroke-linejoin="bevel" stroke="#000000" font-family="MS Shell Dlg 2" font-style="normal" font-weight="400">
    <path vector-effect="none" d="M-430.016,-3.27488e-15 L-430.016,99.3121" fill-rule="evenodd"/>
   </g>
   <g stroke-width="2.5" transform="matrix(1,0,0,1,2735.44,1050)" stroke-linecap="round" font-size="29.1042" fill="none" stroke-opacity="1" stroke-linejoin="bevel" stroke="#000000" font-family="MS Shell Dlg 2" font-style="normal" font-weight="400">
    <path vector-effect="none" d="M-430.016,-99.3121 L-430.016,-2.75993e-14" fill-rule="evenodd"/>
   </g>
   <g stroke-width="2.5" transform="matrix(1,0,0,1,2735.44,1050)" stroke-linecap="round" font-size="29.1042" fill="none" stroke-opacity="1" stroke-linejoin="bevel" stroke="#000000" font-family="MS Shell Dlg 2" font-style="normal" font-weight="400">
    <path vector-effect="none" d="M-550.091,-3.27488e-15 L-550.091,99.3121" fill-rule="evenodd"/>
   </g>
   <g stroke-width="2.5" transform="matrix(1,0,0,1,2735.44,1050)" stroke-linecap="round" font-size="29.1042" fill="none" stroke-opacity="1" stroke-linejoin="bevel" stroke="#000000" font-family="MS Shell Dlg 2" font-style="normal" font-weight="400">
    <path vector-effect="none" d="M-550.091,-99.3121 L-550.091,-2.75993e-14" fill-rule="evenodd"/>
   </g>
   <g stroke-width="2.5" transform="matrix(1,0,0,1,2735.44,1050)" stroke-linecap="round" font-size="29.1042" fill="none" stroke-opacity="1" stroke-linejoin="bevel" stroke="#000000" font-family="MS Shell Dlg 2" font-style="normal" font-weight="400">
    <path vector-effect="none" d="M550.597,5.2111e-15 L550.597,30.0188" fill-rule="evenodd"/>
   </g>
   <g stroke-width="2.5" transform="matrix(1,0,0,1,2735.44,1050)" stroke-linecap="round" font-size="29.1042" fill="none" stroke-opacity="1" stroke-linejoin="bevel" stroke="#000000" font-family="MS Shell Dlg 2" font-style="normal" font-weight="400">
    <path vector-effect="none" d="M550.597,-30.0188 L550.597,-2.14138e-15" fill-rule="evenodd"/>
   </g>
   <g stroke-width="2.5" transform="matrix(1,0,0,1,2735.44,1050)" stroke-linecap="round" font-size="29.1042" fill="none" stroke-opacity="1" stroke-linejoin="bevel" stroke="#000000" font-family="MS Shell Dlg 2" font-style="normal" font-weight="400">
    <path vector-effect="none" d="M-550.091,99.3121 L-430.016,99.3121" fill-rule="evenodd"/>
   </g>
   <g stroke-width="2.5" transform="matrix(1,0,0,1,2735.44,1050)" stroke-linecap="round" font-size="29.1042" fill="none" stroke-opacity="1" stroke-linejoin="bevel" stroke="#000000" font-family="MS Shell Dlg 2" font-style="normal" font-weight="400">
    <path vector-effect="none" d="M-550.091,-99.3121 L-430.016,-99.3121" fill-rule="evenodd"/>
   </g>
   <g stroke-width="2.5" transform="matrix(1,0,0,1,2735.44,1050)" stroke-linecap="round" font-size="29.1042" fill="none" stroke-opacity="1" stroke-linejoin="bevel" stroke="#000000" font-family="MS Shell Dlg 2" font-style="normal" font-weight="400">
    <path vector-effect="none" d="M-430.016,30.0188 L550.597,30.0188" fill-rule="evenodd"/>
   </g>
   <g stroke-width="2.5" transform="matrix(1,0,0,1,2735.44,1050)" stroke-linecap="round" font-size="29.1042" fill="none" stroke-opacity="1" stroke-linejoin="bevel" stroke="#000000" font-family="MS Shell Dlg 2" font-style="normal" font-weight="400">
    <path vector-effect="none" d="M-430.016,-30.0188 L550.597,-30.0188" fill-rule="evenodd"/>
   </g>
  </g>
 </g>
</svg>
