<?xml version='1.0' encoding='UTF-8' standalone='no'?>
<svg width="297mm" height="210mm" xmlns:xlink="http://www.w3.org/1999/xlink" baseProfile="tiny" xmlns:svg="http://www.w3.org/2000/svg" version="1.2" xmlns:cc="http://creativecommons.org/ns#" xmlns:sodipodi="http://sodipodi.sourceforge.net/DTD/sodipodi-0.dtd" xmlns:dc="http://purl.org/dc/elements/1.1/" xmlns:rdf="http://www.w3.org/1999/02/22-rdf-syntax-ns#" xmlns:freecad="http://www.freecadweb.org/wiki/index.php?title=Svg_Namespace" xmlns:inkscape="http://www.inkscape.org/namespaces/inkscape" xmlns="http://www.w3.org/2000/svg" viewBox="0 0 5000 3000">
 <title>FreeCAD SVG Export</title>
 <desc>Drawing page: Page exported from FreeCAD document: Unnamed</desc>
 <defs/>
 <g inkscape:groupmode="layer" id="Page" inkscape:label="TechDraw">
  <g stroke-width="1" stroke-linecap="square" fill="none" stroke-linejoin="bevel" id="DrawingContent" stroke="black" fill-rule="evenodd">
   <g stroke-width="1" transform="matrix(1,0,0,1,1485,1050)" stroke-linecap="square" font-size="29.1042" fill="none" stroke-opacity="1" stroke-linejoin="bevel" stroke="#000000" font-family="MS Shell Dlg 2" font-style="normal" font-weight="400">
    <rect x="0" width="0" height="0" y="0"/>
   </g>
   <g transform="matrix(1,0,0,1,1485,1050)" font-size="29.1042" fill="#ffffff" stroke="none" font-family="MS Shell Dlg 2" font-style="normal" fill-opacity="1" font-weight="400">
    <path vector-effect="non-scaling-stroke" d="M183.147,0 C183.147,100.854 101.389,182.611 0.535238,182.611 C-100.318,182.611 -182.076,100.854 -182.076,0 C-182.076,-100.854 -100.318,-182.611 0.535238,-182.611 C101.389,-182.611 183.147,-100.854 183.147,0 " fill-rule="evenodd"/>
   </g>
   <g transform="matrix(1,0,0,1,1485,1050)" font-size="29.1042" fill="#ffffff" stroke="none" font-family="MS Shell Dlg 2" font-style="normal" fill-opacity="1" font-weight="400">
    <path vector-effect="non-scaling-stroke" d="M172.405,0 C172.405,94.921 95.4562,171.87 0.535238,171.87 C-94.3857,171.87 -171.334,94.921 -171.334,0 C-171.334,-94.921 -94.3857,-171.87 0.535238,-171.87 C95.4562,-171.87 172.405,-94.921 172.405,0 " fill-rule="evenodd"/>
   </g>
   <g transform="matrix(1,0,0,1,1485,1050)" font-size="29.1042" fill="#ffffff" stroke="none" font-family="MS Shell Dlg 2" font-style="normal" fill-opacity="1" font-weight="400">
    <path vector-effect="non-scaling-stroke" d="M161.663,0 C161.663,88.9884 89.5236,161.128 0.535238,161.128 C-88.4532,161.128 -160.593,88.9884 -160.593,0 C-160.593,-88.9884 -88.4532,-161.128 0.535238,-161.128 C89.5236,-161.128 161.663,-88.9884 161.663,0 " fill-rule="evenodd"/>
   </g>
   <g stroke-width="1.3" transform="matrix(1,0,0,1,1485,1050)" stroke-dashoffset="0" stroke-linecap="round" font-size="29.1042" fill="none" stroke-opacity="1" stroke-linejoin="bevel" stroke="#000000" stroke-dasharray="5.2,2.6" font-family="MS Shell Dlg 2" font-style="normal" font-weight="400">
    <path vector-effect="none" d="M183.147,0 C183.147,100.854 101.389,182.611 0.535238,182.611 C-100.318,182.611 -182.076,100.854 -182.076,0 C-182.076,-100.854 -100.318,-182.611 0.535238,-182.611 C101.389,-182.611 183.147,-100.854 183.147,0 " fill-rule="evenodd"/>
   </g>
   <g stroke-width="1.3" transform="matrix(1,0,0,1,1485,1050)" stroke-dashoffset="0" stroke-linecap="round" font-size="29.1042" fill="none" stroke-opacity="1" stroke-linejoin="bevel" stroke="#000000" stroke-dasharray="5.2,2.6" font-family="MS Shell Dlg 2" font-style="normal" font-weight="400">
    <path vector-effect="none" d="M172.405,0 C172.405,94.921 95.4562,171.87 0.535238,171.87 C-94.3857,171.87 -171.334,94.921 -171.334,0 C-171.334,-94.921 -94.3857,-171.87 0.535238,-171.87 C95.4562,-171.87 172.405,-94.921 172.405,0 " fill-rule="evenodd"/>
   </g>
   <g stroke-width="1.3" transform="matrix(1,0,0,1,1485,1050)" stroke-dashoffset="0" stroke-linecap="round" font-size="29.1042" fill="none" stroke-opacity="1" stroke-linejoin="bevel" stroke="#000000" stroke-dasharray="5.2,2.6" font-family="MS Shell Dlg 2" font-style="normal" font-weight="400">
    <path vector-effect="none" d="M172.405,0 C172.405,94.921 95.4562,171.87 0.535238,171.87 C-94.3857,171.87 -171.334,94.921 -171.334,0 C-171.334,-94.921 -94.3857,-171.87 0.535238,-171.87 C95.4562,-171.87 172.405,-94.921 172.405,0 " fill-rule="evenodd"/>
   </g>
   <g stroke-width="1.3" transform="matrix(1,0,0,1,1485,1050)" stroke-dashoffset="0" stroke-linecap="round" font-size="29.1042" fill="none" stroke-opacity="1" stroke-linejoin="bevel" stroke="#000000" stroke-dasharray="5.2,2.6" font-family="MS Shell Dlg 2" font-style="normal" font-weight="400">
    <path vector-effect="none" d="M183.147,0 C183.147,100.854 101.389,182.611 0.535238,182.611 C-100.318,182.611 -182.076,100.854 -182.076,0 C-182.076,-100.854 -100.318,-182.611 0.535238,-182.611 C101.389,-182.611 183.147,-100.854 183.147,0 " fill-rule="evenodd"/>
   </g>
   <g stroke-width="1.3" transform="matrix(1,0,0,1,1485,1050)" stroke-dashoffset="0" stroke-linecap="round" font-size="29.1042" fill="none" stroke-opacity="1" stroke-linejoin="bevel" stroke="#000000" stroke-dasharray="5.2,2.6" font-family="MS Shell Dlg 2" font-style="normal" font-weight="400">
    <path vector-effect="none" d="M183.147,0 C183.147,100.854 101.389,182.611 0.535238,182.611 C-100.318,182.611 -182.076,100.854 -182.076,0 C-182.076,-100.854 -100.318,-182.611 0.535238,-182.611 C101.389,-182.611 183.147,-100.854 183.147,0 " fill-rule="evenodd"/>
   </g>
   <g stroke-width="1.3" transform="matrix(1,0,0,1,1485,1050)" stroke-dashoffset="0" stroke-linecap="round" font-size="29.1042" fill="none" stroke-opacity="1" stroke-linejoin="bevel" stroke="#000000" stroke-dasharray="5.2,2.6" font-family="MS Shell Dlg 2" font-style="normal" font-weight="400">
    <path vector-effect="none" d="M172.405,0 C172.405,94.921 95.4562,171.87 0.535238,171.87 C-94.3857,171.87 -171.334,94.921 -171.334,0 C-171.334,-94.921 -94.3857,-171.87 0.535238,-171.87 C95.4562,-171.87 172.405,-94.921 172.405,0 " fill-rule="evenodd"/>
   </g>
   <g stroke-width="1.3" transform="matrix(1,0,0,1,1485,1050)" stroke-dashoffset="0" stroke-linecap="round" font-size="29.1042" fill="none" stroke-opacity="1" stroke-linejoin="bevel" stroke="#000000" stroke-dasharray="5.2,2.6" font-family="MS Shell Dlg 2" font-style="normal" font-weight="400">
    <path vector-effect="none" d="M161.663,0 C161.663,88.9884 89.5236,161.128 0.535238,161.128 C-88.4532,161.128 -160.593,88.9884 -160.593,0 C-160.593,-88.9884 -88.4532,-161.128 0.535238,-161.128 C89.5236,-161.128 161.663,-88.9884 161.663,0 " fill-rule="evenodd"/>
   </g>
   <g stroke-width="2.5" transform="matrix(1,0,0,1,1485,1050)" stroke-linecap="round" font-size="29.1042" fill="none" stroke-opacity="1" stroke-linejoin="bevel" stroke="#000000" font-family="MS Shell Dlg 2" font-style="normal" font-weight="400">
    <path vector-effect="none" d="M183.147,0 C183.147,100.854 101.389,182.611 0.535238,182.611 C-100.318,182.611 -182.076,100.854 -182.076,0 C-182.076,-100.854 -100.318,-182.611 0.535238,-182.611 C101.389,-182.611 183.147,-100.854 183.147,0 " fill-rule="evenodd"/>
   </g>
   <g stroke-width="2.5" transform="matrix(1,0,0,1,1485,1050)" stroke-linecap="round" font-size="29.1042" fill="none" stroke-opacity="1" stroke-linejoin="bevel" stroke="#000000" font-family="MS Shell Dlg 2" font-style="normal" font-weight="400">
    <path vector-effect="none" d="M172.405,0 C172.405,94.921 95.4562,171.87 0.535238,171.87 C-94.3857,171.87 -171.334,94.921 -171.334,0 C-171.334,-94.921 -94.3857,-171.87 0.535238,-171.87 C95.4562,-171.87 172.405,-94.921 172.405,0 " fill-rule="evenodd"/>
   </g>
   <g stroke-width="2.5" transform="matrix(1,0,0,1,1485,1050)" stroke-linecap="round" font-size="29.1042" fill="none" stroke-opacity="1" stroke-linejoin="bevel" stroke="#000000" font-family="MS Shell Dlg 2" font-style="normal" font-weight="400">
    <path vector-effect="none" d="M161.663,0 C161.663,88.9884 89.5236,161.128 0.535238,161.128 C-88.4532,161.128 -160.593,88.9884 -160.593,0 C-160.593,-88.9884 -88.4532,-161.128 0.535238,-161.128 C89.5236,-161.128 161.663,-88.9884 161.663,0 " fill-rule="evenodd"/>
   </g>
   <g transform="matrix(1,0,0,1,1485,282.344)" font-size="29.1042" fill="#ffffff" stroke="none" font-family="MS Shell Dlg 2" font-style="normal" fill-opacity="1" font-weight="400">
    <path vector-effect="non-scaling-stroke" d="M183.147,298.086 L183.147,308.828 L-182.076,308.828 L-182.076,298.086 L-177.498,298.086 L-171.334,298.086 L-171.334,292.715 L-177.498,292.715 L-182.076,292.715 L-182.076,281.974 L-177.498,281.974 L-171.334,281.974 L-171.334,-308.828 L172.405,-308.828 L172.405,281.974 L178.568,281.974 L183.147,281.974 L183.147,292.715 L178.568,292.715 L172.405,292.715 L172.405,298.086 L178.568,298.086 L183.147,298.086" fill-rule="evenodd"/>
   </g>
   <g transform="matrix(1,0,0,1,1485,282.344)" font-size="29.1042" fill="#ffffff" stroke="none" font-family="MS Shell Dlg 2" font-style="normal" fill-opacity="1" font-weight="400">
    <path vector-effect="non-scaling-stroke" d="M172.405,-308.828 L172.405,281.974 L165.062,281.974 L143.307,281.974 L114.392,281.974 L79.7674,281.974 L41.1701,281.974 L0.535238,281.974 L-40.0996,281.974 L-78.6969,281.974 L-113.321,281.974 L-142.236,281.974 L-163.992,281.974 L-171.334,281.974 L-171.334,-308.828 L172.405,-308.828" fill-rule="evenodd"/>
   </g>
   <g transform="matrix(1,0,0,1,1485,282.344)" font-size="29.1042" fill="#ffffff" stroke="none" font-family="MS Shell Dlg 2" font-style="normal" fill-opacity="1" font-weight="400">
    <path vector-effect="non-scaling-stroke" d="M183.147,281.974 L183.147,292.715 L178.568,292.715 L172.405,292.715 L165.062,292.715 L143.307,292.715 L114.392,292.715 L79.7674,292.715 L41.1701,292.715 L0.535238,292.715 L-40.0996,292.715 L-78.6969,292.715 L-113.321,292.715 L-142.236,292.715 L-163.992,292.715 L-171.334,292.715 L-177.498,292.715 L-182.076,292.715 L-182.076,281.974 L-177.498,281.974 L-171.334,281.974 L-163.992,281.974 L-142.236,281.974 L-113.321,281.974 L-78.6969,281.974 L-40.0996,281.974 L0.535238,281.974 L41.1701,281.974 L79.7674,281.974 L114.392,281.974 L143.307,281.974 L165.062,281.974 L172.405,281.974 L178.568,281.974 L183.147,281.974" fill-rule="evenodd"/>
   </g>
   <g transform="matrix(1,0,0,1,1485,282.344)" font-size="29.1042" fill="#ffffff" stroke="none" font-family="MS Shell Dlg 2" font-style="normal" fill-opacity="1" font-weight="400">
    <path vector-effect="non-scaling-stroke" d="M183.147,298.086 L183.147,308.828 L-182.076,308.828 L-182.076,298.086 L-177.498,298.086 L-171.334,298.086 L-163.992,298.086 L-142.236,298.086 L-113.321,298.086 L-78.6969,298.086 L-40.0996,298.086 L0.535238,298.086 L41.1701,298.086 L79.7674,298.086 L114.392,298.086 L143.307,298.086 L165.062,298.086 L172.405,298.086 L178.568,298.086 L183.147,298.086" fill-rule="evenodd"/>
   </g>
   <g transform="matrix(1,0,0,1,1485,282.344)" font-size="29.1042" fill="#ffffff" stroke="none" font-family="MS Shell Dlg 2" font-style="normal" fill-opacity="1" font-weight="400">
    <path vector-effect="non-scaling-stroke" d="M-171.334,292.715 L-163.992,292.715 L-142.236,292.715 L-113.321,292.715 L-78.6969,292.715 L-40.0996,292.715 L0.535238,292.715 L41.1701,292.715 L79.7674,292.715 L114.392,292.715 L143.307,292.715 L165.062,292.715 L172.405,292.715 L172.405,298.086 L165.062,298.086 L143.307,298.086 L114.392,298.086 L79.7674,298.086 L41.1701,298.086 L0.535238,298.086 L-40.0996,298.086 L-78.6969,298.086 L-113.321,298.086 L-142.236,298.086 L-163.992,298.086 L-171.334,298.086 L-171.334,292.715" fill-rule="evenodd"/>
   </g>
   <g stroke-width="1.3" transform="matrix(1,0,0,1,1485,282.344)" stroke-dashoffset="0" stroke-linecap="round" font-size="29.1042" fill="none" stroke-opacity="1" stroke-linejoin="bevel" stroke="#000000" stroke-dasharray="5.2,2.6" font-family="MS Shell Dlg 2" font-style="normal" font-weight="400">
    <path vector-effect="none" d="M183.147,292.715 L-182.076,292.715" fill-rule="evenodd"/>
   </g>
   <g stroke-width="1.3" transform="matrix(1,0,0,1,1485,282.344)" stroke-dashoffset="0" stroke-linecap="round" font-size="29.1042" fill="none" stroke-opacity="1" stroke-linejoin="bevel" stroke="#000000" stroke-dasharray="5.2,2.6" font-family="MS Shell Dlg 2" font-style="normal" font-weight="400">
    <path vector-effect="none" d="M-171.334,292.715 L172.405,292.715" fill-rule="evenodd"/>
   </g>
   <g stroke-width="1.3" transform="matrix(1,0,0,1,1485,282.344)" stroke-dashoffset="0" stroke-linecap="round" font-size="29.1042" fill="none" stroke-opacity="1" stroke-linejoin="bevel" stroke="#000000" stroke-dasharray="5.2,2.6" font-family="MS Shell Dlg 2" font-style="normal" font-weight="400">
    <path vector-effect="none" d="M172.405,292.715 L-171.334,292.715" fill-rule="evenodd"/>
   </g>
   <g stroke-width="1.3" transform="matrix(1,0,0,1,1485,282.344)" stroke-dashoffset="0" stroke-linecap="round" font-size="29.1042" fill="none" stroke-opacity="1" stroke-linejoin="bevel" stroke="#000000" stroke-dasharray="5.2,2.6" font-family="MS Shell Dlg 2" font-style="normal" font-weight="400">
    <path vector-effect="none" d="M-171.334,298.086 L172.405,298.086" fill-rule="evenodd"/>
   </g>
   <g stroke-width="1.3" transform="matrix(1,0,0,1,1485,282.344)" stroke-dashoffset="0" stroke-linecap="round" font-size="29.1042" fill="none" stroke-opacity="1" stroke-linejoin="bevel" stroke="#000000" stroke-dasharray="5.2,2.6" font-family="MS Shell Dlg 2" font-style="normal" font-weight="400">
    <path vector-effect="none" d="M172.405,298.086 L-171.334,298.086" fill-rule="evenodd"/>
   </g>
   <g stroke-width="1.3" transform="matrix(1,0,0,1,1485,282.344)" stroke-dashoffset="0" stroke-linecap="round" font-size="29.1042" fill="none" stroke-opacity="1" stroke-linejoin="bevel" stroke="#000000" stroke-dasharray="5.2,2.6" font-family="MS Shell Dlg 2" font-style="normal" font-weight="400">
    <path vector-effect="none" d="M-182.076,298.086 L183.147,298.086" fill-rule="evenodd"/>
   </g>
   <g stroke-width="1.3" transform="matrix(1,0,0,1,1485,282.344)" stroke-dashoffset="0" stroke-linecap="round" font-size="29.1042" fill="none" stroke-opacity="1" stroke-linejoin="bevel" stroke="#000000" stroke-dasharray="5.2,2.6" font-family="MS Shell Dlg 2" font-style="normal" font-weight="400">
    <path vector-effect="none" d="M-182.076,308.828 L183.147,308.828" fill-rule="evenodd"/>
   </g>
   <g stroke-width="1.3" transform="matrix(1,0,0,1,1485,282.344)" stroke-dashoffset="0" stroke-linecap="round" font-size="29.1042" fill="none" stroke-opacity="1" stroke-linejoin="bevel" stroke="#000000" stroke-dasharray="5.2,2.6" font-family="MS Shell Dlg 2" font-style="normal" font-weight="400">
    <path vector-effect="none" d="M-182.076,281.974 L183.147,281.974" fill-rule="evenodd"/>
   </g>
   <g stroke-width="1.3" transform="matrix(1,0,0,1,1485,282.344)" stroke-dashoffset="0" stroke-linecap="round" font-size="29.1042" fill="none" stroke-opacity="1" stroke-linejoin="bevel" stroke="#000000" stroke-dasharray="5.2,2.6" font-family="MS Shell Dlg 2" font-style="normal" font-weight="400">
    <path vector-effect="none" d="M-171.334,281.974 L172.405,281.974" fill-rule="evenodd"/>
   </g>
   <g stroke-width="1.3" transform="matrix(1,0,0,1,1485,282.344)" stroke-dashoffset="0" stroke-linecap="round" font-size="29.1042" fill="none" stroke-opacity="1" stroke-linejoin="bevel" stroke="#000000" stroke-dasharray="5.2,2.6" font-family="MS Shell Dlg 2" font-style="normal" font-weight="400">
    <path vector-effect="none" d="M172.405,281.974 L-171.334,281.974" fill-rule="evenodd"/>
   </g>
   <g stroke-width="1.3" transform="matrix(1,0,0,1,1485,282.344)" stroke-dashoffset="0" stroke-linecap="round" font-size="29.1042" fill="none" stroke-opacity="1" stroke-linejoin="bevel" stroke="#000000" stroke-dasharray="5.2,2.6" font-family="MS Shell Dlg 2" font-style="normal" font-weight="400">
    <path vector-effect="none" d="M172.405,-308.828 L-171.334,-308.828" fill-rule="evenodd"/>
   </g>
   <g stroke-width="1.3" transform="matrix(1,0,0,1,1485,282.344)" stroke-dashoffset="0" stroke-linecap="round" font-size="29.1042" fill="none" stroke-opacity="1" stroke-linejoin="bevel" stroke="#000000" stroke-dasharray="5.2,2.6" font-family="MS Shell Dlg 2" font-style="normal" font-weight="400">
    <path vector-effect="none" d="M-160.593,-308.828 L161.663,-308.828" fill-rule="evenodd"/>
   </g>
   <g stroke-width="1.3" transform="matrix(1,0,0,1,1485,282.344)" stroke-dashoffset="0" stroke-linecap="round" font-size="29.1042" fill="none" stroke-opacity="1" stroke-linejoin="bevel" stroke="#000000" stroke-dasharray="5.2,2.6" font-family="MS Shell Dlg 2" font-style="normal" font-weight="400">
    <path vector-effect="none" d="M161.663,-308.828 L-160.593,-308.828" fill-rule="evenodd"/>
   </g>
   <g stroke-width="1.3" transform="matrix(1,0,0,1,1485,282.344)" stroke-dashoffset="0" stroke-linecap="round" font-size="29.1042" fill="none" stroke-opacity="1" stroke-linejoin="bevel" stroke="#000000" stroke-dasharray="5.2,2.6" font-family="MS Shell Dlg 2" font-style="normal" font-weight="400">
    <path vector-effect="none" d="M-160.593,308.828 L-160.593,-308.828" fill-rule="evenodd"/>
   </g>
   <g stroke-width="1.3" transform="matrix(1,0,0,1,1485,282.344)" stroke-dashoffset="0" stroke-linecap="round" font-size="29.1042" fill="none" stroke-opacity="1" stroke-linejoin="bevel" stroke="#000000" stroke-dasharray="5.2,2.6" font-family="MS Shell Dlg 2" font-style="normal" font-weight="400">
    <path vector-effect="none" d="M-160.593,308.828 L161.663,308.828" fill-rule="evenodd"/>
   </g>
   <g stroke-width="1.3" transform="matrix(1,0,0,1,1485,282.344)" stroke-dashoffset="0" stroke-linecap="round" font-size="29.1042" fill="none" stroke-opacity="1" stroke-linejoin="bevel" stroke="#000000" stroke-dasharray="5.2,2.6" font-family="MS Shell Dlg 2" font-style="normal" font-weight="400">
    <path vector-effect="none" d="M161.663,308.828 L-160.593,308.828" fill-rule="evenodd"/>
   </g>
   <g stroke-width="1.3" transform="matrix(1,0,0,1,1485,282.344)" stroke-dashoffset="0" stroke-linecap="round" font-size="29.1042" fill="none" stroke-opacity="1" stroke-linejoin="bevel" stroke="#000000" stroke-dasharray="5.2,2.6" font-family="MS Shell Dlg 2" font-style="normal" font-weight="400">
    <path vector-effect="none" d="M161.663,-308.828 L161.663,308.828" fill-rule="evenodd"/>
   </g>
   <g stroke-width="2.5" transform="matrix(1,0,0,1,1485,282.344)" stroke-linecap="round" font-size="29.1042" fill="none" stroke-opacity="1" stroke-linejoin="bevel" stroke="#000000" font-family="MS Shell Dlg 2" font-style="normal" font-weight="400">
    <path vector-effect="none" d="M-182.076,292.715 L183.147,292.715" fill-rule="evenodd"/>
   </g>
   <g stroke-width="2.5" transform="matrix(1,0,0,1,1485,282.344)" stroke-linecap="round" font-size="29.1042" fill="none" stroke-opacity="1" stroke-linejoin="bevel" stroke="#000000" font-family="MS Shell Dlg 2" font-style="normal" font-weight="400">
    <path vector-effect="none" d="M-171.334,292.715 L-171.334,298.086" fill-rule="evenodd"/>
   </g>
   <g stroke-width="2.5" transform="matrix(1,0,0,1,1485,282.344)" stroke-linecap="round" font-size="29.1042" fill="none" stroke-opacity="1" stroke-linejoin="bevel" stroke="#000000" font-family="MS Shell Dlg 2" font-style="normal" font-weight="400">
    <path vector-effect="none" d="M183.147,298.086 L-182.076,298.086" fill-rule="evenodd"/>
   </g>
   <g stroke-width="2.5" transform="matrix(1,0,0,1,1485,282.344)" stroke-linecap="round" font-size="29.1042" fill="none" stroke-opacity="1" stroke-linejoin="bevel" stroke="#000000" font-family="MS Shell Dlg 2" font-style="normal" font-weight="400">
    <path vector-effect="none" d="M183.147,308.828 L-182.076,308.828" fill-rule="evenodd"/>
   </g>
   <g stroke-width="2.5" transform="matrix(1,0,0,1,1485,282.344)" stroke-linecap="round" font-size="29.1042" fill="none" stroke-opacity="1" stroke-linejoin="bevel" stroke="#000000" font-family="MS Shell Dlg 2" font-style="normal" font-weight="400">
    <path vector-effect="none" d="M-182.076,308.828 L-182.076,298.086" fill-rule="evenodd"/>
   </g>
   <g stroke-width="2.5" transform="matrix(1,0,0,1,1485,282.344)" stroke-linecap="round" font-size="29.1042" fill="none" stroke-opacity="1" stroke-linejoin="bevel" stroke="#000000" font-family="MS Shell Dlg 2" font-style="normal" font-weight="400">
    <path vector-effect="none" d="M183.147,281.974 L-182.076,281.974" fill-rule="evenodd"/>
   </g>
   <g stroke-width="2.5" transform="matrix(1,0,0,1,1485,282.344)" stroke-linecap="round" font-size="29.1042" fill="none" stroke-opacity="1" stroke-linejoin="bevel" stroke="#000000" font-family="MS Shell Dlg 2" font-style="normal" font-weight="400">
    <path vector-effect="none" d="M-182.076,292.715 L-182.076,281.974" fill-rule="evenodd"/>
   </g>
   <g stroke-width="2.5" transform="matrix(1,0,0,1,1485,282.344)" stroke-linecap="round" font-size="29.1042" fill="none" stroke-opacity="1" stroke-linejoin="bevel" stroke="#000000" font-family="MS Shell Dlg 2" font-style="normal" font-weight="400">
    <path vector-effect="none" d="M-171.334,-308.828 L172.405,-308.828" fill-rule="evenodd"/>
   </g>
   <g stroke-width="2.5" transform="matrix(1,0,0,1,1485,282.344)" stroke-linecap="round" font-size="29.1042" fill="none" stroke-opacity="1" stroke-linejoin="bevel" stroke="#000000" font-family="MS Shell Dlg 2" font-style="normal" font-weight="400">
    <path vector-effect="none" d="M-171.334,281.974 L-171.334,-308.828" fill-rule="evenodd"/>
   </g>
   <g stroke-width="2.5" transform="matrix(1,0,0,1,1485,282.344)" stroke-linecap="round" font-size="29.1042" fill="none" stroke-opacity="1" stroke-linejoin="bevel" stroke="#000000" font-family="MS Shell Dlg 2" font-style="normal" font-weight="400">
    <path vector-effect="none" d="M172.405,292.715 L172.405,298.086" fill-rule="evenodd"/>
   </g>
   <g stroke-width="2.5" transform="matrix(1,0,0,1,1485,282.344)" stroke-linecap="round" font-size="29.1042" fill="none" stroke-opacity="1" stroke-linejoin="bevel" stroke="#000000" font-family="MS Shell Dlg 2" font-style="normal" font-weight="400">
    <path vector-effect="none" d="M183.147,298.086 L183.147,308.828" fill-rule="evenodd"/>
   </g>
   <g stroke-width="2.5" transform="matrix(1,0,0,1,1485,282.344)" stroke-linecap="round" font-size="29.1042" fill="none" stroke-opacity="1" stroke-linejoin="bevel" stroke="#000000" font-family="MS Shell Dlg 2" font-style="normal" font-weight="400">
    <path vector-effect="none" d="M183.147,281.974 L183.147,292.715" fill-rule="evenodd"/>
   </g>
   <g stroke-width="2.5" transform="matrix(1,0,0,1,1485,282.344)" stroke-linecap="round" font-size="29.1042" fill="none" stroke-opacity="1" stroke-linejoin="bevel" stroke="#000000" font-family="MS Shell Dlg 2" font-style="normal" font-weight="400">
    <path vector-effect="none" d="M172.405,-308.828 L172.405,281.974" fill-rule="evenodd"/>
   </g>
   <g transform="matrix(1,0,0,1,2253.19,1050)" font-size="29.1042" fill="#ffffff" stroke="none" font-family="MS Shell Dlg 2" font-style="normal" fill-opacity="1" font-weight="400">
    <path vector-effect="non-scaling-stroke" d="M308.828,-171.87 L308.828,0 L308.828,171.87 L-281.974,171.87 L-281.974,172.364 L-281.974,178.033 L-281.974,181.463 L-281.974,182.611 L-292.715,182.611 L-292.715,181.463 L-292.715,178.033 L-292.715,172.364 L-292.715,171.87 L-298.086,171.87 L-298.086,172.364 L-298.086,178.033 L-298.086,181.463 L-298.086,182.611 L-308.828,182.611 L-308.828,0 L-308.828,-182.611 L-298.086,-182.611 L-298.086,-181.463 L-298.086,-178.033 L-298.086,-172.364 L-298.086,-171.87 L-292.715,-171.87 L-292.715,-172.364 L-292.715,-178.033 L-292.715,-181.463 L-292.715,-182.611 L-281.974,-182.611 L-281.974,-181.463 L-281.974,-178.033 L-281.974,-172.364 L-281.974,-171.87 L308.828,-171.87" fill-rule="evenodd"/>
   </g>
   <g transform="matrix(1,0,0,1,2253.19,1050)" font-size="29.1042" fill="#ffffff" stroke="none" font-family="MS Shell Dlg 2" font-style="normal" fill-opacity="1" font-weight="400">
    <path vector-effect="non-scaling-stroke" d="M308.828,-171.87 L308.828,0 L308.828,171.87 L-281.974,171.87 L-281.974,164.527 L-281.974,154.622 L-281.974,142.771 L-281.974,129.126 L-281.974,113.856 L-281.974,97.1551 L-281.974,79.2321 L-281.974,60.3127 L-281.974,40.6349 L-281.974,20.446 L-281.974,0 L-281.974,-20.446 L-281.974,-40.6349 L-281.974,-60.3127 L-281.974,-79.2321 L-281.974,-97.1551 L-281.974,-113.856 L-281.974,-129.126 L-281.974,-142.771 L-281.974,-154.622 L-281.974,-164.527 L-281.974,-171.87 L308.828,-171.87" fill-rule="evenodd"/>
   </g>
   <g transform="matrix(1,0,0,1,2253.19,1050)" font-size="29.1042" fill="#ffffff" stroke="none" font-family="MS Shell Dlg 2" font-style="normal" fill-opacity="1" font-weight="400">
    <path vector-effect="non-scaling-stroke" d="M-298.086,182.611 L-298.086,181.463 L-298.086,178.033 L-298.086,172.364 L-298.086,171.87 L-298.086,164.527 L-298.086,154.622 L-298.086,142.771 L-298.086,129.126 L-298.086,113.856 L-298.086,97.1551 L-298.086,79.2321 L-298.086,60.3127 L-298.086,40.6349 L-298.086,20.446 L-298.086,0 L-298.086,-20.446 L-298.086,-40.6349 L-298.086,-60.3127 L-298.086,-79.2321 L-298.086,-97.1551 L-298.086,-113.856 L-298.086,-129.126 L-298.086,-142.771 L-298.086,-154.622 L-298.086,-164.527 L-298.086,-171.87 L-298.086,-172.364 L-298.086,-178.033 L-298.086,-181.463 L-298.086,-182.611 L-308.828,-182.611 L-308.828,0 L-308.828,182.611 L-298.086,182.611" fill-rule="evenodd"/>
   </g>
   <g transform="matrix(1,0,0,1,2253.19,1050)" font-size="29.1042" fill="#ffffff" stroke="none" font-family="MS Shell Dlg 2" font-style="normal" fill-opacity="1" font-weight="400">
    <path vector-effect="non-scaling-stroke" d="M-281.974,182.611 L-281.974,181.463 L-281.974,178.033 L-281.974,172.364 L-281.974,171.87 L-281.974,164.527 L-281.974,154.622 L-281.974,142.771 L-281.974,129.126 L-281.974,113.856 L-281.974,97.1551 L-281.974,79.2321 L-281.974,60.3127 L-281.974,40.6349 L-281.974,20.446 L-281.974,0 L-281.974,-20.446 L-281.974,-40.6349 L-281.974,-60.3127 L-281.974,-79.2321 L-281.974,-97.1551 L-281.974,-113.856 L-281.974,-129.126 L-281.974,-142.771 L-281.974,-154.622 L-281.974,-164.527 L-281.974,-171.87 L-281.974,-172.364 L-281.974,-178.033 L-281.974,-181.463 L-281.974,-182.611 L-292.715,-182.611 L-292.715,-181.463 L-292.715,-178.033 L-292.715,-172.364 L-292.715,-171.87 L-292.715,-164.527 L-292.715,-154.622 L-292.715,-142.771 L-292.715,-129.126 L-292.715,-113.856 L-292.715,-97.1551 L-292.715,-79.2321 L-292.715,-60.3127 L-292.715,-40.6349 L-292.715,-20.446 L-292.715,0 L-292.715,20.446 L-292.715,40.6349 L-292.715,60.3127 L-292.715,79.2321 L-292.715,97.1551 L-292.715,113.856 L-292.715,129.126 L-292.715,142.771 L-292.715,154.622 L-292.715,164.527 L-292.715,171.87 L-292.715,172.364 L-292.715,178.033 L-292.715,181.463 L-292.715,182.611 L-281.974,182.611" fill-rule="evenodd"/>
   </g>
   <g transform="matrix(1,0,0,1,2253.19,1050)" font-size="29.1042" fill="#ffffff" stroke="none" font-family="MS Shell Dlg 2" font-style="normal" fill-opacity="1" font-weight="400">
    <path vector-effect="non-scaling-stroke" d="M-292.715,-171.87 L-292.715,-164.527 L-292.715,-154.622 L-292.715,-142.771 L-292.715,-129.126 L-292.715,-113.856 L-292.715,-97.1551 L-292.715,-79.2321 L-292.715,-60.3127 L-292.715,-40.6349 L-292.715,-20.446 L-292.715,0 L-292.715,20.446 L-292.715,40.6349 L-292.715,60.3127 L-292.715,79.2321 L-292.715,97.1551 L-292.715,113.856 L-292.715,129.126 L-292.715,142.771 L-292.715,154.622 L-292.715,164.527 L-292.715,171.87 L-298.086,171.87 L-298.086,164.527 L-298.086,154.622 L-298.086,142.771 L-298.086,129.126 L-298.086,113.856 L-298.086,97.1551 L-298.086,79.2321 L-298.086,60.3127 L-298.086,40.6349 L-298.086,20.446 L-298.086,0 L-298.086,-20.446 L-298.086,-40.6349 L-298.086,-60.3127 L-298.086,-79.2321 L-298.086,-97.1551 L-298.086,-113.856 L-298.086,-129.126 L-298.086,-142.771 L-298.086,-154.622 L-298.086,-164.527 L-298.086,-171.87 L-292.715,-171.87" fill-rule="evenodd"/>
   </g>
   <g stroke-width="1.3" transform="matrix(1,0,0,1,2253.19,1050)" stroke-dashoffset="0" stroke-linecap="round" font-size="29.1042" fill="none" stroke-opacity="1" stroke-linejoin="bevel" stroke="#000000" stroke-dasharray="5.2,2.6" font-family="MS Shell Dlg 2" font-style="normal" font-weight="400">
    <path vector-effect="none" d="M-292.715,182.611 L-292.715,-182.611" fill-rule="evenodd"/>
   </g>
   <g stroke-width="1.3" transform="matrix(1,0,0,1,2253.19,1050)" stroke-dashoffset="0" stroke-linecap="round" font-size="29.1042" fill="none" stroke-opacity="1" stroke-linejoin="bevel" stroke="#000000" stroke-dasharray="5.2,2.6" font-family="MS Shell Dlg 2" font-style="normal" font-weight="400">
    <path vector-effect="none" d="M-292.715,0 L-292.715,171.87" fill-rule="evenodd"/>
   </g>
   <g stroke-width="1.3" transform="matrix(1,0,0,1,2253.19,1050)" stroke-dashoffset="0" stroke-linecap="round" font-size="29.1042" fill="none" stroke-opacity="1" stroke-linejoin="bevel" stroke="#000000" stroke-dasharray="5.2,2.6" font-family="MS Shell Dlg 2" font-style="normal" font-weight="400">
    <path vector-effect="none" d="M-292.715,171.87 L-292.715,-171.87" fill-rule="evenodd"/>
   </g>
   <g stroke-width="1.3" transform="matrix(1,0,0,1,2253.19,1050)" stroke-dashoffset="0" stroke-linecap="round" font-size="29.1042" fill="none" stroke-opacity="1" stroke-linejoin="bevel" stroke="#000000" stroke-dasharray="5.2,2.6" font-family="MS Shell Dlg 2" font-style="normal" font-weight="400">
    <path vector-effect="none" d="M-292.715,-171.87 L-292.715,0" fill-rule="evenodd"/>
   </g>
   <g stroke-width="1.3" transform="matrix(1,0,0,1,2253.19,1050)" stroke-dashoffset="0" stroke-linecap="round" font-size="29.1042" fill="none" stroke-opacity="1" stroke-linejoin="bevel" stroke="#000000" stroke-dasharray="5.2,2.6" font-family="MS Shell Dlg 2" font-style="normal" font-weight="400">
    <path vector-effect="none" d="M-298.086,0 L-298.086,171.87" fill-rule="evenodd"/>
   </g>
   <g stroke-width="1.3" transform="matrix(1,0,0,1,2253.19,1050)" stroke-dashoffset="0" stroke-linecap="round" font-size="29.1042" fill="none" stroke-opacity="1" stroke-linejoin="bevel" stroke="#000000" stroke-dasharray="5.2,2.6" font-family="MS Shell Dlg 2" font-style="normal" font-weight="400">
    <path vector-effect="none" d="M-298.086,171.87 L-298.086,-171.87" fill-rule="evenodd"/>
   </g>
   <g stroke-width="1.3" transform="matrix(1,0,0,1,2253.19,1050)" stroke-dashoffset="0" stroke-linecap="round" font-size="29.1042" fill="none" stroke-opacity="1" stroke-linejoin="bevel" stroke="#000000" stroke-dasharray="5.2,2.6" font-family="MS Shell Dlg 2" font-style="normal" font-weight="400">
    <path vector-effect="none" d="M-298.086,-171.87 L-298.086,0" fill-rule="evenodd"/>
   </g>
   <g stroke-width="1.3" transform="matrix(1,0,0,1,2253.19,1050)" stroke-dashoffset="0" stroke-linecap="round" font-size="29.1042" fill="none" stroke-opacity="1" stroke-linejoin="bevel" stroke="#000000" stroke-dasharray="5.2,2.6" font-family="MS Shell Dlg 2" font-style="normal" font-weight="400">
    <path vector-effect="none" d="M-298.086,-182.611 L-298.086,182.611" fill-rule="evenodd"/>
   </g>
   <g stroke-width="1.3" transform="matrix(1,0,0,1,2253.19,1050)" stroke-dashoffset="0" stroke-linecap="round" font-size="29.1042" fill="none" stroke-opacity="1" stroke-linejoin="bevel" stroke="#000000" stroke-dasharray="5.2,2.6" font-family="MS Shell Dlg 2" font-style="normal" font-weight="400">
    <path vector-effect="none" d="M-308.828,-182.611 L-308.828,182.611" fill-rule="evenodd"/>
   </g>
   <g stroke-width="1.3" transform="matrix(1,0,0,1,2253.19,1050)" stroke-dashoffset="0" stroke-linecap="round" font-size="29.1042" fill="none" stroke-opacity="1" stroke-linejoin="bevel" stroke="#000000" stroke-dasharray="5.2,2.6" font-family="MS Shell Dlg 2" font-style="normal" font-weight="400">
    <path vector-effect="none" d="M-281.974,-182.611 L-281.974,182.611" fill-rule="evenodd"/>
   </g>
   <g stroke-width="1.3" transform="matrix(1,0,0,1,2253.19,1050)" stroke-dashoffset="0" stroke-linecap="round" font-size="29.1042" fill="none" stroke-opacity="1" stroke-linejoin="bevel" stroke="#000000" stroke-dasharray="5.2,2.6" font-family="MS Shell Dlg 2" font-style="normal" font-weight="400">
    <path vector-effect="none" d="M-281.974,0 L-281.974,171.87" fill-rule="evenodd"/>
   </g>
   <g stroke-width="1.3" transform="matrix(1,0,0,1,2253.19,1050)" stroke-dashoffset="0" stroke-linecap="round" font-size="29.1042" fill="none" stroke-opacity="1" stroke-linejoin="bevel" stroke="#000000" stroke-dasharray="5.2,2.6" font-family="MS Shell Dlg 2" font-style="normal" font-weight="400">
    <path vector-effect="none" d="M-281.974,171.87 L-281.974,-171.87" fill-rule="evenodd"/>
   </g>
   <g stroke-width="1.3" transform="matrix(1,0,0,1,2253.19,1050)" stroke-dashoffset="0" stroke-linecap="round" font-size="29.1042" fill="none" stroke-opacity="1" stroke-linejoin="bevel" stroke="#000000" stroke-dasharray="5.2,2.6" font-family="MS Shell Dlg 2" font-style="normal" font-weight="400">
    <path vector-effect="none" d="M-281.974,-171.87 L-281.974,0" fill-rule="evenodd"/>
   </g>
   <g stroke-width="1.3" transform="matrix(1,0,0,1,2253.19,1050)" stroke-dashoffset="0" stroke-linecap="round" font-size="29.1042" fill="none" stroke-opacity="1" stroke-linejoin="bevel" stroke="#000000" stroke-dasharray="5.2,2.6" font-family="MS Shell Dlg 2" font-style="normal" font-weight="400">
    <path vector-effect="none" d="M308.828,171.87 L308.828,-171.87" fill-rule="evenodd"/>
   </g>
   <g stroke-width="1.3" transform="matrix(1,0,0,1,2253.19,1050)" stroke-dashoffset="0" stroke-linecap="round" font-size="29.1042" fill="none" stroke-opacity="1" stroke-linejoin="bevel" stroke="#000000" stroke-dasharray="5.2,2.6" font-family="MS Shell Dlg 2" font-style="normal" font-weight="400">
    <path vector-effect="none" d="M308.828,0 L308.828,-161.128" fill-rule="evenodd"/>
   </g>
   <g stroke-width="1.3" transform="matrix(1,0,0,1,2253.19,1050)" stroke-dashoffset="0" stroke-linecap="round" font-size="29.1042" fill="none" stroke-opacity="1" stroke-linejoin="bevel" stroke="#000000" stroke-dasharray="5.2,2.6" font-family="MS Shell Dlg 2" font-style="normal" font-weight="400">
    <path vector-effect="none" d="M308.828,-161.128 L308.828,161.128" fill-rule="evenodd"/>
   </g>
   <g stroke-width="1.3" transform="matrix(1,0,0,1,2253.19,1050)" stroke-dashoffset="0" stroke-linecap="round" font-size="29.1042" fill="none" stroke-opacity="1" stroke-linejoin="bevel" stroke="#000000" stroke-dasharray="5.2,2.6" font-family="MS Shell Dlg 2" font-style="normal" font-weight="400">
    <path vector-effect="none" d="M308.828,161.128 L308.828,0" fill-rule="evenodd"/>
   </g>
   <g stroke-width="1.3" transform="matrix(1,0,0,1,2253.19,1050)" stroke-dashoffset="0" stroke-linecap="round" font-size="29.1042" fill="none" stroke-opacity="1" stroke-linejoin="bevel" stroke="#000000" stroke-dasharray="5.2,2.6" font-family="MS Shell Dlg 2" font-style="normal" font-weight="400">
    <path vector-effect="none" d="M-308.828,0 L-308.828,161.128" fill-rule="evenodd"/>
   </g>
   <g stroke-width="1.3" transform="matrix(1,0,0,1,2253.19,1050)" stroke-dashoffset="0" stroke-linecap="round" font-size="29.1042" fill="none" stroke-opacity="1" stroke-linejoin="bevel" stroke="#000000" stroke-dasharray="5.2,2.6" font-family="MS Shell Dlg 2" font-style="normal" font-weight="400">
    <path vector-effect="none" d="M-308.828,161.128 L-308.828,-161.128" fill-rule="evenodd"/>
   </g>
   <g stroke-width="1.3" transform="matrix(1,0,0,1,2253.19,1050)" stroke-dashoffset="0" stroke-linecap="round" font-size="29.1042" fill="none" stroke-opacity="1" stroke-linejoin="bevel" stroke="#000000" stroke-dasharray="5.2,2.6" font-family="MS Shell Dlg 2" font-style="normal" font-weight="400">
    <path vector-effect="none" d="M-308.828,-161.128 L-308.828,0" fill-rule="evenodd"/>
   </g>
   <g stroke-width="1.3" transform="matrix(1,0,0,1,2253.19,1050)" stroke-dashoffset="0" stroke-linecap="round" font-size="29.1042" fill="none" stroke-opacity="1" stroke-linejoin="bevel" stroke="#000000" stroke-dasharray="5.2,2.6" font-family="MS Shell Dlg 2" font-style="normal" font-weight="400">
    <path vector-effect="none" d="M308.828,-161.128 L-308.828,-161.128" fill-rule="evenodd"/>
   </g>
   <g stroke-width="1.3" transform="matrix(1,0,0,1,2253.19,1050)" stroke-dashoffset="0" stroke-linecap="round" font-size="29.1042" fill="none" stroke-opacity="1" stroke-linejoin="bevel" stroke="#000000" stroke-dasharray="5.2,2.6" font-family="MS Shell Dlg 2" font-style="normal" font-weight="400">
    <path vector-effect="none" d="M308.828,161.128 L-308.828,161.128" fill-rule="evenodd"/>
   </g>
   <g stroke-width="2.5" transform="matrix(1,0,0,1,2253.19,1050)" stroke-linecap="round" font-size="29.1042" fill="none" stroke-opacity="1" stroke-linejoin="bevel" stroke="#000000" font-family="MS Shell Dlg 2" font-style="normal" font-weight="400">
    <path vector-effect="none" d="M-292.715,0 L-292.715,182.611" fill-rule="evenodd"/>
   </g>
   <g stroke-width="2.5" transform="matrix(1,0,0,1,2253.19,1050)" stroke-linecap="round" font-size="29.1042" fill="none" stroke-opacity="1" stroke-linejoin="bevel" stroke="#000000" font-family="MS Shell Dlg 2" font-style="normal" font-weight="400">
    <path vector-effect="none" d="M-292.715,-182.611 L-292.715,0" fill-rule="evenodd"/>
   </g>
   <g stroke-width="2.5" transform="matrix(1,0,0,1,2253.19,1050)" stroke-linecap="round" font-size="29.1042" fill="none" stroke-opacity="1" stroke-linejoin="bevel" stroke="#000000" font-family="MS Shell Dlg 2" font-style="normal" font-weight="400">
    <path vector-effect="none" d="M-298.086,0 L-298.086,-182.611" fill-rule="evenodd"/>
   </g>
   <g stroke-width="2.5" transform="matrix(1,0,0,1,2253.19,1050)" stroke-linecap="round" font-size="29.1042" fill="none" stroke-opacity="1" stroke-linejoin="bevel" stroke="#000000" font-family="MS Shell Dlg 2" font-style="normal" font-weight="400">
    <path vector-effect="none" d="M-298.086,182.611 L-298.086,0" fill-rule="evenodd"/>
   </g>
   <g stroke-width="2.5" transform="matrix(1,0,0,1,2253.19,1050)" stroke-linecap="round" font-size="29.1042" fill="none" stroke-opacity="1" stroke-linejoin="bevel" stroke="#000000" font-family="MS Shell Dlg 2" font-style="normal" font-weight="400">
    <path vector-effect="none" d="M-308.828,0 L-308.828,-182.611" fill-rule="evenodd"/>
   </g>
   <g stroke-width="2.5" transform="matrix(1,0,0,1,2253.19,1050)" stroke-linecap="round" font-size="29.1042" fill="none" stroke-opacity="1" stroke-linejoin="bevel" stroke="#000000" font-family="MS Shell Dlg 2" font-style="normal" font-weight="400">
    <path vector-effect="none" d="M-308.828,182.611 L-308.828,0" fill-rule="evenodd"/>
   </g>
   <g stroke-width="2.5" transform="matrix(1,0,0,1,2253.19,1050)" stroke-linecap="round" font-size="29.1042" fill="none" stroke-opacity="1" stroke-linejoin="bevel" stroke="#000000" font-family="MS Shell Dlg 2" font-style="normal" font-weight="400">
    <path vector-effect="none" d="M-281.974,0 L-281.974,-182.611" fill-rule="evenodd"/>
   </g>
   <g stroke-width="2.5" transform="matrix(1,0,0,1,2253.19,1050)" stroke-linecap="round" font-size="29.1042" fill="none" stroke-opacity="1" stroke-linejoin="bevel" stroke="#000000" font-family="MS Shell Dlg 2" font-style="normal" font-weight="400">
    <path vector-effect="none" d="M-281.974,182.611 L-281.974,0" fill-rule="evenodd"/>
   </g>
   <g stroke-width="2.5" transform="matrix(1,0,0,1,2253.19,1050)" stroke-linecap="round" font-size="29.1042" fill="none" stroke-opacity="1" stroke-linejoin="bevel" stroke="#000000" font-family="MS Shell Dlg 2" font-style="normal" font-weight="400">
    <path vector-effect="none" d="M308.828,0 L308.828,171.87" fill-rule="evenodd"/>
   </g>
   <g stroke-width="2.5" transform="matrix(1,0,0,1,2253.19,1050)" stroke-linecap="round" font-size="29.1042" fill="none" stroke-opacity="1" stroke-linejoin="bevel" stroke="#000000" font-family="MS Shell Dlg 2" font-style="normal" font-weight="400">
    <path vector-effect="none" d="M308.828,-171.87 L308.828,0" fill-rule="evenodd"/>
   </g>
   <g stroke-width="2.5" transform="matrix(1,0,0,1,2253.19,1050)" stroke-linecap="round" font-size="29.1042" fill="none" stroke-opacity="1" stroke-linejoin="bevel" stroke="#000000" font-family="MS Shell Dlg 2" font-style="normal" font-weight="400">
    <path vector-effect="none" d="M-292.715,-171.87 L-298.086,-171.87" fill-rule="evenodd"/>
   </g>
   <g stroke-width="2.5" transform="matrix(1,0,0,1,2253.19,1050)" stroke-linecap="round" font-size="29.1042" fill="none" stroke-opacity="1" stroke-linejoin="bevel" stroke="#000000" font-family="MS Shell Dlg 2" font-style="normal" font-weight="400">
    <path vector-effect="none" d="M-292.715,171.87 L-298.086,171.87" fill-rule="evenodd"/>
   </g>
   <g stroke-width="2.5" transform="matrix(1,0,0,1,2253.19,1050)" stroke-linecap="round" font-size="29.1042" fill="none" stroke-opacity="1" stroke-linejoin="bevel" stroke="#000000" font-family="MS Shell Dlg 2" font-style="normal" font-weight="400">
    <path vector-effect="none" d="M-298.086,-182.611 L-308.828,-182.611" fill-rule="evenodd"/>
   </g>
   <g stroke-width="2.5" transform="matrix(1,0,0,1,2253.19,1050)" stroke-linecap="round" font-size="29.1042" fill="none" stroke-opacity="1" stroke-linejoin="bevel" stroke="#000000" font-family="MS Shell Dlg 2" font-style="normal" font-weight="400">
    <path vector-effect="none" d="M-298.086,182.611 L-308.828,182.611" fill-rule="evenodd"/>
   </g>
   <g stroke-width="2.5" transform="matrix(1,0,0,1,2253.19,1050)" stroke-linecap="round" font-size="29.1042" fill="none" stroke-opacity="1" stroke-linejoin="bevel" stroke="#000000" font-family="MS Shell Dlg 2" font-style="normal" font-weight="400">
    <path vector-effect="none" d="M-281.974,-182.611 L-292.715,-182.611" fill-rule="evenodd"/>
   </g>
   <g stroke-width="2.5" transform="matrix(1,0,0,1,2253.19,1050)" stroke-linecap="round" font-size="29.1042" fill="none" stroke-opacity="1" stroke-linejoin="bevel" stroke="#000000" font-family="MS Shell Dlg 2" font-style="normal" font-weight="400">
    <path vector-effect="none" d="M-281.974,182.611 L-292.715,182.611" fill-rule="evenodd"/>
   </g>
   <g stroke-width="2.5" transform="matrix(1,0,0,1,2253.19,1050)" stroke-linecap="round" font-size="29.1042" fill="none" stroke-opacity="1" stroke-linejoin="bevel" stroke="#000000" font-family="MS Shell Dlg 2" font-style="normal" font-weight="400">
    <path vector-effect="none" d="M308.828,-171.87 L-281.974,-171.87" fill-rule="evenodd"/>
   </g>
   <g stroke-width="2.5" transform="matrix(1,0,0,1,2253.19,1050)" stroke-linecap="round" font-size="29.1042" fill="none" stroke-opacity="1" stroke-linejoin="bevel" stroke="#000000" font-family="MS Shell Dlg 2" font-style="normal" font-weight="400">
    <path vector-effect="none" d="M308.828,171.87 L-281.974,171.87" fill-rule="evenodd"/>
   </g>
  </g>
 </g>
</svg>
