<?xml version='1.0' encoding='UTF-8' standalone='no'?>
<svg width="297mm" height="210mm" xmlns:xlink="http://www.w3.org/1999/xlink" baseProfile="tiny" xmlns:svg="http://www.w3.org/2000/svg" version="1.2" xmlns:cc="http://creativecommons.org/ns#" xmlns:sodipodi="http://sodipodi.sourceforge.net/DTD/sodipodi-0.dtd" xmlns:dc="http://purl.org/dc/elements/1.1/" xmlns:rdf="http://www.w3.org/1999/02/22-rdf-syntax-ns#" xmlns:freecad="http://www.freecadweb.org/wiki/index.php?title=Svg_Namespace" xmlns:inkscape="http://www.inkscape.org/namespaces/inkscape" xmlns="http://www.w3.org/2000/svg" viewBox="0 0 5000 3000">
 <title>FreeCAD SVG Export</title>
 <desc>Drawing page: Page exported from FreeCAD document: Unnamed</desc>
 <defs/>
 <g inkscape:groupmode="layer" id="Page" inkscape:label="TechDraw">
  <g stroke-width="1" stroke-linecap="square" fill="none" stroke-linejoin="bevel" id="DrawingContent" stroke="black" fill-rule="evenodd">
   <g stroke-width="1" transform="matrix(1,0,0,1,1485,1050)" stroke-linecap="square" font-size="29.1042" fill="none" stroke-opacity="1" stroke-linejoin="bevel" stroke="#000000" font-family="MS Shell Dlg 2" font-style="normal" font-weight="400">
    <rect x="0" width="0" height="0" y="0"/>
   </g>
   <g transform="matrix(1,0,0,1,1485,1050)" font-size="29.1042" fill="#ffffff" stroke="none" font-family="MS Shell Dlg 2" font-style="normal" fill-opacity="1" font-weight="400">
    <path vector-effect="non-scaling-stroke" d="M56.7799,0 C56.7799,31.3587 31.3587,56.7799 0,56.7799 C-31.3587,56.7799 -56.7799,31.3587 -56.7799,0 C-56.7799,-31.3587 -31.3587,-56.7799 0,-56.7799 C31.3587,-56.7799 56.7799,-31.3587 56.7799,0 " fill-rule="evenodd"/>
   </g>
   <g stroke-width="1.3" transform="matrix(1,0,0,1,1485,1050)" stroke-dashoffset="0" stroke-linecap="round" font-size="29.1042" fill="none" stroke-opacity="1" stroke-linejoin="bevel" stroke="#000000" stroke-dasharray="5.2,2.6" font-family="MS Shell Dlg 2" font-style="normal" font-weight="400">
    <path vector-effect="none" d="M47.6342,0 C47.6342,26.3076 26.3076,47.6342 0,47.6342 C-26.3076,47.6342 -47.6342,26.3076 -47.6342,0 C-47.6342,-26.3076 -26.3076,-47.6342 0,-47.6342 C26.3076,-47.6342 47.6342,-26.3076 47.6342,0 " fill-rule="evenodd"/>
   </g>
   <g stroke-width="1.3" transform="matrix(1,0,0,1,1485,1050)" stroke-dashoffset="0" stroke-linecap="round" font-size="29.1042" fill="none" stroke-opacity="1" stroke-linejoin="bevel" stroke="#000000" stroke-dasharray="5.2,2.6" font-family="MS Shell Dlg 2" font-style="normal" font-weight="400">
    <path vector-effect="none" d="M47.6342,0 C47.6342,26.3076 26.3076,47.6342 0,47.6342 C-26.3076,47.6342 -47.6342,26.3076 -47.6342,0 C-47.6342,-26.3076 -26.3076,-47.6342 0,-47.6342 C26.3076,-47.6342 47.6342,-26.3076 47.6342,0 " fill-rule="evenodd"/>
   </g>
   <g stroke-width="1.3" transform="matrix(1,0,0,1,1485,1050)" stroke-dashoffset="0" stroke-linecap="round" font-size="29.1042" fill="none" stroke-opacity="1" stroke-linejoin="bevel" stroke="#000000" stroke-dasharray="5.2,2.6" font-family="MS Shell Dlg 2" font-style="normal" font-weight="400">
    <path vector-effect="none" d="M56.7799,0 C56.7799,31.3587 31.3587,56.7799 0,56.7799 C-31.3587,56.7799 -56.7799,31.3587 -56.7799,0 C-56.7799,-31.3587 -31.3587,-56.7799 0,-56.7799 C31.3587,-56.7799 56.7799,-31.3587 56.7799,0 " fill-rule="evenodd"/>
   </g>
   <g stroke-width="1.3" transform="matrix(1,0,0,1,1485,1050)" stroke-dashoffset="0" stroke-linecap="round" font-size="29.1042" fill="none" stroke-opacity="1" stroke-linejoin="bevel" stroke="#000000" stroke-dasharray="5.2,2.6" font-family="MS Shell Dlg 2" font-style="normal" font-weight="400">
    <path vector-effect="none" d="M56.7799,0 C56.7799,31.3587 31.3587,56.7799 0,56.7799 C-31.3587,56.7799 -56.7799,31.3587 -56.7799,0 C-56.7799,-31.3587 -31.3587,-56.7799 0,-56.7799 C31.3587,-56.7799 56.7799,-31.3587 56.7799,0 " fill-rule="evenodd"/>
   </g>
   <g stroke-width="1.3" transform="matrix(1,0,0,1,1485,1050)" stroke-dashoffset="0" stroke-linecap="round" font-size="29.1042" fill="none" stroke-opacity="1" stroke-linejoin="bevel" stroke="#000000" stroke-dasharray="5.2,2.6" font-family="MS Shell Dlg 2" font-style="normal" font-weight="400">
    <path vector-effect="none" d="M56.7799,0 C56.7799,31.3587 31.3587,56.7799 0,56.7799 C-31.3587,56.7799 -56.7799,31.3587 -56.7799,0 C-56.7799,-31.3587 -31.3587,-56.7799 0,-56.7799 C31.3587,-56.7799 56.7799,-31.3587 56.7799,0 " fill-rule="evenodd"/>
   </g>
   <g stroke-width="2.5" transform="matrix(1,0,0,1,1485,1050)" stroke-linecap="round" font-size="29.1042" fill="none" stroke-opacity="1" stroke-linejoin="bevel" stroke="#000000" font-family="MS Shell Dlg 2" font-style="normal" font-weight="400">
    <path vector-effect="none" d="M56.7799,0 C56.7799,31.3587 31.3587,56.7799 0,56.7799 C-31.3587,56.7799 -56.7799,31.3587 -56.7799,0 C-56.7799,-31.3587 -31.3587,-56.7799 0,-56.7799 C31.3587,-56.7799 56.7799,-31.3587 56.7799,0 " fill-rule="evenodd"/>
   </g>
   <g transform="matrix(1,0,0,1,1485,-243.22)" font-size="29.1042" fill="#ffffff" stroke="none" font-family="MS Shell Dlg 2" font-style="normal" fill-opacity="1" font-weight="400">
    <path vector-effect="non-scaling-stroke" d="M56.7799,571.61 L56.7799,506.828 L55.3563,506.828 L51.1569,506.828 L47.6342,506.828 L47.6342,495.395 L51.1569,495.395 L55.3563,495.395 L56.7799,495.395 L56.7799,-571.61 L-56.7799,-571.61 L-56.7799,495.395 L-55.3563,495.395 L-51.1569,495.395 L-47.6342,495.395 L-47.6342,506.828 L-51.1569,506.828 L-55.3563,506.828 L-56.7799,506.828 L-56.7799,571.61 L56.7799,571.61" fill-rule="evenodd"/>
   </g>
   <g transform="matrix(1,0,0,1,1485,-243.22)" font-size="29.1042" fill="#ffffff" stroke="none" font-family="MS Shell Dlg 2" font-style="normal" fill-opacity="1" font-weight="400">
    <path vector-effect="non-scaling-stroke" d="M-56.7799,-571.61 L-56.7799,495.395 L-55.3563,495.395 L-51.1569,495.395 L-47.6342,495.395 L-44.3923,495.395 L-35.4017,495.395 L-24.6359,495.395 L-12.6347,495.395 L-1.11022e-14,495.395 L12.6347,495.395 L24.6359,495.395 L35.4017,495.395 L44.3923,495.395 L47.6342,495.395 L51.1569,495.395 L55.3563,495.395 L56.7799,495.395 L56.7799,-571.61 L-56.7799,-571.61" fill-rule="evenodd"/>
   </g>
   <g transform="matrix(1,0,0,1,1485,-243.22)" font-size="29.1042" fill="#ffffff" stroke="none" font-family="MS Shell Dlg 2" font-style="normal" fill-opacity="1" font-weight="400">
    <path vector-effect="non-scaling-stroke" d="M56.7799,571.61 L56.7799,506.828 L55.3563,506.828 L51.1569,506.828 L47.6342,506.828 L44.3923,506.828 L35.4017,506.828 L24.6359,506.828 L12.6347,506.828 L1.77636e-14,506.828 L-12.6347,506.828 L-24.6359,506.828 L-35.4017,506.828 L-44.3923,506.828 L-47.6342,506.828 L-51.1569,506.828 L-55.3563,506.828 L-56.7799,506.828 L-56.7799,571.61 L56.7799,571.61" fill-rule="evenodd"/>
   </g>
   <g transform="matrix(1,0,0,1,1485,-243.22)" font-size="29.1042" fill="#ffffff" stroke="none" font-family="MS Shell Dlg 2" font-style="normal" fill-opacity="1" font-weight="400">
    <path vector-effect="non-scaling-stroke" d="M-47.6342,495.395 L-44.3923,495.395 L-35.4017,495.395 L-24.6359,495.395 L-12.6347,495.395 L-1.11022e-14,495.395 L12.6347,495.395 L24.6359,495.395 L35.4017,495.395 L44.3923,495.395 L47.6342,495.395 L47.6342,506.828 L44.3923,506.828 L35.4017,506.828 L24.6359,506.828 L12.6347,506.828 L1.77636e-14,506.828 L-12.6347,506.828 L-24.6359,506.828 L-35.4017,506.828 L-44.3923,506.828 L-47.6342,506.828 L-47.6342,495.395" fill-rule="evenodd"/>
   </g>
   <g stroke-width="1.3" transform="matrix(1,0,0,1,1485,-243.22)" stroke-dashoffset="0" stroke-linecap="round" font-size="29.1042" fill="none" stroke-opacity="1" stroke-linejoin="bevel" stroke="#000000" stroke-dasharray="5.2,2.6" font-family="MS Shell Dlg 2" font-style="normal" font-weight="400">
    <path vector-effect="none" d="M-47.6342,495.395 L47.6342,495.395" fill-rule="evenodd"/>
   </g>
   <g stroke-width="1.3" transform="matrix(1,0,0,1,1485,-243.22)" stroke-dashoffset="0" stroke-linecap="round" font-size="29.1042" fill="none" stroke-opacity="1" stroke-linejoin="bevel" stroke="#000000" stroke-dasharray="5.2,2.6" font-family="MS Shell Dlg 2" font-style="normal" font-weight="400">
    <path vector-effect="none" d="M47.6342,495.395 L-47.6342,495.395" fill-rule="evenodd"/>
   </g>
   <g stroke-width="1.3" transform="matrix(1,0,0,1,1485,-243.22)" stroke-dashoffset="0" stroke-linecap="round" font-size="29.1042" fill="none" stroke-opacity="1" stroke-linejoin="bevel" stroke="#000000" stroke-dasharray="5.2,2.6" font-family="MS Shell Dlg 2" font-style="normal" font-weight="400">
    <path vector-effect="none" d="M-47.6342,506.828 L47.6342,506.828" fill-rule="evenodd"/>
   </g>
   <g stroke-width="1.3" transform="matrix(1,0,0,1,1485,-243.22)" stroke-dashoffset="0" stroke-linecap="round" font-size="29.1042" fill="none" stroke-opacity="1" stroke-linejoin="bevel" stroke="#000000" stroke-dasharray="5.2,2.6" font-family="MS Shell Dlg 2" font-style="normal" font-weight="400">
    <path vector-effect="none" d="M47.6342,506.828 L-47.6342,506.828" fill-rule="evenodd"/>
   </g>
   <g stroke-width="1.3" transform="matrix(1,0,0,1,1485,-243.22)" stroke-dashoffset="0" stroke-linecap="round" font-size="29.1042" fill="none" stroke-opacity="1" stroke-linejoin="bevel" stroke="#000000" stroke-dasharray="5.2,2.6" font-family="MS Shell Dlg 2" font-style="normal" font-weight="400">
    <path vector-effect="none" d="M56.7799,495.395 L-56.7799,495.395" fill-rule="evenodd"/>
   </g>
   <g stroke-width="1.3" transform="matrix(1,0,0,1,1485,-243.22)" stroke-dashoffset="0" stroke-linecap="round" font-size="29.1042" fill="none" stroke-opacity="1" stroke-linejoin="bevel" stroke="#000000" stroke-dasharray="5.2,2.6" font-family="MS Shell Dlg 2" font-style="normal" font-weight="400">
    <path vector-effect="none" d="M-56.7799,506.828 L56.7799,506.828" fill-rule="evenodd"/>
   </g>
   <g stroke-width="1.3" transform="matrix(1,0,0,1,1485,-243.22)" stroke-dashoffset="0" stroke-linecap="round" font-size="29.1042" fill="none" stroke-opacity="1" stroke-linejoin="bevel" stroke="#000000" stroke-dasharray="5.2,2.6" font-family="MS Shell Dlg 2" font-style="normal" font-weight="400">
    <path vector-effect="none" d="M-56.7799,571.61 L56.7799,571.61" fill-rule="evenodd"/>
   </g>
   <g stroke-width="1.3" transform="matrix(1,0,0,1,1485,-243.22)" stroke-dashoffset="0" stroke-linecap="round" font-size="29.1042" fill="none" stroke-opacity="1" stroke-linejoin="bevel" stroke="#000000" stroke-dasharray="5.2,2.6" font-family="MS Shell Dlg 2" font-style="normal" font-weight="400">
    <path vector-effect="none" d="M56.7799,-571.61 L-56.7799,-571.61" fill-rule="evenodd"/>
   </g>
   <g stroke-width="2.5" transform="matrix(1,0,0,1,1485,-243.22)" stroke-linecap="round" font-size="29.1042" fill="none" stroke-opacity="1" stroke-linejoin="bevel" stroke="#000000" font-family="MS Shell Dlg 2" font-style="normal" font-weight="400">
    <path vector-effect="none" d="M-47.6342,495.395 L-47.6342,506.828" fill-rule="evenodd"/>
   </g>
   <g stroke-width="2.5" transform="matrix(1,0,0,1,1485,-243.22)" stroke-linecap="round" font-size="29.1042" fill="none" stroke-opacity="1" stroke-linejoin="bevel" stroke="#000000" font-family="MS Shell Dlg 2" font-style="normal" font-weight="400">
    <path vector-effect="none" d="M-56.7799,495.395 L56.7799,495.395" fill-rule="evenodd"/>
   </g>
   <g stroke-width="2.5" transform="matrix(1,0,0,1,1485,-243.22)" stroke-linecap="round" font-size="29.1042" fill="none" stroke-opacity="1" stroke-linejoin="bevel" stroke="#000000" font-family="MS Shell Dlg 2" font-style="normal" font-weight="400">
    <path vector-effect="none" d="M56.7799,506.828 L-56.7799,506.828" fill-rule="evenodd"/>
   </g>
   <g stroke-width="2.5" transform="matrix(1,0,0,1,1485,-243.22)" stroke-linecap="round" font-size="29.1042" fill="none" stroke-opacity="1" stroke-linejoin="bevel" stroke="#000000" font-family="MS Shell Dlg 2" font-style="normal" font-weight="400">
    <path vector-effect="none" d="M-56.7799,506.828 L-56.7799,571.61" fill-rule="evenodd"/>
   </g>
   <g stroke-width="2.5" transform="matrix(1,0,0,1,1485,-243.22)" stroke-linecap="round" font-size="29.1042" fill="none" stroke-opacity="1" stroke-linejoin="bevel" stroke="#000000" font-family="MS Shell Dlg 2" font-style="normal" font-weight="400">
    <path vector-effect="none" d="M56.7799,571.61 L-56.7799,571.61" fill-rule="evenodd"/>
   </g>
   <g stroke-width="2.5" transform="matrix(1,0,0,1,1485,-243.22)" stroke-linecap="round" font-size="29.1042" fill="none" stroke-opacity="1" stroke-linejoin="bevel" stroke="#000000" font-family="MS Shell Dlg 2" font-style="normal" font-weight="400">
    <path vector-effect="none" d="M-56.7799,-571.61 L56.7799,-571.61" fill-rule="evenodd"/>
   </g>
   <g stroke-width="2.5" transform="matrix(1,0,0,1,1485,-243.22)" stroke-linecap="round" font-size="29.1042" fill="none" stroke-opacity="1" stroke-linejoin="bevel" stroke="#000000" font-family="MS Shell Dlg 2" font-style="normal" font-weight="400">
    <path vector-effect="none" d="M-56.7799,-571.61 L-56.7799,495.395" fill-rule="evenodd"/>
   </g>
   <g stroke-width="2.5" transform="matrix(1,0,0,1,1485,-243.22)" stroke-linecap="round" font-size="29.1042" fill="none" stroke-opacity="1" stroke-linejoin="bevel" stroke="#000000" font-family="MS Shell Dlg 2" font-style="normal" font-weight="400">
    <path vector-effect="none" d="M47.6342,495.395 L47.6342,506.828" fill-rule="evenodd"/>
   </g>
   <g stroke-width="2.5" transform="matrix(1,0,0,1,1485,-243.22)" stroke-linecap="round" font-size="29.1042" fill="none" stroke-opacity="1" stroke-linejoin="bevel" stroke="#000000" font-family="MS Shell Dlg 2" font-style="normal" font-weight="400">
    <path vector-effect="none" d="M56.7799,571.61 L56.7799,506.828" fill-rule="evenodd"/>
   </g>
   <g stroke-width="2.5" transform="matrix(1,0,0,1,1485,-243.22)" stroke-linecap="round" font-size="29.1042" fill="none" stroke-opacity="1" stroke-linejoin="bevel" stroke="#000000" font-family="MS Shell Dlg 2" font-style="normal" font-weight="400">
    <path vector-effect="none" d="M56.7799,495.395 L56.7799,-571.61" fill-rule="evenodd"/>
   </g>
   <g transform="matrix(1,0,0,1,2778.22,1050)" font-size="29.1042" fill="#ffffff" stroke="none" font-family="MS Shell Dlg 2" font-style="normal" fill-opacity="1" font-weight="400">
    <path vector-effect="non-scaling-stroke" d="M-495.395,-56.7799 L571.61,-56.7799 L571.61,-1.39071e-14 L571.61,56.7799 L-495.395,56.7799 L-495.395,56.4229 L-495.395,55.3563 L-495.395,53.5936 L-495.395,51.1569 L-495.395,48.0769 L-495.395,47.6342 L-506.828,47.6342 L-506.828,48.0769 L-506.828,51.1569 L-506.828,53.5936 L-506.828,55.3563 L-506.828,56.4229 L-506.828,56.7799 L-571.61,56.7799 L-571.61,1.39071e-14 L-571.61,-56.7799 L-506.828,-56.7799 L-506.828,-56.4229 L-506.828,-55.3563 L-506.828,-53.5936 L-506.828,-51.1569 L-506.828,-48.0769 L-506.828,-47.6342 L-495.395,-47.6342 L-495.395,-48.0769 L-495.395,-51.1569 L-495.395,-53.5936 L-495.395,-55.3563 L-495.395,-56.4229 L-495.395,-56.7799" fill-rule="evenodd"/>
   </g>
   <g transform="matrix(1,0,0,1,2778.22,1050)" font-size="29.1042" fill="#ffffff" stroke="none" font-family="MS Shell Dlg 2" font-style="normal" fill-opacity="1" font-weight="400">
    <path vector-effect="non-scaling-stroke" d="M-495.395,-56.7799 L571.61,-56.7799 L571.61,-1.39071e-14 L571.61,56.7799 L-495.395,56.7799 L-495.395,56.4229 L-495.395,55.3563 L-495.395,53.5936 L-495.395,51.1569 L-495.395,48.0769 L-495.395,47.6342 C-495.395,46.5536 -495.395,45.4729 -495.395,44.3923 C-495.395,42.978 -495.395,41.5638 -495.395,40.1495 C-495.395,38.5669 -495.395,36.9843 -495.395,35.4017 C-495.395,33.6707 -495.395,31.9397 -495.395,30.2087 C-495.395,28.3511 -495.395,26.4935 -495.395,24.6359 C-495.395,22.675 -495.395,20.7141 -495.395,18.7532 C-495.395,16.7137 -495.395,14.6742 -495.395,12.6347 C-495.395,8.46474 -495.395,4.25317 -495.395,-6.66134e-15 L-495.395,-2.10942e-14 C-495.395,-4.25317 -495.395,-8.46474 -495.395,-12.6347 C-495.395,-14.6742 -495.395,-16.7137 -495.395,-18.7532 C-495.395,-20.7141 -495.395,-22.675 -495.395,-24.6359 C-495.395,-26.4935 -495.395,-28.3511 -495.395,-30.2087 C-495.395,-31.9397 -495.395,-33.6707 -495.395,-35.4017 C-495.395,-36.9843 -495.395,-38.5669 -495.395,-40.1495 C-495.395,-41.5638 -495.395,-42.978 -495.395,-44.3923 C-495.395,-45.4729 -495.395,-46.5536 -495.395,-47.6342 L-495.395,-48.0769 L-495.395,-51.1569 L-495.395,-53.5936 L-495.395,-55.3563 L-495.395,-56.4229 L-495.395,-56.7799" fill-rule="evenodd"/>
   </g>
   <g transform="matrix(1,0,0,1,2778.22,1050)" font-size="29.1042" fill="#ffffff" stroke="none" font-family="MS Shell Dlg 2" font-style="normal" fill-opacity="1" font-weight="400">
    <path vector-effect="non-scaling-stroke" d="M-571.61,56.7799 L-506.828,56.7799 L-506.828,56.4229 L-506.828,55.3563 L-506.828,53.5936 L-506.828,51.1569 L-506.828,48.0769 L-506.828,47.6342 C-506.828,46.5536 -506.828,45.4729 -506.828,44.3923 C-506.828,42.978 -506.828,41.5638 -506.828,40.1495 C-506.828,38.5669 -506.828,36.9843 -506.828,35.4017 C-506.828,33.6707 -506.828,31.9397 -506.828,30.2087 C-506.828,28.3511 -506.828,26.4935 -506.828,24.6359 C-506.828,22.675 -506.828,20.7141 -506.828,18.7532 C-506.828,16.7137 -506.828,14.6742 -506.828,12.6347 C-506.828,8.46474 -506.828,4.25317 -506.828,2.10942e-14 L-506.828,6.66134e-15 C-506.828,-4.25317 -506.828,-8.46474 -506.828,-12.6347 C-506.828,-14.6742 -506.828,-16.7137 -506.828,-18.7532 C-506.828,-20.7141 -506.828,-22.675 -506.828,-24.6359 C-506.828,-26.4935 -506.828,-28.3511 -506.828,-30.2087 C-506.828,-31.9397 -506.828,-33.6707 -506.828,-35.4017 C-506.828,-36.9843 -506.828,-38.5669 -506.828,-40.1495 C-506.828,-41.5638 -506.828,-42.978 -506.828,-44.3923 C-506.828,-45.4729 -506.828,-46.5536 -506.828,-47.6342 L-506.828,-48.0769 L-506.828,-51.1569 L-506.828,-53.5936 L-506.828,-55.3563 L-506.828,-56.4229 L-506.828,-56.7799 L-571.61,-56.7799 L-571.61,1.39071e-14 L-571.61,56.7799" fill-rule="evenodd"/>
   </g>
   <g transform="matrix(1,0,0,1,2778.22,1050)" font-size="29.1042" fill="#ffffff" stroke="none" font-family="MS Shell Dlg 2" font-style="normal" fill-opacity="1" font-weight="400">
    <path vector-effect="non-scaling-stroke" d="M-495.395,-47.6342 C-495.395,-46.5536 -495.395,-45.4729 -495.395,-44.3923 C-495.395,-42.978 -495.395,-41.5638 -495.395,-40.1495 C-495.395,-38.5669 -495.395,-36.9843 -495.395,-35.4017 C-495.395,-33.6707 -495.395,-31.9397 -495.395,-30.2087 C-495.395,-28.3511 -495.395,-26.4935 -495.395,-24.6359 C-495.395,-22.675 -495.395,-20.7141 -495.395,-18.7532 C-495.395,-16.7137 -495.395,-14.6742 -495.395,-12.6347 C-495.395,-8.46474 -495.395,-4.25317 -495.395,-2.10942e-14 L-495.395,-6.66134e-15 C-495.395,4.25317 -495.395,8.46474 -495.395,12.6347 C-495.395,14.6742 -495.395,16.7137 -495.395,18.7532 C-495.395,20.7141 -495.395,22.675 -495.395,24.6359 C-495.395,26.4935 -495.395,28.3511 -495.395,30.2087 C-495.395,31.9397 -495.395,33.6707 -495.395,35.4017 C-495.395,36.9843 -495.395,38.5669 -495.395,40.1495 C-495.395,41.5638 -495.395,42.978 -495.395,44.3923 C-495.395,45.4729 -495.395,46.5536 -495.395,47.6342 L-506.828,47.6342 C-506.828,46.5536 -506.828,45.4729 -506.828,44.3923 C-506.828,42.978 -506.828,41.5638 -506.828,40.1495 C-506.828,38.5669 -506.828,36.9843 -506.828,35.4017 C-506.828,33.6707 -506.828,31.9397 -506.828,30.2087 C-506.828,28.3511 -506.828,26.4935 -506.828,24.6359 C-506.828,22.675 -506.828,20.7141 -506.828,18.7532 C-506.828,16.7137 -506.828,14.6742 -506.828,12.6347 C-506.828,8.46474 -506.828,4.25317 -506.828,2.10942e-14 L-506.828,6.66134e-15 C-506.828,-4.25317 -506.828,-8.46474 -506.828,-12.6347 C-506.828,-14.6742 -506.828,-16.7137 -506.828,-18.7532 C-506.828,-20.7141 -506.828,-22.675 -506.828,-24.6359 C-506.828,-26.4935 -506.828,-28.3511 -506.828,-30.2087 C-506.828,-31.9397 -506.828,-33.6707 -506.828,-35.4017 C-506.828,-36.9843 -506.828,-38.5669 -506.828,-40.1495 C-506.828,-41.5638 -506.828,-42.978 -506.828,-44.3923 C-506.828,-45.4729 -506.828,-46.5536 -506.828,-47.6342 L-495.395,-47.6342" fill-rule="evenodd"/>
   </g>
   <g stroke-width="1.3" transform="matrix(1,0,0,1,2778.22,1050)" stroke-dashoffset="0" stroke-linecap="round" font-size="29.1042" fill="none" stroke-opacity="1" stroke-linejoin="bevel" stroke="#000000" stroke-dasharray="5.2,2.6" font-family="MS Shell Dlg 2" font-style="normal" font-weight="400">
    <path vector-effect="none" d="M-495.395,5.8335e-15 L-495.395,-47.6342" fill-rule="evenodd"/>
   </g>
   <g stroke-width="1.3" transform="matrix(1,0,0,1,2778.22,1050)" stroke-dashoffset="0" stroke-linecap="round" font-size="29.1042" fill="none" stroke-opacity="1" stroke-linejoin="bevel" stroke="#000000" stroke-dasharray="5.2,2.6" font-family="MS Shell Dlg 2" font-style="normal" font-weight="400">
    <path vector-effect="none" d="M-495.395,-47.6342 L-495.395,47.6342" fill-rule="evenodd"/>
   </g>
   <g stroke-width="1.3" transform="matrix(1,0,0,1,2778.22,1050)" stroke-dashoffset="0" stroke-linecap="round" font-size="29.1042" fill="none" stroke-opacity="1" stroke-linejoin="bevel" stroke="#000000" stroke-dasharray="5.2,2.6" font-family="MS Shell Dlg 2" font-style="normal" font-weight="400">
    <path vector-effect="none" d="M-495.395,47.6342 L-495.395,1.75005e-14" fill-rule="evenodd"/>
   </g>
   <g stroke-width="1.3" transform="matrix(1,0,0,1,2778.22,1050)" stroke-dashoffset="0" stroke-linecap="round" font-size="29.1042" fill="none" stroke-opacity="1" stroke-linejoin="bevel" stroke="#000000" stroke-dasharray="5.2,2.6" font-family="MS Shell Dlg 2" font-style="normal" font-weight="400">
    <path vector-effect="none" d="M-506.828,-5.8335e-15 L-506.828,47.6342" fill-rule="evenodd"/>
   </g>
   <g stroke-width="1.3" transform="matrix(1,0,0,1,2778.22,1050)" stroke-dashoffset="0" stroke-linecap="round" font-size="29.1042" fill="none" stroke-opacity="1" stroke-linejoin="bevel" stroke="#000000" stroke-dasharray="5.2,2.6" font-family="MS Shell Dlg 2" font-style="normal" font-weight="400">
    <path vector-effect="none" d="M-506.828,47.6342 L-506.828,-47.6342" fill-rule="evenodd"/>
   </g>
   <g stroke-width="1.3" transform="matrix(1,0,0,1,2778.22,1050)" stroke-dashoffset="0" stroke-linecap="round" font-size="29.1042" fill="none" stroke-opacity="1" stroke-linejoin="bevel" stroke="#000000" stroke-dasharray="5.2,2.6" font-family="MS Shell Dlg 2" font-style="normal" font-weight="400">
    <path vector-effect="none" d="M-506.828,-47.6342 L-506.828,-1.75005e-14" fill-rule="evenodd"/>
   </g>
   <g stroke-width="1.3" transform="matrix(1,0,0,1,2778.22,1050)" stroke-dashoffset="0" stroke-linecap="round" font-size="29.1042" fill="none" stroke-opacity="1" stroke-linejoin="bevel" stroke="#000000" stroke-dasharray="5.2,2.6" font-family="MS Shell Dlg 2" font-style="normal" font-weight="400">
    <path vector-effect="none" d="M-495.395,56.7799 L-495.395,-56.7799" fill-rule="evenodd"/>
   </g>
   <g stroke-width="1.3" transform="matrix(1,0,0,1,2778.22,1050)" stroke-dashoffset="0" stroke-linecap="round" font-size="29.1042" fill="none" stroke-opacity="1" stroke-linejoin="bevel" stroke="#000000" stroke-dasharray="5.2,2.6" font-family="MS Shell Dlg 2" font-style="normal" font-weight="400">
    <path vector-effect="none" d="M-506.828,-56.7799 L-506.828,56.7799" fill-rule="evenodd"/>
   </g>
   <g stroke-width="1.3" transform="matrix(1,0,0,1,2778.22,1050)" stroke-dashoffset="0" stroke-linecap="round" font-size="29.1042" fill="none" stroke-opacity="1" stroke-linejoin="bevel" stroke="#000000" stroke-dasharray="5.2,2.6" font-family="MS Shell Dlg 2" font-style="normal" font-weight="400">
    <path vector-effect="none" d="M-571.61,-56.7799 L-571.61,56.7799" fill-rule="evenodd"/>
   </g>
   <g stroke-width="1.3" transform="matrix(1,0,0,1,2778.22,1050)" stroke-dashoffset="0" stroke-linecap="round" font-size="29.1042" fill="none" stroke-opacity="1" stroke-linejoin="bevel" stroke="#000000" stroke-dasharray="5.2,2.6" font-family="MS Shell Dlg 2" font-style="normal" font-weight="400">
    <path vector-effect="none" d="M571.61,56.7799 L571.61,-56.7799" fill-rule="evenodd"/>
   </g>
   <g stroke-width="2.5" transform="matrix(1,0,0,1,2778.22,1050)" stroke-linecap="round" font-size="29.1042" fill="none" stroke-opacity="1" stroke-linejoin="bevel" stroke="#000000" font-family="MS Shell Dlg 2" font-style="normal" font-weight="400">
    <path vector-effect="none" d="M-495.395,-6.95354e-15 L-495.395,56.7799" fill-rule="evenodd"/>
   </g>
   <g stroke-width="2.5" transform="matrix(1,0,0,1,2778.22,1050)" stroke-linecap="round" font-size="29.1042" fill="none" stroke-opacity="1" stroke-linejoin="bevel" stroke="#000000" font-family="MS Shell Dlg 2" font-style="normal" font-weight="400">
    <path vector-effect="none" d="M-495.395,-56.7799 L-495.395,-2.08606e-14" fill-rule="evenodd"/>
   </g>
   <g stroke-width="2.5" transform="matrix(1,0,0,1,2778.22,1050)" stroke-linecap="round" font-size="29.1042" fill="none" stroke-opacity="1" stroke-linejoin="bevel" stroke="#000000" font-family="MS Shell Dlg 2" font-style="normal" font-weight="400">
    <path vector-effect="none" d="M-506.828,6.95354e-15 L-506.828,-56.7799" fill-rule="evenodd"/>
   </g>
   <g stroke-width="2.5" transform="matrix(1,0,0,1,2778.22,1050)" stroke-linecap="round" font-size="29.1042" fill="none" stroke-opacity="1" stroke-linejoin="bevel" stroke="#000000" font-family="MS Shell Dlg 2" font-style="normal" font-weight="400">
    <path vector-effect="none" d="M-506.828,56.7799 L-506.828,2.08606e-14" fill-rule="evenodd"/>
   </g>
   <g stroke-width="2.5" transform="matrix(1,0,0,1,2778.22,1050)" stroke-linecap="round" font-size="29.1042" fill="none" stroke-opacity="1" stroke-linejoin="bevel" stroke="#000000" font-family="MS Shell Dlg 2" font-style="normal" font-weight="400">
    <path vector-effect="none" d="M-571.61,6.95354e-15 L-571.61,-56.7799" fill-rule="evenodd"/>
   </g>
   <g stroke-width="2.5" transform="matrix(1,0,0,1,2778.22,1050)" stroke-linecap="round" font-size="29.1042" fill="none" stroke-opacity="1" stroke-linejoin="bevel" stroke="#000000" font-family="MS Shell Dlg 2" font-style="normal" font-weight="400">
    <path vector-effect="none" d="M-571.61,56.7799 L-571.61,2.08606e-14" fill-rule="evenodd"/>
   </g>
   <g stroke-width="2.5" transform="matrix(1,0,0,1,2778.22,1050)" stroke-linecap="round" font-size="29.1042" fill="none" stroke-opacity="1" stroke-linejoin="bevel" stroke="#000000" font-family="MS Shell Dlg 2" font-style="normal" font-weight="400">
    <path vector-effect="none" d="M571.61,-6.95354e-15 L571.61,56.7799" fill-rule="evenodd"/>
   </g>
   <g stroke-width="2.5" transform="matrix(1,0,0,1,2778.22,1050)" stroke-linecap="round" font-size="29.1042" fill="none" stroke-opacity="1" stroke-linejoin="bevel" stroke="#000000" font-family="MS Shell Dlg 2" font-style="normal" font-weight="400">
    <path vector-effect="none" d="M571.61,-56.7799 L571.61,-2.08606e-14" fill-rule="evenodd"/>
   </g>
   <g stroke-width="2.5" transform="matrix(1,0,0,1,2778.22,1050)" stroke-linecap="round" font-size="29.1042" fill="none" stroke-opacity="1" stroke-linejoin="bevel" stroke="#000000" font-family="MS Shell Dlg 2" font-style="normal" font-weight="400">
    <path vector-effect="none" d="M-495.395,-47.6342 L-506.828,-47.6342" fill-rule="evenodd"/>
   </g>
   <g stroke-width="2.5" transform="matrix(1,0,0,1,2778.22,1050)" stroke-linecap="round" font-size="29.1042" fill="none" stroke-opacity="1" stroke-linejoin="bevel" stroke="#000000" font-family="MS Shell Dlg 2" font-style="normal" font-weight="400">
    <path vector-effect="none" d="M-495.395,47.6342 L-506.828,47.6342" fill-rule="evenodd"/>
   </g>
   <g stroke-width="2.5" transform="matrix(1,0,0,1,2778.22,1050)" stroke-linecap="round" font-size="29.1042" fill="none" stroke-opacity="1" stroke-linejoin="bevel" stroke="#000000" font-family="MS Shell Dlg 2" font-style="normal" font-weight="400">
    <path vector-effect="none" d="M-571.61,56.7799 L-506.828,56.7799" fill-rule="evenodd"/>
   </g>
   <g stroke-width="2.5" transform="matrix(1,0,0,1,2778.22,1050)" stroke-linecap="round" font-size="29.1042" fill="none" stroke-opacity="1" stroke-linejoin="bevel" stroke="#000000" font-family="MS Shell Dlg 2" font-style="normal" font-weight="400">
    <path vector-effect="none" d="M-571.61,-56.7799 L-506.828,-56.7799" fill-rule="evenodd"/>
   </g>
   <g stroke-width="2.5" transform="matrix(1,0,0,1,2778.22,1050)" stroke-linecap="round" font-size="29.1042" fill="none" stroke-opacity="1" stroke-linejoin="bevel" stroke="#000000" font-family="MS Shell Dlg 2" font-style="normal" font-weight="400">
    <path vector-effect="none" d="M-495.395,56.7799 L571.61,56.7799" fill-rule="evenodd"/>
   </g>
   <g stroke-width="2.5" transform="matrix(1,0,0,1,2778.22,1050)" stroke-linecap="round" font-size="29.1042" fill="none" stroke-opacity="1" stroke-linejoin="bevel" stroke="#000000" font-family="MS Shell Dlg 2" font-style="normal" font-weight="400">
    <path vector-effect="none" d="M-495.395,-56.7799 L571.61,-56.7799" fill-rule="evenodd"/>
   </g>
  </g>
 </g>
</svg>
