<?xml version='1.0' encoding='UTF-8' standalone='no'?>
<svg width="297mm" height="210mm" xmlns:xlink="http://www.w3.org/1999/xlink" baseProfile="tiny" xmlns:svg="http://www.w3.org/2000/svg" version="1.2" xmlns:cc="http://creativecommons.org/ns#" xmlns:sodipodi="http://sodipodi.sourceforge.net/DTD/sodipodi-0.dtd" xmlns:dc="http://purl.org/dc/elements/1.1/" xmlns:rdf="http://www.w3.org/1999/02/22-rdf-syntax-ns#" xmlns:freecad="http://www.freecadweb.org/wiki/index.php?title=Svg_Namespace" xmlns:inkscape="http://www.inkscape.org/namespaces/inkscape" xmlns="http://www.w3.org/2000/svg" viewBox="0 0 5000 3000">
 <title>FreeCAD SVG Export</title>
 <desc>Drawing page: Page exported from FreeCAD document: Unnamed</desc>
 <defs/>
 <g inkscape:groupmode="layer" id="Page" inkscape:label="TechDraw">
  <g stroke-width="1" stroke-linecap="square" fill="none" stroke-linejoin="bevel" id="DrawingContent" stroke="black" fill-rule="evenodd">
   <g stroke-width="1" transform="matrix(1,0,0,1,1485,1050)" stroke-linecap="square" font-size="29.1042" fill="none" stroke-opacity="1" stroke-linejoin="bevel" stroke="#000000" font-family="MS Shell Dlg 2" font-style="normal" font-weight="400">
    <rect x="0" width="0" height="0" y="0"/>
   </g>
   <g transform="matrix(1,0,0,1,1485,1050)" font-size="29.1042" fill="#ffffff" stroke="none" font-family="MS Shell Dlg 2" font-style="normal" fill-opacity="1" font-weight="400">
    <path vector-effect="non-scaling-stroke" d="M144.676,0 C144.676,79.6329 80.1204,144.188 0.487474,144.188 C-79.1454,144.188 -143.701,79.6329 -143.701,0 C-143.701,-79.6329 -79.1454,-144.188 0.487474,-144.188 C80.1204,-144.188 144.676,-79.6329 144.676,0 " fill-rule="evenodd"/>
   </g>
   <g transform="matrix(1,0,0,1,1485,1050)" font-size="29.1042" fill="#ffffff" stroke="none" font-family="MS Shell Dlg 2" font-style="normal" fill-opacity="1" font-weight="400">
    <path vector-effect="non-scaling-stroke" d="M108.629,0 C108.629,59.7247 60.2121,108.141 0.487474,108.141 C-59.2372,108.141 -107.654,59.7247 -107.654,0 C-107.654,-59.7247 -59.2372,-108.141 0.487474,-108.141 C60.2121,-108.141 108.629,-59.7247 108.629,0 " fill-rule="evenodd"/>
   </g>
   <g stroke-width="1.3" transform="matrix(1,0,0,1,1485,1050)" stroke-dashoffset="0" stroke-linecap="round" font-size="29.1042" fill="none" stroke-opacity="1" stroke-linejoin="bevel" stroke="#000000" stroke-dasharray="5.2,2.6" font-family="MS Shell Dlg 2" font-style="normal" font-weight="400">
    <path vector-effect="none" d="M108.629,0 C108.629,59.7247 60.2121,108.141 0.487474,108.141 C-59.2372,108.141 -107.654,59.7247 -107.654,0 C-107.654,-59.7247 -59.2372,-108.141 0.487474,-108.141 C60.2121,-108.141 108.629,-59.7247 108.629,0 " fill-rule="evenodd"/>
   </g>
   <g stroke-width="1.3" transform="matrix(1,0,0,1,1485,1050)" stroke-dashoffset="0" stroke-linecap="round" font-size="29.1042" fill="none" stroke-opacity="1" stroke-linejoin="bevel" stroke="#000000" stroke-dasharray="5.2,2.6" font-family="MS Shell Dlg 2" font-style="normal" font-weight="400">
    <path vector-effect="none" d="M144.676,0 C144.676,79.6329 80.1204,144.188 0.487474,144.188 C-79.1454,144.188 -143.701,79.6329 -143.701,0 C-143.701,-79.6329 -79.1454,-144.188 0.487474,-144.188 C80.1204,-144.188 144.676,-79.6329 144.676,0 " fill-rule="evenodd"/>
   </g>
   <g stroke-width="2.5" transform="matrix(1,0,0,1,1485,1050)" stroke-linecap="round" font-size="29.1042" fill="none" stroke-opacity="1" stroke-linejoin="bevel" stroke="#000000" font-family="MS Shell Dlg 2" font-style="normal" font-weight="400">
    <path vector-effect="none" d="M108.629,0 C108.629,59.7247 60.2121,108.141 0.487474,108.141 C-59.2372,108.141 -107.654,59.7247 -107.654,0 C-107.654,-59.7247 -59.2372,-108.141 0.487474,-108.141 C60.2121,-108.141 108.629,-59.7247 108.629,0 " fill-rule="evenodd"/>
   </g>
   <g stroke-width="2.5" transform="matrix(1,0,0,1,1485,1050)" stroke-linecap="round" font-size="29.1042" fill="none" stroke-opacity="1" stroke-linejoin="bevel" stroke="#000000" font-family="MS Shell Dlg 2" font-style="normal" font-weight="400">
    <path vector-effect="none" d="M144.676,0 C144.676,79.6329 80.1204,144.188 0.487474,144.188 C-79.1454,144.188 -143.701,79.6329 -143.701,0 C-143.701,-79.6329 -79.1454,-144.188 0.487474,-144.188 C80.1204,-144.188 144.676,-79.6329 144.676,0 " fill-rule="evenodd"/>
   </g>
   <g transform="matrix(1,0,0,1,1485,244.037)" font-size="29.1042" fill="#ffffff" stroke="none" font-family="MS Shell Dlg 2" font-style="normal" fill-opacity="1" font-weight="400">
    <path vector-effect="non-scaling-stroke" d="M-143.701,219.794 L-143.701,327.935 L144.676,327.935 L144.676,219.794 L141.06,219.794 L130.396,219.794 L113.218,219.794 L108.629,219.794 L108.629,-328.121 L-107.654,-328.121 L-107.654,219.794 L-112.243,219.794 L-129.422,219.794 L-140.086,219.794 L-143.701,219.794" fill-rule="evenodd"/>
   </g>
   <g transform="matrix(1,0,0,1,1485,244.037)" font-size="29.1042" fill="#ffffff" stroke="none" font-family="MS Shell Dlg 2" font-style="normal" fill-opacity="1" font-weight="400">
    <path vector-effect="non-scaling-stroke" d="M-107.654,-328.121 L-107.654,219.794 L-89.4123,219.794 L-62.0734,219.794 L-31.5974,219.794 L0.487474,219.794 L32.5723,219.794 L63.0483,219.794 L90.3873,219.794 L108.629,219.794 L108.629,-328.121 L-107.654,-328.121" fill-rule="evenodd"/>
   </g>
   <g transform="matrix(1,0,0,1,1485,244.037)" font-size="29.1042" fill="#ffffff" stroke="none" font-family="MS Shell Dlg 2" font-style="normal" fill-opacity="1" font-weight="400">
    <path vector-effect="non-scaling-stroke" d="M-143.701,219.794 L-143.701,327.935 L144.676,327.935 L144.676,219.794 L141.06,219.794 L130.396,219.794 L113.218,219.794 L108.629,219.794 L90.3873,219.794 L63.0483,219.794 L32.5723,219.794 L0.487474,219.794 L-31.5974,219.794 L-62.0734,219.794 L-89.4123,219.794 L-107.654,219.794 L-112.243,219.794 L-129.422,219.794 L-140.086,219.794 L-143.701,219.794" fill-rule="evenodd"/>
   </g>
   <g stroke-width="1.3" transform="matrix(1,0,0,1,1485,244.037)" stroke-dashoffset="0" stroke-linecap="round" font-size="29.1042" fill="none" stroke-opacity="1" stroke-linejoin="bevel" stroke="#000000" stroke-dasharray="5.2,2.6" font-family="MS Shell Dlg 2" font-style="normal" font-weight="400">
    <path vector-effect="none" d="M108.629,-328.121 L-107.654,-328.121" fill-rule="evenodd"/>
   </g>
   <g stroke-width="1.3" transform="matrix(1,0,0,1,1485,244.037)" stroke-dashoffset="0" stroke-linecap="round" font-size="29.1042" fill="none" stroke-opacity="1" stroke-linejoin="bevel" stroke="#000000" stroke-dasharray="5.2,2.6" font-family="MS Shell Dlg 2" font-style="normal" font-weight="400">
    <path vector-effect="none" d="M-107.654,219.794 L108.629,219.794" fill-rule="evenodd"/>
   </g>
   <g stroke-width="1.3" transform="matrix(1,0,0,1,1485,244.037)" stroke-dashoffset="0" stroke-linecap="round" font-size="29.1042" fill="none" stroke-opacity="1" stroke-linejoin="bevel" stroke="#000000" stroke-dasharray="5.2,2.6" font-family="MS Shell Dlg 2" font-style="normal" font-weight="400">
    <path vector-effect="none" d="M108.629,219.794 L-107.654,219.794" fill-rule="evenodd"/>
   </g>
   <g stroke-width="1.3" transform="matrix(1,0,0,1,1485,244.037)" stroke-dashoffset="0" stroke-linecap="round" font-size="29.1042" fill="none" stroke-opacity="1" stroke-linejoin="bevel" stroke="#000000" stroke-dasharray="5.2,2.6" font-family="MS Shell Dlg 2" font-style="normal" font-weight="400">
    <path vector-effect="none" d="M144.676,219.794 L-143.701,219.794" fill-rule="evenodd"/>
   </g>
   <g stroke-width="1.3" transform="matrix(1,0,0,1,1485,244.037)" stroke-dashoffset="0" stroke-linecap="round" font-size="29.1042" fill="none" stroke-opacity="1" stroke-linejoin="bevel" stroke="#000000" stroke-dasharray="5.2,2.6" font-family="MS Shell Dlg 2" font-style="normal" font-weight="400">
    <path vector-effect="none" d="M144.676,327.935 L-143.701,327.935" fill-rule="evenodd"/>
   </g>
   <g stroke-width="2.5" transform="matrix(1,0,0,1,1485,244.037)" stroke-linecap="round" font-size="29.1042" fill="none" stroke-opacity="1" stroke-linejoin="bevel" stroke="#000000" font-family="MS Shell Dlg 2" font-style="normal" font-weight="400">
    <path vector-effect="none" d="M-107.654,-328.121 L108.629,-328.121" fill-rule="evenodd"/>
   </g>
   <g stroke-width="2.5" transform="matrix(1,0,0,1,1485,244.037)" stroke-linecap="round" font-size="29.1042" fill="none" stroke-opacity="1" stroke-linejoin="bevel" stroke="#000000" font-family="MS Shell Dlg 2" font-style="normal" font-weight="400">
    <path vector-effect="none" d="M-107.654,-328.121 L-107.654,219.794" fill-rule="evenodd"/>
   </g>
   <g stroke-width="2.5" transform="matrix(1,0,0,1,1485,244.037)" stroke-linecap="round" font-size="29.1042" fill="none" stroke-opacity="1" stroke-linejoin="bevel" stroke="#000000" font-family="MS Shell Dlg 2" font-style="normal" font-weight="400">
    <path vector-effect="none" d="M-143.701,219.794 L144.676,219.794" fill-rule="evenodd"/>
   </g>
   <g stroke-width="2.5" transform="matrix(1,0,0,1,1485,244.037)" stroke-linecap="round" font-size="29.1042" fill="none" stroke-opacity="1" stroke-linejoin="bevel" stroke="#000000" font-family="MS Shell Dlg 2" font-style="normal" font-weight="400">
    <path vector-effect="none" d="M-143.701,219.794 L-143.701,327.935" fill-rule="evenodd"/>
   </g>
   <g stroke-width="2.5" transform="matrix(1,0,0,1,1485,244.037)" stroke-linecap="round" font-size="29.1042" fill="none" stroke-opacity="1" stroke-linejoin="bevel" stroke="#000000" font-family="MS Shell Dlg 2" font-style="normal" font-weight="400">
    <path vector-effect="none" d="M-143.701,327.935 L144.676,327.935" fill-rule="evenodd"/>
   </g>
   <g stroke-width="2.5" transform="matrix(1,0,0,1,1485,244.037)" stroke-linecap="round" font-size="29.1042" fill="none" stroke-opacity="1" stroke-linejoin="bevel" stroke="#000000" font-family="MS Shell Dlg 2" font-style="normal" font-weight="400">
    <path vector-effect="none" d="M108.629,219.794 L108.629,-328.121" fill-rule="evenodd"/>
   </g>
   <g stroke-width="2.5" transform="matrix(1,0,0,1,1485,244.037)" stroke-linecap="round" font-size="29.1042" fill="none" stroke-opacity="1" stroke-linejoin="bevel" stroke="#000000" font-family="MS Shell Dlg 2" font-style="normal" font-weight="400">
    <path vector-effect="none" d="M144.676,327.935 L144.676,219.794" fill-rule="evenodd"/>
   </g>
   <g transform="matrix(1,0,0,1,2291.45,1050)" font-size="29.1042" fill="#ffffff" stroke="none" font-family="MS Shell Dlg 2" font-style="normal" fill-opacity="1" font-weight="400">
    <path vector-effect="non-scaling-stroke" d="M-327.935,-144.188 L-219.794,-144.188 L-219.794,-143.281 L-219.794,-140.573 L-219.794,-136.097 L-219.794,-129.909 L-219.794,-122.088 L-219.794,-112.731 L-219.794,-108.141 L328.121,-108.141 L328.121,-2.64869e-14 L328.121,108.141 L-219.794,108.141 L-219.794,112.731 L-219.794,122.088 L-219.794,129.909 L-219.794,136.097 L-219.794,140.573 L-219.794,143.281 L-219.794,144.188 L-327.935,144.188 L-327.935,-3.53159e-14 L-327.935,-144.188" fill-rule="evenodd"/>
   </g>
   <g transform="matrix(1,0,0,1,2291.45,1050)" font-size="29.1042" fill="#ffffff" stroke="none" font-family="MS Shell Dlg 2" font-style="normal" fill-opacity="1" font-weight="400">
    <path vector-effect="non-scaling-stroke" d="M-219.794,-108.141 L328.121,-108.141 L328.121,-2.64869e-14 L328.121,108.141 L-219.794,108.141 L-219.794,101.956 L-219.794,89.8998 L-219.794,76.7127 L-219.794,62.5609 L-219.794,47.6223 L-219.794,32.0849 L-219.794,16.1439 L-219.794,-1.77636e-14 L-219.794,-5.32907e-14 L-219.794,-16.1439 L-219.794,-32.0849 L-219.794,-47.6223 L-219.794,-62.5609 L-219.794,-76.7127 L-219.794,-89.8998 L-219.794,-101.956 L-219.794,-108.141" fill-rule="evenodd"/>
   </g>
   <g transform="matrix(1,0,0,1,2291.45,1050)" font-size="29.1042" fill="#ffffff" stroke="none" font-family="MS Shell Dlg 2" font-style="normal" fill-opacity="1" font-weight="400">
    <path vector-effect="non-scaling-stroke" d="M-327.935,-144.188 L-219.794,-144.188 L-219.794,-143.281 L-219.794,-140.573 L-219.794,-136.097 L-219.794,-129.909 L-219.794,-122.088 L-219.794,-112.731 L-219.794,-108.141 L-219.794,-101.956 L-219.794,-89.8998 L-219.794,-76.7127 L-219.794,-62.5609 L-219.794,-47.6223 L-219.794,-32.0849 L-219.794,-16.1439 L-219.794,-5.32907e-14 L-219.794,-1.77636e-14 L-219.794,16.1439 L-219.794,32.0849 L-219.794,47.6223 L-219.794,62.5609 L-219.794,76.7127 L-219.794,89.8998 L-219.794,101.956 L-219.794,108.141 L-219.794,112.731 L-219.794,122.088 L-219.794,129.909 L-219.794,136.097 L-219.794,140.573 L-219.794,143.281 L-219.794,144.188 L-327.935,144.188 L-327.935,-3.53159e-14 L-327.935,-144.188" fill-rule="evenodd"/>
   </g>
   <g stroke-width="1.3" transform="matrix(1,0,0,1,2291.45,1050)" stroke-dashoffset="0" stroke-linecap="round" font-size="29.1042" fill="none" stroke-opacity="1" stroke-linejoin="bevel" stroke="#000000" stroke-dasharray="5.2,2.6" font-family="MS Shell Dlg 2" font-style="normal" font-weight="400">
    <path vector-effect="none" d="M328.121,108.141 L328.121,-108.141" fill-rule="evenodd"/>
   </g>
   <g stroke-width="1.3" transform="matrix(1,0,0,1,2291.45,1050)" stroke-dashoffset="0" stroke-linecap="round" font-size="29.1042" fill="none" stroke-opacity="1" stroke-linejoin="bevel" stroke="#000000" stroke-dasharray="5.2,2.6" font-family="MS Shell Dlg 2" font-style="normal" font-weight="400">
    <path vector-effect="none" d="M-219.794,1.32435e-14 L-219.794,-108.141" fill-rule="evenodd"/>
   </g>
   <g stroke-width="1.3" transform="matrix(1,0,0,1,2291.45,1050)" stroke-dashoffset="0" stroke-linecap="round" font-size="29.1042" fill="none" stroke-opacity="1" stroke-linejoin="bevel" stroke="#000000" stroke-dasharray="5.2,2.6" font-family="MS Shell Dlg 2" font-style="normal" font-weight="400">
    <path vector-effect="none" d="M-219.794,-108.141 L-219.794,108.141" fill-rule="evenodd"/>
   </g>
   <g stroke-width="1.3" transform="matrix(1,0,0,1,2291.45,1050)" stroke-dashoffset="0" stroke-linecap="round" font-size="29.1042" fill="none" stroke-opacity="1" stroke-linejoin="bevel" stroke="#000000" stroke-dasharray="5.2,2.6" font-family="MS Shell Dlg 2" font-style="normal" font-weight="400">
    <path vector-effect="none" d="M-219.794,108.141 L-219.794,3.97304e-14" fill-rule="evenodd"/>
   </g>
   <g stroke-width="1.3" transform="matrix(1,0,0,1,2291.45,1050)" stroke-dashoffset="0" stroke-linecap="round" font-size="29.1042" fill="none" stroke-opacity="1" stroke-linejoin="bevel" stroke="#000000" stroke-dasharray="5.2,2.6" font-family="MS Shell Dlg 2" font-style="normal" font-weight="400">
    <path vector-effect="none" d="M-219.794,144.188 L-219.794,-144.188" fill-rule="evenodd"/>
   </g>
   <g stroke-width="1.3" transform="matrix(1,0,0,1,2291.45,1050)" stroke-dashoffset="0" stroke-linecap="round" font-size="29.1042" fill="none" stroke-opacity="1" stroke-linejoin="bevel" stroke="#000000" stroke-dasharray="5.2,2.6" font-family="MS Shell Dlg 2" font-style="normal" font-weight="400">
    <path vector-effect="none" d="M-327.935,144.188 L-327.935,-144.188" fill-rule="evenodd"/>
   </g>
   <g stroke-width="2.5" transform="matrix(1,0,0,1,2291.45,1050)" stroke-linecap="round" font-size="29.1042" fill="none" stroke-opacity="1" stroke-linejoin="bevel" stroke="#000000" font-family="MS Shell Dlg 2" font-style="normal" font-weight="400">
    <path vector-effect="none" d="M328.121,-1.32435e-14 L328.121,108.141" fill-rule="evenodd"/>
   </g>
   <g stroke-width="2.5" transform="matrix(1,0,0,1,2291.45,1050)" stroke-linecap="round" font-size="29.1042" fill="none" stroke-opacity="1" stroke-linejoin="bevel" stroke="#000000" font-family="MS Shell Dlg 2" font-style="normal" font-weight="400">
    <path vector-effect="none" d="M328.121,-108.141 L328.121,-3.97304e-14" fill-rule="evenodd"/>
   </g>
   <g stroke-width="2.5" transform="matrix(1,0,0,1,2291.45,1050)" stroke-linecap="round" font-size="29.1042" fill="none" stroke-opacity="1" stroke-linejoin="bevel" stroke="#000000" font-family="MS Shell Dlg 2" font-style="normal" font-weight="400">
    <path vector-effect="none" d="M-219.794,-1.76579e-14 L-219.794,144.188" fill-rule="evenodd"/>
   </g>
   <g stroke-width="2.5" transform="matrix(1,0,0,1,2291.45,1050)" stroke-linecap="round" font-size="29.1042" fill="none" stroke-opacity="1" stroke-linejoin="bevel" stroke="#000000" font-family="MS Shell Dlg 2" font-style="normal" font-weight="400">
    <path vector-effect="none" d="M-219.794,-144.188 L-219.794,-5.29738e-14" fill-rule="evenodd"/>
   </g>
   <g stroke-width="2.5" transform="matrix(1,0,0,1,2291.45,1050)" stroke-linecap="round" font-size="29.1042" fill="none" stroke-opacity="1" stroke-linejoin="bevel" stroke="#000000" font-family="MS Shell Dlg 2" font-style="normal" font-weight="400">
    <path vector-effect="none" d="M-327.935,-1.76579e-14 L-327.935,144.188" fill-rule="evenodd"/>
   </g>
   <g stroke-width="2.5" transform="matrix(1,0,0,1,2291.45,1050)" stroke-linecap="round" font-size="29.1042" fill="none" stroke-opacity="1" stroke-linejoin="bevel" stroke="#000000" font-family="MS Shell Dlg 2" font-style="normal" font-weight="400">
    <path vector-effect="none" d="M-327.935,-144.188 L-327.935,-5.29738e-14" fill-rule="evenodd"/>
   </g>
   <g stroke-width="2.5" transform="matrix(1,0,0,1,2291.45,1050)" stroke-linecap="round" font-size="29.1042" fill="none" stroke-opacity="1" stroke-linejoin="bevel" stroke="#000000" font-family="MS Shell Dlg 2" font-style="normal" font-weight="400">
    <path vector-effect="none" d="M-219.794,108.141 L328.121,108.141" fill-rule="evenodd"/>
   </g>
   <g stroke-width="2.5" transform="matrix(1,0,0,1,2291.45,1050)" stroke-linecap="round" font-size="29.1042" fill="none" stroke-opacity="1" stroke-linejoin="bevel" stroke="#000000" font-family="MS Shell Dlg 2" font-style="normal" font-weight="400">
    <path vector-effect="none" d="M-219.794,-108.141 L328.121,-108.141" fill-rule="evenodd"/>
   </g>
   <g stroke-width="2.5" transform="matrix(1,0,0,1,2291.45,1050)" stroke-linecap="round" font-size="29.1042" fill="none" stroke-opacity="1" stroke-linejoin="bevel" stroke="#000000" font-family="MS Shell Dlg 2" font-style="normal" font-weight="400">
    <path vector-effect="none" d="M-327.935,144.188 L-219.794,144.188" fill-rule="evenodd"/>
   </g>
   <g stroke-width="2.5" transform="matrix(1,0,0,1,2291.45,1050)" stroke-linecap="round" font-size="29.1042" fill="none" stroke-opacity="1" stroke-linejoin="bevel" stroke="#000000" font-family="MS Shell Dlg 2" font-style="normal" font-weight="400">
    <path vector-effect="none" d="M-327.935,-144.188 L-219.794,-144.188" fill-rule="evenodd"/>
   </g>
  </g>
 </g>
</svg>
