<?xml version='1.0' encoding='UTF-8' standalone='no'?>
<svg width="297mm" height="210mm" xmlns:xlink="http://www.w3.org/1999/xlink" baseProfile="tiny" xmlns:svg="http://www.w3.org/2000/svg" version="1.2" xmlns:cc="http://creativecommons.org/ns#" xmlns:sodipodi="http://sodipodi.sourceforge.net/DTD/sodipodi-0.dtd" xmlns:dc="http://purl.org/dc/elements/1.1/" xmlns:rdf="http://www.w3.org/1999/02/22-rdf-syntax-ns#" xmlns:freecad="http://www.freecadweb.org/wiki/index.php?title=Svg_Namespace" xmlns:inkscape="http://www.inkscape.org/namespaces/inkscape" xmlns="http://www.w3.org/2000/svg" viewBox="0 0 5000 3000">
 <title>FreeCAD SVG Export</title>
 <desc>Drawing page: Page exported from FreeCAD document: Unnamed</desc>
 <defs/>
 <g inkscape:groupmode="layer" id="Page" inkscape:label="TechDraw">
  <g stroke-width="1" stroke-linecap="square" fill="none" stroke-linejoin="bevel" id="DrawingContent" stroke="black" fill-rule="evenodd">
   <g stroke-width="1" transform="matrix(1,0,0,1,1485,1050)" stroke-linecap="square" font-size="29.1042" fill="none" stroke-opacity="1" stroke-linejoin="bevel" stroke="#000000" font-family="MS Shell Dlg 2" font-style="normal" font-weight="400">
    <rect x="0" width="0" height="0" y="0"/>
   </g>
   <g transform="matrix(1,0,0,1,1485,1050)" font-size="29.1042" fill="#ffffff" stroke="none" font-family="MS Shell Dlg 2" font-style="normal" fill-opacity="1" font-weight="400">
    <path vector-effect="non-scaling-stroke" d="M74.5197,614.787 L74.5197,-614.787 L72.6513,-614.787 L67.1399,-614.787 L58.2618,-614.787 L46.4623,-614.787 L32.3329,-614.787 L27.9449,-614.787 L27.9449,-652.047 L-27.9449,-652.047 L-27.9449,-614.787 L-32.3329,-614.787 L-46.4623,-614.787 L-58.2618,-614.787 L-67.1399,-614.787 L-72.6513,-614.787 L-74.5197,-614.787 L-74.5197,614.787 L-72.6513,614.787 L-67.1399,614.787 L-58.2618,614.787 L-46.4623,614.787 L-32.3329,614.787 L-27.9449,614.787 L-27.9449,652.047 L27.9449,652.047 L27.9449,614.787 L32.3329,614.787 L46.4623,614.787 L58.2618,614.787 L67.1399,614.787 L72.6513,614.787 L74.5197,614.787" fill-rule="evenodd"/>
   </g>
   <g transform="matrix(1,0,0,1,1485,1050)" font-size="29.1042" fill="#ffffff" stroke="none" font-family="MS Shell Dlg 2" font-style="normal" fill-opacity="1" font-weight="400">
    <path vector-effect="non-scaling-stroke" d="M74.5197,614.787 L74.5197,-614.787 L72.6513,-614.787 L67.1399,-614.787 L58.2618,-614.787 L46.4623,-614.787 L32.3329,-614.787 L27.9449,-614.787 L16.5822,-614.787 L-1.33227e-14,-614.787 L-16.5822,-614.787 L-27.9449,-614.787 L-32.3329,-614.787 L-46.4623,-614.787 L-58.2618,-614.787 L-67.1399,-614.787 L-72.6513,-614.787 L-74.5197,-614.787 L-74.5197,614.787 L-72.6513,614.787 L-67.1399,614.787 L-58.2618,614.787 L-46.4623,614.787 L-32.3329,614.787 L-27.9449,614.787 L-16.5822,614.787 L2.22045e-14,614.787 L16.5822,614.787 L27.9449,614.787 L32.3329,614.787 L46.4623,614.787 L58.2618,614.787 L67.1399,614.787 L72.6513,614.787 L74.5197,614.787" fill-rule="evenodd"/>
   </g>
   <g transform="matrix(1,0,0,1,1485,1050)" font-size="29.1042" fill="#ffffff" stroke="none" font-family="MS Shell Dlg 2" font-style="normal" fill-opacity="1" font-weight="400">
    <path vector-effect="non-scaling-stroke" d="M-27.9449,-652.047 L-27.9449,-614.787 L-16.5822,-614.787 L-1.33227e-14,-614.787 L16.5822,-614.787 L27.9449,-614.787 L27.9449,-652.047 L-27.9449,-652.047" fill-rule="evenodd"/>
   </g>
   <g transform="matrix(1,0,0,1,1485,1050)" font-size="29.1042" fill="#ffffff" stroke="none" font-family="MS Shell Dlg 2" font-style="normal" fill-opacity="1" font-weight="400">
    <path vector-effect="non-scaling-stroke" d="M27.9449,652.047 L27.9449,614.787 L16.5822,614.787 L2.22045e-14,614.787 L-16.5822,614.787 L-27.9449,614.787 L-27.9449,652.047 L27.9449,652.047" fill-rule="evenodd"/>
   </g>
   <g stroke-width="1.3" transform="matrix(1,0,0,1,1485,1050)" stroke-dashoffset="0" stroke-linecap="round" font-size="29.1042" fill="none" stroke-opacity="1" stroke-linejoin="bevel" stroke="#000000" stroke-dasharray="5.2,2.6" font-family="MS Shell Dlg 2" font-style="normal" font-weight="400">
    <path vector-effect="none" d="M-74.5197,614.787 L74.5197,614.787" fill-rule="evenodd"/>
   </g>
   <g stroke-width="1.3" transform="matrix(1,0,0,1,1485,1050)" stroke-dashoffset="0" stroke-linecap="round" font-size="29.1042" fill="none" stroke-opacity="1" stroke-linejoin="bevel" stroke="#000000" stroke-dasharray="5.2,2.6" font-family="MS Shell Dlg 2" font-style="normal" font-weight="400">
    <path vector-effect="none" d="M-27.9449,614.787 L27.9449,614.787" fill-rule="evenodd"/>
   </g>
   <g stroke-width="1.3" transform="matrix(1,0,0,1,1485,1050)" stroke-dashoffset="0" stroke-linecap="round" font-size="29.1042" fill="none" stroke-opacity="1" stroke-linejoin="bevel" stroke="#000000" stroke-dasharray="5.2,2.6" font-family="MS Shell Dlg 2" font-style="normal" font-weight="400">
    <path vector-effect="none" d="M27.9449,614.787 L-27.9449,614.787" fill-rule="evenodd"/>
   </g>
   <g stroke-width="1.3" transform="matrix(1,0,0,1,1485,1050)" stroke-dashoffset="0" stroke-linecap="round" font-size="29.1042" fill="none" stroke-opacity="1" stroke-linejoin="bevel" stroke="#000000" stroke-dasharray="5.2,2.6" font-family="MS Shell Dlg 2" font-style="normal" font-weight="400">
    <path vector-effect="none" d="M74.5197,-614.787 L-74.5197,-614.787" fill-rule="evenodd"/>
   </g>
   <g stroke-width="1.3" transform="matrix(1,0,0,1,1485,1050)" stroke-dashoffset="0" stroke-linecap="round" font-size="29.1042" fill="none" stroke-opacity="1" stroke-linejoin="bevel" stroke="#000000" stroke-dasharray="5.2,2.6" font-family="MS Shell Dlg 2" font-style="normal" font-weight="400">
    <path vector-effect="none" d="M-27.9449,-614.787 L27.9449,-614.787" fill-rule="evenodd"/>
   </g>
   <g stroke-width="1.3" transform="matrix(1,0,0,1,1485,1050)" stroke-dashoffset="0" stroke-linecap="round" font-size="29.1042" fill="none" stroke-opacity="1" stroke-linejoin="bevel" stroke="#000000" stroke-dasharray="5.2,2.6" font-family="MS Shell Dlg 2" font-style="normal" font-weight="400">
    <path vector-effect="none" d="M27.9449,-614.787 L-27.9449,-614.787" fill-rule="evenodd"/>
   </g>
   <g stroke-width="1.3" transform="matrix(1,0,0,1,1485,1050)" stroke-dashoffset="0" stroke-linecap="round" font-size="29.1042" fill="none" stroke-opacity="1" stroke-linejoin="bevel" stroke="#000000" stroke-dasharray="5.2,2.6" font-family="MS Shell Dlg 2" font-style="normal" font-weight="400">
    <path vector-effect="none" d="M27.9449,-652.047 L-27.9449,-652.047" fill-rule="evenodd"/>
   </g>
   <g stroke-width="1.3" transform="matrix(1,0,0,1,1485,1050)" stroke-dashoffset="0" stroke-linecap="round" font-size="29.1042" fill="none" stroke-opacity="1" stroke-linejoin="bevel" stroke="#000000" stroke-dasharray="5.2,2.6" font-family="MS Shell Dlg 2" font-style="normal" font-weight="400">
    <path vector-effect="none" d="M-27.9449,652.047 L27.9449,652.047" fill-rule="evenodd"/>
   </g>
   <g stroke-width="2.5" transform="matrix(1,0,0,1,1485,1050)" stroke-linecap="round" font-size="29.1042" fill="none" stroke-opacity="1" stroke-linejoin="bevel" stroke="#000000" font-family="MS Shell Dlg 2" font-style="normal" font-weight="400">
    <path vector-effect="none" d="M74.5197,614.787 L-74.5197,614.787" fill-rule="evenodd"/>
   </g>
   <g stroke-width="2.5" transform="matrix(1,0,0,1,1485,1050)" stroke-linecap="round" font-size="29.1042" fill="none" stroke-opacity="1" stroke-linejoin="bevel" stroke="#000000" font-family="MS Shell Dlg 2" font-style="normal" font-weight="400">
    <path vector-effect="none" d="M-74.5197,-614.787 L74.5197,-614.787" fill-rule="evenodd"/>
   </g>
   <g stroke-width="2.5" transform="matrix(1,0,0,1,1485,1050)" stroke-linecap="round" font-size="29.1042" fill="none" stroke-opacity="1" stroke-linejoin="bevel" stroke="#000000" font-family="MS Shell Dlg 2" font-style="normal" font-weight="400">
    <path vector-effect="none" d="M-74.5197,-614.787 L-74.5197,614.787" fill-rule="evenodd"/>
   </g>
   <g stroke-width="2.5" transform="matrix(1,0,0,1,1485,1050)" stroke-linecap="round" font-size="29.1042" fill="none" stroke-opacity="1" stroke-linejoin="bevel" stroke="#000000" font-family="MS Shell Dlg 2" font-style="normal" font-weight="400">
    <path vector-effect="none" d="M-27.9449,-652.047 L27.9449,-652.047" fill-rule="evenodd"/>
   </g>
   <g stroke-width="2.5" transform="matrix(1,0,0,1,1485,1050)" stroke-linecap="round" font-size="29.1042" fill="none" stroke-opacity="1" stroke-linejoin="bevel" stroke="#000000" font-family="MS Shell Dlg 2" font-style="normal" font-weight="400">
    <path vector-effect="none" d="M-27.9449,-652.047 L-27.9449,-614.787" fill-rule="evenodd"/>
   </g>
   <g stroke-width="2.5" transform="matrix(1,0,0,1,1485,1050)" stroke-linecap="round" font-size="29.1042" fill="none" stroke-opacity="1" stroke-linejoin="bevel" stroke="#000000" font-family="MS Shell Dlg 2" font-style="normal" font-weight="400">
    <path vector-effect="none" d="M27.9449,652.047 L-27.9449,652.047" fill-rule="evenodd"/>
   </g>
   <g stroke-width="2.5" transform="matrix(1,0,0,1,1485,1050)" stroke-linecap="round" font-size="29.1042" fill="none" stroke-opacity="1" stroke-linejoin="bevel" stroke="#000000" font-family="MS Shell Dlg 2" font-style="normal" font-weight="400">
    <path vector-effect="none" d="M-27.9449,614.787 L-27.9449,652.047" fill-rule="evenodd"/>
   </g>
   <g stroke-width="2.5" transform="matrix(1,0,0,1,1485,1050)" stroke-linecap="round" font-size="29.1042" fill="none" stroke-opacity="1" stroke-linejoin="bevel" stroke="#000000" font-family="MS Shell Dlg 2" font-style="normal" font-weight="400">
    <path vector-effect="none" d="M74.5197,614.787 L74.5197,-614.787" fill-rule="evenodd"/>
   </g>
   <g stroke-width="2.5" transform="matrix(1,0,0,1,1485,1050)" stroke-linecap="round" font-size="29.1042" fill="none" stroke-opacity="1" stroke-linejoin="bevel" stroke="#000000" font-family="MS Shell Dlg 2" font-style="normal" font-weight="400">
    <path vector-effect="none" d="M27.9449,-614.787 L27.9449,-652.047" fill-rule="evenodd"/>
   </g>
   <g stroke-width="2.5" transform="matrix(1,0,0,1,1485,1050)" stroke-linecap="round" font-size="29.1042" fill="none" stroke-opacity="1" stroke-linejoin="bevel" stroke="#000000" font-family="MS Shell Dlg 2" font-style="normal" font-weight="400">
    <path vector-effect="none" d="M27.9449,652.047 L27.9449,614.787" fill-rule="evenodd"/>
   </g>
   <g transform="matrix(1,0,0,1,1485,173.433)" font-size="29.1042" fill="#ffffff" stroke="none" font-family="MS Shell Dlg 2" font-style="normal" fill-opacity="1" font-weight="400">
    <path vector-effect="non-scaling-stroke" d="M74.5197,0 C74.5197,41.1561 41.1561,74.5197 0,74.5197 C-41.1561,74.5197 -74.5197,41.1561 -74.5197,0 C-74.5197,-41.1561 -41.1561,-74.5197 0,-74.5197 C41.1561,-74.5197 74.5197,-41.1561 74.5197,0 " fill-rule="evenodd"/>
   </g>
   <g transform="matrix(1,0,0,1,1485,173.433)" font-size="29.1042" fill="#ffffff" stroke="none" font-family="MS Shell Dlg 2" font-style="normal" fill-opacity="1" font-weight="400">
    <path vector-effect="non-scaling-stroke" d="M27.9449,0 C27.9449,15.4335 15.4335,27.9449 0,27.9449 C-15.4335,27.9449 -27.9449,15.4335 -27.9449,0 C-27.9449,-15.4335 -15.4335,-27.9449 0,-27.9449 C15.4335,-27.9449 27.9449,-15.4335 27.9449,0 " fill-rule="evenodd"/>
   </g>
   <g stroke-width="1.3" transform="matrix(1,0,0,1,1485,173.433)" stroke-dashoffset="0" stroke-linecap="round" font-size="29.1042" fill="none" stroke-opacity="1" stroke-linejoin="bevel" stroke="#000000" stroke-dasharray="5.2,2.6" font-family="MS Shell Dlg 2" font-style="normal" font-weight="400">
    <path vector-effect="none" d="M27.9449,0 C27.9449,15.4335 15.4335,27.9449 0,27.9449 C-15.4335,27.9449 -27.9449,15.4335 -27.9449,0 C-27.9449,-15.4335 -15.4335,-27.9449 0,-27.9449 C15.4335,-27.9449 27.9449,-15.4335 27.9449,0 " fill-rule="evenodd"/>
   </g>
   <g stroke-width="1.3" transform="matrix(1,0,0,1,1485,173.433)" stroke-dashoffset="0" stroke-linecap="round" font-size="29.1042" fill="none" stroke-opacity="1" stroke-linejoin="bevel" stroke="#000000" stroke-dasharray="5.2,2.6" font-family="MS Shell Dlg 2" font-style="normal" font-weight="400">
    <path vector-effect="none" d="M74.5197,0 C74.5197,41.1561 41.1561,74.5197 0,74.5197 C-41.1561,74.5197 -74.5197,41.1561 -74.5197,0 C-74.5197,-41.1561 -41.1561,-74.5197 0,-74.5197 C41.1561,-74.5197 74.5197,-41.1561 74.5197,0 " fill-rule="evenodd"/>
   </g>
   <g stroke-width="1.3" transform="matrix(1,0,0,1,1485,173.433)" stroke-dashoffset="0" stroke-linecap="round" font-size="29.1042" fill="none" stroke-opacity="1" stroke-linejoin="bevel" stroke="#000000" stroke-dasharray="5.2,2.6" font-family="MS Shell Dlg 2" font-style="normal" font-weight="400">
    <path vector-effect="none" d="M27.9449,0 C27.9449,15.4335 15.4335,27.9449 0,27.9449 C-15.4335,27.9449 -27.9449,15.4335 -27.9449,0 C-27.9449,-15.4335 -15.4335,-27.9449 0,-27.9449 C15.4335,-27.9449 27.9449,-15.4335 27.9449,0 " fill-rule="evenodd"/>
   </g>
   <g stroke-width="1.3" transform="matrix(1,0,0,1,1485,173.433)" stroke-dashoffset="0" stroke-linecap="round" font-size="29.1042" fill="none" stroke-opacity="1" stroke-linejoin="bevel" stroke="#000000" stroke-dasharray="5.2,2.6" font-family="MS Shell Dlg 2" font-style="normal" font-weight="400">
    <path vector-effect="none" d="M27.9449,0 C27.9449,15.4335 15.4335,27.9449 0,27.9449 C-15.4335,27.9449 -27.9449,15.4335 -27.9449,0 C-27.9449,-15.4335 -15.4335,-27.9449 0,-27.9449 C15.4335,-27.9449 27.9449,-15.4335 27.9449,0 " fill-rule="evenodd"/>
   </g>
   <g stroke-width="2.5" transform="matrix(1,0,0,1,1485,173.433)" stroke-linecap="round" font-size="29.1042" fill="none" stroke-opacity="1" stroke-linejoin="bevel" stroke="#000000" font-family="MS Shell Dlg 2" font-style="normal" font-weight="400">
    <path vector-effect="none" d="M74.5197,0 C74.5197,41.1561 41.1561,74.5197 0,74.5197 C-41.1561,74.5197 -74.5197,41.1561 -74.5197,0 C-74.5197,-41.1561 -41.1561,-74.5197 0,-74.5197 C41.1561,-74.5197 74.5197,-41.1561 74.5197,0 " fill-rule="evenodd"/>
   </g>
   <g stroke-width="2.5" transform="matrix(1,0,0,1,1485,173.433)" stroke-linecap="round" font-size="29.1042" fill="none" stroke-opacity="1" stroke-linejoin="bevel" stroke="#000000" font-family="MS Shell Dlg 2" font-style="normal" font-weight="400">
    <path vector-effect="none" d="M27.9449,0 C27.9449,15.4335 15.4335,27.9449 0,27.9449 C-15.4335,27.9449 -27.9449,15.4335 -27.9449,0 C-27.9449,-15.4335 -15.4335,-27.9449 0,-27.9449 C15.4335,-27.9449 27.9449,-15.4335 27.9449,0 " fill-rule="evenodd"/>
   </g>
   <g transform="matrix(1,0,0,1,1784.04,1050)" font-size="29.1042" fill="#ffffff" stroke="none" font-family="MS Shell Dlg 2" font-style="normal" fill-opacity="1" font-weight="400">
    <path vector-effect="non-scaling-stroke" d="M74.5197,614.787 L74.5197,-614.787 L74.0511,-614.787 L72.6513,-614.787 L70.3379,-614.787 L67.1399,-614.787 L63.0976,-614.787 L58.2618,-614.787 L52.6934,-614.787 L46.4623,-614.787 L39.6469,-614.787 L32.3329,-614.787 L27.9449,-614.787 L27.9449,-652.047 L-9.94703e-15,-652.047 L-27.9449,-652.047 L-27.9449,-614.787 L-32.3329,-614.787 L-39.6469,-614.787 L-46.4623,-614.787 L-52.6934,-614.787 L-58.2618,-614.787 L-63.0976,-614.787 L-67.1399,-614.787 L-70.3379,-614.787 L-72.6513,-614.787 L-74.0511,-614.787 L-74.5197,-614.787 L-74.5197,614.787 L-74.0511,614.787 L-72.6513,614.787 L-70.3379,614.787 L-67.1399,614.787 L-63.0976,614.787 L-58.2618,614.787 L-52.6934,614.787 L-46.4623,614.787 L-39.6469,614.787 L-32.3329,614.787 L-27.9449,614.787 L-27.9449,652.047 L3.74202e-15,652.047 L27.9449,652.047 L27.9449,614.787 L32.3329,614.787 L39.6469,614.787 L46.4623,614.787 L52.6934,614.787 L58.2618,614.787 L63.0976,614.787 L67.1399,614.787 L70.3379,614.787 L72.6513,614.787 L74.0511,614.787 L74.5197,614.787" fill-rule="evenodd"/>
   </g>
   <g transform="matrix(1,0,0,1,1784.04,1050)" font-size="29.1042" fill="#ffffff" stroke="none" font-family="MS Shell Dlg 2" font-style="normal" fill-opacity="1" font-weight="400">
    <path vector-effect="non-scaling-stroke" d="M74.5197,614.787 L74.5197,-614.787 L74.0511,-614.787 L72.6513,-614.787 L70.3379,-614.787 L67.1399,-614.787 L63.0976,-614.787 L58.2618,-614.787 L52.6934,-614.787 L46.4623,-614.787 L39.6469,-614.787 L32.3329,-614.787 L27.9449,-614.787 L24.6123,-614.787 L16.5822,-614.787 L8.34356,-614.787 L-1.77636e-14,-614.787 L-3.55271e-14,-614.787 L-8.34356,-614.787 L-16.5822,-614.787 L-24.6123,-614.787 L-27.9449,-614.787 L-32.3329,-614.787 L-39.6469,-614.787 L-46.4623,-614.787 L-52.6934,-614.787 L-58.2618,-614.787 L-63.0976,-614.787 L-67.1399,-614.787 L-70.3379,-614.787 L-72.6513,-614.787 L-74.0511,-614.787 L-74.5197,-614.787 L-74.5197,614.787 L-74.0511,614.787 L-72.6513,614.787 L-70.3379,614.787 L-67.1399,614.787 L-63.0976,614.787 L-58.2618,614.787 L-52.6934,614.787 L-46.4623,614.787 L-39.6469,614.787 L-32.3329,614.787 L-27.9449,614.787 L-24.6123,614.787 L-16.5822,614.787 L-8.34356,614.787 L1.11022e-15,614.787 L1.88738e-14,614.787 L8.34356,614.787 L16.5822,614.787 L24.6123,614.787 L27.9449,614.787 L32.3329,614.787 L39.6469,614.787 L46.4623,614.787 L52.6934,614.787 L58.2618,614.787 L63.0976,614.787 L67.1399,614.787 L70.3379,614.787 L72.6513,614.787 L74.0511,614.787 L74.5197,614.787" fill-rule="evenodd"/>
   </g>
   <g transform="matrix(1,0,0,1,1784.04,1050)" font-size="29.1042" fill="#ffffff" stroke="none" font-family="MS Shell Dlg 2" font-style="normal" fill-opacity="1" font-weight="400">
    <path vector-effect="non-scaling-stroke" d="M27.9449,652.047 L27.9449,614.787 L24.6123,614.787 L16.5822,614.787 L8.34356,614.787 L1.88738e-14,614.787 L1.11022e-15,614.787 L-8.34356,614.787 L-16.5822,614.787 L-24.6123,614.787 L-27.9449,614.787 L-27.9449,652.047 L3.74202e-15,652.047 L27.9449,652.047" fill-rule="evenodd"/>
   </g>
   <g transform="matrix(1,0,0,1,1784.04,1050)" font-size="29.1042" fill="#ffffff" stroke="none" font-family="MS Shell Dlg 2" font-style="normal" fill-opacity="1" font-weight="400">
    <path vector-effect="non-scaling-stroke" d="M-27.9449,-614.787 L-24.6123,-614.787 L-16.5822,-614.787 L-8.34356,-614.787 L-3.55271e-14,-614.787 L-1.77636e-14,-614.787 L8.34356,-614.787 L16.5822,-614.787 L24.6123,-614.787 L27.9449,-614.787 L27.9449,-652.047 L-9.94703e-15,-652.047 L-27.9449,-652.047 L-27.9449,-614.787" fill-rule="evenodd"/>
   </g>
   <g stroke-width="1.3" transform="matrix(1,0,0,1,1784.04,1050)" stroke-dashoffset="0" stroke-linecap="round" font-size="29.1042" fill="none" stroke-opacity="1" stroke-linejoin="bevel" stroke="#000000" stroke-dasharray="5.2,2.6" font-family="MS Shell Dlg 2" font-style="normal" font-weight="400">
    <path vector-effect="none" d="M-74.5197,614.787 L74.5197,614.787" fill-rule="evenodd"/>
   </g>
   <g stroke-width="1.3" transform="matrix(1,0,0,1,1784.04,1050)" stroke-dashoffset="0" stroke-linecap="round" font-size="29.1042" fill="none" stroke-opacity="1" stroke-linejoin="bevel" stroke="#000000" stroke-dasharray="5.2,2.6" font-family="MS Shell Dlg 2" font-style="normal" font-weight="400">
    <path vector-effect="none" d="M3.19756e-16,614.787 L-27.9449,614.787" fill-rule="evenodd"/>
   </g>
   <g stroke-width="1.3" transform="matrix(1,0,0,1,1784.04,1050)" stroke-dashoffset="0" stroke-linecap="round" font-size="29.1042" fill="none" stroke-opacity="1" stroke-linejoin="bevel" stroke="#000000" stroke-dasharray="5.2,2.6" font-family="MS Shell Dlg 2" font-style="normal" font-weight="400">
    <path vector-effect="none" d="M-27.9449,614.787 L27.9449,614.787" fill-rule="evenodd"/>
   </g>
   <g stroke-width="1.3" transform="matrix(1,0,0,1,1784.04,1050)" stroke-dashoffset="0" stroke-linecap="round" font-size="29.1042" fill="none" stroke-opacity="1" stroke-linejoin="bevel" stroke="#000000" stroke-dasharray="5.2,2.6" font-family="MS Shell Dlg 2" font-style="normal" font-weight="400">
    <path vector-effect="none" d="M27.9449,614.787 L7.16428e-15,614.787" fill-rule="evenodd"/>
   </g>
   <g stroke-width="1.3" transform="matrix(1,0,0,1,1784.04,1050)" stroke-dashoffset="0" stroke-linecap="round" font-size="29.1042" fill="none" stroke-opacity="1" stroke-linejoin="bevel" stroke="#000000" stroke-dasharray="5.2,2.6" font-family="MS Shell Dlg 2" font-style="normal" font-weight="400">
    <path vector-effect="none" d="M74.5197,-614.787 L-74.5197,-614.787" fill-rule="evenodd"/>
   </g>
   <g stroke-width="1.3" transform="matrix(1,0,0,1,1784.04,1050)" stroke-dashoffset="0" stroke-linecap="round" font-size="29.1042" fill="none" stroke-opacity="1" stroke-linejoin="bevel" stroke="#000000" stroke-dasharray="5.2,2.6" font-family="MS Shell Dlg 2" font-style="normal" font-weight="400">
    <path vector-effect="none" d="M-6.52477e-15,-614.787 L27.9449,-614.787" fill-rule="evenodd"/>
   </g>
   <g stroke-width="1.3" transform="matrix(1,0,0,1,1784.04,1050)" stroke-dashoffset="0" stroke-linecap="round" font-size="29.1042" fill="none" stroke-opacity="1" stroke-linejoin="bevel" stroke="#000000" stroke-dasharray="5.2,2.6" font-family="MS Shell Dlg 2" font-style="normal" font-weight="400">
    <path vector-effect="none" d="M27.9449,-614.787 L-27.9449,-614.787" fill-rule="evenodd"/>
   </g>
   <g stroke-width="1.3" transform="matrix(1,0,0,1,1784.04,1050)" stroke-dashoffset="0" stroke-linecap="round" font-size="29.1042" fill="none" stroke-opacity="1" stroke-linejoin="bevel" stroke="#000000" stroke-dasharray="5.2,2.6" font-family="MS Shell Dlg 2" font-style="normal" font-weight="400">
    <path vector-effect="none" d="M-27.9449,-614.787 L-1.33693e-14,-614.787" fill-rule="evenodd"/>
   </g>
   <g stroke-width="1.3" transform="matrix(1,0,0,1,1784.04,1050)" stroke-dashoffset="0" stroke-linecap="round" font-size="29.1042" fill="none" stroke-opacity="1" stroke-linejoin="bevel" stroke="#000000" stroke-dasharray="5.2,2.6" font-family="MS Shell Dlg 2" font-style="normal" font-weight="400">
    <path vector-effect="none" d="M27.9449,-652.047 L-27.9449,-652.047" fill-rule="evenodd"/>
   </g>
   <g stroke-width="1.3" transform="matrix(1,0,0,1,1784.04,1050)" stroke-dashoffset="0" stroke-linecap="round" font-size="29.1042" fill="none" stroke-opacity="1" stroke-linejoin="bevel" stroke="#000000" stroke-dasharray="5.2,2.6" font-family="MS Shell Dlg 2" font-style="normal" font-weight="400">
    <path vector-effect="none" d="M-27.9449,652.047 L27.9449,652.047" fill-rule="evenodd"/>
   </g>
   <g stroke-width="2.5" transform="matrix(1,0,0,1,1784.04,1050)" stroke-linecap="round" font-size="29.1042" fill="none" stroke-opacity="1" stroke-linejoin="bevel" stroke="#000000" font-family="MS Shell Dlg 2" font-style="normal" font-weight="400">
    <path vector-effect="none" d="M8.52682e-16,614.787 L-74.5197,614.787" fill-rule="evenodd"/>
   </g>
   <g stroke-width="2.5" transform="matrix(1,0,0,1,1784.04,1050)" stroke-linecap="round" font-size="29.1042" fill="none" stroke-opacity="1" stroke-linejoin="bevel" stroke="#000000" font-family="MS Shell Dlg 2" font-style="normal" font-weight="400">
    <path vector-effect="none" d="M74.5197,614.787 L1.91047e-14,614.787" fill-rule="evenodd"/>
   </g>
   <g stroke-width="2.5" transform="matrix(1,0,0,1,1784.04,1050)" stroke-linecap="round" font-size="29.1042" fill="none" stroke-opacity="1" stroke-linejoin="bevel" stroke="#000000" font-family="MS Shell Dlg 2" font-style="normal" font-weight="400">
    <path vector-effect="none" d="M-1.73994e-14,-614.787 L74.5197,-614.787" fill-rule="evenodd"/>
   </g>
   <g stroke-width="2.5" transform="matrix(1,0,0,1,1784.04,1050)" stroke-linecap="round" font-size="29.1042" fill="none" stroke-opacity="1" stroke-linejoin="bevel" stroke="#000000" font-family="MS Shell Dlg 2" font-style="normal" font-weight="400">
    <path vector-effect="none" d="M-74.5197,-614.787 L-3.56514e-14,-614.787" fill-rule="evenodd"/>
   </g>
   <g stroke-width="2.5" transform="matrix(1,0,0,1,1784.04,1050)" stroke-linecap="round" font-size="29.1042" fill="none" stroke-opacity="1" stroke-linejoin="bevel" stroke="#000000" font-family="MS Shell Dlg 2" font-style="normal" font-weight="400">
    <path vector-effect="none" d="M-6.52477e-15,-652.047 L27.9449,-652.047" fill-rule="evenodd"/>
   </g>
   <g stroke-width="2.5" transform="matrix(1,0,0,1,1784.04,1050)" stroke-linecap="round" font-size="29.1042" fill="none" stroke-opacity="1" stroke-linejoin="bevel" stroke="#000000" font-family="MS Shell Dlg 2" font-style="normal" font-weight="400">
    <path vector-effect="none" d="M-27.9449,-652.047 L-1.33693e-14,-652.047" fill-rule="evenodd"/>
   </g>
   <g stroke-width="2.5" transform="matrix(1,0,0,1,1784.04,1050)" stroke-linecap="round" font-size="29.1042" fill="none" stroke-opacity="1" stroke-linejoin="bevel" stroke="#000000" font-family="MS Shell Dlg 2" font-style="normal" font-weight="400">
    <path vector-effect="none" d="M3.19756e-16,652.047 L-27.9449,652.047" fill-rule="evenodd"/>
   </g>
   <g stroke-width="2.5" transform="matrix(1,0,0,1,1784.04,1050)" stroke-linecap="round" font-size="29.1042" fill="none" stroke-opacity="1" stroke-linejoin="bevel" stroke="#000000" font-family="MS Shell Dlg 2" font-style="normal" font-weight="400">
    <path vector-effect="none" d="M27.9449,652.047 L7.16428e-15,652.047" fill-rule="evenodd"/>
   </g>
   <g stroke-width="2.5" transform="matrix(1,0,0,1,1784.04,1050)" stroke-linecap="round" font-size="29.1042" fill="none" stroke-opacity="1" stroke-linejoin="bevel" stroke="#000000" font-family="MS Shell Dlg 2" font-style="normal" font-weight="400">
    <path vector-effect="none" d="M74.5197,614.787 L74.5197,-614.787" fill-rule="evenodd"/>
   </g>
   <g stroke-width="2.5" transform="matrix(1,0,0,1,1784.04,1050)" stroke-linecap="round" font-size="29.1042" fill="none" stroke-opacity="1" stroke-linejoin="bevel" stroke="#000000" font-family="MS Shell Dlg 2" font-style="normal" font-weight="400">
    <path vector-effect="none" d="M-74.5197,614.787 L-74.5197,-614.787" fill-rule="evenodd"/>
   </g>
   <g stroke-width="2.5" transform="matrix(1,0,0,1,1784.04,1050)" stroke-linecap="round" font-size="29.1042" fill="none" stroke-opacity="1" stroke-linejoin="bevel" stroke="#000000" font-family="MS Shell Dlg 2" font-style="normal" font-weight="400">
    <path vector-effect="none" d="M27.9449,-614.787 L27.9449,-652.047" fill-rule="evenodd"/>
   </g>
   <g stroke-width="2.5" transform="matrix(1,0,0,1,1784.04,1050)" stroke-linecap="round" font-size="29.1042" fill="none" stroke-opacity="1" stroke-linejoin="bevel" stroke="#000000" font-family="MS Shell Dlg 2" font-style="normal" font-weight="400">
    <path vector-effect="none" d="M-27.9449,-614.787 L-27.9449,-652.047" fill-rule="evenodd"/>
   </g>
   <g stroke-width="2.5" transform="matrix(1,0,0,1,1784.04,1050)" stroke-linecap="round" font-size="29.1042" fill="none" stroke-opacity="1" stroke-linejoin="bevel" stroke="#000000" font-family="MS Shell Dlg 2" font-style="normal" font-weight="400">
    <path vector-effect="none" d="M27.9449,652.047 L27.9449,614.787" fill-rule="evenodd"/>
   </g>
   <g stroke-width="2.5" transform="matrix(1,0,0,1,1784.04,1050)" stroke-linecap="round" font-size="29.1042" fill="none" stroke-opacity="1" stroke-linejoin="bevel" stroke="#000000" font-family="MS Shell Dlg 2" font-style="normal" font-weight="400">
    <path vector-effect="none" d="M-27.9449,652.047 L-27.9449,614.787" fill-rule="evenodd"/>
   </g>
  </g>
 </g>
</svg>
