<?xml version='1.0' encoding='UTF-8' standalone='no'?>
<svg width="297mm" height="210mm" xmlns:xlink="http://www.w3.org/1999/xlink" baseProfile="tiny" xmlns:svg="http://www.w3.org/2000/svg" version="1.2" xmlns:cc="http://creativecommons.org/ns#" xmlns:sodipodi="http://sodipodi.sourceforge.net/DTD/sodipodi-0.dtd" xmlns:dc="http://purl.org/dc/elements/1.1/" xmlns:rdf="http://www.w3.org/1999/02/22-rdf-syntax-ns#" xmlns:freecad="http://www.freecadweb.org/wiki/index.php?title=Svg_Namespace" xmlns:inkscape="http://www.inkscape.org/namespaces/inkscape" xmlns="http://www.w3.org/2000/svg" viewBox="0 0 5000 3000">
 <title>FreeCAD SVG Export</title>
 <desc>Drawing page: Page exported from FreeCAD document: Unnamed</desc>
 <defs/>
 <g inkscape:groupmode="layer" id="Page" inkscape:label="TechDraw">
  <g stroke-width="1" stroke-linecap="square" fill="none" stroke-linejoin="bevel" id="DrawingContent" stroke="black" fill-rule="evenodd">
   <g stroke-width="1" transform="matrix(1,0,0,1,1485,1050)" stroke-linecap="square" font-size="29.1042" fill="none" stroke-opacity="1" stroke-linejoin="bevel" stroke="#000000" font-family="MS Shell Dlg 2" font-style="normal" font-weight="400">
    <rect x="0" width="0" height="0" y="0"/>
   </g>
   <g transform="matrix(1,0,0,1,1485,1050)" font-size="29.1042" fill="#ffffff" stroke="none" font-family="MS Shell Dlg 2" font-style="normal" fill-opacity="1" font-weight="400">
    <path vector-effect="non-scaling-stroke" d="M-818.995,67.772 L-497.513,67.772 L545.133,67.772 L645.053,67.772 L841.586,67.772 L841.586,-67.772 L645.053,-67.772 L545.133,-67.772 L-497.513,-67.772 L-818.995,-67.772 L-841.586,-67.772 L-841.586,67.772 L-818.995,67.772" fill-rule="evenodd"/>
   </g>
   <g transform="matrix(1,0,0,1,1485,1050)" font-size="29.1042" fill="#ffffff" stroke="none" font-family="MS Shell Dlg 2" font-style="normal" fill-opacity="1" font-weight="400">
    <path vector-effect="non-scaling-stroke" d="M-497.513,67.772 L545.133,67.772 L545.133,-67.772 L-497.513,-67.772 L-497.513,67.772" fill-rule="evenodd"/>
   </g>
   <g transform="matrix(1,0,0,1,1485,1050)" font-size="29.1042" fill="#ffffff" stroke="none" font-family="MS Shell Dlg 2" font-style="normal" fill-opacity="1" font-weight="400">
    <path vector-effect="non-scaling-stroke" d="M-818.995,67.772 L-497.513,67.772 L-497.513,-67.772 L-818.995,-67.772 L-818.995,67.772" fill-rule="evenodd"/>
   </g>
   <g transform="matrix(1,0,0,1,1485,1050)" font-size="29.1042" fill="#ffffff" stroke="none" font-family="MS Shell Dlg 2" font-style="normal" fill-opacity="1" font-weight="400">
    <path vector-effect="non-scaling-stroke" d="M645.053,67.772 L841.586,67.772 L841.586,-67.772 L645.053,-67.772 L645.053,67.772" fill-rule="evenodd"/>
   </g>
   <g transform="matrix(1,0,0,1,1485,1050)" font-size="29.1042" fill="#ffffff" stroke="none" font-family="MS Shell Dlg 2" font-style="normal" fill-opacity="1" font-weight="400">
    <path vector-effect="non-scaling-stroke" d="M545.133,67.772 L645.053,67.772 L645.053,-67.772 L545.133,-67.772 L545.133,67.772" fill-rule="evenodd"/>
   </g>
   <g transform="matrix(1,0,0,1,1485,1050)" font-size="29.1042" fill="#ffffff" stroke="none" font-family="MS Shell Dlg 2" font-style="normal" fill-opacity="1" font-weight="400">
    <path vector-effect="non-scaling-stroke" d="M-818.995,67.772 L-818.995,-67.772 L-841.586,-67.772 L-841.586,67.772 L-818.995,67.772" fill-rule="evenodd"/>
   </g>
   <g stroke-width="1.3" transform="matrix(1,0,0,1,1485,1050)" stroke-dashoffset="0" stroke-linecap="round" font-size="29.1042" fill="none" stroke-opacity="1" stroke-linejoin="bevel" stroke="#000000" stroke-dasharray="5.2,2.6" font-family="MS Shell Dlg 2" font-style="normal" font-weight="400">
    <path vector-effect="none" d="M639.84,-67.772 L639.84,67.772" fill-rule="evenodd"/>
   </g>
   <g stroke-width="1.3" transform="matrix(1,0,0,1,1485,1050)" stroke-dashoffset="0" stroke-linecap="round" font-size="29.1042" fill="none" stroke-opacity="1" stroke-linejoin="bevel" stroke="#000000" stroke-dasharray="5.2,2.6" font-family="MS Shell Dlg 2" font-style="normal" font-weight="400">
    <path vector-effect="none" d="M639.84,67.772 L773.646,67.772" fill-rule="evenodd"/>
   </g>
   <g stroke-width="1.3" transform="matrix(1,0,0,1,1485,1050)" stroke-dashoffset="0" stroke-linecap="round" font-size="29.1042" fill="none" stroke-opacity="1" stroke-linejoin="bevel" stroke="#000000" stroke-dasharray="5.2,2.6" font-family="MS Shell Dlg 2" font-style="normal" font-weight="400">
    <path vector-effect="none" d="M773.646,67.772 L639.84,67.772" fill-rule="evenodd"/>
   </g>
   <g stroke-width="1.3" transform="matrix(1,0,0,1,1485,1050)" stroke-dashoffset="0" stroke-linecap="round" font-size="29.1042" fill="none" stroke-opacity="1" stroke-linejoin="bevel" stroke="#000000" stroke-dasharray="5.2,2.6" font-family="MS Shell Dlg 2" font-style="normal" font-weight="400">
    <path vector-effect="none" d="M639.84,-67.772 L773.646,-67.772" fill-rule="evenodd"/>
   </g>
   <g stroke-width="1.3" transform="matrix(1,0,0,1,1485,1050)" stroke-dashoffset="0" stroke-linecap="round" font-size="29.1042" fill="none" stroke-opacity="1" stroke-linejoin="bevel" stroke="#000000" stroke-dasharray="5.2,2.6" font-family="MS Shell Dlg 2" font-style="normal" font-weight="400">
    <path vector-effect="none" d="M773.646,-67.772 L639.84,-67.772" fill-rule="evenodd"/>
   </g>
   <g stroke-width="1.3" transform="matrix(1,0,0,1,1485,1050)" stroke-dashoffset="0" stroke-linecap="round" font-size="29.1042" fill="none" stroke-opacity="1" stroke-linejoin="bevel" stroke="#000000" stroke-dasharray="5.2,2.6" font-family="MS Shell Dlg 2" font-style="normal" font-weight="400">
    <path vector-effect="none" d="M-841.586,67.772 L-497.464,67.772" fill-rule="evenodd"/>
   </g>
   <g stroke-width="1.3" transform="matrix(1,0,0,1,1485,1050)" stroke-dashoffset="0" stroke-linecap="round" font-size="29.1042" fill="none" stroke-opacity="1" stroke-linejoin="bevel" stroke="#000000" stroke-dasharray="5.2,2.6" font-family="MS Shell Dlg 2" font-style="normal" font-weight="400">
    <path vector-effect="none" d="M-497.464,-67.772 L-841.586,-67.772" fill-rule="evenodd"/>
   </g>
   <g stroke-width="1.3" transform="matrix(1,0,0,1,1485,1050)" stroke-dashoffset="0" stroke-linecap="round" font-size="29.1042" fill="none" stroke-opacity="1" stroke-linejoin="bevel" stroke="#000000" stroke-dasharray="5.2,2.6" font-family="MS Shell Dlg 2" font-style="normal" font-weight="400">
    <path vector-effect="none" d="M-497.464,67.772 L-497.464,-67.772" fill-rule="evenodd"/>
   </g>
   <g stroke-width="1.3" transform="matrix(1,0,0,1,1485,1050)" stroke-dashoffset="0" stroke-linecap="round" font-size="29.1042" fill="none" stroke-opacity="1" stroke-linejoin="bevel" stroke="#000000" stroke-dasharray="5.2,2.6" font-family="MS Shell Dlg 2" font-style="normal" font-weight="400">
    <path vector-effect="none" d="M-497.464,67.772 L-780.716,67.772" fill-rule="evenodd"/>
   </g>
   <g stroke-width="1.3" transform="matrix(1,0,0,1,1485,1050)" stroke-dashoffset="0" stroke-linecap="round" font-size="29.1042" fill="none" stroke-opacity="1" stroke-linejoin="bevel" stroke="#000000" stroke-dasharray="5.2,2.6" font-family="MS Shell Dlg 2" font-style="normal" font-weight="400">
    <path vector-effect="none" d="M-780.716,-67.772 L-497.464,-67.772" fill-rule="evenodd"/>
   </g>
   <g stroke-width="1.3" transform="matrix(1,0,0,1,1485,1050)" stroke-dashoffset="0" stroke-linecap="round" font-size="29.1042" fill="none" stroke-opacity="1" stroke-linejoin="bevel" stroke="#000000" stroke-dasharray="5.2,2.6" font-family="MS Shell Dlg 2" font-style="normal" font-weight="400">
    <path vector-effect="none" d="M-780.716,67.772 L-780.716,-67.772" fill-rule="evenodd"/>
   </g>
   <g stroke-width="1.3" transform="matrix(1,0,0,1,1485,1050)" stroke-dashoffset="0" stroke-linecap="round" font-size="29.1042" fill="none" stroke-opacity="1" stroke-linejoin="bevel" stroke="#000000" stroke-dasharray="5.2,2.6" font-family="MS Shell Dlg 2" font-style="normal" font-weight="400">
    <path vector-effect="none" d="M-780.716,67.772 L-758.019,67.772" fill-rule="evenodd"/>
   </g>
   <g stroke-width="1.3" transform="matrix(1,0,0,1,1485,1050)" stroke-dashoffset="0" stroke-linecap="round" font-size="29.1042" fill="none" stroke-opacity="1" stroke-linejoin="bevel" stroke="#000000" stroke-dasharray="5.2,2.6" font-family="MS Shell Dlg 2" font-style="normal" font-weight="400">
    <path vector-effect="none" d="M-758.019,-67.772 L-780.716,-67.772" fill-rule="evenodd"/>
   </g>
   <g stroke-width="1.3" transform="matrix(1,0,0,1,1485,1050)" stroke-dashoffset="0" stroke-linecap="round" font-size="29.1042" fill="none" stroke-opacity="1" stroke-linejoin="bevel" stroke="#000000" stroke-dasharray="5.2,2.6" font-family="MS Shell Dlg 2" font-style="normal" font-weight="400">
    <path vector-effect="none" d="M-758.019,67.772 L-758.019,-67.772" fill-rule="evenodd"/>
   </g>
   <g stroke-width="1.3" transform="matrix(1,0,0,1,1485,1050)" stroke-dashoffset="0" stroke-linecap="round" font-size="29.1042" fill="none" stroke-opacity="1" stroke-linejoin="bevel" stroke="#000000" stroke-dasharray="5.2,2.6" font-family="MS Shell Dlg 2" font-style="normal" font-weight="400">
    <path vector-effect="none" d="M-758.019,67.772 L-497.513,67.772" fill-rule="evenodd"/>
   </g>
   <g stroke-width="1.3" transform="matrix(1,0,0,1,1485,1050)" stroke-dashoffset="0" stroke-linecap="round" font-size="29.1042" fill="none" stroke-opacity="1" stroke-linejoin="bevel" stroke="#000000" stroke-dasharray="5.2,2.6" font-family="MS Shell Dlg 2" font-style="normal" font-weight="400">
    <path vector-effect="none" d="M-497.513,-67.772 L-758.019,-67.772" fill-rule="evenodd"/>
   </g>
   <g stroke-width="1.3" transform="matrix(1,0,0,1,1485,1050)" stroke-dashoffset="0" stroke-linecap="round" font-size="29.1042" fill="none" stroke-opacity="1" stroke-linejoin="bevel" stroke="#000000" stroke-dasharray="5.2,2.6" font-family="MS Shell Dlg 2" font-style="normal" font-weight="400">
    <path vector-effect="none" d="M-497.513,67.772 L-497.513,-67.772" fill-rule="evenodd"/>
   </g>
   <g stroke-width="1.3" transform="matrix(1,0,0,1,1485,1050)" stroke-dashoffset="0" stroke-linecap="round" font-size="29.1042" fill="none" stroke-opacity="1" stroke-linejoin="bevel" stroke="#000000" stroke-dasharray="5.2,2.6" font-family="MS Shell Dlg 2" font-style="normal" font-weight="400">
    <path vector-effect="none" d="M-497.513,67.772 L545.133,67.772" fill-rule="evenodd"/>
   </g>
   <g stroke-width="1.3" transform="matrix(1,0,0,1,1485,1050)" stroke-dashoffset="0" stroke-linecap="round" font-size="29.1042" fill="none" stroke-opacity="1" stroke-linejoin="bevel" stroke="#000000" stroke-dasharray="5.2,2.6" font-family="MS Shell Dlg 2" font-style="normal" font-weight="400">
    <path vector-effect="none" d="M545.133,-67.772 L-497.513,-67.772" fill-rule="evenodd"/>
   </g>
   <g stroke-width="1.3" transform="matrix(1,0,0,1,1485,1050)" stroke-dashoffset="0" stroke-linecap="round" font-size="29.1042" fill="none" stroke-opacity="1" stroke-linejoin="bevel" stroke="#000000" stroke-dasharray="5.2,2.6" font-family="MS Shell Dlg 2" font-style="normal" font-weight="400">
    <path vector-effect="none" d="M545.133,67.772 L545.133,-67.772" fill-rule="evenodd"/>
   </g>
   <g stroke-width="1.3" transform="matrix(1,0,0,1,1485,1050)" stroke-dashoffset="0" stroke-linecap="round" font-size="29.1042" fill="none" stroke-opacity="1" stroke-linejoin="bevel" stroke="#000000" stroke-dasharray="5.2,2.6" font-family="MS Shell Dlg 2" font-style="normal" font-weight="400">
    <path vector-effect="none" d="M545.133,67.772 L645.053,67.772" fill-rule="evenodd"/>
   </g>
   <g stroke-width="1.3" transform="matrix(1,0,0,1,1485,1050)" stroke-dashoffset="0" stroke-linecap="round" font-size="29.1042" fill="none" stroke-opacity="1" stroke-linejoin="bevel" stroke="#000000" stroke-dasharray="5.2,2.6" font-family="MS Shell Dlg 2" font-style="normal" font-weight="400">
    <path vector-effect="none" d="M645.053,-67.772 L545.133,-67.772" fill-rule="evenodd"/>
   </g>
   <g stroke-width="1.3" transform="matrix(1,0,0,1,1485,1050)" stroke-dashoffset="0" stroke-linecap="round" font-size="29.1042" fill="none" stroke-opacity="1" stroke-linejoin="bevel" stroke="#000000" stroke-dasharray="5.2,2.6" font-family="MS Shell Dlg 2" font-style="normal" font-weight="400">
    <path vector-effect="none" d="M841.586,67.772 L645.053,67.772" fill-rule="evenodd"/>
   </g>
   <g stroke-width="1.3" transform="matrix(1,0,0,1,1485,1050)" stroke-dashoffset="0" stroke-linecap="round" font-size="29.1042" fill="none" stroke-opacity="1" stroke-linejoin="bevel" stroke="#000000" stroke-dasharray="5.2,2.6" font-family="MS Shell Dlg 2" font-style="normal" font-weight="400">
    <path vector-effect="none" d="M841.586,-67.772 L645.053,-67.772" fill-rule="evenodd"/>
   </g>
   <g stroke-width="1.3" transform="matrix(1,0,0,1,1485,1050)" stroke-dashoffset="0" stroke-linecap="round" font-size="29.1042" fill="none" stroke-opacity="1" stroke-linejoin="bevel" stroke="#000000" stroke-dasharray="5.2,2.6" font-family="MS Shell Dlg 2" font-style="normal" font-weight="400">
    <path vector-effect="none" d="M773.646,67.772 L773.646,-67.772" fill-rule="evenodd"/>
   </g>
   <g stroke-width="1.3" transform="matrix(1,0,0,1,1485,1050)" stroke-dashoffset="0" stroke-linecap="round" font-size="29.1042" fill="none" stroke-opacity="1" stroke-linejoin="bevel" stroke="#000000" stroke-dasharray="5.2,2.6" font-family="MS Shell Dlg 2" font-style="normal" font-weight="400">
    <path vector-effect="none" d="M645.053,67.772 L645.053,-67.772" fill-rule="evenodd"/>
   </g>
   <g stroke-width="2.5" transform="matrix(1,0,0,1,1485,1050)" stroke-linecap="round" font-size="29.1042" fill="none" stroke-opacity="1" stroke-linejoin="bevel" stroke="#000000" font-family="MS Shell Dlg 2" font-style="normal" font-weight="400">
    <path vector-effect="none" d="M-818.995,67.772 L-841.586,67.772" fill-rule="evenodd"/>
   </g>
   <g stroke-width="2.5" transform="matrix(1,0,0,1,1485,1050)" stroke-linecap="round" font-size="29.1042" fill="none" stroke-opacity="1" stroke-linejoin="bevel" stroke="#000000" font-family="MS Shell Dlg 2" font-style="normal" font-weight="400">
    <path vector-effect="none" d="M-818.995,67.772 L-818.995,-67.772" fill-rule="evenodd"/>
   </g>
   <g stroke-width="2.5" transform="matrix(1,0,0,1,1485,1050)" stroke-linecap="round" font-size="29.1042" fill="none" stroke-opacity="1" stroke-linejoin="bevel" stroke="#000000" font-family="MS Shell Dlg 2" font-style="normal" font-weight="400">
    <path vector-effect="none" d="M-841.586,-67.772 L-818.995,-67.772" fill-rule="evenodd"/>
   </g>
   <g stroke-width="2.5" transform="matrix(1,0,0,1,1485,1050)" stroke-linecap="round" font-size="29.1042" fill="none" stroke-opacity="1" stroke-linejoin="bevel" stroke="#000000" font-family="MS Shell Dlg 2" font-style="normal" font-weight="400">
    <path vector-effect="none" d="M-841.586,67.772 L-841.586,-67.772" fill-rule="evenodd"/>
   </g>
   <g stroke-width="2.5" transform="matrix(1,0,0,1,1485,1050)" stroke-linecap="round" font-size="29.1042" fill="none" stroke-opacity="1" stroke-linejoin="bevel" stroke="#000000" font-family="MS Shell Dlg 2" font-style="normal" font-weight="400">
    <path vector-effect="none" d="M645.053,67.772 L841.586,67.772" fill-rule="evenodd"/>
   </g>
   <g stroke-width="2.5" transform="matrix(1,0,0,1,1485,1050)" stroke-linecap="round" font-size="29.1042" fill="none" stroke-opacity="1" stroke-linejoin="bevel" stroke="#000000" font-family="MS Shell Dlg 2" font-style="normal" font-weight="400">
    <path vector-effect="none" d="M645.053,-67.772 L841.586,-67.772" fill-rule="evenodd"/>
   </g>
   <g stroke-width="2.5" transform="matrix(1,0,0,1,1485,1050)" stroke-linecap="round" font-size="29.1042" fill="none" stroke-opacity="1" stroke-linejoin="bevel" stroke="#000000" font-family="MS Shell Dlg 2" font-style="normal" font-weight="400">
    <path vector-effect="none" d="M545.133,67.772 L645.053,67.772" fill-rule="evenodd"/>
   </g>
   <g stroke-width="2.5" transform="matrix(1,0,0,1,1485,1050)" stroke-linecap="round" font-size="29.1042" fill="none" stroke-opacity="1" stroke-linejoin="bevel" stroke="#000000" font-family="MS Shell Dlg 2" font-style="normal" font-weight="400">
    <path vector-effect="none" d="M545.133,-67.772 L645.053,-67.772" fill-rule="evenodd"/>
   </g>
   <g stroke-width="2.5" transform="matrix(1,0,0,1,1485,1050)" stroke-linecap="round" font-size="29.1042" fill="none" stroke-opacity="1" stroke-linejoin="bevel" stroke="#000000" font-family="MS Shell Dlg 2" font-style="normal" font-weight="400">
    <path vector-effect="none" d="M545.133,67.772 L545.133,-67.772" fill-rule="evenodd"/>
   </g>
   <g stroke-width="2.5" transform="matrix(1,0,0,1,1485,1050)" stroke-linecap="round" font-size="29.1042" fill="none" stroke-opacity="1" stroke-linejoin="bevel" stroke="#000000" font-family="MS Shell Dlg 2" font-style="normal" font-weight="400">
    <path vector-effect="none" d="M-497.513,67.772 L545.133,67.772" fill-rule="evenodd"/>
   </g>
   <g stroke-width="2.5" transform="matrix(1,0,0,1,1485,1050)" stroke-linecap="round" font-size="29.1042" fill="none" stroke-opacity="1" stroke-linejoin="bevel" stroke="#000000" font-family="MS Shell Dlg 2" font-style="normal" font-weight="400">
    <path vector-effect="none" d="M-497.513,-67.772 L545.133,-67.772" fill-rule="evenodd"/>
   </g>
   <g stroke-width="2.5" transform="matrix(1,0,0,1,1485,1050)" stroke-linecap="round" font-size="29.1042" fill="none" stroke-opacity="1" stroke-linejoin="bevel" stroke="#000000" font-family="MS Shell Dlg 2" font-style="normal" font-weight="400">
    <path vector-effect="none" d="M-497.513,67.772 L-497.513,-67.772" fill-rule="evenodd"/>
   </g>
   <g stroke-width="2.5" transform="matrix(1,0,0,1,1485,1050)" stroke-linecap="round" font-size="29.1042" fill="none" stroke-opacity="1" stroke-linejoin="bevel" stroke="#000000" font-family="MS Shell Dlg 2" font-style="normal" font-weight="400">
    <path vector-effect="none" d="M-818.995,67.772 L-497.513,67.772" fill-rule="evenodd"/>
   </g>
   <g stroke-width="2.5" transform="matrix(1,0,0,1,1485,1050)" stroke-linecap="round" font-size="29.1042" fill="none" stroke-opacity="1" stroke-linejoin="bevel" stroke="#000000" font-family="MS Shell Dlg 2" font-style="normal" font-weight="400">
    <path vector-effect="none" d="M-818.995,-67.772 L-497.513,-67.772" fill-rule="evenodd"/>
   </g>
   <g stroke-width="2.5" transform="matrix(1,0,0,1,1485,1050)" stroke-linecap="round" font-size="29.1042" fill="none" stroke-opacity="1" stroke-linejoin="bevel" stroke="#000000" font-family="MS Shell Dlg 2" font-style="normal" font-weight="400">
    <path vector-effect="none" d="M841.586,67.772 L841.586,-67.772" fill-rule="evenodd"/>
   </g>
   <g stroke-width="2.5" transform="matrix(1,0,0,1,1485,1050)" stroke-linecap="round" font-size="29.1042" fill="none" stroke-opacity="1" stroke-linejoin="bevel" stroke="#000000" font-family="MS Shell Dlg 2" font-style="normal" font-weight="400">
    <path vector-effect="none" d="M645.053,67.772 L645.053,-67.772" fill-rule="evenodd"/>
   </g>
   <g transform="matrix(1,0,0,1,1485,541.098)" font-size="29.1042" fill="#ffffff" stroke="none" font-family="MS Shell Dlg 2" font-style="normal" fill-opacity="1" font-weight="400">
    <path vector-effect="non-scaling-stroke" d="M-818.995,-179.451 L-497.513,-56.0711 L545.133,-56.0711 L645.053,-108.203 C701.785,-137.391 771.209,-122.825 811.424,-73.296 C851.64,-23.7668 851.64,47.1686 811.424,96.6979 C771.209,146.227 701.785,160.793 645.053,131.605 L545.133,79.4729 L-497.513,79.4729 L-758.019,179.451 L-780.716,120.31 L-497.464,11.7009 L-841.586,-120.368 L-818.995,-179.451" fill-rule="evenodd"/>
   </g>
   <g transform="matrix(1,0,0,1,1485,541.098)" font-size="29.1042" fill="#ffffff" stroke="none" font-family="MS Shell Dlg 2" font-style="normal" fill-opacity="1" font-weight="400">
    <path vector-effect="non-scaling-stroke" d="M773.646,11.7009 C773.646,48.6505 743.692,78.604 706.743,78.604 C669.793,78.604 639.84,48.6505 639.84,11.7009 C639.84,-25.2486 669.793,-55.2022 706.743,-55.2022 C743.692,-55.2022 773.646,-25.2486 773.646,11.7009 " fill-rule="evenodd"/>
   </g>
   <g stroke-width="1.3" transform="matrix(1,0,0,1,1485,541.098)" stroke-dashoffset="0" stroke-linecap="round" font-size="29.1042" fill="none" stroke-opacity="1" stroke-linejoin="bevel" stroke="#000000" stroke-dasharray="5.2,2.6" font-family="MS Shell Dlg 2" font-style="normal" font-weight="400">
    <path vector-effect="none" d="M773.646,11.7009 C773.646,48.6505 743.692,78.604 706.743,78.604 C669.793,78.604 639.84,48.6505 639.84,11.7009 C639.84,-25.2486 669.793,-55.2022 706.743,-55.2022 C743.692,-55.2022 773.646,-25.2486 773.646,11.7009 " fill-rule="evenodd"/>
   </g>
   <g stroke-width="1.3" transform="matrix(1,0,0,1,1485,541.098)" stroke-dashoffset="0" stroke-linecap="round" font-size="29.1042" fill="none" stroke-opacity="1" stroke-linejoin="bevel" stroke="#000000" stroke-dasharray="5.2,2.6" font-family="MS Shell Dlg 2" font-style="normal" font-weight="400">
    <path vector-effect="none" d="M-841.586,-120.368 L-818.995,-179.451" fill-rule="evenodd"/>
   </g>
   <g stroke-width="1.3" transform="matrix(1,0,0,1,1485,541.098)" stroke-dashoffset="0" stroke-linecap="round" font-size="29.1042" fill="none" stroke-opacity="1" stroke-linejoin="bevel" stroke="#000000" stroke-dasharray="5.2,2.6" font-family="MS Shell Dlg 2" font-style="normal" font-weight="400">
    <path vector-effect="none" d="M-497.464,11.7009 L-841.586,-120.368" fill-rule="evenodd"/>
   </g>
   <g stroke-width="1.3" transform="matrix(1,0,0,1,1485,541.098)" stroke-dashoffset="0" stroke-linecap="round" font-size="29.1042" fill="none" stroke-opacity="1" stroke-linejoin="bevel" stroke="#000000" stroke-dasharray="5.2,2.6" font-family="MS Shell Dlg 2" font-style="normal" font-weight="400">
    <path vector-effect="none" d="M-780.716,120.31 L-497.464,11.7009" fill-rule="evenodd"/>
   </g>
   <g stroke-width="1.3" transform="matrix(1,0,0,1,1485,541.098)" stroke-dashoffset="0" stroke-linecap="round" font-size="29.1042" fill="none" stroke-opacity="1" stroke-linejoin="bevel" stroke="#000000" stroke-dasharray="5.2,2.6" font-family="MS Shell Dlg 2" font-style="normal" font-weight="400">
    <path vector-effect="none" d="M-758.019,179.451 L-780.716,120.31" fill-rule="evenodd"/>
   </g>
   <g stroke-width="1.3" transform="matrix(1,0,0,1,1485,541.098)" stroke-dashoffset="0" stroke-linecap="round" font-size="29.1042" fill="none" stroke-opacity="1" stroke-linejoin="bevel" stroke="#000000" stroke-dasharray="5.2,2.6" font-family="MS Shell Dlg 2" font-style="normal" font-weight="400">
    <path vector-effect="none" d="M-497.513,79.4729 L-758.019,179.451" fill-rule="evenodd"/>
   </g>
   <g stroke-width="1.3" transform="matrix(1,0,0,1,1485,541.098)" stroke-dashoffset="0" stroke-linecap="round" font-size="29.1042" fill="none" stroke-opacity="1" stroke-linejoin="bevel" stroke="#000000" stroke-dasharray="5.2,2.6" font-family="MS Shell Dlg 2" font-style="normal" font-weight="400">
    <path vector-effect="none" d="M545.133,79.4729 L-497.513,79.4729" fill-rule="evenodd"/>
   </g>
   <g stroke-width="1.3" transform="matrix(1,0,0,1,1485,541.098)" stroke-dashoffset="0" stroke-linecap="round" font-size="29.1042" fill="none" stroke-opacity="1" stroke-linejoin="bevel" stroke="#000000" stroke-dasharray="5.2,2.6" font-family="MS Shell Dlg 2" font-style="normal" font-weight="400">
    <path vector-effect="none" d="M645.053,131.605 L545.133,79.4729" fill-rule="evenodd"/>
   </g>
   <g stroke-width="1.3" transform="matrix(1,0,0,1,1485,541.098)" stroke-dashoffset="0" stroke-linecap="round" font-size="29.1042" fill="none" stroke-opacity="1" stroke-linejoin="bevel" stroke="#000000" stroke-dasharray="5.2,2.6" font-family="MS Shell Dlg 2" font-style="normal" font-weight="400">
    <path vector-effect="none" d="M645.053,-108.203 C701.785,-137.391 771.209,-122.825 811.424,-73.296 C851.64,-23.7668 851.64,47.1686 811.424,96.6979 C771.209,146.227 701.785,160.793 645.053,131.605 " fill-rule="evenodd"/>
   </g>
   <g stroke-width="1.3" transform="matrix(1,0,0,1,1485,541.098)" stroke-dashoffset="0" stroke-linecap="round" font-size="29.1042" fill="none" stroke-opacity="1" stroke-linejoin="bevel" stroke="#000000" stroke-dasharray="5.2,2.6" font-family="MS Shell Dlg 2" font-style="normal" font-weight="400">
    <path vector-effect="none" d="M545.133,-56.0711 L645.053,-108.203" fill-rule="evenodd"/>
   </g>
   <g stroke-width="1.3" transform="matrix(1,0,0,1,1485,541.098)" stroke-dashoffset="0" stroke-linecap="round" font-size="29.1042" fill="none" stroke-opacity="1" stroke-linejoin="bevel" stroke="#000000" stroke-dasharray="5.2,2.6" font-family="MS Shell Dlg 2" font-style="normal" font-weight="400">
    <path vector-effect="none" d="M-497.513,-56.0711 L545.133,-56.0711" fill-rule="evenodd"/>
   </g>
   <g stroke-width="1.3" transform="matrix(1,0,0,1,1485,541.098)" stroke-dashoffset="0" stroke-linecap="round" font-size="29.1042" fill="none" stroke-opacity="1" stroke-linejoin="bevel" stroke="#000000" stroke-dasharray="5.2,2.6" font-family="MS Shell Dlg 2" font-style="normal" font-weight="400">
    <path vector-effect="none" d="M-818.995,-179.451 L-497.513,-56.0711" fill-rule="evenodd"/>
   </g>
   <g stroke-width="2.5" transform="matrix(1,0,0,1,1485,541.098)" stroke-linecap="round" font-size="29.1042" fill="none" stroke-opacity="1" stroke-linejoin="bevel" stroke="#000000" font-family="MS Shell Dlg 2" font-style="normal" font-weight="400">
    <path vector-effect="none" d="M773.646,11.7009 C773.646,48.6505 743.692,78.604 706.743,78.604 C669.793,78.604 639.84,48.6505 639.84,11.7009 C639.84,-25.2486 669.793,-55.2022 706.743,-55.2022 C743.692,-55.2022 773.646,-25.2486 773.646,11.7009 " fill-rule="evenodd"/>
   </g>
   <g stroke-width="2.5" transform="matrix(1,0,0,1,1485,541.098)" stroke-linecap="round" font-size="29.1042" fill="none" stroke-opacity="1" stroke-linejoin="bevel" stroke="#000000" font-family="MS Shell Dlg 2" font-style="normal" font-weight="400">
    <path vector-effect="none" d="M-818.995,-179.451 L-841.586,-120.368" fill-rule="evenodd"/>
   </g>
   <g stroke-width="2.5" transform="matrix(1,0,0,1,1485,541.098)" stroke-linecap="round" font-size="29.1042" fill="none" stroke-opacity="1" stroke-linejoin="bevel" stroke="#000000" font-family="MS Shell Dlg 2" font-style="normal" font-weight="400">
    <path vector-effect="none" d="M-841.586,-120.368 L-497.464,11.7009" fill-rule="evenodd"/>
   </g>
   <g stroke-width="2.5" transform="matrix(1,0,0,1,1485,541.098)" stroke-linecap="round" font-size="29.1042" fill="none" stroke-opacity="1" stroke-linejoin="bevel" stroke="#000000" font-family="MS Shell Dlg 2" font-style="normal" font-weight="400">
    <path vector-effect="none" d="M-497.464,11.7009 L-780.716,120.31" fill-rule="evenodd"/>
   </g>
   <g stroke-width="2.5" transform="matrix(1,0,0,1,1485,541.098)" stroke-linecap="round" font-size="29.1042" fill="none" stroke-opacity="1" stroke-linejoin="bevel" stroke="#000000" font-family="MS Shell Dlg 2" font-style="normal" font-weight="400">
    <path vector-effect="none" d="M-780.716,120.31 L-758.019,179.451" fill-rule="evenodd"/>
   </g>
   <g stroke-width="2.5" transform="matrix(1,0,0,1,1485,541.098)" stroke-linecap="round" font-size="29.1042" fill="none" stroke-opacity="1" stroke-linejoin="bevel" stroke="#000000" font-family="MS Shell Dlg 2" font-style="normal" font-weight="400">
    <path vector-effect="none" d="M-758.019,179.451 L-497.513,79.4729" fill-rule="evenodd"/>
   </g>
   <g stroke-width="2.5" transform="matrix(1,0,0,1,1485,541.098)" stroke-linecap="round" font-size="29.1042" fill="none" stroke-opacity="1" stroke-linejoin="bevel" stroke="#000000" font-family="MS Shell Dlg 2" font-style="normal" font-weight="400">
    <path vector-effect="none" d="M-497.513,79.4729 L545.133,79.4729" fill-rule="evenodd"/>
   </g>
   <g stroke-width="2.5" transform="matrix(1,0,0,1,1485,541.098)" stroke-linecap="round" font-size="29.1042" fill="none" stroke-opacity="1" stroke-linejoin="bevel" stroke="#000000" font-family="MS Shell Dlg 2" font-style="normal" font-weight="400">
    <path vector-effect="none" d="M545.133,79.4729 L645.053,131.605" fill-rule="evenodd"/>
   </g>
   <g stroke-width="2.5" transform="matrix(1,0,0,1,1485,541.098)" stroke-linecap="round" font-size="29.1042" fill="none" stroke-opacity="1" stroke-linejoin="bevel" stroke="#000000" font-family="MS Shell Dlg 2" font-style="normal" font-weight="400">
    <path vector-effect="none" d="M645.053,-108.203 C701.785,-137.391 771.209,-122.825 811.424,-73.296 C851.64,-23.7668 851.64,47.1686 811.424,96.6979 C771.209,146.227 701.785,160.793 645.053,131.605 " fill-rule="evenodd"/>
   </g>
   <g stroke-width="2.5" transform="matrix(1,0,0,1,1485,541.098)" stroke-linecap="round" font-size="29.1042" fill="none" stroke-opacity="1" stroke-linejoin="bevel" stroke="#000000" font-family="MS Shell Dlg 2" font-style="normal" font-weight="400">
    <path vector-effect="none" d="M545.133,-56.0711 L645.053,-108.203" fill-rule="evenodd"/>
   </g>
   <g stroke-width="2.5" transform="matrix(1,0,0,1,1485,541.098)" stroke-linecap="round" font-size="29.1042" fill="none" stroke-opacity="1" stroke-linejoin="bevel" stroke="#000000" font-family="MS Shell Dlg 2" font-style="normal" font-weight="400">
    <path vector-effect="none" d="M-497.513,-56.0711 L545.133,-56.0711" fill-rule="evenodd"/>
   </g>
   <g stroke-width="2.5" transform="matrix(1,0,0,1,1485,541.098)" stroke-linecap="round" font-size="29.1042" fill="none" stroke-opacity="1" stroke-linejoin="bevel" stroke="#000000" font-family="MS Shell Dlg 2" font-style="normal" font-weight="400">
    <path vector-effect="none" d="M-818.995,-179.451 L-497.513,-56.0711" fill-rule="evenodd"/>
   </g>
   <g transform="matrix(1,0,0,1,2656.04,1050)" font-size="29.1042" fill="#ffffff" stroke="none" font-family="MS Shell Dlg 2" font-style="normal" fill-opacity="1" font-weight="400">
    <path vector-effect="non-scaling-stroke" d="M179.451,67.772 L179.451,-67.772 L120.368,-67.772 L-11.7009,-67.772 L-120.31,-67.772 L-179.451,-67.772 L-179.451,67.772 L-120.31,67.772 L-11.7009,67.772 L120.368,67.772 L179.451,67.772" fill-rule="evenodd"/>
   </g>
   <g transform="matrix(1,0,0,1,2656.04,1050)" font-size="29.1042" fill="#ffffff" stroke="none" font-family="MS Shell Dlg 2" font-style="normal" fill-opacity="1" font-weight="400">
    <path vector-effect="non-scaling-stroke" d="M120.368,67.772 L120.368,-67.772 L-11.7009,-67.772 L-11.7009,67.772 L120.368,67.772" fill-rule="evenodd"/>
   </g>
   <g transform="matrix(1,0,0,1,2656.04,1050)" font-size="29.1042" fill="#ffffff" stroke="none" font-family="MS Shell Dlg 2" font-style="normal" fill-opacity="1" font-weight="400">
    <path vector-effect="non-scaling-stroke" d="M-11.7009,67.772 L-11.7009,-67.772 L-120.31,-67.772 L-120.31,67.772 L-11.7009,67.772" fill-rule="evenodd"/>
   </g>
   <g transform="matrix(1,0,0,1,2656.04,1050)" font-size="29.1042" fill="#ffffff" stroke="none" font-family="MS Shell Dlg 2" font-style="normal" fill-opacity="1" font-weight="400">
    <path vector-effect="non-scaling-stroke" d="M-120.31,67.772 L-120.31,-67.772 L-179.451,-67.772 L-179.451,67.772 L-120.31,67.772" fill-rule="evenodd"/>
   </g>
   <g transform="matrix(1,0,0,1,2656.04,1050)" font-size="29.1042" fill="#ffffff" stroke="none" font-family="MS Shell Dlg 2" font-style="normal" fill-opacity="1" font-weight="400">
    <path vector-effect="non-scaling-stroke" d="M179.451,67.772 L179.451,-67.772 L120.368,-67.772 L120.368,67.772 L179.451,67.772" fill-rule="evenodd"/>
   </g>
   <g stroke-width="1.3" transform="matrix(1,0,0,1,2656.04,1050)" stroke-dashoffset="0" stroke-linecap="round" font-size="29.1042" fill="none" stroke-opacity="1" stroke-linejoin="bevel" stroke="#000000" stroke-dasharray="5.2,2.6" font-family="MS Shell Dlg 2" font-style="normal" font-weight="400">
    <path vector-effect="none" d="M-11.7009,67.772 L-78.604,67.772" fill-rule="evenodd"/>
   </g>
   <g stroke-width="1.3" transform="matrix(1,0,0,1,2656.04,1050)" stroke-dashoffset="0" stroke-linecap="round" font-size="29.1042" fill="none" stroke-opacity="1" stroke-linejoin="bevel" stroke="#000000" stroke-dasharray="5.2,2.6" font-family="MS Shell Dlg 2" font-style="normal" font-weight="400">
    <path vector-effect="none" d="M-78.604,67.772 L55.2022,67.772" fill-rule="evenodd"/>
   </g>
   <g stroke-width="1.3" transform="matrix(1,0,0,1,2656.04,1050)" stroke-dashoffset="0" stroke-linecap="round" font-size="29.1042" fill="none" stroke-opacity="1" stroke-linejoin="bevel" stroke="#000000" stroke-dasharray="5.2,2.6" font-family="MS Shell Dlg 2" font-style="normal" font-weight="400">
    <path vector-effect="none" d="M55.2022,67.772 L-11.7009,67.772" fill-rule="evenodd"/>
   </g>
   <g stroke-width="1.3" transform="matrix(1,0,0,1,2656.04,1050)" stroke-dashoffset="0" stroke-linecap="round" font-size="29.1042" fill="none" stroke-opacity="1" stroke-linejoin="bevel" stroke="#000000" stroke-dasharray="5.2,2.6" font-family="MS Shell Dlg 2" font-style="normal" font-weight="400">
    <path vector-effect="none" d="M-11.7009,-67.772 L-78.604,-67.772" fill-rule="evenodd"/>
   </g>
   <g stroke-width="1.3" transform="matrix(1,0,0,1,2656.04,1050)" stroke-dashoffset="0" stroke-linecap="round" font-size="29.1042" fill="none" stroke-opacity="1" stroke-linejoin="bevel" stroke="#000000" stroke-dasharray="5.2,2.6" font-family="MS Shell Dlg 2" font-style="normal" font-weight="400">
    <path vector-effect="none" d="M-78.604,-67.772 L55.2022,-67.772" fill-rule="evenodd"/>
   </g>
   <g stroke-width="1.3" transform="matrix(1,0,0,1,2656.04,1050)" stroke-dashoffset="0" stroke-linecap="round" font-size="29.1042" fill="none" stroke-opacity="1" stroke-linejoin="bevel" stroke="#000000" stroke-dasharray="5.2,2.6" font-family="MS Shell Dlg 2" font-style="normal" font-weight="400">
    <path vector-effect="none" d="M55.2022,-67.772 L-11.7009,-67.772" fill-rule="evenodd"/>
   </g>
   <g stroke-width="1.3" transform="matrix(1,0,0,1,2656.04,1050)" stroke-dashoffset="0" stroke-linecap="round" font-size="29.1042" fill="none" stroke-opacity="1" stroke-linejoin="bevel" stroke="#000000" stroke-dasharray="5.2,2.6" font-family="MS Shell Dlg 2" font-style="normal" font-weight="400">
    <path vector-effect="none" d="M-179.451,67.772 L-79.4729,67.772" fill-rule="evenodd"/>
   </g>
   <g stroke-width="1.3" transform="matrix(1,0,0,1,2656.04,1050)" stroke-dashoffset="0" stroke-linecap="round" font-size="29.1042" fill="none" stroke-opacity="1" stroke-linejoin="bevel" stroke="#000000" stroke-dasharray="5.2,2.6" font-family="MS Shell Dlg 2" font-style="normal" font-weight="400">
    <path vector-effect="none" d="M-79.4729,-67.772 L-179.451,-67.772" fill-rule="evenodd"/>
   </g>
   <g stroke-width="1.3" transform="matrix(1,0,0,1,2656.04,1050)" stroke-dashoffset="0" stroke-linecap="round" font-size="29.1042" fill="none" stroke-opacity="1" stroke-linejoin="bevel" stroke="#000000" stroke-dasharray="5.2,2.6" font-family="MS Shell Dlg 2" font-style="normal" font-weight="400">
    <path vector-effect="none" d="M-79.4729,67.772 L-79.4729,-67.772" fill-rule="evenodd"/>
   </g>
   <g stroke-width="1.3" transform="matrix(1,0,0,1,2656.04,1050)" stroke-dashoffset="0" stroke-linecap="round" font-size="29.1042" fill="none" stroke-opacity="1" stroke-linejoin="bevel" stroke="#000000" stroke-dasharray="5.2,2.6" font-family="MS Shell Dlg 2" font-style="normal" font-weight="400">
    <path vector-effect="none" d="M-79.4729,67.772 L-79.4729,-67.772" fill-rule="evenodd"/>
   </g>
   <g stroke-width="1.3" transform="matrix(1,0,0,1,2656.04,1050)" stroke-dashoffset="0" stroke-linecap="round" font-size="29.1042" fill="none" stroke-opacity="1" stroke-linejoin="bevel" stroke="#000000" stroke-dasharray="5.2,2.6" font-family="MS Shell Dlg 2" font-style="normal" font-weight="400">
    <path vector-effect="none" d="M-79.4729,67.772 L-131.605,67.772" fill-rule="evenodd"/>
   </g>
   <g stroke-width="1.3" transform="matrix(1,0,0,1,2656.04,1050)" stroke-dashoffset="0" stroke-linecap="round" font-size="29.1042" fill="none" stroke-opacity="1" stroke-linejoin="bevel" stroke="#000000" stroke-dasharray="5.2,2.6" font-family="MS Shell Dlg 2" font-style="normal" font-weight="400">
    <path vector-effect="none" d="M-131.605,-67.772 L-79.4729,-67.772" fill-rule="evenodd"/>
   </g>
   <g stroke-width="1.3" transform="matrix(1,0,0,1,2656.04,1050)" stroke-dashoffset="0" stroke-linecap="round" font-size="29.1042" fill="none" stroke-opacity="1" stroke-linejoin="bevel" stroke="#000000" stroke-dasharray="5.2,2.6" font-family="MS Shell Dlg 2" font-style="normal" font-weight="400">
    <path vector-effect="none" d="M108.203,67.772 L123.142,67.772" fill-rule="evenodd"/>
   </g>
   <g stroke-width="1.3" transform="matrix(1,0,0,1,2656.04,1050)" stroke-dashoffset="0" stroke-linecap="round" font-size="29.1042" fill="none" stroke-opacity="1" stroke-linejoin="bevel" stroke="#000000" stroke-dasharray="5.2,2.6" font-family="MS Shell Dlg 2" font-style="normal" font-weight="400">
    <path vector-effect="none" d="M123.142,67.772 L-146.544,67.772" fill-rule="evenodd"/>
   </g>
   <g stroke-width="1.3" transform="matrix(1,0,0,1,2656.04,1050)" stroke-dashoffset="0" stroke-linecap="round" font-size="29.1042" fill="none" stroke-opacity="1" stroke-linejoin="bevel" stroke="#000000" stroke-dasharray="5.2,2.6" font-family="MS Shell Dlg 2" font-style="normal" font-weight="400">
    <path vector-effect="none" d="M-146.544,67.772 L-131.605,67.772" fill-rule="evenodd"/>
   </g>
   <g stroke-width="1.3" transform="matrix(1,0,0,1,2656.04,1050)" stroke-dashoffset="0" stroke-linecap="round" font-size="29.1042" fill="none" stroke-opacity="1" stroke-linejoin="bevel" stroke="#000000" stroke-dasharray="5.2,2.6" font-family="MS Shell Dlg 2" font-style="normal" font-weight="400">
    <path vector-effect="none" d="M108.203,-67.772 L123.142,-67.772" fill-rule="evenodd"/>
   </g>
   <g stroke-width="1.3" transform="matrix(1,0,0,1,2656.04,1050)" stroke-dashoffset="0" stroke-linecap="round" font-size="29.1042" fill="none" stroke-opacity="1" stroke-linejoin="bevel" stroke="#000000" stroke-dasharray="5.2,2.6" font-family="MS Shell Dlg 2" font-style="normal" font-weight="400">
    <path vector-effect="none" d="M123.142,-67.772 L-146.544,-67.772" fill-rule="evenodd"/>
   </g>
   <g stroke-width="1.3" transform="matrix(1,0,0,1,2656.04,1050)" stroke-dashoffset="0" stroke-linecap="round" font-size="29.1042" fill="none" stroke-opacity="1" stroke-linejoin="bevel" stroke="#000000" stroke-dasharray="5.2,2.6" font-family="MS Shell Dlg 2" font-style="normal" font-weight="400">
    <path vector-effect="none" d="M-146.544,-67.772 L-131.605,-67.772" fill-rule="evenodd"/>
   </g>
   <g stroke-width="1.3" transform="matrix(1,0,0,1,2656.04,1050)" stroke-dashoffset="0" stroke-linecap="round" font-size="29.1042" fill="none" stroke-opacity="1" stroke-linejoin="bevel" stroke="#000000" stroke-dasharray="5.2,2.6" font-family="MS Shell Dlg 2" font-style="normal" font-weight="400">
    <path vector-effect="none" d="M56.0711,67.772 L108.203,67.772" fill-rule="evenodd"/>
   </g>
   <g stroke-width="1.3" transform="matrix(1,0,0,1,2656.04,1050)" stroke-dashoffset="0" stroke-linecap="round" font-size="29.1042" fill="none" stroke-opacity="1" stroke-linejoin="bevel" stroke="#000000" stroke-dasharray="5.2,2.6" font-family="MS Shell Dlg 2" font-style="normal" font-weight="400">
    <path vector-effect="none" d="M56.0711,-67.772 L108.203,-67.772" fill-rule="evenodd"/>
   </g>
   <g stroke-width="1.3" transform="matrix(1,0,0,1,2656.04,1050)" stroke-dashoffset="0" stroke-linecap="round" font-size="29.1042" fill="none" stroke-opacity="1" stroke-linejoin="bevel" stroke="#000000" stroke-dasharray="5.2,2.6" font-family="MS Shell Dlg 2" font-style="normal" font-weight="400">
    <path vector-effect="none" d="M56.0711,67.772 L56.0711,-67.772" fill-rule="evenodd"/>
   </g>
   <g stroke-width="1.3" transform="matrix(1,0,0,1,2656.04,1050)" stroke-dashoffset="0" stroke-linecap="round" font-size="29.1042" fill="none" stroke-opacity="1" stroke-linejoin="bevel" stroke="#000000" stroke-dasharray="5.2,2.6" font-family="MS Shell Dlg 2" font-style="normal" font-weight="400">
    <path vector-effect="none" d="M56.0711,67.772 L56.0711,-67.772" fill-rule="evenodd"/>
   </g>
   <g stroke-width="1.3" transform="matrix(1,0,0,1,2656.04,1050)" stroke-dashoffset="0" stroke-linecap="round" font-size="29.1042" fill="none" stroke-opacity="1" stroke-linejoin="bevel" stroke="#000000" stroke-dasharray="5.2,2.6" font-family="MS Shell Dlg 2" font-style="normal" font-weight="400">
    <path vector-effect="none" d="M179.451,67.772 L56.0711,67.772" fill-rule="evenodd"/>
   </g>
   <g stroke-width="1.3" transform="matrix(1,0,0,1,2656.04,1050)" stroke-dashoffset="0" stroke-linecap="round" font-size="29.1042" fill="none" stroke-opacity="1" stroke-linejoin="bevel" stroke="#000000" stroke-dasharray="5.2,2.6" font-family="MS Shell Dlg 2" font-style="normal" font-weight="400">
    <path vector-effect="none" d="M179.451,-67.772 L56.0711,-67.772" fill-rule="evenodd"/>
   </g>
   <g stroke-width="1.3" transform="matrix(1,0,0,1,2656.04,1050)" stroke-dashoffset="0" stroke-linecap="round" font-size="29.1042" fill="none" stroke-opacity="1" stroke-linejoin="bevel" stroke="#000000" stroke-dasharray="5.2,2.6" font-family="MS Shell Dlg 2" font-style="normal" font-weight="400">
    <path vector-effect="none" d="M55.2022,67.772 L55.2022,-67.772" fill-rule="evenodd"/>
   </g>
   <g stroke-width="1.3" transform="matrix(1,0,0,1,2656.04,1050)" stroke-dashoffset="0" stroke-linecap="round" font-size="29.1042" fill="none" stroke-opacity="1" stroke-linejoin="bevel" stroke="#000000" stroke-dasharray="5.2,2.6" font-family="MS Shell Dlg 2" font-style="normal" font-weight="400">
    <path vector-effect="none" d="M-78.604,67.772 L-78.604,-67.772" fill-rule="evenodd"/>
   </g>
   <g stroke-width="1.3" transform="matrix(1,0,0,1,2656.04,1050)" stroke-dashoffset="0" stroke-linecap="round" font-size="29.1042" fill="none" stroke-opacity="1" stroke-linejoin="bevel" stroke="#000000" stroke-dasharray="5.2,2.6" font-family="MS Shell Dlg 2" font-style="normal" font-weight="400">
    <path vector-effect="none" d="M123.142,67.772 L123.142,-67.772" fill-rule="evenodd"/>
   </g>
   <g stroke-width="1.3" transform="matrix(1,0,0,1,2656.04,1050)" stroke-dashoffset="0" stroke-linecap="round" font-size="29.1042" fill="none" stroke-opacity="1" stroke-linejoin="bevel" stroke="#000000" stroke-dasharray="5.2,2.6" font-family="MS Shell Dlg 2" font-style="normal" font-weight="400">
    <path vector-effect="none" d="M-146.544,67.772 L-146.544,-67.772" fill-rule="evenodd"/>
   </g>
   <g stroke-width="1.3" transform="matrix(1,0,0,1,2656.04,1050)" stroke-dashoffset="0" stroke-linecap="round" font-size="29.1042" fill="none" stroke-opacity="1" stroke-linejoin="bevel" stroke="#000000" stroke-dasharray="5.2,2.6" font-family="MS Shell Dlg 2" font-style="normal" font-weight="400">
    <path vector-effect="none" d="M-131.605,67.772 L-131.605,-67.772" fill-rule="evenodd"/>
   </g>
   <g stroke-width="1.3" transform="matrix(1,0,0,1,2656.04,1050)" stroke-dashoffset="0" stroke-linecap="round" font-size="29.1042" fill="none" stroke-opacity="1" stroke-linejoin="bevel" stroke="#000000" stroke-dasharray="5.2,2.6" font-family="MS Shell Dlg 2" font-style="normal" font-weight="400">
    <path vector-effect="none" d="M108.203,67.772 L108.203,-67.772" fill-rule="evenodd"/>
   </g>
   <g stroke-width="2.5" transform="matrix(1,0,0,1,2656.04,1050)" stroke-linecap="round" font-size="29.1042" fill="none" stroke-opacity="1" stroke-linejoin="bevel" stroke="#000000" font-family="MS Shell Dlg 2" font-style="normal" font-weight="400">
    <path vector-effect="none" d="M179.451,67.772 L120.368,67.772" fill-rule="evenodd"/>
   </g>
   <g stroke-width="2.5" transform="matrix(1,0,0,1,2656.04,1050)" stroke-linecap="round" font-size="29.1042" fill="none" stroke-opacity="1" stroke-linejoin="bevel" stroke="#000000" font-family="MS Shell Dlg 2" font-style="normal" font-weight="400">
    <path vector-effect="none" d="M179.451,67.772 L179.451,-67.772" fill-rule="evenodd"/>
   </g>
   <g stroke-width="2.5" transform="matrix(1,0,0,1,2656.04,1050)" stroke-linecap="round" font-size="29.1042" fill="none" stroke-opacity="1" stroke-linejoin="bevel" stroke="#000000" font-family="MS Shell Dlg 2" font-style="normal" font-weight="400">
    <path vector-effect="none" d="M120.368,-67.772 L179.451,-67.772" fill-rule="evenodd"/>
   </g>
   <g stroke-width="2.5" transform="matrix(1,0,0,1,2656.04,1050)" stroke-linecap="round" font-size="29.1042" fill="none" stroke-opacity="1" stroke-linejoin="bevel" stroke="#000000" font-family="MS Shell Dlg 2" font-style="normal" font-weight="400">
    <path vector-effect="none" d="M120.368,67.772 L120.368,-67.772" fill-rule="evenodd"/>
   </g>
   <g stroke-width="2.5" transform="matrix(1,0,0,1,2656.04,1050)" stroke-linecap="round" font-size="29.1042" fill="none" stroke-opacity="1" stroke-linejoin="bevel" stroke="#000000" font-family="MS Shell Dlg 2" font-style="normal" font-weight="400">
    <path vector-effect="none" d="M120.368,67.772 L-11.7009,67.772" fill-rule="evenodd"/>
   </g>
   <g stroke-width="2.5" transform="matrix(1,0,0,1,2656.04,1050)" stroke-linecap="round" font-size="29.1042" fill="none" stroke-opacity="1" stroke-linejoin="bevel" stroke="#000000" font-family="MS Shell Dlg 2" font-style="normal" font-weight="400">
    <path vector-effect="none" d="M-11.7009,-67.772 L120.368,-67.772" fill-rule="evenodd"/>
   </g>
   <g stroke-width="2.5" transform="matrix(1,0,0,1,2656.04,1050)" stroke-linecap="round" font-size="29.1042" fill="none" stroke-opacity="1" stroke-linejoin="bevel" stroke="#000000" font-family="MS Shell Dlg 2" font-style="normal" font-weight="400">
    <path vector-effect="none" d="M-11.7009,67.772 L-11.7009,-67.772" fill-rule="evenodd"/>
   </g>
   <g stroke-width="2.5" transform="matrix(1,0,0,1,2656.04,1050)" stroke-linecap="round" font-size="29.1042" fill="none" stroke-opacity="1" stroke-linejoin="bevel" stroke="#000000" font-family="MS Shell Dlg 2" font-style="normal" font-weight="400">
    <path vector-effect="none" d="M-11.7009,67.772 L-120.31,67.772" fill-rule="evenodd"/>
   </g>
   <g stroke-width="2.5" transform="matrix(1,0,0,1,2656.04,1050)" stroke-linecap="round" font-size="29.1042" fill="none" stroke-opacity="1" stroke-linejoin="bevel" stroke="#000000" font-family="MS Shell Dlg 2" font-style="normal" font-weight="400">
    <path vector-effect="none" d="M-120.31,-67.772 L-11.7009,-67.772" fill-rule="evenodd"/>
   </g>
   <g stroke-width="2.5" transform="matrix(1,0,0,1,2656.04,1050)" stroke-linecap="round" font-size="29.1042" fill="none" stroke-opacity="1" stroke-linejoin="bevel" stroke="#000000" font-family="MS Shell Dlg 2" font-style="normal" font-weight="400">
    <path vector-effect="none" d="M-120.31,67.772 L-120.31,-67.772" fill-rule="evenodd"/>
   </g>
   <g stroke-width="2.5" transform="matrix(1,0,0,1,2656.04,1050)" stroke-linecap="round" font-size="29.1042" fill="none" stroke-opacity="1" stroke-linejoin="bevel" stroke="#000000" font-family="MS Shell Dlg 2" font-style="normal" font-weight="400">
    <path vector-effect="none" d="M-120.31,67.772 L-179.451,67.772" fill-rule="evenodd"/>
   </g>
   <g stroke-width="2.5" transform="matrix(1,0,0,1,2656.04,1050)" stroke-linecap="round" font-size="29.1042" fill="none" stroke-opacity="1" stroke-linejoin="bevel" stroke="#000000" font-family="MS Shell Dlg 2" font-style="normal" font-weight="400">
    <path vector-effect="none" d="M-179.451,-67.772 L-120.31,-67.772" fill-rule="evenodd"/>
   </g>
   <g stroke-width="2.5" transform="matrix(1,0,0,1,2656.04,1050)" stroke-linecap="round" font-size="29.1042" fill="none" stroke-opacity="1" stroke-linejoin="bevel" stroke="#000000" font-family="MS Shell Dlg 2" font-style="normal" font-weight="400">
    <path vector-effect="none" d="M-179.451,67.772 L-179.451,-67.772" fill-rule="evenodd"/>
   </g>
  </g>
 </g>
</svg>
