<?xml version='1.0' encoding='UTF-8' standalone='no'?>
<svg width="297mm" height="210mm" xmlns:xlink="http://www.w3.org/1999/xlink" baseProfile="tiny" xmlns:svg="http://www.w3.org/2000/svg" version="1.2" xmlns:cc="http://creativecommons.org/ns#" xmlns:sodipodi="http://sodipodi.sourceforge.net/DTD/sodipodi-0.dtd" xmlns:dc="http://purl.org/dc/elements/1.1/" xmlns:rdf="http://www.w3.org/1999/02/22-rdf-syntax-ns#" xmlns:freecad="http://www.freecadweb.org/wiki/index.php?title=Svg_Namespace" xmlns:inkscape="http://www.inkscape.org/namespaces/inkscape" xmlns="http://www.w3.org/2000/svg" viewBox="0 0 5000 3000">
 <title>FreeCAD SVG Export</title>
 <desc>Drawing page: Page exported from FreeCAD document: Unnamed</desc>
 <defs/>
 <g inkscape:groupmode="layer" id="Page" inkscape:label="TechDraw">
  <g stroke-width="1" stroke-linecap="square" fill="none" stroke-linejoin="bevel" id="DrawingContent" stroke="black" fill-rule="evenodd">
   <g stroke-width="1" transform="matrix(1,0,0,1,1485,1050)" stroke-linecap="square" font-size="29.1042" fill="none" stroke-opacity="1" stroke-linejoin="bevel" stroke="#000000" font-family="MS Shell Dlg 2" font-style="normal" font-weight="400">
    <rect x="0" width="0" height="0" y="0"/>
   </g>
   <g transform="matrix(1,0,0,1,1485,1050)" font-size="29.1042" fill="#ffffff" stroke="none" font-family="MS Shell Dlg 2" font-style="normal" fill-opacity="1" font-weight="400">
    <path vector-effect="non-scaling-stroke" d="M108.197,1.42109e-14 C108.197,59.7554 59.7554,108.197 0,108.197 C-59.7554,108.197 -108.197,59.7554 -108.197,1.42109e-14 C-108.197,-59.7554 -59.7554,-108.197 0,-108.197 C59.7554,-108.197 108.197,-59.7554 108.197,1.42109e-14 " fill-rule="evenodd"/>
   </g>
   <g transform="matrix(1,0,0,1,1485,1050)" font-size="29.1042" fill="#ffffff" stroke="none" font-family="MS Shell Dlg 2" font-style="normal" fill-opacity="1" font-weight="400">
    <path vector-effect="non-scaling-stroke" d="M88.5246,1.42109e-14 C88.5246,48.8908 48.8908,88.5246 0,88.5246 C-48.8908,88.5246 -88.5246,48.8908 -88.5246,1.42109e-14 C-88.5246,-48.8908 -48.8908,-88.5246 0,-88.5246 C48.8908,-88.5246 88.5246,-48.8908 88.5246,1.42109e-14 " fill-rule="evenodd"/>
   </g>
   <g stroke-width="1.3" transform="matrix(1,0,0,1,1485,1050)" stroke-dashoffset="0" stroke-linecap="round" font-size="29.1042" fill="none" stroke-opacity="1" stroke-linejoin="bevel" stroke="#000000" stroke-dasharray="5.2,2.6" font-family="MS Shell Dlg 2" font-style="normal" font-weight="400">
    <path vector-effect="none" d="M88.5246,1.42109e-14 C88.5246,48.8908 48.8908,88.5246 0,88.5246 C-48.8908,88.5246 -88.5246,48.8908 -88.5246,1.42109e-14 C-88.5246,-48.8908 -48.8908,-88.5246 0,-88.5246 C48.8908,-88.5246 88.5246,-48.8908 88.5246,1.42109e-14 " fill-rule="evenodd"/>
   </g>
   <g stroke-width="1.3" transform="matrix(1,0,0,1,1485,1050)" stroke-dashoffset="0" stroke-linecap="round" font-size="29.1042" fill="none" stroke-opacity="1" stroke-linejoin="bevel" stroke="#000000" stroke-dasharray="5.2,2.6" font-family="MS Shell Dlg 2" font-style="normal" font-weight="400">
    <path vector-effect="none" d="M108.197,1.42109e-14 C108.197,59.7554 59.7554,108.197 0,108.197 C-59.7554,108.197 -108.197,59.7554 -108.197,1.42109e-14 C-108.197,-59.7554 -59.7554,-108.197 0,-108.197 C59.7554,-108.197 108.197,-59.7554 108.197,1.42109e-14 " fill-rule="evenodd"/>
   </g>
   <g stroke-width="2.5" transform="matrix(1,0,0,1,1485,1050)" stroke-linecap="round" font-size="29.1042" fill="none" stroke-opacity="1" stroke-linejoin="bevel" stroke="#000000" font-family="MS Shell Dlg 2" font-style="normal" font-weight="400">
    <path vector-effect="none" d="M88.5246,1.42109e-14 C88.5246,48.8908 48.8908,88.5246 0,88.5246 C-48.8908,88.5246 -88.5246,48.8908 -88.5246,1.42109e-14 C-88.5246,-48.8908 -48.8908,-88.5246 0,-88.5246 C48.8908,-88.5246 88.5246,-48.8908 88.5246,1.42109e-14 " fill-rule="evenodd"/>
   </g>
   <g stroke-width="2.5" transform="matrix(1,0,0,1,1485,1050)" stroke-linecap="round" font-size="29.1042" fill="none" stroke-opacity="1" stroke-linejoin="bevel" stroke="#000000" font-family="MS Shell Dlg 2" font-style="normal" font-weight="400">
    <path vector-effect="none" d="M108.197,1.42109e-14 C108.197,59.7554 59.7554,108.197 0,108.197 C-59.7554,108.197 -108.197,59.7554 -108.197,1.42109e-14 C-108.197,-59.7554 -59.7554,-108.197 0,-108.197 C59.7554,-108.197 108.197,-59.7554 108.197,1.42109e-14 " fill-rule="evenodd"/>
   </g>
   <g transform="matrix(1,0,0,1,1485,-191.732)" font-size="29.1042" fill="#ffffff" stroke="none" font-family="MS Shell Dlg 2" font-style="normal" fill-opacity="1" font-weight="400">
    <path vector-effect="non-scaling-stroke" d="M-108.197,526.158 L-108.197,545.83 L108.197,545.83 L108.197,526.158 L105.484,526.158 L97.4819,526.158 L88.5246,526.158 L88.5246,-545.973 L-88.5246,-545.973 L-88.5246,526.158 L-97.4819,526.158 L-105.484,526.158 L-108.197,526.158" fill-rule="evenodd"/>
   </g>
   <g transform="matrix(1,0,0,1,1485,-191.732)" font-size="29.1042" fill="#ffffff" stroke="none" font-family="MS Shell Dlg 2" font-style="normal" fill-opacity="1" font-weight="400">
    <path vector-effect="non-scaling-stroke" d="M-88.5246,-545.973 L-88.5246,526.158 L-84.5916,526.158 L-67.4596,526.158 L-46.9448,526.158 L-24.076,526.158 L-1.77636e-14,526.158 L24.076,526.158 L46.9448,526.158 L67.4596,526.158 L84.5916,526.158 L88.5246,526.158 L88.5246,-545.973 L-88.5246,-545.973" fill-rule="evenodd"/>
   </g>
   <g transform="matrix(1,0,0,1,1485,-191.732)" font-size="29.1042" fill="#ffffff" stroke="none" font-family="MS Shell Dlg 2" font-style="normal" fill-opacity="1" font-weight="400">
    <path vector-effect="non-scaling-stroke" d="M-108.197,526.158 L-108.197,545.83 L108.197,545.83 L108.197,526.158 L105.484,526.158 L97.4819,526.158 L88.5246,526.158 L84.5916,526.158 L67.4596,526.158 L46.9448,526.158 L24.076,526.158 L-1.77636e-14,526.158 L-24.076,526.158 L-46.9448,526.158 L-67.4596,526.158 L-84.5916,526.158 L-88.5246,526.158 L-97.4819,526.158 L-105.484,526.158 L-108.197,526.158" fill-rule="evenodd"/>
   </g>
   <g stroke-width="1.3" transform="matrix(1,0,0,1,1485,-191.732)" stroke-dashoffset="0" stroke-linecap="round" font-size="29.1042" fill="none" stroke-opacity="1" stroke-linejoin="bevel" stroke="#000000" stroke-dasharray="5.2,2.6" font-family="MS Shell Dlg 2" font-style="normal" font-weight="400">
    <path vector-effect="none" d="M88.5246,-545.973 L-88.5246,-545.973" fill-rule="evenodd"/>
   </g>
   <g stroke-width="1.3" transform="matrix(1,0,0,1,1485,-191.732)" stroke-dashoffset="0" stroke-linecap="round" font-size="29.1042" fill="none" stroke-opacity="1" stroke-linejoin="bevel" stroke="#000000" stroke-dasharray="5.2,2.6" font-family="MS Shell Dlg 2" font-style="normal" font-weight="400">
    <path vector-effect="none" d="M-88.5246,526.158 L88.5246,526.158" fill-rule="evenodd"/>
   </g>
   <g stroke-width="1.3" transform="matrix(1,0,0,1,1485,-191.732)" stroke-dashoffset="0" stroke-linecap="round" font-size="29.1042" fill="none" stroke-opacity="1" stroke-linejoin="bevel" stroke="#000000" stroke-dasharray="5.2,2.6" font-family="MS Shell Dlg 2" font-style="normal" font-weight="400">
    <path vector-effect="none" d="M88.5246,526.158 L-88.5246,526.158" fill-rule="evenodd"/>
   </g>
   <g stroke-width="1.3" transform="matrix(1,0,0,1,1485,-191.732)" stroke-dashoffset="0" stroke-linecap="round" font-size="29.1042" fill="none" stroke-opacity="1" stroke-linejoin="bevel" stroke="#000000" stroke-dasharray="5.2,2.6" font-family="MS Shell Dlg 2" font-style="normal" font-weight="400">
    <path vector-effect="none" d="M108.197,526.158 L-108.197,526.158" fill-rule="evenodd"/>
   </g>
   <g stroke-width="1.3" transform="matrix(1,0,0,1,1485,-191.732)" stroke-dashoffset="0" stroke-linecap="round" font-size="29.1042" fill="none" stroke-opacity="1" stroke-linejoin="bevel" stroke="#000000" stroke-dasharray="5.2,2.6" font-family="MS Shell Dlg 2" font-style="normal" font-weight="400">
    <path vector-effect="none" d="M108.197,545.83 L-108.197,545.83" fill-rule="evenodd"/>
   </g>
   <g stroke-width="2.5" transform="matrix(1,0,0,1,1485,-191.732)" stroke-linecap="round" font-size="29.1042" fill="none" stroke-opacity="1" stroke-linejoin="bevel" stroke="#000000" font-family="MS Shell Dlg 2" font-style="normal" font-weight="400">
    <path vector-effect="none" d="M-88.5246,-545.973 L88.5246,-545.973" fill-rule="evenodd"/>
   </g>
   <g stroke-width="2.5" transform="matrix(1,0,0,1,1485,-191.732)" stroke-linecap="round" font-size="29.1042" fill="none" stroke-opacity="1" stroke-linejoin="bevel" stroke="#000000" font-family="MS Shell Dlg 2" font-style="normal" font-weight="400">
    <path vector-effect="none" d="M-88.5246,-545.973 L-88.5246,526.158" fill-rule="evenodd"/>
   </g>
   <g stroke-width="2.5" transform="matrix(1,0,0,1,1485,-191.732)" stroke-linecap="round" font-size="29.1042" fill="none" stroke-opacity="1" stroke-linejoin="bevel" stroke="#000000" font-family="MS Shell Dlg 2" font-style="normal" font-weight="400">
    <path vector-effect="none" d="M-108.197,526.158 L108.197,526.158" fill-rule="evenodd"/>
   </g>
   <g stroke-width="2.5" transform="matrix(1,0,0,1,1485,-191.732)" stroke-linecap="round" font-size="29.1042" fill="none" stroke-opacity="1" stroke-linejoin="bevel" stroke="#000000" font-family="MS Shell Dlg 2" font-style="normal" font-weight="400">
    <path vector-effect="none" d="M-108.197,526.158 L-108.197,545.83" fill-rule="evenodd"/>
   </g>
   <g stroke-width="2.5" transform="matrix(1,0,0,1,1485,-191.732)" stroke-linecap="round" font-size="29.1042" fill="none" stroke-opacity="1" stroke-linejoin="bevel" stroke="#000000" font-family="MS Shell Dlg 2" font-style="normal" font-weight="400">
    <path vector-effect="none" d="M-108.197,545.83 L108.197,545.83" fill-rule="evenodd"/>
   </g>
   <g stroke-width="2.5" transform="matrix(1,0,0,1,1485,-191.732)" stroke-linecap="round" font-size="29.1042" fill="none" stroke-opacity="1" stroke-linejoin="bevel" stroke="#000000" font-family="MS Shell Dlg 2" font-style="normal" font-weight="400">
    <path vector-effect="none" d="M88.5246,526.158 L88.5246,-545.973" fill-rule="evenodd"/>
   </g>
   <g stroke-width="2.5" transform="matrix(1,0,0,1,1485,-191.732)" stroke-linecap="round" font-size="29.1042" fill="none" stroke-opacity="1" stroke-linejoin="bevel" stroke="#000000" font-family="MS Shell Dlg 2" font-style="normal" font-weight="400">
    <path vector-effect="none" d="M108.197,545.83 L108.197,526.158" fill-rule="evenodd"/>
   </g>
   <g transform="matrix(1,0,0,1,2726.73,1050)" font-size="29.1042" fill="#ffffff" stroke="none" font-family="MS Shell Dlg 2" font-style="normal" fill-opacity="1" font-weight="400">
    <path vector-effect="non-scaling-stroke" d="M-545.83,-108.197 L-526.158,-108.197 L-526.158,-107.516 L-526.158,-105.484 L-526.158,-102.125 L-526.158,-97.4819 L-526.158,-91.6128 L-526.158,-88.5246 L545.973,-88.5246 L545.973,-7.15436e-16 L545.973,88.5246 L-526.158,88.5246 L-526.158,91.6128 L-526.158,97.4819 L-526.158,102.125 L-526.158,105.484 L-526.158,107.516 L-526.158,108.197 L-545.83,108.197 L-545.83,-5.53372e-15 L-545.83,-108.197" fill-rule="evenodd"/>
   </g>
   <g transform="matrix(1,0,0,1,2726.73,1050)" font-size="29.1042" fill="#ffffff" stroke="none" font-family="MS Shell Dlg 2" font-style="normal" fill-opacity="1" font-weight="400">
    <path vector-effect="non-scaling-stroke" d="M-526.158,-88.5246 L545.973,-88.5246 L545.973,-7.15436e-16 L545.973,88.5246 L-526.158,88.5246 L-526.158,84.5916 L-526.158,76.5066 L-526.158,67.4596 L-526.158,57.5641 L-526.158,46.9448 L-526.158,35.7351 L-526.158,24.076 L-526.158,12.1142 L-526.158,6.66134e-15 L-526.158,-1.88738e-14 L-526.158,-12.1142 L-526.158,-24.076 L-526.158,-35.7351 L-526.158,-46.9448 L-526.158,-57.5641 L-526.158,-67.4596 L-526.158,-76.5066 L-526.158,-84.5916 L-526.158,-88.5246" fill-rule="evenodd"/>
   </g>
   <g transform="matrix(1,0,0,1,2726.73,1050)" font-size="29.1042" fill="#ffffff" stroke="none" font-family="MS Shell Dlg 2" font-style="normal" fill-opacity="1" font-weight="400">
    <path vector-effect="non-scaling-stroke" d="M-545.83,-108.197 L-526.158,-108.197 L-526.158,-107.516 L-526.158,-105.484 L-526.158,-102.125 L-526.158,-97.4819 L-526.158,-91.6128 L-526.158,-88.5246 L-526.158,-84.5916 L-526.158,-76.5066 L-526.158,-67.4596 L-526.158,-57.5641 L-526.158,-46.9448 L-526.158,-35.7351 L-526.158,-24.076 L-526.158,-12.1142 L-526.158,-1.88738e-14 L-526.158,6.66134e-15 L-526.158,12.1142 L-526.158,24.076 L-526.158,35.7351 L-526.158,46.9448 L-526.158,57.5641 L-526.158,67.4596 L-526.158,76.5066 L-526.158,84.5916 L-526.158,88.5246 L-526.158,91.6128 L-526.158,97.4819 L-526.158,102.125 L-526.158,105.484 L-526.158,107.516 L-526.158,108.197 L-545.83,108.197 L-545.83,-5.53372e-15 L-545.83,-108.197" fill-rule="evenodd"/>
   </g>
   <g stroke-width="1.3" transform="matrix(1,0,0,1,2726.73,1050)" stroke-dashoffset="0" stroke-linecap="round" font-size="29.1042" fill="none" stroke-opacity="1" stroke-linejoin="bevel" stroke="#000000" stroke-dasharray="5.2,2.6" font-family="MS Shell Dlg 2" font-style="normal" font-weight="400">
    <path vector-effect="none" d="M545.973,88.5246 L545.973,-88.5246" fill-rule="evenodd"/>
   </g>
   <g stroke-width="1.3" transform="matrix(1,0,0,1,2726.73,1050)" stroke-dashoffset="0" stroke-linecap="round" font-size="29.1042" fill="none" stroke-opacity="1" stroke-linejoin="bevel" stroke="#000000" stroke-dasharray="5.2,2.6" font-family="MS Shell Dlg 2" font-style="normal" font-weight="400">
    <path vector-effect="none" d="M-526.158,3.1808e-14 L-526.158,-88.5246" fill-rule="evenodd"/>
   </g>
   <g stroke-width="1.3" transform="matrix(1,0,0,1,2726.73,1050)" stroke-dashoffset="0" stroke-linecap="round" font-size="29.1042" fill="none" stroke-opacity="1" stroke-linejoin="bevel" stroke="#000000" stroke-dasharray="5.2,2.6" font-family="MS Shell Dlg 2" font-style="normal" font-weight="400">
    <path vector-effect="none" d="M-526.158,-88.5246 L-526.158,88.5246" fill-rule="evenodd"/>
   </g>
   <g stroke-width="1.3" transform="matrix(1,0,0,1,2726.73,1050)" stroke-dashoffset="0" stroke-linecap="round" font-size="29.1042" fill="none" stroke-opacity="1" stroke-linejoin="bevel" stroke="#000000" stroke-dasharray="5.2,2.6" font-family="MS Shell Dlg 2" font-style="normal" font-weight="400">
    <path vector-effect="none" d="M-526.158,88.5246 L-526.158,5.34902e-14" fill-rule="evenodd"/>
   </g>
   <g stroke-width="1.3" transform="matrix(1,0,0,1,2726.73,1050)" stroke-dashoffset="0" stroke-linecap="round" font-size="29.1042" fill="none" stroke-opacity="1" stroke-linejoin="bevel" stroke="#000000" stroke-dasharray="5.2,2.6" font-family="MS Shell Dlg 2" font-style="normal" font-weight="400">
    <path vector-effect="none" d="M-526.158,108.197 L-526.158,-108.197" fill-rule="evenodd"/>
   </g>
   <g stroke-width="1.3" transform="matrix(1,0,0,1,2726.73,1050)" stroke-dashoffset="0" stroke-linecap="round" font-size="29.1042" fill="none" stroke-opacity="1" stroke-linejoin="bevel" stroke="#000000" stroke-dasharray="5.2,2.6" font-family="MS Shell Dlg 2" font-style="normal" font-weight="400">
    <path vector-effect="none" d="M-545.83,108.197 L-545.83,-108.197" fill-rule="evenodd"/>
   </g>
   <g stroke-width="2.5" transform="matrix(1,0,0,1,2726.73,1050)" stroke-linecap="round" font-size="29.1042" fill="none" stroke-opacity="1" stroke-linejoin="bevel" stroke="#000000" font-family="MS Shell Dlg 2" font-style="normal" font-weight="400">
    <path vector-effect="none" d="M545.973,1.01257e-14 L545.973,88.5246" fill-rule="evenodd"/>
   </g>
   <g stroke-width="2.5" transform="matrix(1,0,0,1,2726.73,1050)" stroke-linecap="round" font-size="29.1042" fill="none" stroke-opacity="1" stroke-linejoin="bevel" stroke="#000000" font-family="MS Shell Dlg 2" font-style="normal" font-weight="400">
    <path vector-effect="none" d="M545.973,-88.5246 L545.973,-1.15566e-14" fill-rule="evenodd"/>
   </g>
   <g stroke-width="2.5" transform="matrix(1,0,0,1,2726.73,1050)" stroke-linecap="round" font-size="29.1042" fill="none" stroke-opacity="1" stroke-linejoin="bevel" stroke="#000000" font-family="MS Shell Dlg 2" font-style="normal" font-weight="400">
    <path vector-effect="none" d="M-526.158,7.71656e-15 L-526.158,108.197" fill-rule="evenodd"/>
   </g>
   <g stroke-width="2.5" transform="matrix(1,0,0,1,2726.73,1050)" stroke-linecap="round" font-size="29.1042" fill="none" stroke-opacity="1" stroke-linejoin="bevel" stroke="#000000" font-family="MS Shell Dlg 2" font-style="normal" font-weight="400">
    <path vector-effect="none" d="M-526.158,-108.197 L-526.158,-1.8784e-14" fill-rule="evenodd"/>
   </g>
   <g stroke-width="2.5" transform="matrix(1,0,0,1,2726.73,1050)" stroke-linecap="round" font-size="29.1042" fill="none" stroke-opacity="1" stroke-linejoin="bevel" stroke="#000000" font-family="MS Shell Dlg 2" font-style="normal" font-weight="400">
    <path vector-effect="none" d="M-545.83,7.71656e-15 L-545.83,108.197" fill-rule="evenodd"/>
   </g>
   <g stroke-width="2.5" transform="matrix(1,0,0,1,2726.73,1050)" stroke-linecap="round" font-size="29.1042" fill="none" stroke-opacity="1" stroke-linejoin="bevel" stroke="#000000" font-family="MS Shell Dlg 2" font-style="normal" font-weight="400">
    <path vector-effect="none" d="M-545.83,-108.197 L-545.83,-1.8784e-14" fill-rule="evenodd"/>
   </g>
   <g stroke-width="2.5" transform="matrix(1,0,0,1,2726.73,1050)" stroke-linecap="round" font-size="29.1042" fill="none" stroke-opacity="1" stroke-linejoin="bevel" stroke="#000000" font-family="MS Shell Dlg 2" font-style="normal" font-weight="400">
    <path vector-effect="none" d="M-526.158,88.5246 L545.973,88.5246" fill-rule="evenodd"/>
   </g>
   <g stroke-width="2.5" transform="matrix(1,0,0,1,2726.73,1050)" stroke-linecap="round" font-size="29.1042" fill="none" stroke-opacity="1" stroke-linejoin="bevel" stroke="#000000" font-family="MS Shell Dlg 2" font-style="normal" font-weight="400">
    <path vector-effect="none" d="M-526.158,-88.5246 L545.973,-88.5246" fill-rule="evenodd"/>
   </g>
   <g stroke-width="2.5" transform="matrix(1,0,0,1,2726.73,1050)" stroke-linecap="round" font-size="29.1042" fill="none" stroke-opacity="1" stroke-linejoin="bevel" stroke="#000000" font-family="MS Shell Dlg 2" font-style="normal" font-weight="400">
    <path vector-effect="none" d="M-545.83,108.197 L-526.158,108.197" fill-rule="evenodd"/>
   </g>
   <g stroke-width="2.5" transform="matrix(1,0,0,1,2726.73,1050)" stroke-linecap="round" font-size="29.1042" fill="none" stroke-opacity="1" stroke-linejoin="bevel" stroke="#000000" font-family="MS Shell Dlg 2" font-style="normal" font-weight="400">
    <path vector-effect="none" d="M-545.83,-108.197 L-526.158,-108.197" fill-rule="evenodd"/>
   </g>
  </g>
 </g>
</svg>
