<?xml version='1.0' encoding='UTF-8' standalone='no'?>
<svg width="297mm" height="210mm" xmlns:xlink="http://www.w3.org/1999/xlink" baseProfile="tiny" xmlns:svg="http://www.w3.org/2000/svg" version="1.2" xmlns:cc="http://creativecommons.org/ns#" xmlns:sodipodi="http://sodipodi.sourceforge.net/DTD/sodipodi-0.dtd" xmlns:dc="http://purl.org/dc/elements/1.1/" xmlns:rdf="http://www.w3.org/1999/02/22-rdf-syntax-ns#" xmlns:freecad="http://www.freecadweb.org/wiki/index.php?title=Svg_Namespace" xmlns:inkscape="http://www.inkscape.org/namespaces/inkscape" xmlns="http://www.w3.org/2000/svg" viewBox="0 0 5000 3000">
 <title>FreeCAD SVG Export</title>
 <desc>Drawing page: Page exported from FreeCAD document: Unnamed</desc>
 <defs/>
 <g inkscape:groupmode="layer" id="Page" inkscape:label="TechDraw">
  <g stroke-width="1" stroke-linecap="square" fill="none" stroke-linejoin="bevel" id="DrawingContent" stroke="black" fill-rule="evenodd">
   <g stroke-width="1" transform="matrix(1,0,0,1,1485,1050)" stroke-linecap="square" font-size="29.1042" fill="none" stroke-opacity="1" stroke-linejoin="bevel" stroke="#000000" font-family="MS Shell Dlg 2" font-style="normal" font-weight="400">
    <rect x="0" width="0" height="0" y="0"/>
   </g>
   <g transform="matrix(1,0,0,1,1485,1050)" font-size="29.1042" fill="#ffffff" stroke="none" font-family="MS Shell Dlg 2" font-style="normal" fill-opacity="1" font-weight="400">
    <path vector-effect="non-scaling-stroke" d="M32.3874,-19.0636 C32.7451,-20.2254 32.53,-21.488 31.8079,-22.4659 C31.0858,-23.4438 29.9424,-24.0208 28.7268,-24.0208 L-28.7265,-24.0208 C-29.9414,-24.0208 -31.0843,-23.4445 -31.8065,-22.4676 C-32.5287,-21.4907 -32.7446,-20.2291 -32.3885,-19.0676 L-20.422,19.9538 C-19.682,22.3671 -17.4534,24.0146 -14.9292,24.0146 L14.8828,24.0146 C17.4047,24.0146 19.6318,22.37 20.3738,19.9597 L32.3874,-19.0636" fill-rule="evenodd"/>
   </g>
   <g transform="matrix(1,0,0,1,1485,1050)" font-size="29.1042" fill="#ffffff" stroke="none" font-family="MS Shell Dlg 2" font-style="normal" fill-opacity="1" font-weight="400">
    <path vector-effect="non-scaling-stroke" d="M19.1512,-0.405334 C19.1512,10.1715 10.577,18.7458 0.000102595,18.7458 C-10.5768,18.7458 -19.151,10.1715 -19.151,-0.405334 C-19.151,-10.9822 -10.5768,-19.5564 0.000102595,-19.5564 C10.577,-19.5564 19.1512,-10.9822 19.1512,-0.405334 " fill-rule="evenodd"/>
   </g>
   <g stroke-width="1.3" transform="matrix(1,0,0,1,1485,1050)" stroke-dashoffset="0" stroke-linecap="round" font-size="29.1042" fill="none" stroke-opacity="1" stroke-linejoin="bevel" stroke="#000000" stroke-dasharray="5.2,2.6" font-family="MS Shell Dlg 2" font-style="normal" font-weight="400">
    <path vector-effect="none" d="M19.1512,-0.405334 C19.1512,10.1715 10.577,18.7458 0.000102595,18.7458 C-10.5768,18.7458 -19.151,10.1715 -19.151,-0.405334 C-19.151,-10.9822 -10.5768,-19.5564 0.000102595,-19.5564 C10.577,-19.5564 19.1512,-10.9822 19.1512,-0.405334 " fill-rule="evenodd"/>
   </g>
   <g stroke-width="1.3" transform="matrix(1,0,0,1,1485,1050)" stroke-dashoffset="0" stroke-linecap="round" font-size="29.1042" fill="none" stroke-opacity="1" stroke-linejoin="bevel" stroke="#000000" stroke-dasharray="5.2,2.6" font-family="MS Shell Dlg 2" font-style="normal" font-weight="400">
    <path vector-effect="none" d="M-20.422,19.9538 L-32.3885,-19.0676" fill-rule="evenodd"/>
   </g>
   <g stroke-width="1.3" transform="matrix(1,0,0,1,1485,1050)" stroke-dashoffset="0" stroke-linecap="round" font-size="29.1042" fill="none" stroke-opacity="1" stroke-linejoin="bevel" stroke="#000000" stroke-dasharray="5.2,2.6" font-family="MS Shell Dlg 2" font-style="normal" font-weight="400">
    <path vector-effect="none" d="M-28.7265,-24.0208 C-29.9414,-24.0208 -31.0843,-23.4445 -31.8065,-22.4676 C-32.5287,-21.4907 -32.7446,-20.2291 -32.3885,-19.0676 " fill-rule="evenodd"/>
   </g>
   <g stroke-width="1.3" transform="matrix(1,0,0,1,1485,1050)" stroke-dashoffset="0" stroke-linecap="round" font-size="29.1042" fill="none" stroke-opacity="1" stroke-linejoin="bevel" stroke="#000000" stroke-dasharray="5.2,2.6" font-family="MS Shell Dlg 2" font-style="normal" font-weight="400">
    <path vector-effect="none" d="M-28.7265,-24.0208 L28.7268,-24.0208" fill-rule="evenodd"/>
   </g>
   <g stroke-width="1.3" transform="matrix(1,0,0,1,1485,1050)" stroke-dashoffset="0" stroke-linecap="round" font-size="29.1042" fill="none" stroke-opacity="1" stroke-linejoin="bevel" stroke="#000000" stroke-dasharray="5.2,2.6" font-family="MS Shell Dlg 2" font-style="normal" font-weight="400">
    <path vector-effect="none" d="M32.3874,-19.0636 C32.7451,-20.2254 32.53,-21.488 31.8079,-22.4659 C31.0858,-23.4438 29.9424,-24.0208 28.7268,-24.0208 " fill-rule="evenodd"/>
   </g>
   <g stroke-width="1.3" transform="matrix(1,0,0,1,1485,1050)" stroke-dashoffset="0" stroke-linecap="round" font-size="29.1042" fill="none" stroke-opacity="1" stroke-linejoin="bevel" stroke="#000000" stroke-dasharray="5.2,2.6" font-family="MS Shell Dlg 2" font-style="normal" font-weight="400">
    <path vector-effect="none" d="M32.3874,-19.0636 L20.3738,19.9597" fill-rule="evenodd"/>
   </g>
   <g stroke-width="1.3" transform="matrix(1,0,0,1,1485,1050)" stroke-dashoffset="0" stroke-linecap="round" font-size="29.1042" fill="none" stroke-opacity="1" stroke-linejoin="bevel" stroke="#000000" stroke-dasharray="5.2,2.6" font-family="MS Shell Dlg 2" font-style="normal" font-weight="400">
    <path vector-effect="none" d="M14.8828,24.0146 C17.4047,24.0146 19.6318,22.37 20.3738,19.9597 " fill-rule="evenodd"/>
   </g>
   <g stroke-width="1.3" transform="matrix(1,0,0,1,1485,1050)" stroke-dashoffset="0" stroke-linecap="round" font-size="29.1042" fill="none" stroke-opacity="1" stroke-linejoin="bevel" stroke="#000000" stroke-dasharray="5.2,2.6" font-family="MS Shell Dlg 2" font-style="normal" font-weight="400">
    <path vector-effect="none" d="M14.8828,24.0146 L-14.9292,24.0146" fill-rule="evenodd"/>
   </g>
   <g stroke-width="1.3" transform="matrix(1,0,0,1,1485,1050)" stroke-dashoffset="0" stroke-linecap="round" font-size="29.1042" fill="none" stroke-opacity="1" stroke-linejoin="bevel" stroke="#000000" stroke-dasharray="5.2,2.6" font-family="MS Shell Dlg 2" font-style="normal" font-weight="400">
    <path vector-effect="none" d="M-20.422,19.9538 C-19.682,22.3671 -17.4534,24.0146 -14.9292,24.0146 " fill-rule="evenodd"/>
   </g>
   <g stroke-width="2.5" transform="matrix(1,0,0,1,1485,1050)" stroke-linecap="round" font-size="29.1042" fill="none" stroke-opacity="1" stroke-linejoin="bevel" stroke="#000000" font-family="MS Shell Dlg 2" font-style="normal" font-weight="400">
    <path vector-effect="none" d="M19.1512,-0.405334 C19.1512,10.1715 10.577,18.7458 0.000102595,18.7458 C-10.5768,18.7458 -19.151,10.1715 -19.151,-0.405334 C-19.151,-10.9822 -10.5768,-19.5564 0.000102595,-19.5564 C10.577,-19.5564 19.1512,-10.9822 19.1512,-0.405334 " fill-rule="evenodd"/>
   </g>
   <g stroke-width="2.5" transform="matrix(1,0,0,1,1485,1050)" stroke-linecap="round" font-size="29.1042" fill="none" stroke-opacity="1" stroke-linejoin="bevel" stroke="#000000" font-family="MS Shell Dlg 2" font-style="normal" font-weight="400">
    <path vector-effect="none" d="M-32.3885,-19.0676 L-20.422,19.9538" fill-rule="evenodd"/>
   </g>
   <g stroke-width="2.5" transform="matrix(1,0,0,1,1485,1050)" stroke-linecap="round" font-size="29.1042" fill="none" stroke-opacity="1" stroke-linejoin="bevel" stroke="#000000" font-family="MS Shell Dlg 2" font-style="normal" font-weight="400">
    <path vector-effect="none" d="M-28.7265,-24.0208 C-29.9414,-24.0208 -31.0843,-23.4445 -31.8065,-22.4676 C-32.5287,-21.4907 -32.7446,-20.2291 -32.3885,-19.0676 " fill-rule="evenodd"/>
   </g>
   <g stroke-width="2.5" transform="matrix(1,0,0,1,1485,1050)" stroke-linecap="round" font-size="29.1042" fill="none" stroke-opacity="1" stroke-linejoin="bevel" stroke="#000000" font-family="MS Shell Dlg 2" font-style="normal" font-weight="400">
    <path vector-effect="none" d="M28.7268,-24.0208 L-28.7265,-24.0208" fill-rule="evenodd"/>
   </g>
   <g stroke-width="2.5" transform="matrix(1,0,0,1,1485,1050)" stroke-linecap="round" font-size="29.1042" fill="none" stroke-opacity="1" stroke-linejoin="bevel" stroke="#000000" font-family="MS Shell Dlg 2" font-style="normal" font-weight="400">
    <path vector-effect="none" d="M32.3874,-19.0636 C32.7451,-20.2254 32.53,-21.488 31.8079,-22.4659 C31.0858,-23.4438 29.9424,-24.0208 28.7268,-24.0208 " fill-rule="evenodd"/>
   </g>
   <g stroke-width="2.5" transform="matrix(1,0,0,1,1485,1050)" stroke-linecap="round" font-size="29.1042" fill="none" stroke-opacity="1" stroke-linejoin="bevel" stroke="#000000" font-family="MS Shell Dlg 2" font-style="normal" font-weight="400">
    <path vector-effect="none" d="M20.3738,19.9597 L32.3874,-19.0636" fill-rule="evenodd"/>
   </g>
   <g stroke-width="2.5" transform="matrix(1,0,0,1,1485,1050)" stroke-linecap="round" font-size="29.1042" fill="none" stroke-opacity="1" stroke-linejoin="bevel" stroke="#000000" font-family="MS Shell Dlg 2" font-style="normal" font-weight="400">
    <path vector-effect="none" d="M14.8828,24.0146 C17.4047,24.0146 19.6318,22.37 20.3738,19.9597 " fill-rule="evenodd"/>
   </g>
   <g stroke-width="2.5" transform="matrix(1,0,0,1,1485,1050)" stroke-linecap="round" font-size="29.1042" fill="none" stroke-opacity="1" stroke-linejoin="bevel" stroke="#000000" font-family="MS Shell Dlg 2" font-style="normal" font-weight="400">
    <path vector-effect="none" d="M-14.9292,24.0146 L14.8828,24.0146" fill-rule="evenodd"/>
   </g>
   <g stroke-width="2.5" transform="matrix(1,0,0,1,1485,1050)" stroke-linecap="round" font-size="29.1042" fill="none" stroke-opacity="1" stroke-linejoin="bevel" stroke="#000000" font-family="MS Shell Dlg 2" font-style="normal" font-weight="400">
    <path vector-effect="none" d="M-20.422,19.9538 C-19.682,22.3671 -17.4534,24.0146 -14.9292,24.0146 " fill-rule="evenodd"/>
   </g>
   <g transform="matrix(1,0,0,1,1485,-267.454)" font-size="29.1042" fill="#ffffff" stroke="none" font-family="MS Shell Dlg 2" font-style="normal" fill-opacity="1" font-weight="400">
    <path vector-effect="non-scaling-stroke" d="M32.4298,583.726 L32.4722,-583.726 L20.3738,-583.726 L14.8828,-583.726 L-14.9292,-583.726 L-20.422,-583.726 L-32.4726,-583.726 L-32.4726,583.726 L-20.422,583.726 L-14.9292,583.726 L14.8828,583.726 L20.3738,583.726 L32.4298,583.726" fill-rule="evenodd"/>
   </g>
   <g transform="matrix(1,0,0,1,1485,-267.454)" font-size="29.1042" fill="#ffffff" stroke="none" font-family="MS Shell Dlg 2" font-style="normal" fill-opacity="1" font-weight="400">
    <path vector-effect="non-scaling-stroke" d="M14.8828,583.726 L14.8828,-583.726 L-14.9292,-583.726 L-14.9292,583.726 L14.8828,583.726" fill-rule="evenodd"/>
   </g>
   <g transform="matrix(1,0,0,1,1485,-267.454)" font-size="29.1042" fill="#ffffff" stroke="none" font-family="MS Shell Dlg 2" font-style="normal" fill-opacity="1" font-weight="400">
    <path vector-effect="non-scaling-stroke" d="M32.3874,583.726 L32.3874,-583.726 L20.3738,-583.726 L20.3738,583.726 L32.3874,583.726" fill-rule="evenodd"/>
   </g>
   <g transform="matrix(1,0,0,1,1485,-267.454)" font-size="29.1042" fill="#ffffff" stroke="none" font-family="MS Shell Dlg 2" font-style="normal" fill-opacity="1" font-weight="400">
    <path vector-effect="non-scaling-stroke" d="M-20.422,583.726 L-20.422,-583.726 L-32.3885,-583.726 L-32.3885,583.726 L-20.422,583.726" fill-rule="evenodd"/>
   </g>
   <g transform="matrix(1,0,0,1,1485,-267.454)" font-size="29.1042" fill="#ffffff" stroke="none" font-family="MS Shell Dlg 2" font-style="normal" fill-opacity="1" font-weight="400">
    <path vector-effect="non-scaling-stroke" d="M-20.422,583.726 L-14.9292,583.726 L-14.9292,-583.726 L-20.422,-583.726 L-20.422,583.726" fill-rule="evenodd"/>
   </g>
   <g transform="matrix(1,0,0,1,1485,-267.454)" font-size="29.1042" fill="#ffffff" stroke="none" font-family="MS Shell Dlg 2" font-style="normal" fill-opacity="1" font-weight="400">
    <path vector-effect="non-scaling-stroke" d="M14.8828,583.726 L20.3738,583.726 L20.3738,-583.726 L14.8828,-583.726 L14.8828,583.726" fill-rule="evenodd"/>
   </g>
   <g transform="matrix(1,0,0,1,1485,-267.454)" font-size="29.1042" fill="#ffffff" stroke="none" font-family="MS Shell Dlg 2" font-style="normal" fill-opacity="1" font-weight="400">
    <path vector-effect="non-scaling-stroke" d="M32.4298,583.726 L32.4722,-583.726 L32.4298,583.726" fill-rule="evenodd"/>
   </g>
   <g transform="matrix(1,0,0,1,1485,-267.454)" font-size="29.1042" fill="#ffffff" stroke="none" font-family="MS Shell Dlg 2" font-style="normal" fill-opacity="1" font-weight="400">
    <path vector-effect="non-scaling-stroke" d="M-32.5147,583.726 L-32.3885,583.726 L-32.4726,-583.726 L-32.5147,583.726" fill-rule="evenodd"/>
   </g>
   <g stroke-width="1.3" transform="matrix(1,0,0,1,1485,-267.454)" stroke-dashoffset="0" stroke-linecap="round" font-size="29.1042" fill="none" stroke-opacity="1" stroke-linejoin="bevel" stroke="#000000" stroke-dasharray="5.2,2.6" font-family="MS Shell Dlg 2" font-style="normal" font-weight="400">
    <path vector-effect="none" d="M-19.151,-583.726 L-19.151,583.726" fill-rule="evenodd"/>
   </g>
   <g stroke-width="1.3" transform="matrix(1,0,0,1,1485,-267.454)" stroke-dashoffset="0" stroke-linecap="round" font-size="29.1042" fill="none" stroke-opacity="1" stroke-linejoin="bevel" stroke="#000000" stroke-dasharray="5.2,2.6" font-family="MS Shell Dlg 2" font-style="normal" font-weight="400">
    <path vector-effect="none" d="M-19.151,583.726 L19.1512,583.726" fill-rule="evenodd"/>
   </g>
   <g stroke-width="1.3" transform="matrix(1,0,0,1,1485,-267.454)" stroke-dashoffset="0" stroke-linecap="round" font-size="29.1042" fill="none" stroke-opacity="1" stroke-linejoin="bevel" stroke="#000000" stroke-dasharray="5.2,2.6" font-family="MS Shell Dlg 2" font-style="normal" font-weight="400">
    <path vector-effect="none" d="M19.1512,583.726 L-19.151,583.726" fill-rule="evenodd"/>
   </g>
   <g stroke-width="1.3" transform="matrix(1,0,0,1,1485,-267.454)" stroke-dashoffset="0" stroke-linecap="round" font-size="29.1042" fill="none" stroke-opacity="1" stroke-linejoin="bevel" stroke="#000000" stroke-dasharray="5.2,2.6" font-family="MS Shell Dlg 2" font-style="normal" font-weight="400">
    <path vector-effect="none" d="M-19.151,-583.726 L19.1512,-583.726" fill-rule="evenodd"/>
   </g>
   <g stroke-width="1.3" transform="matrix(1,0,0,1,1485,-267.454)" stroke-dashoffset="0" stroke-linecap="round" font-size="29.1042" fill="none" stroke-opacity="1" stroke-linejoin="bevel" stroke="#000000" stroke-dasharray="5.2,2.6" font-family="MS Shell Dlg 2" font-style="normal" font-weight="400">
    <path vector-effect="none" d="M19.1512,-583.726 L-19.151,-583.726" fill-rule="evenodd"/>
   </g>
   <g stroke-width="1.3" transform="matrix(1,0,0,1,1485,-267.454)" stroke-dashoffset="0" stroke-linecap="round" font-size="29.1042" fill="none" stroke-opacity="1" stroke-linejoin="bevel" stroke="#000000" stroke-dasharray="5.2,2.6" font-family="MS Shell Dlg 2" font-style="normal" font-weight="400">
    <path vector-effect="none" d="M-28.7265,583.726 L-32.3885,583.726" fill-rule="evenodd"/>
   </g>
   <g stroke-width="1.3" transform="matrix(1,0,0,1,1485,-267.454)" stroke-dashoffset="0" stroke-linecap="round" font-size="29.1042" fill="none" stroke-opacity="1" stroke-linejoin="bevel" stroke="#000000" stroke-dasharray="5.2,2.6" font-family="MS Shell Dlg 2" font-style="normal" font-weight="400">
    <path vector-effect="none" d="M-28.7265,-583.726 L-32.3885,-583.726" fill-rule="evenodd"/>
   </g>
   <g stroke-width="1.3" transform="matrix(1,0,0,1,1485,-267.454)" stroke-dashoffset="0" stroke-linecap="round" font-size="29.1042" fill="none" stroke-opacity="1" stroke-linejoin="bevel" stroke="#000000" stroke-dasharray="5.2,2.6" font-family="MS Shell Dlg 2" font-style="normal" font-weight="400">
    <path vector-effect="none" d="M-28.7265,583.726 L28.7268,583.726" fill-rule="evenodd"/>
   </g>
   <g stroke-width="1.3" transform="matrix(1,0,0,1,1485,-267.454)" stroke-dashoffset="0" stroke-linecap="round" font-size="29.1042" fill="none" stroke-opacity="1" stroke-linejoin="bevel" stroke="#000000" stroke-dasharray="5.2,2.6" font-family="MS Shell Dlg 2" font-style="normal" font-weight="400">
    <path vector-effect="none" d="M28.7268,-583.726 L-28.7265,-583.726" fill-rule="evenodd"/>
   </g>
   <g stroke-width="1.3" transform="matrix(1,0,0,1,1485,-267.454)" stroke-dashoffset="0" stroke-linecap="round" font-size="29.1042" fill="none" stroke-opacity="1" stroke-linejoin="bevel" stroke="#000000" stroke-dasharray="5.2,2.6" font-family="MS Shell Dlg 2" font-style="normal" font-weight="400">
    <path vector-effect="none" d="M32.3874,583.726 L28.7268,583.726" fill-rule="evenodd"/>
   </g>
   <g stroke-width="1.3" transform="matrix(1,0,0,1,1485,-267.454)" stroke-dashoffset="0" stroke-linecap="round" font-size="29.1042" fill="none" stroke-opacity="1" stroke-linejoin="bevel" stroke="#000000" stroke-dasharray="5.2,2.6" font-family="MS Shell Dlg 2" font-style="normal" font-weight="400">
    <path vector-effect="none" d="M32.3874,-583.726 L28.7268,-583.726" fill-rule="evenodd"/>
   </g>
   <g stroke-width="1.3" transform="matrix(1,0,0,1,1485,-267.454)" stroke-dashoffset="0" stroke-linecap="round" font-size="29.1042" fill="none" stroke-opacity="1" stroke-linejoin="bevel" stroke="#000000" stroke-dasharray="5.2,2.6" font-family="MS Shell Dlg 2" font-style="normal" font-weight="400">
    <path vector-effect="none" d="M19.1512,583.726 L19.1512,-583.726" fill-rule="evenodd"/>
   </g>
   <g stroke-width="1.3" transform="matrix(1,0,0,1,1485,-267.454)" stroke-dashoffset="0" stroke-linecap="round" font-size="29.1042" fill="none" stroke-opacity="1" stroke-linejoin="bevel" stroke="#000000" stroke-dasharray="5.2,2.6" font-family="MS Shell Dlg 2" font-style="normal" font-weight="400">
    <path vector-effect="none" d="M-28.7265,583.726 L-28.7265,-583.726" fill-rule="evenodd"/>
   </g>
   <g stroke-width="1.3" transform="matrix(1,0,0,1,1485,-267.454)" stroke-dashoffset="0" stroke-linecap="round" font-size="29.1042" fill="none" stroke-opacity="1" stroke-linejoin="bevel" stroke="#000000" stroke-dasharray="5.2,2.6" font-family="MS Shell Dlg 2" font-style="normal" font-weight="400">
    <path vector-effect="none" d="M28.7268,583.726 L28.7268,-583.726" fill-rule="evenodd"/>
   </g>
   <g stroke-width="2.5" transform="matrix(1,0,0,1,1485,-267.454)" stroke-linecap="round" font-size="29.1042" fill="none" stroke-opacity="1" stroke-linejoin="bevel" stroke="#000000" font-family="MS Shell Dlg 2" font-style="normal" font-weight="400">
    <path vector-effect="none" d="M-20.422,583.726 L-32.3885,583.726" fill-rule="evenodd"/>
   </g>
   <g stroke-width="2.5" transform="matrix(1,0,0,1,1485,-267.454)" stroke-linecap="round" font-size="29.1042" fill="none" stroke-opacity="1" stroke-linejoin="bevel" stroke="#000000" font-family="MS Shell Dlg 2" font-style="normal" font-weight="400">
    <path vector-effect="none" d="M-32.3885,-583.726 L-20.422,-583.726" fill-rule="evenodd"/>
   </g>
   <g stroke-width="2.5" transform="matrix(1,0,0,1,1485,-267.454)" stroke-linecap="round" font-size="29.1042" fill="none" stroke-opacity="1" stroke-linejoin="bevel" stroke="#000000" font-family="MS Shell Dlg 2" font-style="normal" font-weight="400">
    <path vector-effect="none" d="M-32.3885,583.726 L-32.5568,583.726" fill-rule="evenodd"/>
   </g>
   <g stroke-width="2.5" transform="matrix(1,0,0,1,1485,-267.454)" stroke-linecap="round" font-size="29.1042" fill="none" stroke-opacity="1" stroke-linejoin="bevel" stroke="#000000" font-family="MS Shell Dlg 2" font-style="normal" font-weight="400">
    <path vector-effect="none" d="M-32.5568,583.726 L-32.3885,583.726" fill-rule="evenodd"/>
   </g>
   <g stroke-width="2.5" transform="matrix(1,0,0,1,1485,-267.454)" stroke-linecap="round" font-size="29.1042" fill="none" stroke-opacity="1" stroke-linejoin="bevel" stroke="#000000" font-family="MS Shell Dlg 2" font-style="normal" font-weight="400">
    <path vector-effect="none" d="M-32.3885,-583.726 L-32.5568,-583.726" fill-rule="evenodd"/>
   </g>
   <g stroke-width="2.5" transform="matrix(1,0,0,1,1485,-267.454)" stroke-linecap="round" font-size="29.1042" fill="none" stroke-opacity="1" stroke-linejoin="bevel" stroke="#000000" font-family="MS Shell Dlg 2" font-style="normal" font-weight="400">
    <path vector-effect="none" d="M-32.5568,-583.726 L-32.3885,-583.726" fill-rule="evenodd"/>
   </g>
   <g stroke-width="2.5" transform="matrix(1,0,0,1,1485,-267.454)" stroke-linecap="round" font-size="29.1042" fill="none" stroke-opacity="1" stroke-linejoin="bevel" stroke="#000000" font-family="MS Shell Dlg 2" font-style="normal" font-weight="400">
    <path vector-effect="none" d="M32.3874,583.726 L32.557,583.726" fill-rule="evenodd"/>
   </g>
   <g stroke-width="2.5" transform="matrix(1,0,0,1,1485,-267.454)" stroke-linecap="round" font-size="29.1042" fill="none" stroke-opacity="1" stroke-linejoin="bevel" stroke="#000000" font-family="MS Shell Dlg 2" font-style="normal" font-weight="400">
    <path vector-effect="none" d="M32.557,583.726 L32.3874,583.726" fill-rule="evenodd"/>
   </g>
   <g stroke-width="2.5" transform="matrix(1,0,0,1,1485,-267.454)" stroke-linecap="round" font-size="29.1042" fill="none" stroke-opacity="1" stroke-linejoin="bevel" stroke="#000000" font-family="MS Shell Dlg 2" font-style="normal" font-weight="400">
    <path vector-effect="none" d="M32.3874,-583.726 L32.557,-583.726" fill-rule="evenodd"/>
   </g>
   <g stroke-width="2.5" transform="matrix(1,0,0,1,1485,-267.454)" stroke-linecap="round" font-size="29.1042" fill="none" stroke-opacity="1" stroke-linejoin="bevel" stroke="#000000" font-family="MS Shell Dlg 2" font-style="normal" font-weight="400">
    <path vector-effect="none" d="M32.557,-583.726 L32.3874,-583.726" fill-rule="evenodd"/>
   </g>
   <g stroke-width="2.5" transform="matrix(1,0,0,1,1485,-267.454)" stroke-linecap="round" font-size="29.1042" fill="none" stroke-opacity="1" stroke-linejoin="bevel" stroke="#000000" font-family="MS Shell Dlg 2" font-style="normal" font-weight="400">
    <path vector-effect="none" d="M32.3874,583.726 L20.3738,583.726" fill-rule="evenodd"/>
   </g>
   <g stroke-width="2.5" transform="matrix(1,0,0,1,1485,-267.454)" stroke-linecap="round" font-size="29.1042" fill="none" stroke-opacity="1" stroke-linejoin="bevel" stroke="#000000" font-family="MS Shell Dlg 2" font-style="normal" font-weight="400">
    <path vector-effect="none" d="M20.3738,-583.726 L32.3874,-583.726" fill-rule="evenodd"/>
   </g>
   <g stroke-width="2.5" transform="matrix(1,0,0,1,1485,-267.454)" stroke-linecap="round" font-size="29.1042" fill="none" stroke-opacity="1" stroke-linejoin="bevel" stroke="#000000" font-family="MS Shell Dlg 2" font-style="normal" font-weight="400">
    <path vector-effect="none" d="M14.8828,583.726 L20.3738,583.726" fill-rule="evenodd"/>
   </g>
   <g stroke-width="2.5" transform="matrix(1,0,0,1,1485,-267.454)" stroke-linecap="round" font-size="29.1042" fill="none" stroke-opacity="1" stroke-linejoin="bevel" stroke="#000000" font-family="MS Shell Dlg 2" font-style="normal" font-weight="400">
    <path vector-effect="none" d="M14.8828,-583.726 L20.3738,-583.726" fill-rule="evenodd"/>
   </g>
   <g stroke-width="2.5" transform="matrix(1,0,0,1,1485,-267.454)" stroke-linecap="round" font-size="29.1042" fill="none" stroke-opacity="1" stroke-linejoin="bevel" stroke="#000000" font-family="MS Shell Dlg 2" font-style="normal" font-weight="400">
    <path vector-effect="none" d="M14.8828,583.726 L-14.9292,583.726" fill-rule="evenodd"/>
   </g>
   <g stroke-width="2.5" transform="matrix(1,0,0,1,1485,-267.454)" stroke-linecap="round" font-size="29.1042" fill="none" stroke-opacity="1" stroke-linejoin="bevel" stroke="#000000" font-family="MS Shell Dlg 2" font-style="normal" font-weight="400">
    <path vector-effect="none" d="M-14.9292,-583.726 L14.8828,-583.726" fill-rule="evenodd"/>
   </g>
   <g stroke-width="2.5" transform="matrix(1,0,0,1,1485,-267.454)" stroke-linecap="round" font-size="29.1042" fill="none" stroke-opacity="1" stroke-linejoin="bevel" stroke="#000000" font-family="MS Shell Dlg 2" font-style="normal" font-weight="400">
    <path vector-effect="none" d="M-20.422,583.726 L-14.9292,583.726" fill-rule="evenodd"/>
   </g>
   <g stroke-width="2.5" transform="matrix(1,0,0,1,1485,-267.454)" stroke-linecap="round" font-size="29.1042" fill="none" stroke-opacity="1" stroke-linejoin="bevel" stroke="#000000" font-family="MS Shell Dlg 2" font-style="normal" font-weight="400">
    <path vector-effect="none" d="M-20.422,-583.726 L-14.9292,-583.726" fill-rule="evenodd"/>
   </g>
   <g stroke-width="2.5" transform="matrix(1,0,0,1,1485,-267.454)" stroke-linecap="round" font-size="29.1042" fill="none" stroke-opacity="1" stroke-linejoin="bevel" stroke="#000000" font-family="MS Shell Dlg 2" font-style="normal" font-weight="400">
    <path vector-effect="none" d="M-32.5568,583.726 L-32.5568,-583.726" fill-rule="evenodd"/>
   </g>
   <g stroke-width="2.5" transform="matrix(1,0,0,1,1485,-267.454)" stroke-linecap="round" font-size="29.1042" fill="none" stroke-opacity="1" stroke-linejoin="bevel" stroke="#000000" font-family="MS Shell Dlg 2" font-style="normal" font-weight="400">
    <path vector-effect="none" d="M32.557,583.726 L32.557,-583.726" fill-rule="evenodd"/>
   </g>
   <g stroke-width="2.5" transform="matrix(1,0,0,1,1485,-267.454)" stroke-linecap="round" font-size="29.1042" fill="none" stroke-opacity="1" stroke-linejoin="bevel" stroke="#000000" font-family="MS Shell Dlg 2" font-style="normal" font-weight="400">
    <path vector-effect="none" d="M-20.422,583.726 L-20.422,-583.726" fill-rule="evenodd"/>
   </g>
   <g stroke-width="2.5" transform="matrix(1,0,0,1,1485,-267.454)" stroke-linecap="round" font-size="29.1042" fill="none" stroke-opacity="1" stroke-linejoin="bevel" stroke="#000000" font-family="MS Shell Dlg 2" font-style="normal" font-weight="400">
    <path vector-effect="none" d="M-32.3885,583.726 L-32.3885,-583.726" fill-rule="evenodd"/>
   </g>
   <g stroke-width="2.5" transform="matrix(1,0,0,1,1485,-267.454)" stroke-linecap="round" font-size="29.1042" fill="none" stroke-opacity="1" stroke-linejoin="bevel" stroke="#000000" font-family="MS Shell Dlg 2" font-style="normal" font-weight="400">
    <path vector-effect="none" d="M32.3874,583.726 L32.3874,-583.726" fill-rule="evenodd"/>
   </g>
   <g stroke-width="2.5" transform="matrix(1,0,0,1,1485,-267.454)" stroke-linecap="round" font-size="29.1042" fill="none" stroke-opacity="1" stroke-linejoin="bevel" stroke="#000000" font-family="MS Shell Dlg 2" font-style="normal" font-weight="400">
    <path vector-effect="none" d="M20.3738,583.726 L20.3738,-583.726" fill-rule="evenodd"/>
   </g>
   <g stroke-width="2.5" transform="matrix(1,0,0,1,1485,-267.454)" stroke-linecap="round" font-size="29.1042" fill="none" stroke-opacity="1" stroke-linejoin="bevel" stroke="#000000" font-family="MS Shell Dlg 2" font-style="normal" font-weight="400">
    <path vector-effect="none" d="M14.8828,583.726 L14.8828,-583.726" fill-rule="evenodd"/>
   </g>
   <g stroke-width="2.5" transform="matrix(1,0,0,1,1485,-267.454)" stroke-linecap="round" font-size="29.1042" fill="none" stroke-opacity="1" stroke-linejoin="bevel" stroke="#000000" font-family="MS Shell Dlg 2" font-style="normal" font-weight="400">
    <path vector-effect="none" d="M-14.9292,583.726 L-14.9292,-583.726" fill-rule="evenodd"/>
   </g>
   <g transform="matrix(1,0,0,1,2802.45,1050)" font-size="29.1042" fill="#ffffff" stroke="none" font-family="MS Shell Dlg 2" font-style="normal" fill-opacity="1" font-weight="400">
    <path vector-effect="non-scaling-stroke" d="M-583.726,-24.0208 L583.726,-24.0208 L583.726,-19.0676 L583.726,19.9538 L583.726,24.0146 L-583.726,24.0146 L-583.726,19.9538 L-583.726,-19.0676 L-583.726,-24.0208" fill-rule="evenodd"/>
   </g>
   <g transform="matrix(1,0,0,1,2802.45,1050)" font-size="29.1042" fill="#ffffff" stroke="none" font-family="MS Shell Dlg 2" font-style="normal" fill-opacity="1" font-weight="400">
    <path vector-effect="non-scaling-stroke" d="M-583.726,19.9538 L-583.726,-19.0676 L583.726,-19.0676 L583.726,19.9538 L-583.726,19.9538" fill-rule="evenodd"/>
   </g>
   <g transform="matrix(1,0,0,1,2802.45,1050)" font-size="29.1042" fill="#ffffff" stroke="none" font-family="MS Shell Dlg 2" font-style="normal" fill-opacity="1" font-weight="400">
    <path vector-effect="non-scaling-stroke" d="M-583.726,-24.0208 L583.726,-24.0208 L583.726,-19.0676 L-583.726,-19.0676 L-583.726,-24.0208" fill-rule="evenodd"/>
   </g>
   <g transform="matrix(1,0,0,1,2802.45,1050)" font-size="29.1042" fill="#ffffff" stroke="none" font-family="MS Shell Dlg 2" font-style="normal" fill-opacity="1" font-weight="400">
    <path vector-effect="non-scaling-stroke" d="M-583.726,19.9538 L583.726,19.9538 L583.726,24.0146 L-583.726,24.0146 L-583.726,19.9538" fill-rule="evenodd"/>
   </g>
   <g stroke-width="1.3" transform="matrix(1,0,0,1,2802.45,1050)" stroke-dashoffset="0" stroke-linecap="round" font-size="29.1042" fill="none" stroke-opacity="1" stroke-linejoin="bevel" stroke="#000000" stroke-dasharray="5.2,2.6" font-family="MS Shell Dlg 2" font-style="normal" font-weight="400">
    <path vector-effect="none" d="M-583.726,-0.405334 L-583.726,-19.5564" fill-rule="evenodd"/>
   </g>
   <g stroke-width="1.3" transform="matrix(1,0,0,1,2802.45,1050)" stroke-dashoffset="0" stroke-linecap="round" font-size="29.1042" fill="none" stroke-opacity="1" stroke-linejoin="bevel" stroke="#000000" stroke-dasharray="5.2,2.6" font-family="MS Shell Dlg 2" font-style="normal" font-weight="400">
    <path vector-effect="none" d="M-583.726,-19.5564 L-583.726,18.7458" fill-rule="evenodd"/>
   </g>
   <g stroke-width="1.3" transform="matrix(1,0,0,1,2802.45,1050)" stroke-dashoffset="0" stroke-linecap="round" font-size="29.1042" fill="none" stroke-opacity="1" stroke-linejoin="bevel" stroke="#000000" stroke-dasharray="5.2,2.6" font-family="MS Shell Dlg 2" font-style="normal" font-weight="400">
    <path vector-effect="none" d="M-583.726,18.7458 L-583.726,-0.405334" fill-rule="evenodd"/>
   </g>
   <g stroke-width="1.3" transform="matrix(1,0,0,1,2802.45,1050)" stroke-dashoffset="0" stroke-linecap="round" font-size="29.1042" fill="none" stroke-opacity="1" stroke-linejoin="bevel" stroke="#000000" stroke-dasharray="5.2,2.6" font-family="MS Shell Dlg 2" font-style="normal" font-weight="400">
    <path vector-effect="none" d="M583.726,-0.405334 L583.726,-19.5564" fill-rule="evenodd"/>
   </g>
   <g stroke-width="1.3" transform="matrix(1,0,0,1,2802.45,1050)" stroke-dashoffset="0" stroke-linecap="round" font-size="29.1042" fill="none" stroke-opacity="1" stroke-linejoin="bevel" stroke="#000000" stroke-dasharray="5.2,2.6" font-family="MS Shell Dlg 2" font-style="normal" font-weight="400">
    <path vector-effect="none" d="M583.726,-19.5564 L583.726,18.7458" fill-rule="evenodd"/>
   </g>
   <g stroke-width="1.3" transform="matrix(1,0,0,1,2802.45,1050)" stroke-dashoffset="0" stroke-linecap="round" font-size="29.1042" fill="none" stroke-opacity="1" stroke-linejoin="bevel" stroke="#000000" stroke-dasharray="5.2,2.6" font-family="MS Shell Dlg 2" font-style="normal" font-weight="400">
    <path vector-effect="none" d="M583.726,18.7458 L583.726,-0.405334" fill-rule="evenodd"/>
   </g>
   <g stroke-width="1.3" transform="matrix(1,0,0,1,2802.45,1050)" stroke-dashoffset="0" stroke-linecap="round" font-size="29.1042" fill="none" stroke-opacity="1" stroke-linejoin="bevel" stroke="#000000" stroke-dasharray="5.2,2.6" font-family="MS Shell Dlg 2" font-style="normal" font-weight="400">
    <path vector-effect="none" d="M-583.726,-19.0636 L-583.726,-24.0208" fill-rule="evenodd"/>
   </g>
   <g stroke-width="1.3" transform="matrix(1,0,0,1,2802.45,1050)" stroke-dashoffset="0" stroke-linecap="round" font-size="29.1042" fill="none" stroke-opacity="1" stroke-linejoin="bevel" stroke="#000000" stroke-dasharray="5.2,2.6" font-family="MS Shell Dlg 2" font-style="normal" font-weight="400">
    <path vector-effect="none" d="M583.726,-19.0636 L583.726,-24.0208" fill-rule="evenodd"/>
   </g>
   <g stroke-width="1.3" transform="matrix(1,0,0,1,2802.45,1050)" stroke-dashoffset="0" stroke-linecap="round" font-size="29.1042" fill="none" stroke-opacity="1" stroke-linejoin="bevel" stroke="#000000" stroke-dasharray="5.2,2.6" font-family="MS Shell Dlg 2" font-style="normal" font-weight="400">
    <path vector-effect="none" d="M-583.726,-19.0636 L-583.726,19.9597" fill-rule="evenodd"/>
   </g>
   <g stroke-width="1.3" transform="matrix(1,0,0,1,2802.45,1050)" stroke-dashoffset="0" stroke-linecap="round" font-size="29.1042" fill="none" stroke-opacity="1" stroke-linejoin="bevel" stroke="#000000" stroke-dasharray="5.2,2.6" font-family="MS Shell Dlg 2" font-style="normal" font-weight="400">
    <path vector-effect="none" d="M583.726,19.9597 L583.726,-19.0636" fill-rule="evenodd"/>
   </g>
   <g stroke-width="1.3" transform="matrix(1,0,0,1,2802.45,1050)" stroke-dashoffset="0" stroke-linecap="round" font-size="29.1042" fill="none" stroke-opacity="1" stroke-linejoin="bevel" stroke="#000000" stroke-dasharray="5.2,2.6" font-family="MS Shell Dlg 2" font-style="normal" font-weight="400">
    <path vector-effect="none" d="M-583.726,24.0146 L-583.726,19.9597" fill-rule="evenodd"/>
   </g>
   <g stroke-width="1.3" transform="matrix(1,0,0,1,2802.45,1050)" stroke-dashoffset="0" stroke-linecap="round" font-size="29.1042" fill="none" stroke-opacity="1" stroke-linejoin="bevel" stroke="#000000" stroke-dasharray="5.2,2.6" font-family="MS Shell Dlg 2" font-style="normal" font-weight="400">
    <path vector-effect="none" d="M583.726,24.0146 L583.726,19.9597" fill-rule="evenodd"/>
   </g>
   <g stroke-width="1.3" transform="matrix(1,0,0,1,2802.45,1050)" stroke-dashoffset="0" stroke-linecap="round" font-size="29.1042" fill="none" stroke-opacity="1" stroke-linejoin="bevel" stroke="#000000" stroke-dasharray="5.2,2.6" font-family="MS Shell Dlg 2" font-style="normal" font-weight="400">
    <path vector-effect="none" d="M-583.726,24.0146 L583.726,24.0146" fill-rule="evenodd"/>
   </g>
   <g stroke-width="1.3" transform="matrix(1,0,0,1,2802.45,1050)" stroke-dashoffset="0" stroke-linecap="round" font-size="29.1042" fill="none" stroke-opacity="1" stroke-linejoin="bevel" stroke="#000000" stroke-dasharray="5.2,2.6" font-family="MS Shell Dlg 2" font-style="normal" font-weight="400">
    <path vector-effect="none" d="M-583.726,18.7458 L583.726,18.7458" fill-rule="evenodd"/>
   </g>
   <g stroke-width="1.3" transform="matrix(1,0,0,1,2802.45,1050)" stroke-dashoffset="0" stroke-linecap="round" font-size="29.1042" fill="none" stroke-opacity="1" stroke-linejoin="bevel" stroke="#000000" stroke-dasharray="5.2,2.6" font-family="MS Shell Dlg 2" font-style="normal" font-weight="400">
    <path vector-effect="none" d="M-583.726,-19.5564 L583.726,-19.5564" fill-rule="evenodd"/>
   </g>
   <g stroke-width="1.3" transform="matrix(1,0,0,1,2802.45,1050)" stroke-dashoffset="0" stroke-linecap="round" font-size="29.1042" fill="none" stroke-opacity="1" stroke-linejoin="bevel" stroke="#000000" stroke-dasharray="5.2,2.6" font-family="MS Shell Dlg 2" font-style="normal" font-weight="400">
    <path vector-effect="none" d="M-583.726,-19.0636 L583.726,-19.0636" fill-rule="evenodd"/>
   </g>
   <g stroke-width="1.3" transform="matrix(1,0,0,1,2802.45,1050)" stroke-dashoffset="0" stroke-linecap="round" font-size="29.1042" fill="none" stroke-opacity="1" stroke-linejoin="bevel" stroke="#000000" stroke-dasharray="5.2,2.6" font-family="MS Shell Dlg 2" font-style="normal" font-weight="400">
    <path vector-effect="none" d="M-583.726,19.9597 L583.726,19.9597" fill-rule="evenodd"/>
   </g>
   <g stroke-width="2.5" transform="matrix(1,0,0,1,2802.45,1050)" stroke-linecap="round" font-size="29.1042" fill="none" stroke-opacity="1" stroke-linejoin="bevel" stroke="#000000" font-family="MS Shell Dlg 2" font-style="normal" font-weight="400">
    <path vector-effect="none" d="M-583.726,19.9538 L-583.726,-19.0676" fill-rule="evenodd"/>
   </g>
   <g stroke-width="2.5" transform="matrix(1,0,0,1,2802.45,1050)" stroke-linecap="round" font-size="29.1042" fill="none" stroke-opacity="1" stroke-linejoin="bevel" stroke="#000000" font-family="MS Shell Dlg 2" font-style="normal" font-weight="400">
    <path vector-effect="none" d="M583.726,-19.0676 L583.726,19.9538" fill-rule="evenodd"/>
   </g>
   <g stroke-width="2.5" transform="matrix(1,0,0,1,2802.45,1050)" stroke-linecap="round" font-size="29.1042" fill="none" stroke-opacity="1" stroke-linejoin="bevel" stroke="#000000" font-family="MS Shell Dlg 2" font-style="normal" font-weight="400">
    <path vector-effect="none" d="M-583.726,-24.0208 L-583.726,-19.0676" fill-rule="evenodd"/>
   </g>
   <g stroke-width="2.5" transform="matrix(1,0,0,1,2802.45,1050)" stroke-linecap="round" font-size="29.1042" fill="none" stroke-opacity="1" stroke-linejoin="bevel" stroke="#000000" font-family="MS Shell Dlg 2" font-style="normal" font-weight="400">
    <path vector-effect="none" d="M583.726,-24.0208 L583.726,-19.0676" fill-rule="evenodd"/>
   </g>
   <g stroke-width="2.5" transform="matrix(1,0,0,1,2802.45,1050)" stroke-linecap="round" font-size="29.1042" fill="none" stroke-opacity="1" stroke-linejoin="bevel" stroke="#000000" font-family="MS Shell Dlg 2" font-style="normal" font-weight="400">
    <path vector-effect="none" d="M-583.726,-24.0208 L583.726,-24.0208" fill-rule="evenodd"/>
   </g>
   <g stroke-width="2.5" transform="matrix(1,0,0,1,2802.45,1050)" stroke-linecap="round" font-size="29.1042" fill="none" stroke-opacity="1" stroke-linejoin="bevel" stroke="#000000" font-family="MS Shell Dlg 2" font-style="normal" font-weight="400">
    <path vector-effect="none" d="M-583.726,-24.0208 L583.726,-24.0208" fill-rule="evenodd"/>
   </g>
   <g stroke-width="2.5" transform="matrix(1,0,0,1,2802.45,1050)" stroke-linecap="round" font-size="29.1042" fill="none" stroke-opacity="1" stroke-linejoin="bevel" stroke="#000000" font-family="MS Shell Dlg 2" font-style="normal" font-weight="400">
    <path vector-effect="none" d="M-583.726,24.0146 L583.726,24.0146" fill-rule="evenodd"/>
   </g>
   <g stroke-width="2.5" transform="matrix(1,0,0,1,2802.45,1050)" stroke-linecap="round" font-size="29.1042" fill="none" stroke-opacity="1" stroke-linejoin="bevel" stroke="#000000" font-family="MS Shell Dlg 2" font-style="normal" font-weight="400">
    <path vector-effect="none" d="M-583.726,19.9538 L-583.726,24.0146" fill-rule="evenodd"/>
   </g>
   <g stroke-width="2.5" transform="matrix(1,0,0,1,2802.45,1050)" stroke-linecap="round" font-size="29.1042" fill="none" stroke-opacity="1" stroke-linejoin="bevel" stroke="#000000" font-family="MS Shell Dlg 2" font-style="normal" font-weight="400">
    <path vector-effect="none" d="M583.726,19.9538 L583.726,24.0146" fill-rule="evenodd"/>
   </g>
   <g stroke-width="2.5" transform="matrix(1,0,0,1,2802.45,1050)" stroke-linecap="round" font-size="29.1042" fill="none" stroke-opacity="1" stroke-linejoin="bevel" stroke="#000000" font-family="MS Shell Dlg 2" font-style="normal" font-weight="400">
    <path vector-effect="none" d="M-583.726,19.9538 L583.726,19.9538" fill-rule="evenodd"/>
   </g>
   <g stroke-width="2.5" transform="matrix(1,0,0,1,2802.45,1050)" stroke-linecap="round" font-size="29.1042" fill="none" stroke-opacity="1" stroke-linejoin="bevel" stroke="#000000" font-family="MS Shell Dlg 2" font-style="normal" font-weight="400">
    <path vector-effect="none" d="M-583.726,-19.0676 L583.726,-19.0676" fill-rule="evenodd"/>
   </g>
  </g>
 </g>
</svg>
