<?xml version='1.0' encoding='UTF-8' standalone='no'?>
<svg width="297mm" height="210mm" xmlns:xlink="http://www.w3.org/1999/xlink" baseProfile="tiny" xmlns:svg="http://www.w3.org/2000/svg" version="1.2" xmlns:cc="http://creativecommons.org/ns#" xmlns:sodipodi="http://sodipodi.sourceforge.net/DTD/sodipodi-0.dtd" xmlns:dc="http://purl.org/dc/elements/1.1/" xmlns:rdf="http://www.w3.org/1999/02/22-rdf-syntax-ns#" xmlns:freecad="http://www.freecadweb.org/wiki/index.php?title=Svg_Namespace" xmlns:inkscape="http://www.inkscape.org/namespaces/inkscape" xmlns="http://www.w3.org/2000/svg" viewBox="0 0 5000 3000">
 <title>FreeCAD SVG Export</title>
 <desc>Drawing page: Page exported from FreeCAD document: Unnamed</desc>
 <defs/>
 <g inkscape:groupmode="layer" id="Page" inkscape:label="TechDraw">
  <g stroke-width="1" stroke-linecap="square" fill="none" stroke-linejoin="bevel" id="DrawingContent" stroke="black" fill-rule="evenodd">
   <g stroke-width="1" transform="matrix(1,0,0,1,1485,1050)" stroke-linecap="square" font-size="29.1042" fill="none" stroke-opacity="1" stroke-linejoin="bevel" stroke="#000000" font-family="MS Shell Dlg 2" font-style="normal" font-weight="400">
    <rect x="0" width="0" height="0" y="0"/>
   </g>
   <g transform="matrix(1,0,0,1,1485,1050)" font-size="29.1042" fill="#ffffff" stroke="none" font-family="MS Shell Dlg 2" font-style="normal" fill-opacity="1" font-weight="400">
    <path vector-effect="non-scaling-stroke" d="M191.651,-217.227 L379.799,-217.227 L379.799,-18.8452 L379.799,179.537 L191.651,179.537 L191.651,282.221 L-381.245,282.221 L-381.245,-282.221 L191.651,-282.221 L191.651,-217.227" fill-rule="evenodd"/>
   </g>
   <g transform="matrix(1,0,0,1,1485,1050)" font-size="29.1042" fill="#ffffff" stroke="none" font-family="MS Shell Dlg 2" font-style="normal" fill-opacity="1" font-weight="400">
    <path vector-effect="non-scaling-stroke" d="M-381.245,282.221 L191.651,282.221 L191.651,179.537 L191.651,-217.227 L191.651,-282.221 L-381.245,-282.221 L-381.245,282.221" fill-rule="evenodd"/>
   </g>
   <g transform="matrix(1,0,0,1,1485,1050)" font-size="29.1042" fill="#ffffff" stroke="none" font-family="MS Shell Dlg 2" font-style="normal" fill-opacity="1" font-weight="400">
    <path vector-effect="non-scaling-stroke" d="M191.651,179.537 L191.651,-217.227 L379.799,-217.227 L379.799,-18.8452 L379.799,179.537 L191.651,179.537" fill-rule="evenodd"/>
   </g>
   <g stroke-width="1.3" transform="matrix(1,0,0,1,1485,1050)" stroke-dashoffset="0" stroke-linecap="round" font-size="29.1042" fill="none" stroke-opacity="1" stroke-linejoin="bevel" stroke="#000000" stroke-dasharray="5.2,2.6" font-family="MS Shell Dlg 2" font-style="normal" font-weight="400">
    <path vector-effect="none" d="M379.799,179.537 L379.799,-217.227" fill-rule="evenodd"/>
   </g>
   <g stroke-width="1.3" transform="matrix(1,0,0,1,1485,1050)" stroke-dashoffset="0" stroke-linecap="round" font-size="29.1042" fill="none" stroke-opacity="1" stroke-linejoin="bevel" stroke="#000000" stroke-dasharray="5.2,2.6" font-family="MS Shell Dlg 2" font-style="normal" font-weight="400">
    <path vector-effect="none" d="M191.651,-18.8452 L191.651,-217.227" fill-rule="evenodd"/>
   </g>
   <g stroke-width="1.3" transform="matrix(1,0,0,1,1485,1050)" stroke-dashoffset="0" stroke-linecap="round" font-size="29.1042" fill="none" stroke-opacity="1" stroke-linejoin="bevel" stroke="#000000" stroke-dasharray="5.2,2.6" font-family="MS Shell Dlg 2" font-style="normal" font-weight="400">
    <path vector-effect="none" d="M191.651,-217.227 L191.651,179.537" fill-rule="evenodd"/>
   </g>
   <g stroke-width="1.3" transform="matrix(1,0,0,1,1485,1050)" stroke-dashoffset="0" stroke-linecap="round" font-size="29.1042" fill="none" stroke-opacity="1" stroke-linejoin="bevel" stroke="#000000" stroke-dasharray="5.2,2.6" font-family="MS Shell Dlg 2" font-style="normal" font-weight="400">
    <path vector-effect="none" d="M191.651,179.537 L191.651,-18.8452" fill-rule="evenodd"/>
   </g>
   <g stroke-width="1.3" transform="matrix(1,0,0,1,1485,1050)" stroke-dashoffset="0" stroke-linecap="round" font-size="29.1042" fill="none" stroke-opacity="1" stroke-linejoin="bevel" stroke="#000000" stroke-dasharray="5.2,2.6" font-family="MS Shell Dlg 2" font-style="normal" font-weight="400">
    <path vector-effect="none" d="M191.651,282.221 L-381.245,282.221" fill-rule="evenodd"/>
   </g>
   <g stroke-width="1.3" transform="matrix(1,0,0,1,1485,1050)" stroke-dashoffset="0" stroke-linecap="round" font-size="29.1042" fill="none" stroke-opacity="1" stroke-linejoin="bevel" stroke="#000000" stroke-dasharray="5.2,2.6" font-family="MS Shell Dlg 2" font-style="normal" font-weight="400">
    <path vector-effect="none" d="M-381.245,282.221 L-381.245,-282.221" fill-rule="evenodd"/>
   </g>
   <g stroke-width="1.3" transform="matrix(1,0,0,1,1485,1050)" stroke-dashoffset="0" stroke-linecap="round" font-size="29.1042" fill="none" stroke-opacity="1" stroke-linejoin="bevel" stroke="#000000" stroke-dasharray="5.2,2.6" font-family="MS Shell Dlg 2" font-style="normal" font-weight="400">
    <path vector-effect="none" d="M191.651,-282.221 L-381.245,-282.221" fill-rule="evenodd"/>
   </g>
   <g stroke-width="1.3" transform="matrix(1,0,0,1,1485,1050)" stroke-dashoffset="0" stroke-linecap="round" font-size="29.1042" fill="none" stroke-opacity="1" stroke-linejoin="bevel" stroke="#000000" stroke-dasharray="5.2,2.6" font-family="MS Shell Dlg 2" font-style="normal" font-weight="400">
    <path vector-effect="none" d="M191.651,282.221 L191.651,-282.221" fill-rule="evenodd"/>
   </g>
   <g stroke-width="2.5" transform="matrix(1,0,0,1,1485,1050)" stroke-linecap="round" font-size="29.1042" fill="none" stroke-opacity="1" stroke-linejoin="bevel" stroke="#000000" font-family="MS Shell Dlg 2" font-style="normal" font-weight="400">
    <path vector-effect="none" d="M379.799,-18.8452 L379.799,179.537" fill-rule="evenodd"/>
   </g>
   <g stroke-width="2.5" transform="matrix(1,0,0,1,1485,1050)" stroke-linecap="round" font-size="29.1042" fill="none" stroke-opacity="1" stroke-linejoin="bevel" stroke="#000000" font-family="MS Shell Dlg 2" font-style="normal" font-weight="400">
    <path vector-effect="none" d="M379.799,-217.227 L379.799,-18.8452" fill-rule="evenodd"/>
   </g>
   <g stroke-width="2.5" transform="matrix(1,0,0,1,1485,1050)" stroke-linecap="round" font-size="29.1042" fill="none" stroke-opacity="1" stroke-linejoin="bevel" stroke="#000000" font-family="MS Shell Dlg 2" font-style="normal" font-weight="400">
    <path vector-effect="none" d="M191.651,282.221 L191.651,-282.221" fill-rule="evenodd"/>
   </g>
   <g stroke-width="2.5" transform="matrix(1,0,0,1,1485,1050)" stroke-linecap="round" font-size="29.1042" fill="none" stroke-opacity="1" stroke-linejoin="bevel" stroke="#000000" font-family="MS Shell Dlg 2" font-style="normal" font-weight="400">
    <path vector-effect="none" d="M-381.245,282.221 L191.651,282.221" fill-rule="evenodd"/>
   </g>
   <g stroke-width="2.5" transform="matrix(1,0,0,1,1485,1050)" stroke-linecap="round" font-size="29.1042" fill="none" stroke-opacity="1" stroke-linejoin="bevel" stroke="#000000" font-family="MS Shell Dlg 2" font-style="normal" font-weight="400">
    <path vector-effect="none" d="M-381.245,-282.221 L191.651,-282.221" fill-rule="evenodd"/>
   </g>
   <g stroke-width="2.5" transform="matrix(1,0,0,1,1485,1050)" stroke-linecap="round" font-size="29.1042" fill="none" stroke-opacity="1" stroke-linejoin="bevel" stroke="#000000" font-family="MS Shell Dlg 2" font-style="normal" font-weight="400">
    <path vector-effect="none" d="M-381.245,282.221 L-381.245,-282.221" fill-rule="evenodd"/>
   </g>
   <g stroke-width="2.5" transform="matrix(1,0,0,1,1485,1050)" stroke-linecap="round" font-size="29.1042" fill="none" stroke-opacity="1" stroke-linejoin="bevel" stroke="#000000" font-family="MS Shell Dlg 2" font-style="normal" font-weight="400">
    <path vector-effect="none" d="M191.651,179.537 L379.799,179.537" fill-rule="evenodd"/>
   </g>
   <g stroke-width="2.5" transform="matrix(1,0,0,1,1485,1050)" stroke-linecap="round" font-size="29.1042" fill="none" stroke-opacity="1" stroke-linejoin="bevel" stroke="#000000" font-family="MS Shell Dlg 2" font-style="normal" font-weight="400">
    <path vector-effect="none" d="M191.651,-217.227 L379.799,-217.227" fill-rule="evenodd"/>
   </g>
   <g transform="matrix(1,0,0,1,1485,80.5217)" font-size="29.1042" fill="#ffffff" stroke="none" font-family="MS Shell Dlg 2" font-style="normal" fill-opacity="1" font-weight="400">
    <path vector-effect="non-scaling-stroke" d="M379.799,-230.103 L379.799,166.661 L191.651,166.661 L191.651,409.739 L-381.245,409.739 L-381.245,-409.739 L191.651,-409.739 L191.651,-230.103 L379.799,-230.103" fill-rule="evenodd"/>
   </g>
   <g transform="matrix(1,0,0,1,1485,80.5217)" font-size="29.1042" fill="#ffffff" stroke="none" font-family="MS Shell Dlg 2" font-style="normal" fill-opacity="1" font-weight="400">
    <path vector-effect="non-scaling-stroke" d="M191.651,166.661 L191.651,409.739 L-381.245,409.739 L-381.245,-409.739 L191.651,-409.739 L191.651,-230.103 L191.651,166.661" fill-rule="evenodd"/>
   </g>
   <g transform="matrix(1,0,0,1,1485,80.5217)" font-size="29.1042" fill="#ffffff" stroke="none" font-family="MS Shell Dlg 2" font-style="normal" fill-opacity="1" font-weight="400">
    <path vector-effect="non-scaling-stroke" d="M379.799,-230.103 L379.799,166.661 L191.651,166.661 L191.651,-230.103 L379.799,-230.103" fill-rule="evenodd"/>
   </g>
   <g stroke-width="1.3" transform="matrix(1,0,0,1,1485,80.5217)" stroke-dashoffset="0" stroke-linecap="round" font-size="29.1042" fill="none" stroke-opacity="1" stroke-linejoin="bevel" stroke="#000000" stroke-dasharray="5.2,2.6" font-family="MS Shell Dlg 2" font-style="normal" font-weight="400">
    <path vector-effect="none" d="M379.799,166.661 L379.799,-230.103" fill-rule="evenodd"/>
   </g>
   <g stroke-width="1.3" transform="matrix(1,0,0,1,1485,80.5217)" stroke-dashoffset="0" stroke-linecap="round" font-size="29.1042" fill="none" stroke-opacity="1" stroke-linejoin="bevel" stroke="#000000" stroke-dasharray="5.2,2.6" font-family="MS Shell Dlg 2" font-style="normal" font-weight="400">
    <path vector-effect="none" d="M191.651,-230.103 L191.651,166.661" fill-rule="evenodd"/>
   </g>
   <g stroke-width="1.3" transform="matrix(1,0,0,1,1485,80.5217)" stroke-dashoffset="0" stroke-linecap="round" font-size="29.1042" fill="none" stroke-opacity="1" stroke-linejoin="bevel" stroke="#000000" stroke-dasharray="5.2,2.6" font-family="MS Shell Dlg 2" font-style="normal" font-weight="400">
    <path vector-effect="none" d="M191.651,166.661 L191.651,-230.103" fill-rule="evenodd"/>
   </g>
   <g stroke-width="1.3" transform="matrix(1,0,0,1,1485,80.5217)" stroke-dashoffset="0" stroke-linecap="round" font-size="29.1042" fill="none" stroke-opacity="1" stroke-linejoin="bevel" stroke="#000000" stroke-dasharray="5.2,2.6" font-family="MS Shell Dlg 2" font-style="normal" font-weight="400">
    <path vector-effect="none" d="M191.651,409.739 L-381.245,409.739" fill-rule="evenodd"/>
   </g>
   <g stroke-width="1.3" transform="matrix(1,0,0,1,1485,80.5217)" stroke-dashoffset="0" stroke-linecap="round" font-size="29.1042" fill="none" stroke-opacity="1" stroke-linejoin="bevel" stroke="#000000" stroke-dasharray="5.2,2.6" font-family="MS Shell Dlg 2" font-style="normal" font-weight="400">
    <path vector-effect="none" d="M191.651,-409.739 L191.651,409.739" fill-rule="evenodd"/>
   </g>
   <g stroke-width="1.3" transform="matrix(1,0,0,1,1485,80.5217)" stroke-dashoffset="0" stroke-linecap="round" font-size="29.1042" fill="none" stroke-opacity="1" stroke-linejoin="bevel" stroke="#000000" stroke-dasharray="5.2,2.6" font-family="MS Shell Dlg 2" font-style="normal" font-weight="400">
    <path vector-effect="none" d="M-381.245,-409.739 L191.651,-409.739" fill-rule="evenodd"/>
   </g>
   <g stroke-width="1.3" transform="matrix(1,0,0,1,1485,80.5217)" stroke-dashoffset="0" stroke-linecap="round" font-size="29.1042" fill="none" stroke-opacity="1" stroke-linejoin="bevel" stroke="#000000" stroke-dasharray="5.2,2.6" font-family="MS Shell Dlg 2" font-style="normal" font-weight="400">
    <path vector-effect="none" d="M-381.245,409.739 L-381.245,-409.739" fill-rule="evenodd"/>
   </g>
   <g stroke-width="2.5" transform="matrix(1,0,0,1,1485,80.5217)" stroke-linecap="round" font-size="29.1042" fill="none" stroke-opacity="1" stroke-linejoin="bevel" stroke="#000000" font-family="MS Shell Dlg 2" font-style="normal" font-weight="400">
    <path vector-effect="none" d="M379.799,-230.103 L379.799,166.661" fill-rule="evenodd"/>
   </g>
   <g stroke-width="2.5" transform="matrix(1,0,0,1,1485,80.5217)" stroke-linecap="round" font-size="29.1042" fill="none" stroke-opacity="1" stroke-linejoin="bevel" stroke="#000000" font-family="MS Shell Dlg 2" font-style="normal" font-weight="400">
    <path vector-effect="none" d="M379.799,-230.103 L191.651,-230.103" fill-rule="evenodd"/>
   </g>
   <g stroke-width="2.5" transform="matrix(1,0,0,1,1485,80.5217)" stroke-linecap="round" font-size="29.1042" fill="none" stroke-opacity="1" stroke-linejoin="bevel" stroke="#000000" font-family="MS Shell Dlg 2" font-style="normal" font-weight="400">
    <path vector-effect="none" d="M191.651,409.739 L-381.245,409.739" fill-rule="evenodd"/>
   </g>
   <g stroke-width="2.5" transform="matrix(1,0,0,1,1485,80.5217)" stroke-linecap="round" font-size="29.1042" fill="none" stroke-opacity="1" stroke-linejoin="bevel" stroke="#000000" font-family="MS Shell Dlg 2" font-style="normal" font-weight="400">
    <path vector-effect="none" d="M191.651,-409.739 L191.651,409.739" fill-rule="evenodd"/>
   </g>
   <g stroke-width="2.5" transform="matrix(1,0,0,1,1485,80.5217)" stroke-linecap="round" font-size="29.1042" fill="none" stroke-opacity="1" stroke-linejoin="bevel" stroke="#000000" font-family="MS Shell Dlg 2" font-style="normal" font-weight="400">
    <path vector-effect="none" d="M-381.245,-409.739 L191.651,-409.739" fill-rule="evenodd"/>
   </g>
   <g stroke-width="2.5" transform="matrix(1,0,0,1,1485,80.5217)" stroke-linecap="round" font-size="29.1042" fill="none" stroke-opacity="1" stroke-linejoin="bevel" stroke="#000000" font-family="MS Shell Dlg 2" font-style="normal" font-weight="400">
    <path vector-effect="none" d="M-381.245,409.739 L-381.245,-409.739" fill-rule="evenodd"/>
   </g>
   <g stroke-width="2.5" transform="matrix(1,0,0,1,1485,80.5217)" stroke-linecap="round" font-size="29.1042" fill="none" stroke-opacity="1" stroke-linejoin="bevel" stroke="#000000" font-family="MS Shell Dlg 2" font-style="normal" font-weight="400">
    <path vector-effect="none" d="M191.651,166.661 L379.799,166.661" fill-rule="evenodd"/>
   </g>
   <g transform="matrix(1,0,0,1,2453.76,1050)" font-size="29.1042" fill="#ffffff" stroke="none" font-family="MS Shell Dlg 2" font-style="normal" fill-opacity="1" font-weight="400">
    <path vector-effect="non-scaling-stroke" d="M-409.739,282.221 L409.739,282.221 L409.739,-282.221 L-409.739,-282.221 L-409.739,282.221" fill-rule="evenodd"/>
   </g>
   <g stroke-width="1.3" transform="matrix(1,0,0,1,2453.76,1050)" stroke-dashoffset="0" stroke-linecap="round" font-size="29.1042" fill="none" stroke-opacity="1" stroke-linejoin="bevel" stroke="#000000" stroke-dasharray="5.2,2.6" font-family="MS Shell Dlg 2" font-style="normal" font-weight="400">
    <path vector-effect="none" d="M230.103,-18.8452 C230.103,90.7182 141.284,179.537 31.7209,179.537 C-77.8425,179.537 -166.661,90.7182 -166.661,-18.8452 C-166.661,-128.409 -77.8425,-217.227 31.7209,-217.227 C141.284,-217.227 230.103,-128.409 230.103,-18.8452 " fill-rule="evenodd"/>
   </g>
   <g stroke-width="1.3" transform="matrix(1,0,0,1,2453.76,1050)" stroke-dashoffset="0" stroke-linecap="round" font-size="29.1042" fill="none" stroke-opacity="1" stroke-linejoin="bevel" stroke="#000000" stroke-dasharray="5.2,2.6" font-family="MS Shell Dlg 2" font-style="normal" font-weight="400">
    <path vector-effect="none" d="M230.103,-18.8452 C230.103,90.7182 141.284,179.537 31.7209,179.537 C-77.8425,179.537 -166.661,90.7182 -166.661,-18.8452 C-166.661,-128.409 -77.8425,-217.227 31.7209,-217.227 C141.284,-217.227 230.103,-128.409 230.103,-18.8452 " fill-rule="evenodd"/>
   </g>
   <g stroke-width="1.3" transform="matrix(1,0,0,1,2453.76,1050)" stroke-dashoffset="0" stroke-linecap="round" font-size="29.1042" fill="none" stroke-opacity="1" stroke-linejoin="bevel" stroke="#000000" stroke-dasharray="5.2,2.6" font-family="MS Shell Dlg 2" font-style="normal" font-weight="400">
    <path vector-effect="none" d="M-409.739,282.221 L-409.739,-282.221" fill-rule="evenodd"/>
   </g>
   <g stroke-width="1.3" transform="matrix(1,0,0,1,2453.76,1050)" stroke-dashoffset="0" stroke-linecap="round" font-size="29.1042" fill="none" stroke-opacity="1" stroke-linejoin="bevel" stroke="#000000" stroke-dasharray="5.2,2.6" font-family="MS Shell Dlg 2" font-style="normal" font-weight="400">
    <path vector-effect="none" d="M409.739,282.221 L-409.739,282.221" fill-rule="evenodd"/>
   </g>
   <g stroke-width="1.3" transform="matrix(1,0,0,1,2453.76,1050)" stroke-dashoffset="0" stroke-linecap="round" font-size="29.1042" fill="none" stroke-opacity="1" stroke-linejoin="bevel" stroke="#000000" stroke-dasharray="5.2,2.6" font-family="MS Shell Dlg 2" font-style="normal" font-weight="400">
    <path vector-effect="none" d="M409.739,-282.221 L-409.739,-282.221" fill-rule="evenodd"/>
   </g>
   <g stroke-width="1.3" transform="matrix(1,0,0,1,2453.76,1050)" stroke-dashoffset="0" stroke-linecap="round" font-size="29.1042" fill="none" stroke-opacity="1" stroke-linejoin="bevel" stroke="#000000" stroke-dasharray="5.2,2.6" font-family="MS Shell Dlg 2" font-style="normal" font-weight="400">
    <path vector-effect="none" d="M409.739,282.221 L409.739,-282.221" fill-rule="evenodd"/>
   </g>
   <g stroke-width="2.5" transform="matrix(1,0,0,1,2453.76,1050)" stroke-linecap="round" font-size="29.1042" fill="none" stroke-opacity="1" stroke-linejoin="bevel" stroke="#000000" font-family="MS Shell Dlg 2" font-style="normal" font-weight="400">
    <path vector-effect="none" d="M-409.739,282.221 L-409.739,-282.221" fill-rule="evenodd"/>
   </g>
   <g stroke-width="2.5" transform="matrix(1,0,0,1,2453.76,1050)" stroke-linecap="round" font-size="29.1042" fill="none" stroke-opacity="1" stroke-linejoin="bevel" stroke="#000000" font-family="MS Shell Dlg 2" font-style="normal" font-weight="400">
    <path vector-effect="none" d="M409.739,282.221 L409.739,-282.221" fill-rule="evenodd"/>
   </g>
   <g stroke-width="2.5" transform="matrix(1,0,0,1,2453.76,1050)" stroke-linecap="round" font-size="29.1042" fill="none" stroke-opacity="1" stroke-linejoin="bevel" stroke="#000000" font-family="MS Shell Dlg 2" font-style="normal" font-weight="400">
    <path vector-effect="none" d="M-409.739,282.221 L409.739,282.221" fill-rule="evenodd"/>
   </g>
   <g stroke-width="2.5" transform="matrix(1,0,0,1,2453.76,1050)" stroke-linecap="round" font-size="29.1042" fill="none" stroke-opacity="1" stroke-linejoin="bevel" stroke="#000000" font-family="MS Shell Dlg 2" font-style="normal" font-weight="400">
    <path vector-effect="none" d="M-409.739,-282.221 L409.739,-282.221" fill-rule="evenodd"/>
   </g>
  </g>
 </g>
</svg>
