<?xml version='1.0' encoding='UTF-8' standalone='no'?>
<svg width="297mm" height="210mm" xmlns:xlink="http://www.w3.org/1999/xlink" baseProfile="tiny" xmlns:svg="http://www.w3.org/2000/svg" version="1.2" xmlns:cc="http://creativecommons.org/ns#" xmlns:sodipodi="http://sodipodi.sourceforge.net/DTD/sodipodi-0.dtd" xmlns:dc="http://purl.org/dc/elements/1.1/" xmlns:rdf="http://www.w3.org/1999/02/22-rdf-syntax-ns#" xmlns:freecad="http://www.freecadweb.org/wiki/index.php?title=Svg_Namespace" xmlns:inkscape="http://www.inkscape.org/namespaces/inkscape" xmlns="http://www.w3.org/2000/svg" viewBox="0 0 5000 3000">
 <title>FreeCAD SVG Export</title>
 <desc>Drawing page: Page exported from FreeCAD document: Unnamed</desc>
 <defs/>
 <g inkscape:groupmode="layer" id="Page" inkscape:label="TechDraw">
  <g stroke-width="1" stroke-linecap="square" fill="none" stroke-linejoin="bevel" id="DrawingContent" stroke="black" fill-rule="evenodd">
   <g stroke-width="1" transform="matrix(1,0,0,1,1485,1050)" stroke-linecap="square" font-size="29.1042" fill="none" stroke-opacity="1" stroke-linejoin="bevel" stroke="#000000" font-family="MS Shell Dlg 2" font-style="normal" font-weight="400">
    <rect x="0" width="0" height="0" y="0"/>
   </g>
   <g transform="matrix(1,0,0,1,1485,1050)" font-size="29.1042" fill="#ffffff" stroke="none" font-family="MS Shell Dlg 2" font-style="normal" fill-opacity="1" font-weight="400">
    <path vector-effect="non-scaling-stroke" d="M-1058.19,-54.5455 L1090.9,-54.5455 L1090.9,-3.67056e-15 L1090.9,54.5455 L-1058.19,54.5455 L-1058.19,54.2025 L-1058.19,53.1779 L-1058.19,52.3636 L-1090.92,52.3636 L-1090.92,-52.3636 L-1058.19,-52.3636 L-1058.19,-53.1779 L-1058.19,-54.2025 L-1058.19,-54.5455" fill-rule="evenodd"/>
   </g>
   <g transform="matrix(1,0,0,1,1485,1050)" font-size="29.1042" fill="#ffffff" stroke="none" font-family="MS Shell Dlg 2" font-style="normal" fill-opacity="1" font-weight="400">
    <path vector-effect="non-scaling-stroke" d="M-1058.19,-54.5455 L1090.9,-54.5455 L1090.9,-3.67056e-15 L1090.9,54.5455 L-1058.19,54.5455 L-1058.19,54.2025 L-1058.19,53.1779 L-1058.19,52.3636 L-1058.19,51.4845 L-1058.19,49.1438 L-1058.19,46.185 L-1058.19,42.6454 L-1058.19,38.5695 L-1058.19,34.0085 L-1058.19,29.0199 L-1058.19,23.6664 L-1058.19,18.0152 L-1058.19,12.1375 L-1058.19,6.10715 L-1058.19,3.33067e-15 L-1058.19,-9.99201e-15 C-1058.19,-4.08579 -1058.19,-8.13163 -1058.19,-12.1375 C-1058.19,-14.0967 -1058.19,-16.056 -1058.19,-18.0152 C-1058.19,-19.8989 -1058.19,-21.7827 -1058.19,-23.6664 C-1058.19,-25.4509 -1058.19,-27.2354 -1058.19,-29.0199 C-1058.19,-30.6828 -1058.19,-32.3457 -1058.19,-34.0085 C-1058.19,-35.5288 -1058.19,-37.0492 -1058.19,-38.5695 C-1058.19,-39.9281 -1058.19,-41.2867 -1058.19,-42.6454 C-1058.19,-43.8252 -1058.19,-45.0051 -1058.19,-46.185 C-1058.19,-47.1712 -1058.19,-48.1575 -1058.19,-49.1438 C-1058.19,-49.924 -1058.19,-50.7043 -1058.19,-51.4845 C-1058.19,-51.7776 -1058.19,-52.0706 -1058.19,-52.3636 L-1058.19,-53.1779 L-1058.19,-54.2025 L-1058.19,-54.5455" fill-rule="evenodd"/>
   </g>
   <g transform="matrix(1,0,0,1,1485,1050)" font-size="29.1042" fill="#ffffff" stroke="none" font-family="MS Shell Dlg 2" font-style="normal" fill-opacity="1" font-weight="400">
    <path vector-effect="non-scaling-stroke" d="M-1090.92,52.3636 L-1090.92,-52.3636 L-1058.19,-52.3636 C-1058.19,-52.0706 -1058.19,-51.7776 -1058.19,-51.4845 C-1058.19,-50.7043 -1058.19,-49.924 -1058.19,-49.1438 C-1058.19,-48.1575 -1058.19,-47.1712 -1058.19,-46.185 C-1058.19,-45.0051 -1058.19,-43.8252 -1058.19,-42.6454 C-1058.19,-41.2867 -1058.19,-39.9281 -1058.19,-38.5695 C-1058.19,-37.0492 -1058.19,-35.5288 -1058.19,-34.0085 C-1058.19,-32.3457 -1058.19,-30.6828 -1058.19,-29.0199 C-1058.19,-27.2354 -1058.19,-25.4509 -1058.19,-23.6664 C-1058.19,-21.7827 -1058.19,-19.8989 -1058.19,-18.0152 C-1058.19,-16.056 -1058.19,-14.0967 -1058.19,-12.1375 C-1058.19,-8.13163 -1058.19,-4.08579 -1058.19,-9.99201e-15 L-1058.19,3.33067e-15 L-1058.19,6.10715 L-1058.19,12.1375 L-1058.19,18.0152 L-1058.19,23.6664 L-1058.19,29.0199 L-1058.19,34.0085 L-1058.19,38.5695 L-1058.19,42.6454 L-1058.19,46.185 L-1058.19,49.1438 L-1058.19,51.4845 L-1058.19,52.3636 L-1090.92,52.3636" fill-rule="evenodd"/>
   </g>
   <g stroke-width="1.3" transform="matrix(1,0,0,1,1485,1050)" stroke-dashoffset="0" stroke-linecap="round" font-size="29.1042" fill="none" stroke-opacity="1" stroke-linejoin="bevel" stroke="#000000" stroke-dasharray="5.2,2.6" font-family="MS Shell Dlg 2" font-style="normal" font-weight="400">
    <path vector-effect="none" d="M-1090.92,3.27652e-15 L-1090.92,52.3636" fill-rule="evenodd"/>
   </g>
   <g stroke-width="1.3" transform="matrix(1,0,0,1,1485,1050)" stroke-dashoffset="0" stroke-linecap="round" font-size="29.1042" fill="none" stroke-opacity="1" stroke-linejoin="bevel" stroke="#000000" stroke-dasharray="5.2,2.6" font-family="MS Shell Dlg 2" font-style="normal" font-weight="400">
    <path vector-effect="none" d="M-1090.92,-52.3636 L-1090.92,-9.54887e-15" fill-rule="evenodd"/>
   </g>
   <g stroke-width="1.3" transform="matrix(1,0,0,1,1485,1050)" stroke-dashoffset="0" stroke-linecap="round" font-size="29.1042" fill="none" stroke-opacity="1" stroke-linejoin="bevel" stroke="#000000" stroke-dasharray="5.2,2.6" font-family="MS Shell Dlg 2" font-style="normal" font-weight="400">
    <path vector-effect="none" d="M-1058.19,3.27652e-15 L-1058.19,52.3636" fill-rule="evenodd"/>
   </g>
   <g stroke-width="1.3" transform="matrix(1,0,0,1,1485,1050)" stroke-dashoffset="0" stroke-linecap="round" font-size="29.1042" fill="none" stroke-opacity="1" stroke-linejoin="bevel" stroke="#000000" stroke-dasharray="5.2,2.6" font-family="MS Shell Dlg 2" font-style="normal" font-weight="400">
    <path vector-effect="none" d="M-1058.19,52.3636 L-1058.19,-52.3636" fill-rule="evenodd"/>
   </g>
   <g stroke-width="1.3" transform="matrix(1,0,0,1,1485,1050)" stroke-dashoffset="0" stroke-linecap="round" font-size="29.1042" fill="none" stroke-opacity="1" stroke-linejoin="bevel" stroke="#000000" stroke-dasharray="5.2,2.6" font-family="MS Shell Dlg 2" font-style="normal" font-weight="400">
    <path vector-effect="none" d="M-1058.19,-52.3636 L-1058.19,-9.54887e-15" fill-rule="evenodd"/>
   </g>
   <g stroke-width="1.3" transform="matrix(1,0,0,1,1485,1050)" stroke-dashoffset="0" stroke-linecap="round" font-size="29.1042" fill="none" stroke-opacity="1" stroke-linejoin="bevel" stroke="#000000" stroke-dasharray="5.2,2.6" font-family="MS Shell Dlg 2" font-style="normal" font-weight="400">
    <path vector-effect="none" d="M-1058.19,54.5455 L-1058.19,-54.5455" fill-rule="evenodd"/>
   </g>
   <g stroke-width="1.3" transform="matrix(1,0,0,1,1485,1050)" stroke-dashoffset="0" stroke-linecap="round" font-size="29.1042" fill="none" stroke-opacity="1" stroke-linejoin="bevel" stroke="#000000" stroke-dasharray="5.2,2.6" font-family="MS Shell Dlg 2" font-style="normal" font-weight="400">
    <path vector-effect="none" d="M-1036.37,1.10252e-14 L-1036.37,-10.9091" fill-rule="evenodd"/>
   </g>
   <g stroke-width="1.3" transform="matrix(1,0,0,1,1485,1050)" stroke-dashoffset="0" stroke-linecap="round" font-size="29.1042" fill="none" stroke-opacity="1" stroke-linejoin="bevel" stroke="#000000" stroke-dasharray="5.2,2.6" font-family="MS Shell Dlg 2" font-style="normal" font-weight="400">
    <path vector-effect="none" d="M-1036.37,-10.9091 L-1036.37,10.9091" fill-rule="evenodd"/>
   </g>
   <g stroke-width="1.3" transform="matrix(1,0,0,1,1485,1050)" stroke-dashoffset="0" stroke-linecap="round" font-size="29.1042" fill="none" stroke-opacity="1" stroke-linejoin="bevel" stroke="#000000" stroke-dasharray="5.2,2.6" font-family="MS Shell Dlg 2" font-style="normal" font-weight="400">
    <path vector-effect="none" d="M-1036.37,10.9091 L-1036.37,1.36972e-14" fill-rule="evenodd"/>
   </g>
   <g stroke-width="1.3" transform="matrix(1,0,0,1,1485,1050)" stroke-dashoffset="0" stroke-linecap="round" font-size="29.1042" fill="none" stroke-opacity="1" stroke-linejoin="bevel" stroke="#000000" stroke-dasharray="5.2,2.6" font-family="MS Shell Dlg 2" font-style="normal" font-weight="400">
    <path vector-effect="none" d="M-1090.92,1.10252e-14 L-1090.92,-10.9091" fill-rule="evenodd"/>
   </g>
   <g stroke-width="1.3" transform="matrix(1,0,0,1,1485,1050)" stroke-dashoffset="0" stroke-linecap="round" font-size="29.1042" fill="none" stroke-opacity="1" stroke-linejoin="bevel" stroke="#000000" stroke-dasharray="5.2,2.6" font-family="MS Shell Dlg 2" font-style="normal" font-weight="400">
    <path vector-effect="none" d="M-1090.92,-10.9091 L-1090.92,10.9091" fill-rule="evenodd"/>
   </g>
   <g stroke-width="1.3" transform="matrix(1,0,0,1,1485,1050)" stroke-dashoffset="0" stroke-linecap="round" font-size="29.1042" fill="none" stroke-opacity="1" stroke-linejoin="bevel" stroke="#000000" stroke-dasharray="5.2,2.6" font-family="MS Shell Dlg 2" font-style="normal" font-weight="400">
    <path vector-effect="none" d="M-1090.92,10.9091 L-1090.92,1.36972e-14" fill-rule="evenodd"/>
   </g>
   <g stroke-width="1.3" transform="matrix(1,0,0,1,1485,1050)" stroke-dashoffset="0" stroke-linecap="round" font-size="29.1042" fill="none" stroke-opacity="1" stroke-linejoin="bevel" stroke="#000000" stroke-dasharray="5.2,2.6" font-family="MS Shell Dlg 2" font-style="normal" font-weight="400">
    <path vector-effect="none" d="M1090.9,54.5455 L1090.9,-54.5455" fill-rule="evenodd"/>
   </g>
   <g stroke-width="1.3" transform="matrix(1,0,0,1,1485,1050)" stroke-dashoffset="0" stroke-linecap="round" font-size="29.1042" fill="none" stroke-opacity="1" stroke-linejoin="bevel" stroke="#000000" stroke-dasharray="5.2,2.6" font-family="MS Shell Dlg 2" font-style="normal" font-weight="400">
    <path vector-effect="none" d="M-1090.92,10.9091 L-1036.37,10.9091" fill-rule="evenodd"/>
   </g>
   <g stroke-width="1.3" transform="matrix(1,0,0,1,1485,1050)" stroke-dashoffset="0" stroke-linecap="round" font-size="29.1042" fill="none" stroke-opacity="1" stroke-linejoin="bevel" stroke="#000000" stroke-dasharray="5.2,2.6" font-family="MS Shell Dlg 2" font-style="normal" font-weight="400">
    <path vector-effect="none" d="M-1090.92,-10.9091 L-1036.37,-10.9091" fill-rule="evenodd"/>
   </g>
   <g stroke-width="2.5" transform="matrix(1,0,0,1,1485,1050)" stroke-linecap="round" font-size="29.1042" fill="none" stroke-opacity="1" stroke-linejoin="bevel" stroke="#000000" font-family="MS Shell Dlg 2" font-style="normal" font-weight="400">
    <path vector-effect="none" d="M-1090.92,52.3636 L-1090.92,-52.3636" fill-rule="evenodd"/>
   </g>
   <g stroke-width="2.5" transform="matrix(1,0,0,1,1485,1050)" stroke-linecap="round" font-size="29.1042" fill="none" stroke-opacity="1" stroke-linejoin="bevel" stroke="#000000" font-family="MS Shell Dlg 2" font-style="normal" font-weight="400">
    <path vector-effect="none" d="M-1058.19,3.00933e-15 L-1058.19,54.5455" fill-rule="evenodd"/>
   </g>
   <g stroke-width="2.5" transform="matrix(1,0,0,1,1485,1050)" stroke-linecap="round" font-size="29.1042" fill="none" stroke-opacity="1" stroke-linejoin="bevel" stroke="#000000" font-family="MS Shell Dlg 2" font-style="normal" font-weight="400">
    <path vector-effect="none" d="M-1058.19,-54.5455 L-1058.19,-1.03505e-14" fill-rule="evenodd"/>
   </g>
   <g stroke-width="2.5" transform="matrix(1,0,0,1,1485,1050)" stroke-linecap="round" font-size="29.1042" fill="none" stroke-opacity="1" stroke-linejoin="bevel" stroke="#000000" font-family="MS Shell Dlg 2" font-style="normal" font-weight="400">
    <path vector-effect="none" d="M1090.9,3.00933e-15 L1090.9,54.5455" fill-rule="evenodd"/>
   </g>
   <g stroke-width="2.5" transform="matrix(1,0,0,1,1485,1050)" stroke-linecap="round" font-size="29.1042" fill="none" stroke-opacity="1" stroke-linejoin="bevel" stroke="#000000" font-family="MS Shell Dlg 2" font-style="normal" font-weight="400">
    <path vector-effect="none" d="M1090.9,-54.5455 L1090.9,-1.03505e-14" fill-rule="evenodd"/>
   </g>
   <g stroke-width="2.5" transform="matrix(1,0,0,1,1485,1050)" stroke-linecap="round" font-size="29.1042" fill="none" stroke-opacity="1" stroke-linejoin="bevel" stroke="#000000" font-family="MS Shell Dlg 2" font-style="normal" font-weight="400">
    <path vector-effect="none" d="M-1090.92,52.3636 L-1058.19,52.3636" fill-rule="evenodd"/>
   </g>
   <g stroke-width="2.5" transform="matrix(1,0,0,1,1485,1050)" stroke-linecap="round" font-size="29.1042" fill="none" stroke-opacity="1" stroke-linejoin="bevel" stroke="#000000" font-family="MS Shell Dlg 2" font-style="normal" font-weight="400">
    <path vector-effect="none" d="M-1090.92,-52.3636 L-1058.19,-52.3636" fill-rule="evenodd"/>
   </g>
   <g stroke-width="2.5" transform="matrix(1,0,0,1,1485,1050)" stroke-linecap="round" font-size="29.1042" fill="none" stroke-opacity="1" stroke-linejoin="bevel" stroke="#000000" font-family="MS Shell Dlg 2" font-style="normal" font-weight="400">
    <path vector-effect="none" d="M-1058.19,54.5455 L1090.9,54.5455" fill-rule="evenodd"/>
   </g>
   <g stroke-width="2.5" transform="matrix(1,0,0,1,1485,1050)" stroke-linecap="round" font-size="29.1042" fill="none" stroke-opacity="1" stroke-linejoin="bevel" stroke="#000000" font-family="MS Shell Dlg 2" font-style="normal" font-weight="400">
    <path vector-effect="none" d="M-1058.19,-54.5455 L1090.9,-54.5455" fill-rule="evenodd"/>
   </g>
   <g transform="matrix(1,0,0,1,1485,790.909)" font-size="29.1042" fill="#ffffff" stroke="none" font-family="MS Shell Dlg 2" font-style="normal" fill-opacity="1" font-weight="400">
    <path vector-effect="non-scaling-stroke" d="M1090.9,-54.5455 L1090.9,54.5455 L-1058.19,54.5455 L-1058.19,53.1779 L-1058.19,52.3636 L-1090.92,52.3636 L-1090.92,-52.3636 L-1058.19,-52.3636 L-1058.19,-53.1779 L-1058.19,-54.5455 L1090.9,-54.5455" fill-rule="evenodd"/>
   </g>
   <g transform="matrix(1,0,0,1,1485,790.909)" font-size="29.1042" fill="#ffffff" stroke="none" font-family="MS Shell Dlg 2" font-style="normal" fill-opacity="1" font-weight="400">
    <path vector-effect="non-scaling-stroke" d="M1090.9,-54.5455 L1090.9,54.5455 L-1058.19,54.5455 L-1058.19,53.1779 L-1058.19,52.3636 L-1058.19,49.1438 L-1058.19,42.6454 L-1058.19,34.0085 L-1058.19,23.6664 L-1058.19,12.1375 L-1058.19,0 L-1058.19,-12.1375 L-1058.19,-23.6664 L-1058.19,-34.0085 L-1058.19,-42.6454 L-1058.19,-49.1438 L-1058.19,-52.3636 L-1058.19,-53.1779 L-1058.19,-54.5455 L1090.9,-54.5455" fill-rule="evenodd"/>
   </g>
   <g transform="matrix(1,0,0,1,1485,790.909)" font-size="29.1042" fill="#ffffff" stroke="none" font-family="MS Shell Dlg 2" font-style="normal" fill-opacity="1" font-weight="400">
    <path vector-effect="non-scaling-stroke" d="M-1090.92,52.3636 L-1090.92,-52.3636 L-1058.19,-52.3636 L-1058.19,-49.1438 L-1058.19,-42.6454 L-1058.19,-34.0085 L-1058.19,-23.6664 L-1058.19,-12.1375 L-1058.19,0 L-1058.19,12.1375 L-1058.19,23.6664 L-1058.19,34.0085 L-1058.19,42.6454 L-1058.19,49.1438 L-1058.19,52.3636 L-1090.92,52.3636" fill-rule="evenodd"/>
   </g>
   <g stroke-width="1.3" transform="matrix(1,0,0,1,1485,790.909)" stroke-dashoffset="0" stroke-linecap="round" font-size="29.1042" fill="none" stroke-opacity="1" stroke-linejoin="bevel" stroke="#000000" stroke-dasharray="5.2,2.6" font-family="MS Shell Dlg 2" font-style="normal" font-weight="400">
    <path vector-effect="none" d="M-1090.92,-52.3636 L-1090.92,52.3636" fill-rule="evenodd"/>
   </g>
   <g stroke-width="1.3" transform="matrix(1,0,0,1,1485,790.909)" stroke-dashoffset="0" stroke-linecap="round" font-size="29.1042" fill="none" stroke-opacity="1" stroke-linejoin="bevel" stroke="#000000" stroke-dasharray="5.2,2.6" font-family="MS Shell Dlg 2" font-style="normal" font-weight="400">
    <path vector-effect="none" d="M-1058.19,52.3636 L-1058.19,-52.3636" fill-rule="evenodd"/>
   </g>
   <g stroke-width="1.3" transform="matrix(1,0,0,1,1485,790.909)" stroke-dashoffset="0" stroke-linecap="round" font-size="29.1042" fill="none" stroke-opacity="1" stroke-linejoin="bevel" stroke="#000000" stroke-dasharray="5.2,2.6" font-family="MS Shell Dlg 2" font-style="normal" font-weight="400">
    <path vector-effect="none" d="M-1058.19,-52.3636 L-1058.19,52.3636" fill-rule="evenodd"/>
   </g>
   <g stroke-width="1.3" transform="matrix(1,0,0,1,1485,790.909)" stroke-dashoffset="0" stroke-linecap="round" font-size="29.1042" fill="none" stroke-opacity="1" stroke-linejoin="bevel" stroke="#000000" stroke-dasharray="5.2,2.6" font-family="MS Shell Dlg 2" font-style="normal" font-weight="400">
    <path vector-effect="none" d="M-1058.19,54.5455 L-1058.19,-54.5455" fill-rule="evenodd"/>
   </g>
   <g stroke-width="1.3" transform="matrix(1,0,0,1,1485,790.909)" stroke-dashoffset="0" stroke-linecap="round" font-size="29.1042" fill="none" stroke-opacity="1" stroke-linejoin="bevel" stroke="#000000" stroke-dasharray="5.2,2.6" font-family="MS Shell Dlg 2" font-style="normal" font-weight="400">
    <path vector-effect="none" d="M-1090.92,10.9091 L-1036.37,10.9091" fill-rule="evenodd"/>
   </g>
   <g stroke-width="1.3" transform="matrix(1,0,0,1,1485,790.909)" stroke-dashoffset="0" stroke-linecap="round" font-size="29.1042" fill="none" stroke-opacity="1" stroke-linejoin="bevel" stroke="#000000" stroke-dasharray="5.2,2.6" font-family="MS Shell Dlg 2" font-style="normal" font-weight="400">
    <path vector-effect="none" d="M-1036.37,10.9091 L-1036.37,-10.9091" fill-rule="evenodd"/>
   </g>
   <g stroke-width="1.3" transform="matrix(1,0,0,1,1485,790.909)" stroke-dashoffset="0" stroke-linecap="round" font-size="29.1042" fill="none" stroke-opacity="1" stroke-linejoin="bevel" stroke="#000000" stroke-dasharray="5.2,2.6" font-family="MS Shell Dlg 2" font-style="normal" font-weight="400">
    <path vector-effect="none" d="M-1036.37,-10.9091 L-1036.37,10.9091" fill-rule="evenodd"/>
   </g>
   <g stroke-width="1.3" transform="matrix(1,0,0,1,1485,790.909)" stroke-dashoffset="0" stroke-linecap="round" font-size="29.1042" fill="none" stroke-opacity="1" stroke-linejoin="bevel" stroke="#000000" stroke-dasharray="5.2,2.6" font-family="MS Shell Dlg 2" font-style="normal" font-weight="400">
    <path vector-effect="none" d="M-1090.92,10.9091 L-1090.92,-10.9091" fill-rule="evenodd"/>
   </g>
   <g stroke-width="1.3" transform="matrix(1,0,0,1,1485,790.909)" stroke-dashoffset="0" stroke-linecap="round" font-size="29.1042" fill="none" stroke-opacity="1" stroke-linejoin="bevel" stroke="#000000" stroke-dasharray="5.2,2.6" font-family="MS Shell Dlg 2" font-style="normal" font-weight="400">
    <path vector-effect="none" d="M-1090.92,-10.9091 L-1090.92,10.9091" fill-rule="evenodd"/>
   </g>
   <g stroke-width="1.3" transform="matrix(1,0,0,1,1485,790.909)" stroke-dashoffset="0" stroke-linecap="round" font-size="29.1042" fill="none" stroke-opacity="1" stroke-linejoin="bevel" stroke="#000000" stroke-dasharray="5.2,2.6" font-family="MS Shell Dlg 2" font-style="normal" font-weight="400">
    <path vector-effect="none" d="M1090.9,54.5455 L1090.9,-54.5455" fill-rule="evenodd"/>
   </g>
   <g stroke-width="1.3" transform="matrix(1,0,0,1,1485,790.909)" stroke-dashoffset="0" stroke-linecap="round" font-size="29.1042" fill="none" stroke-opacity="1" stroke-linejoin="bevel" stroke="#000000" stroke-dasharray="5.2,2.6" font-family="MS Shell Dlg 2" font-style="normal" font-weight="400">
    <path vector-effect="none" d="M-1090.92,-10.9091 L-1036.37,-10.9091" fill-rule="evenodd"/>
   </g>
   <g stroke-width="2.5" transform="matrix(1,0,0,1,1485,790.909)" stroke-linecap="round" font-size="29.1042" fill="none" stroke-opacity="1" stroke-linejoin="bevel" stroke="#000000" font-family="MS Shell Dlg 2" font-style="normal" font-weight="400">
    <path vector-effect="none" d="M-1090.92,52.3636 L-1090.92,-52.3636" fill-rule="evenodd"/>
   </g>
   <g stroke-width="2.5" transform="matrix(1,0,0,1,1485,790.909)" stroke-linecap="round" font-size="29.1042" fill="none" stroke-opacity="1" stroke-linejoin="bevel" stroke="#000000" font-family="MS Shell Dlg 2" font-style="normal" font-weight="400">
    <path vector-effect="none" d="M-1090.92,52.3636 L-1058.19,52.3636" fill-rule="evenodd"/>
   </g>
   <g stroke-width="2.5" transform="matrix(1,0,0,1,1485,790.909)" stroke-linecap="round" font-size="29.1042" fill="none" stroke-opacity="1" stroke-linejoin="bevel" stroke="#000000" font-family="MS Shell Dlg 2" font-style="normal" font-weight="400">
    <path vector-effect="none" d="M-1058.19,-54.5455 L-1058.19,54.5455" fill-rule="evenodd"/>
   </g>
   <g stroke-width="2.5" transform="matrix(1,0,0,1,1485,790.909)" stroke-linecap="round" font-size="29.1042" fill="none" stroke-opacity="1" stroke-linejoin="bevel" stroke="#000000" font-family="MS Shell Dlg 2" font-style="normal" font-weight="400">
    <path vector-effect="none" d="M1090.9,-54.5455 L1090.9,54.5455" fill-rule="evenodd"/>
   </g>
   <g stroke-width="2.5" transform="matrix(1,0,0,1,1485,790.909)" stroke-linecap="round" font-size="29.1042" fill="none" stroke-opacity="1" stroke-linejoin="bevel" stroke="#000000" font-family="MS Shell Dlg 2" font-style="normal" font-weight="400">
    <path vector-effect="none" d="M1090.9,-54.5455 L-1058.19,-54.5455" fill-rule="evenodd"/>
   </g>
   <g stroke-width="2.5" transform="matrix(1,0,0,1,1485,790.909)" stroke-linecap="round" font-size="29.1042" fill="none" stroke-opacity="1" stroke-linejoin="bevel" stroke="#000000" font-family="MS Shell Dlg 2" font-style="normal" font-weight="400">
    <path vector-effect="none" d="M-1090.92,-52.3636 L-1058.19,-52.3636" fill-rule="evenodd"/>
   </g>
   <g stroke-width="2.5" transform="matrix(1,0,0,1,1485,790.909)" stroke-linecap="round" font-size="29.1042" fill="none" stroke-opacity="1" stroke-linejoin="bevel" stroke="#000000" font-family="MS Shell Dlg 2" font-style="normal" font-weight="400">
    <path vector-effect="none" d="M-1058.19,54.5455 L1090.9,54.5455" fill-rule="evenodd"/>
   </g>
   <g transform="matrix(1,0,0,1,2780.45,1050)" font-size="29.1042" fill="#ffffff" stroke="none" font-family="MS Shell Dlg 2" font-style="normal" fill-opacity="1" font-weight="400">
    <path vector-effect="non-scaling-stroke" d="M54.5455,7.10543e-15 C54.5455,30.1246 30.1246,54.5455 -1.20792e-13,54.5455 C-30.1246,54.5455 -54.5455,30.1246 -54.5455,7.10543e-15 C-54.5455,-30.1246 -30.1246,-54.5455 -1.20792e-13,-54.5455 C30.1246,-54.5455 54.5455,-30.1246 54.5455,7.10543e-15 " fill-rule="evenodd"/>
   </g>
   <g transform="matrix(1,0,0,1,2780.45,1050)" font-size="29.1042" fill="#ffffff" stroke="none" font-family="MS Shell Dlg 2" font-style="normal" fill-opacity="1" font-weight="400">
    <path vector-effect="non-scaling-stroke" d="M52.3636,7.10543e-15 C52.3636,28.9196 28.9196,52.3636 -1.27898e-13,52.3636 C-28.9196,52.3636 -52.3636,28.9196 -52.3636,7.10543e-15 C-52.3636,-28.9196 -28.9196,-52.3636 -1.27898e-13,-52.3636 C28.9196,-52.3636 52.3636,-28.9196 52.3636,7.10543e-15 " fill-rule="evenodd"/>
   </g>
   <g transform="matrix(1,0,0,1,2780.45,1050)" font-size="29.1042" fill="#ffffff" stroke="none" font-family="MS Shell Dlg 2" font-style="normal" fill-opacity="1" font-weight="400">
    <path vector-effect="non-scaling-stroke" d="M10.9091,8.88178e-15 C10.9091,6.02492 6.02492,10.9091 -1.22569e-13,10.9091 C-6.02492,10.9091 -10.9091,6.02492 -10.9091,8.88178e-15 C-10.9091,-6.02492 -6.02492,-10.9091 -1.22569e-13,-10.9091 C6.02492,-10.9091 10.9091,-6.02492 10.9091,8.88178e-15 " fill-rule="evenodd"/>
   </g>
   <g stroke-width="1.3" transform="matrix(1,0,0,1,2780.45,1050)" stroke-dashoffset="0" stroke-linecap="round" font-size="29.1042" fill="none" stroke-opacity="1" stroke-linejoin="bevel" stroke="#000000" stroke-dasharray="5.2,2.6" font-family="MS Shell Dlg 2" font-style="normal" font-weight="400">
    <path vector-effect="none" d="M52.3636,7.10543e-15 C52.3636,28.9196 28.9196,52.3636 -1.20792e-13,52.3636 C-28.9196,52.3636 -52.3636,28.9196 -52.3636,7.10543e-15 C-52.3636,-28.9196 -28.9196,-52.3636 -1.20792e-13,-52.3636 C28.9196,-52.3636 52.3636,-28.9196 52.3636,7.10543e-15 " fill-rule="evenodd"/>
   </g>
   <g stroke-width="1.3" transform="matrix(1,0,0,1,2780.45,1050)" stroke-dashoffset="0" stroke-linecap="round" font-size="29.1042" fill="none" stroke-opacity="1" stroke-linejoin="bevel" stroke="#000000" stroke-dasharray="5.2,2.6" font-family="MS Shell Dlg 2" font-style="normal" font-weight="400">
    <path vector-effect="none" d="M10.9091,8.88178e-15 C10.9091,6.02492 6.02492,10.9091 -1.15463e-13,10.9091 C-6.02492,10.9091 -10.9091,6.02492 -10.9091,8.88178e-15 C-10.9091,-6.02492 -6.02492,-10.9091 -1.15463e-13,-10.9091 C6.02492,-10.9091 10.9091,-6.02492 10.9091,8.88178e-15 " fill-rule="evenodd"/>
   </g>
   <g stroke-width="1.3" transform="matrix(1,0,0,1,2780.45,1050)" stroke-dashoffset="0" stroke-linecap="round" font-size="29.1042" fill="none" stroke-opacity="1" stroke-linejoin="bevel" stroke="#000000" stroke-dasharray="5.2,2.6" font-family="MS Shell Dlg 2" font-style="normal" font-weight="400">
    <path vector-effect="none" d="M54.5455,7.10543e-15 C54.5455,30.1246 30.1246,54.5455 1.20792e-13,54.5455 C-30.1246,54.5455 -54.5455,30.1246 -54.5455,7.10543e-15 C-54.5455,-30.1246 -30.1246,-54.5455 1.20792e-13,-54.5455 C30.1246,-54.5455 54.5455,-30.1246 54.5455,7.10543e-15 " fill-rule="evenodd"/>
   </g>
   <g stroke-width="2.5" transform="matrix(1,0,0,1,2780.45,1050)" stroke-linecap="round" font-size="29.1042" fill="none" stroke-opacity="1" stroke-linejoin="bevel" stroke="#000000" font-family="MS Shell Dlg 2" font-style="normal" font-weight="400">
    <path vector-effect="none" d="M52.3636,7.10543e-15 C52.3636,28.9196 28.9196,52.3636 -1.27898e-13,52.3636 C-28.9196,52.3636 -52.3636,28.9196 -52.3636,7.10543e-15 C-52.3636,-28.9196 -28.9196,-52.3636 -1.27898e-13,-52.3636 C28.9196,-52.3636 52.3636,-28.9196 52.3636,7.10543e-15 " fill-rule="evenodd"/>
   </g>
   <g stroke-width="2.5" transform="matrix(1,0,0,1,2780.45,1050)" stroke-linecap="round" font-size="29.1042" fill="none" stroke-opacity="1" stroke-linejoin="bevel" stroke="#000000" font-family="MS Shell Dlg 2" font-style="normal" font-weight="400">
    <path vector-effect="none" d="M54.5455,7.10543e-15 C54.5455,30.1246 30.1246,54.5455 -1.20792e-13,54.5455 C-30.1246,54.5455 -54.5455,30.1246 -54.5455,7.10543e-15 C-54.5455,-30.1246 -30.1246,-54.5455 -1.20792e-13,-54.5455 C30.1246,-54.5455 54.5455,-30.1246 54.5455,7.10543e-15 " fill-rule="evenodd"/>
   </g>
   <g stroke-width="2.5" transform="matrix(1,0,0,1,2780.45,1050)" stroke-linecap="round" font-size="29.1042" fill="none" stroke-opacity="1" stroke-linejoin="bevel" stroke="#000000" font-family="MS Shell Dlg 2" font-style="normal" font-weight="400">
    <path vector-effect="none" d="M10.9091,8.88178e-15 C10.9091,6.02492 6.02492,10.9091 -1.22569e-13,10.9091 C-6.02492,10.9091 -10.9091,6.02492 -10.9091,8.88178e-15 C-10.9091,-6.02492 -6.02492,-10.9091 -1.22569e-13,-10.9091 C6.02492,-10.9091 10.9091,-6.02492 10.9091,8.88178e-15 " fill-rule="evenodd"/>
   </g>
  </g>
 </g>
</svg>
