<?xml version='1.0' encoding='UTF-8' standalone='no'?>
<svg width="297mm" height="210mm" xmlns:xlink="http://www.w3.org/1999/xlink" baseProfile="tiny" xmlns:svg="http://www.w3.org/2000/svg" version="1.2" xmlns:cc="http://creativecommons.org/ns#" xmlns:sodipodi="http://sodipodi.sourceforge.net/DTD/sodipodi-0.dtd" xmlns:dc="http://purl.org/dc/elements/1.1/" xmlns:rdf="http://www.w3.org/1999/02/22-rdf-syntax-ns#" xmlns:freecad="http://www.freecadweb.org/wiki/index.php?title=Svg_Namespace" xmlns:inkscape="http://www.inkscape.org/namespaces/inkscape" xmlns="http://www.w3.org/2000/svg" viewBox="0 0 5000 3000">
 <title>FreeCAD SVG Export</title>
 <desc>Drawing page: Page exported from FreeCAD document: Unnamed</desc>
 <defs/>
 <g inkscape:groupmode="layer" id="Page" inkscape:label="TechDraw">
  <g stroke-width="1" stroke-linecap="square" fill="none" stroke-linejoin="bevel" id="DrawingContent" stroke="black" fill-rule="evenodd">
   <g stroke-width="1" transform="matrix(1,0,0,1,1485,1050)" stroke-linecap="square" font-size="29.1042" fill="none" stroke-opacity="1" stroke-linejoin="bevel" stroke="#000000" font-family="MS Shell Dlg 2" font-style="normal" font-weight="400">
    <rect x="0" width="0" height="0" y="0"/>
   </g>
   <g transform="matrix(1,0,0,1,1485,1050)" font-size="29.1042" fill="#ffffff" stroke="none" font-family="MS Shell Dlg 2" font-style="normal" fill-opacity="1" font-weight="400">
    <path vector-effect="non-scaling-stroke" d="M-87.9813,-268.152 L-87.9813,625.162 L87.9813,625.162 L87.9813,-268.152 L85.7754,-268.152 L79.2684,-268.152 L68.7866,-268.152 L54.8554,-268.152 L44.6657,-268.152 L44.6657,-625.478 L-44.6657,-625.478 L-44.6657,-268.152 L-54.8554,-268.152 L-68.7866,-268.152 L-79.2684,-268.152 L-85.7754,-268.152 L-87.9813,-268.152" fill-rule="evenodd"/>
   </g>
   <g transform="matrix(1,0,0,1,1485,1050)" font-size="29.1042" fill="#ffffff" stroke="none" font-family="MS Shell Dlg 2" font-style="normal" fill-opacity="1" font-weight="400">
    <path vector-effect="non-scaling-stroke" d="M-87.9813,-268.152 L-87.9813,625.162 L87.9813,625.162 L87.9813,-268.152 L85.7754,-268.152 L79.2684,-268.152 L68.7866,-268.152 L54.8554,-268.152 L44.6657,-268.152 L38.1737,-268.152 L19.5777,-268.152 L-1.55431e-14,-268.152 L-19.5777,-268.152 L-38.1737,-268.152 L-44.6657,-268.152 L-54.8554,-268.152 L-68.7866,-268.152 L-79.2684,-268.152 L-85.7754,-268.152 L-87.9813,-268.152" fill-rule="evenodd"/>
   </g>
   <g transform="matrix(1,0,0,1,1485,1050)" font-size="29.1042" fill="#ffffff" stroke="none" font-family="MS Shell Dlg 2" font-style="normal" fill-opacity="1" font-weight="400">
    <path vector-effect="non-scaling-stroke" d="M-44.6657,-268.152 L-44.6657,-625.478 L44.6657,-625.478 L44.6657,-268.152 L38.1737,-268.152 L19.5777,-268.152 L-1.55431e-14,-268.152 L-19.5777,-268.152 L-38.1737,-268.152 L-44.6657,-268.152" fill-rule="evenodd"/>
   </g>
   <g stroke-width="1.3" transform="matrix(1,0,0,1,1485,1050)" stroke-dashoffset="0" stroke-linecap="round" font-size="29.1042" fill="none" stroke-opacity="1" stroke-linejoin="bevel" stroke="#000000" stroke-dasharray="5.2,2.6" font-family="MS Shell Dlg 2" font-style="normal" font-weight="400">
    <path vector-effect="none" d="M44.6657,-625.478 L-44.6657,-625.478" fill-rule="evenodd"/>
   </g>
   <g stroke-width="1.3" transform="matrix(1,0,0,1,1485,1050)" stroke-dashoffset="0" stroke-linecap="round" font-size="29.1042" fill="none" stroke-opacity="1" stroke-linejoin="bevel" stroke="#000000" stroke-dasharray="5.2,2.6" font-family="MS Shell Dlg 2" font-style="normal" font-weight="400">
    <path vector-effect="none" d="M44.6657,-268.152 L-44.6657,-268.152" fill-rule="evenodd"/>
   </g>
   <g stroke-width="1.3" transform="matrix(1,0,0,1,1485,1050)" stroke-dashoffset="0" stroke-linecap="round" font-size="29.1042" fill="none" stroke-opacity="1" stroke-linejoin="bevel" stroke="#000000" stroke-dasharray="5.2,2.6" font-family="MS Shell Dlg 2" font-style="normal" font-weight="400">
    <path vector-effect="none" d="M-44.6657,-268.152 L44.6657,-268.152" fill-rule="evenodd"/>
   </g>
   <g stroke-width="1.3" transform="matrix(1,0,0,1,1485,1050)" stroke-dashoffset="0" stroke-linecap="round" font-size="29.1042" fill="none" stroke-opacity="1" stroke-linejoin="bevel" stroke="#000000" stroke-dasharray="5.2,2.6" font-family="MS Shell Dlg 2" font-style="normal" font-weight="400">
    <path vector-effect="none" d="M87.9813,-268.152 L-87.9813,-268.152" fill-rule="evenodd"/>
   </g>
   <g stroke-width="1.3" transform="matrix(1,0,0,1,1485,1050)" stroke-dashoffset="0" stroke-linecap="round" font-size="29.1042" fill="none" stroke-opacity="1" stroke-linejoin="bevel" stroke="#000000" stroke-dasharray="5.2,2.6" font-family="MS Shell Dlg 2" font-style="normal" font-weight="400">
    <path vector-effect="none" d="M87.9813,625.162 L-87.9813,625.162" fill-rule="evenodd"/>
   </g>
   <g stroke-width="2.5" transform="matrix(1,0,0,1,1485,1050)" stroke-linecap="round" font-size="29.1042" fill="none" stroke-opacity="1" stroke-linejoin="bevel" stroke="#000000" font-family="MS Shell Dlg 2" font-style="normal" font-weight="400">
    <path vector-effect="none" d="M-44.6657,-625.478 L44.6657,-625.478" fill-rule="evenodd"/>
   </g>
   <g stroke-width="2.5" transform="matrix(1,0,0,1,1485,1050)" stroke-linecap="round" font-size="29.1042" fill="none" stroke-opacity="1" stroke-linejoin="bevel" stroke="#000000" font-family="MS Shell Dlg 2" font-style="normal" font-weight="400">
    <path vector-effect="none" d="M44.6657,-625.478 L44.6657,-268.152" fill-rule="evenodd"/>
   </g>
   <g stroke-width="2.5" transform="matrix(1,0,0,1,1485,1050)" stroke-linecap="round" font-size="29.1042" fill="none" stroke-opacity="1" stroke-linejoin="bevel" stroke="#000000" font-family="MS Shell Dlg 2" font-style="normal" font-weight="400">
    <path vector-effect="none" d="M-87.9813,-268.152 L87.9813,-268.152" fill-rule="evenodd"/>
   </g>
   <g stroke-width="2.5" transform="matrix(1,0,0,1,1485,1050)" stroke-linecap="round" font-size="29.1042" fill="none" stroke-opacity="1" stroke-linejoin="bevel" stroke="#000000" font-family="MS Shell Dlg 2" font-style="normal" font-weight="400">
    <path vector-effect="none" d="M-87.9813,-268.152 L-87.9813,625.162" fill-rule="evenodd"/>
   </g>
   <g stroke-width="2.5" transform="matrix(1,0,0,1,1485,1050)" stroke-linecap="round" font-size="29.1042" fill="none" stroke-opacity="1" stroke-linejoin="bevel" stroke="#000000" font-family="MS Shell Dlg 2" font-style="normal" font-weight="400">
    <path vector-effect="none" d="M-87.9813,625.162 L87.9813,625.162" fill-rule="evenodd"/>
   </g>
   <g stroke-width="2.5" transform="matrix(1,0,0,1,1485,1050)" stroke-linecap="round" font-size="29.1042" fill="none" stroke-opacity="1" stroke-linejoin="bevel" stroke="#000000" font-family="MS Shell Dlg 2" font-style="normal" font-weight="400">
    <path vector-effect="none" d="M-44.6657,-268.152 L-44.6657,-625.478" fill-rule="evenodd"/>
   </g>
   <g stroke-width="2.5" transform="matrix(1,0,0,1,1485,1050)" stroke-linecap="round" font-size="29.1042" fill="none" stroke-opacity="1" stroke-linejoin="bevel" stroke="#000000" font-family="MS Shell Dlg 2" font-style="normal" font-weight="400">
    <path vector-effect="none" d="M87.9813,625.162 L87.9813,-268.152" fill-rule="evenodd"/>
   </g>
   <g transform="matrix(1,0,0,1,1485,186.54)" font-size="29.1042" fill="#ffffff" stroke="none" font-family="MS Shell Dlg 2" font-style="normal" fill-opacity="1" font-weight="400">
    <path vector-effect="non-scaling-stroke" d="M87.9813,-1.42109e-14 C87.9813,48.5907 48.5907,87.9813 0,87.9813 C-48.5907,87.9813 -87.9813,48.5907 -87.9813,-1.42109e-14 C-87.9813,-48.5907 -48.5907,-87.9813 0,-87.9813 C48.5907,-87.9813 87.9813,-48.5907 87.9813,-1.42109e-14 " fill-rule="evenodd"/>
   </g>
   <g stroke-width="1.3" transform="matrix(1,0,0,1,1485,186.54)" stroke-dashoffset="0" stroke-linecap="round" font-size="29.1042" fill="none" stroke-opacity="1" stroke-linejoin="bevel" stroke="#000000" stroke-dasharray="5.2,2.6" font-family="MS Shell Dlg 2" font-style="normal" font-weight="400">
    <path vector-effect="none" d="M44.6657,-7.10543e-15 C44.6657,24.6682 24.6682,44.6657 0,44.6657 C-24.6682,44.6657 -44.6657,24.6682 -44.6657,-7.10543e-15 C-44.6657,-24.6682 -24.6682,-44.6657 0,-44.6657 C24.6682,-44.6657 44.6657,-24.6682 44.6657,-7.10543e-15 " fill-rule="evenodd"/>
   </g>
   <g stroke-width="1.3" transform="matrix(1,0,0,1,1485,186.54)" stroke-dashoffset="0" stroke-linecap="round" font-size="29.1042" fill="none" stroke-opacity="1" stroke-linejoin="bevel" stroke="#000000" stroke-dasharray="5.2,2.6" font-family="MS Shell Dlg 2" font-style="normal" font-weight="400">
    <path vector-effect="none" d="M44.6657,-7.10543e-15 C44.6657,24.6682 24.6682,44.6657 0,44.6657 C-24.6682,44.6657 -44.6657,24.6682 -44.6657,-7.10543e-15 C-44.6657,-24.6682 -24.6682,-44.6657 0,-44.6657 C24.6682,-44.6657 44.6657,-24.6682 44.6657,-7.10543e-15 " fill-rule="evenodd"/>
   </g>
   <g stroke-width="1.3" transform="matrix(1,0,0,1,1485,186.54)" stroke-dashoffset="0" stroke-linecap="round" font-size="29.1042" fill="none" stroke-opacity="1" stroke-linejoin="bevel" stroke="#000000" stroke-dasharray="5.2,2.6" font-family="MS Shell Dlg 2" font-style="normal" font-weight="400">
    <path vector-effect="none" d="M87.9813,-1.42109e-14 C87.9813,48.5907 48.5907,87.9813 0,87.9813 C-48.5907,87.9813 -87.9813,48.5907 -87.9813,-1.42109e-14 C-87.9813,-48.5907 -48.5907,-87.9813 0,-87.9813 C48.5907,-87.9813 87.9813,-48.5907 87.9813,-1.42109e-14 " fill-rule="evenodd"/>
   </g>
   <g stroke-width="2.5" transform="matrix(1,0,0,1,1485,186.54)" stroke-linecap="round" font-size="29.1042" fill="none" stroke-opacity="1" stroke-linejoin="bevel" stroke="#000000" font-family="MS Shell Dlg 2" font-style="normal" font-weight="400">
    <path vector-effect="none" d="M87.9813,-1.42109e-14 C87.9813,48.5907 48.5907,87.9813 0,87.9813 C-48.5907,87.9813 -87.9813,48.5907 -87.9813,-1.42109e-14 C-87.9813,-48.5907 -48.5907,-87.9813 0,-87.9813 C48.5907,-87.9813 87.9813,-48.5907 87.9813,-1.42109e-14 " fill-rule="evenodd"/>
   </g>
   <g transform="matrix(1,0,0,1,1810.96,1050)" font-size="29.1042" fill="#ffffff" stroke="none" font-family="MS Shell Dlg 2" font-style="normal" fill-opacity="1" font-weight="400">
    <path vector-effect="non-scaling-stroke" d="M-87.9813,625.162 L-1.86223e-14,625.162 L87.9813,625.162 L87.9813,-268.152 L87.4281,-268.152 L85.7754,-268.152 L83.0441,-268.152 L79.2684,-268.152 L74.4959,-268.152 L68.7866,-268.152 L62.2122,-268.152 L54.8554,-268.152 L46.8089,-268.152 L44.6657,-268.152 L44.6657,-625.478 L-44.6657,-625.478 L-44.6657,-268.152 L-46.8089,-268.152 L-54.8554,-268.152 L-62.2122,-268.152 L-68.7866,-268.152 L-74.4959,-268.152 L-79.2684,-268.152 L-83.0441,-268.152 L-85.7754,-268.152 L-87.4281,-268.152 L-87.9813,-268.152 L-87.9813,625.162" fill-rule="evenodd"/>
   </g>
   <g transform="matrix(1,0,0,1,1810.96,1050)" font-size="29.1042" fill="#ffffff" stroke="none" font-family="MS Shell Dlg 2" font-style="normal" fill-opacity="1" font-weight="400">
    <path vector-effect="non-scaling-stroke" d="M-87.9813,625.162 L-1.86223e-14,625.162 L87.9813,625.162 L87.9813,-268.152 L87.4281,-268.152 L85.7754,-268.152 L83.0441,-268.152 L79.2684,-268.152 L74.4959,-268.152 L68.7866,-268.152 L62.2122,-268.152 L54.8554,-268.152 L46.8089,-268.152 L44.6657,-268.152 L38.1737,-268.152 L29.0584,-268.152 L19.5777,-268.152 L9.85078,-268.152 L-7.77156e-15,-268.152 L-2.94209e-14,-268.152 L-9.85078,-268.152 L-19.5777,-268.152 L-29.0584,-268.152 L-38.1737,-268.152 L-44.6657,-268.152 L-46.8089,-268.152 L-54.8554,-268.152 L-62.2122,-268.152 L-68.7866,-268.152 L-74.4959,-268.152 L-79.2684,-268.152 L-83.0441,-268.152 L-85.7754,-268.152 L-87.4281,-268.152 L-87.9813,-268.152 L-87.9813,625.162" fill-rule="evenodd"/>
   </g>
   <g transform="matrix(1,0,0,1,1810.96,1050)" font-size="29.1042" fill="#ffffff" stroke="none" font-family="MS Shell Dlg 2" font-style="normal" fill-opacity="1" font-weight="400">
    <path vector-effect="non-scaling-stroke" d="M-44.6657,-268.152 L-38.1737,-268.152 L-29.0584,-268.152 L-19.5777,-268.152 L-9.85078,-268.152 L-2.94209e-14,-268.152 L-7.77156e-15,-268.152 L9.85078,-268.152 L19.5777,-268.152 L29.0584,-268.152 L38.1737,-268.152 L44.6657,-268.152 L44.6657,-625.478 L-44.6657,-625.478 L-44.6657,-268.152" fill-rule="evenodd"/>
   </g>
   <g stroke-width="1.3" transform="matrix(1,0,0,1,1810.96,1050)" stroke-dashoffset="0" stroke-linecap="round" font-size="29.1042" fill="none" stroke-opacity="1" stroke-linejoin="bevel" stroke="#000000" stroke-dasharray="5.2,2.6" font-family="MS Shell Dlg 2" font-style="normal" font-weight="400">
    <path vector-effect="none" d="M2.31236e-14,-625.478 L-44.6657,-625.478" fill-rule="evenodd"/>
   </g>
   <g stroke-width="1.3" transform="matrix(1,0,0,1,1810.96,1050)" stroke-dashoffset="0" stroke-linecap="round" font-size="29.1042" fill="none" stroke-opacity="1" stroke-linejoin="bevel" stroke="#000000" stroke-dasharray="5.2,2.6" font-family="MS Shell Dlg 2" font-style="normal" font-weight="400">
    <path vector-effect="none" d="M44.6657,-625.478 L3.40636e-14,-625.478" fill-rule="evenodd"/>
   </g>
   <g stroke-width="1.3" transform="matrix(1,0,0,1,1810.96,1050)" stroke-dashoffset="0" stroke-linecap="round" font-size="29.1042" fill="none" stroke-opacity="1" stroke-linejoin="bevel" stroke="#000000" stroke-dasharray="5.2,2.6" font-family="MS Shell Dlg 2" font-style="normal" font-weight="400">
    <path vector-effect="none" d="M1.21837e-14,-268.152 L44.6657,-268.152" fill-rule="evenodd"/>
   </g>
   <g stroke-width="1.3" transform="matrix(1,0,0,1,1810.96,1050)" stroke-dashoffset="0" stroke-linecap="round" font-size="29.1042" fill="none" stroke-opacity="1" stroke-linejoin="bevel" stroke="#000000" stroke-dasharray="5.2,2.6" font-family="MS Shell Dlg 2" font-style="normal" font-weight="400">
    <path vector-effect="none" d="M44.6657,-268.152 L-44.6657,-268.152" fill-rule="evenodd"/>
   </g>
   <g stroke-width="1.3" transform="matrix(1,0,0,1,1810.96,1050)" stroke-dashoffset="0" stroke-linecap="round" font-size="29.1042" fill="none" stroke-opacity="1" stroke-linejoin="bevel" stroke="#000000" stroke-dasharray="5.2,2.6" font-family="MS Shell Dlg 2" font-style="normal" font-weight="400">
    <path vector-effect="none" d="M-44.6657,-268.152 L1.24373e-15,-268.152" fill-rule="evenodd"/>
   </g>
   <g stroke-width="1.3" transform="matrix(1,0,0,1,1810.96,1050)" stroke-dashoffset="0" stroke-linecap="round" font-size="29.1042" fill="none" stroke-opacity="1" stroke-linejoin="bevel" stroke="#000000" stroke-dasharray="5.2,2.6" font-family="MS Shell Dlg 2" font-style="normal" font-weight="400">
    <path vector-effect="none" d="M87.9813,-268.152 L-87.9813,-268.152" fill-rule="evenodd"/>
   </g>
   <g stroke-width="1.3" transform="matrix(1,0,0,1,1810.96,1050)" stroke-dashoffset="0" stroke-linecap="round" font-size="29.1042" fill="none" stroke-opacity="1" stroke-linejoin="bevel" stroke="#000000" stroke-dasharray="5.2,2.6" font-family="MS Shell Dlg 2" font-style="normal" font-weight="400">
    <path vector-effect="none" d="M87.9813,625.162 L-87.9813,625.162" fill-rule="evenodd"/>
   </g>
   <g stroke-width="2.5" transform="matrix(1,0,0,1,1810.96,1050)" stroke-linecap="round" font-size="29.1042" fill="none" stroke-opacity="1" stroke-linejoin="bevel" stroke="#000000" font-family="MS Shell Dlg 2" font-style="normal" font-weight="400">
    <path vector-effect="none" d="M-44.6657,-625.478 L44.6657,-625.478" fill-rule="evenodd"/>
   </g>
   <g stroke-width="2.5" transform="matrix(1,0,0,1,1810.96,1050)" stroke-linecap="round" font-size="29.1042" fill="none" stroke-opacity="1" stroke-linejoin="bevel" stroke="#000000" font-family="MS Shell Dlg 2" font-style="normal" font-weight="400">
    <path vector-effect="none" d="M-7.84772e-15,-268.152 L87.9813,-268.152" fill-rule="evenodd"/>
   </g>
   <g stroke-width="2.5" transform="matrix(1,0,0,1,1810.96,1050)" stroke-linecap="round" font-size="29.1042" fill="none" stroke-opacity="1" stroke-linejoin="bevel" stroke="#000000" font-family="MS Shell Dlg 2" font-style="normal" font-weight="400">
    <path vector-effect="none" d="M-87.9813,-268.152 L-2.93969e-14,-268.152" fill-rule="evenodd"/>
   </g>
   <g stroke-width="2.5" transform="matrix(1,0,0,1,1810.96,1050)" stroke-linecap="round" font-size="29.1042" fill="none" stroke-opacity="1" stroke-linejoin="bevel" stroke="#000000" font-family="MS Shell Dlg 2" font-style="normal" font-weight="400">
    <path vector-effect="none" d="M-7.84772e-15,625.162 L87.9813,625.162" fill-rule="evenodd"/>
   </g>
   <g stroke-width="2.5" transform="matrix(1,0,0,1,1810.96,1050)" stroke-linecap="round" font-size="29.1042" fill="none" stroke-opacity="1" stroke-linejoin="bevel" stroke="#000000" font-family="MS Shell Dlg 2" font-style="normal" font-weight="400">
    <path vector-effect="none" d="M-87.9813,625.162 L-2.93969e-14,625.162" fill-rule="evenodd"/>
   </g>
   <g stroke-width="2.5" transform="matrix(1,0,0,1,1810.96,1050)" stroke-linecap="round" font-size="29.1042" fill="none" stroke-opacity="1" stroke-linejoin="bevel" stroke="#000000" font-family="MS Shell Dlg 2" font-style="normal" font-weight="400">
    <path vector-effect="none" d="M44.6657,-268.152 L44.6657,-625.478" fill-rule="evenodd"/>
   </g>
   <g stroke-width="2.5" transform="matrix(1,0,0,1,1810.96,1050)" stroke-linecap="round" font-size="29.1042" fill="none" stroke-opacity="1" stroke-linejoin="bevel" stroke="#000000" font-family="MS Shell Dlg 2" font-style="normal" font-weight="400">
    <path vector-effect="none" d="M-44.6657,-268.152 L-44.6657,-625.478" fill-rule="evenodd"/>
   </g>
   <g stroke-width="2.5" transform="matrix(1,0,0,1,1810.96,1050)" stroke-linecap="round" font-size="29.1042" fill="none" stroke-opacity="1" stroke-linejoin="bevel" stroke="#000000" font-family="MS Shell Dlg 2" font-style="normal" font-weight="400">
    <path vector-effect="none" d="M87.9813,625.162 L87.9813,-268.152" fill-rule="evenodd"/>
   </g>
   <g stroke-width="2.5" transform="matrix(1,0,0,1,1810.96,1050)" stroke-linecap="round" font-size="29.1042" fill="none" stroke-opacity="1" stroke-linejoin="bevel" stroke="#000000" font-family="MS Shell Dlg 2" font-style="normal" font-weight="400">
    <path vector-effect="none" d="M-87.9813,625.162 L-87.9813,-268.152" fill-rule="evenodd"/>
   </g>
  </g>
 </g>
</svg>
