<?xml version='1.0' encoding='UTF-8' standalone='no'?>
<svg width="297mm" height="210mm" xmlns:xlink="http://www.w3.org/1999/xlink" baseProfile="tiny" xmlns:svg="http://www.w3.org/2000/svg" version="1.2" xmlns:cc="http://creativecommons.org/ns#" xmlns:sodipodi="http://sodipodi.sourceforge.net/DTD/sodipodi-0.dtd" xmlns:dc="http://purl.org/dc/elements/1.1/" xmlns:rdf="http://www.w3.org/1999/02/22-rdf-syntax-ns#" xmlns:freecad="http://www.freecadweb.org/wiki/index.php?title=Svg_Namespace" xmlns:inkscape="http://www.inkscape.org/namespaces/inkscape" xmlns="http://www.w3.org/2000/svg" viewBox="0 0 5000 3000">
 <title>FreeCAD SVG Export</title>
 <desc>Drawing page: Page exported from FreeCAD document: Unnamed</desc>
 <defs/>
 <g inkscape:groupmode="layer" id="Page" inkscape:label="TechDraw">
  <g stroke-width="1" stroke-linecap="square" fill="none" stroke-linejoin="bevel" id="DrawingContent" stroke="black" fill-rule="evenodd">
   <g stroke-width="1" transform="matrix(1,0,0,1,1485,1050)" stroke-linecap="square" font-size="29.1042" fill="none" stroke-opacity="1" stroke-linejoin="bevel" stroke="#000000" font-family="MS Shell Dlg 2" font-style="normal" font-weight="400">
    <rect x="0" width="0" height="0" y="0"/>
   </g>
   <g transform="matrix(1,0,0,1,1485,1050)" font-size="29.1042" fill="#ffffff" stroke="none" font-family="MS Shell Dlg 2" font-style="normal" fill-opacity="1" font-weight="400">
    <path vector-effect="non-scaling-stroke" d="M104.348,2.84217e-14 C104.348,57.6297 57.6297,104.348 0,104.348 C-57.6297,104.348 -104.348,57.6297 -104.348,2.84217e-14 C-104.348,-57.6297 -57.6297,-104.348 0,-104.348 C57.6297,-104.348 104.348,-57.6297 104.348,2.84217e-14 " fill-rule="evenodd"/>
   </g>
   <g transform="matrix(1,0,0,1,1485,1050)" font-size="29.1042" fill="#ffffff" stroke="none" font-family="MS Shell Dlg 2" font-style="normal" fill-opacity="1" font-weight="400">
    <path vector-effect="non-scaling-stroke" d="M52.1739,2.84217e-14 C52.1739,28.8149 28.8149,52.1739 0,52.1739 C-28.8149,52.1739 -52.1739,28.8149 -52.1739,2.84217e-14 C-52.1739,-28.8149 -28.8149,-52.1739 0,-52.1739 C28.8149,-52.1739 52.1739,-28.8149 52.1739,2.84217e-14 " fill-rule="evenodd"/>
   </g>
   <g stroke-width="1.3" transform="matrix(1,0,0,1,1485,1050)" stroke-dashoffset="0" stroke-linecap="round" font-size="29.1042" fill="none" stroke-opacity="1" stroke-linejoin="bevel" stroke="#000000" stroke-dasharray="5.2,2.6" font-family="MS Shell Dlg 2" font-style="normal" font-weight="400">
    <path vector-effect="none" d="M52.1739,2.84217e-14 C52.1739,28.8149 28.8149,52.1739 0,52.1739 C-28.8149,52.1739 -52.1739,28.8149 -52.1739,2.84217e-14 C-52.1739,-28.8149 -28.8149,-52.1739 0,-52.1739 C28.8149,-52.1739 52.1739,-28.8149 52.1739,2.84217e-14 " fill-rule="evenodd"/>
   </g>
   <g stroke-width="1.3" transform="matrix(1,0,0,1,1485,1050)" stroke-dashoffset="0" stroke-linecap="round" font-size="29.1042" fill="none" stroke-opacity="1" stroke-linejoin="bevel" stroke="#000000" stroke-dasharray="5.2,2.6" font-family="MS Shell Dlg 2" font-style="normal" font-weight="400">
    <path vector-effect="none" d="M104.348,2.84217e-14 C104.348,57.6297 57.6297,104.348 0,104.348 C-57.6297,104.348 -104.348,57.6297 -104.348,2.84217e-14 C-104.348,-57.6297 -57.6297,-104.348 0,-104.348 C57.6297,-104.348 104.348,-57.6297 104.348,2.84217e-14 " fill-rule="evenodd"/>
   </g>
   <g stroke-width="2.5" transform="matrix(1,0,0,1,1485,1050)" stroke-linecap="round" font-size="29.1042" fill="none" stroke-opacity="1" stroke-linejoin="bevel" stroke="#000000" font-family="MS Shell Dlg 2" font-style="normal" font-weight="400">
    <path vector-effect="none" d="M52.1739,2.84217e-14 C52.1739,28.8149 28.8149,52.1739 0,52.1739 C-28.8149,52.1739 -52.1739,28.8149 -52.1739,2.84217e-14 C-52.1739,-28.8149 -28.8149,-52.1739 0,-52.1739 C28.8149,-52.1739 52.1739,-28.8149 52.1739,2.84217e-14 " fill-rule="evenodd"/>
   </g>
   <g stroke-width="2.5" transform="matrix(1,0,0,1,1485,1050)" stroke-linecap="round" font-size="29.1042" fill="none" stroke-opacity="1" stroke-linejoin="bevel" stroke="#000000" font-family="MS Shell Dlg 2" font-style="normal" font-weight="400">
    <path vector-effect="none" d="M104.348,2.84217e-14 C104.348,57.6297 57.6297,104.348 0,104.348 C-57.6297,104.348 -104.348,57.6297 -104.348,2.84217e-14 C-104.348,-57.6297 -57.6297,-104.348 0,-104.348 C57.6297,-104.348 104.348,-57.6297 104.348,2.84217e-14 " fill-rule="evenodd"/>
   </g>
   <g transform="matrix(1,0,0,1,1485,-195.462)" font-size="29.1042" fill="#ffffff" stroke="none" font-family="MS Shell Dlg 2" font-style="normal" fill-opacity="1" font-weight="400">
    <path vector-effect="non-scaling-stroke" d="M-104.348,495.462 L-104.348,547.636 L104.348,547.636 L104.348,495.462 L101.732,495.462 L94.0141,495.462 L81.5824,495.462 L65.0598,495.462 L52.1739,495.462 L52.1739,-548.016 L-52.1739,-548.016 L-52.1739,495.462 L-65.0598,495.462 L-81.5824,495.462 L-94.0141,495.462 L-101.732,495.462 L-104.348,495.462" fill-rule="evenodd"/>
   </g>
   <g transform="matrix(1,0,0,1,1485,-195.462)" font-size="29.1042" fill="#ffffff" stroke="none" font-family="MS Shell Dlg 2" font-style="normal" fill-opacity="1" font-weight="400">
    <path vector-effect="non-scaling-stroke" d="M-52.1739,-548.016 L-52.1739,495.462 L-45.2748,495.462 L-23.2196,495.462 L-1.77636e-14,495.462 L23.2196,495.462 L45.2748,495.462 L52.1739,495.462 L52.1739,-548.016 L-52.1739,-548.016" fill-rule="evenodd"/>
   </g>
   <g transform="matrix(1,0,0,1,1485,-195.462)" font-size="29.1042" fill="#ffffff" stroke="none" font-family="MS Shell Dlg 2" font-style="normal" fill-opacity="1" font-weight="400">
    <path vector-effect="non-scaling-stroke" d="M-104.348,495.462 L-104.348,547.636 L104.348,547.636 L104.348,495.462 L101.732,495.462 L94.0141,495.462 L81.5824,495.462 L65.0598,495.462 L52.1739,495.462 L45.2748,495.462 L23.2196,495.462 L-1.77636e-14,495.462 L-23.2196,495.462 L-45.2748,495.462 L-52.1739,495.462 L-65.0598,495.462 L-81.5824,495.462 L-94.0141,495.462 L-101.732,495.462 L-104.348,495.462" fill-rule="evenodd"/>
   </g>
   <g stroke-width="1.3" transform="matrix(1,0,0,1,1485,-195.462)" stroke-dashoffset="0" stroke-linecap="round" font-size="29.1042" fill="none" stroke-opacity="1" stroke-linejoin="bevel" stroke="#000000" stroke-dasharray="5.2,2.6" font-family="MS Shell Dlg 2" font-style="normal" font-weight="400">
    <path vector-effect="none" d="M52.1739,-548.016 L-52.1739,-548.016" fill-rule="evenodd"/>
   </g>
   <g stroke-width="1.3" transform="matrix(1,0,0,1,1485,-195.462)" stroke-dashoffset="0" stroke-linecap="round" font-size="29.1042" fill="none" stroke-opacity="1" stroke-linejoin="bevel" stroke="#000000" stroke-dasharray="5.2,2.6" font-family="MS Shell Dlg 2" font-style="normal" font-weight="400">
    <path vector-effect="none" d="M-52.1739,495.462 L52.1739,495.462" fill-rule="evenodd"/>
   </g>
   <g stroke-width="1.3" transform="matrix(1,0,0,1,1485,-195.462)" stroke-dashoffset="0" stroke-linecap="round" font-size="29.1042" fill="none" stroke-opacity="1" stroke-linejoin="bevel" stroke="#000000" stroke-dasharray="5.2,2.6" font-family="MS Shell Dlg 2" font-style="normal" font-weight="400">
    <path vector-effect="none" d="M52.1739,495.462 L-52.1739,495.462" fill-rule="evenodd"/>
   </g>
   <g stroke-width="1.3" transform="matrix(1,0,0,1,1485,-195.462)" stroke-dashoffset="0" stroke-linecap="round" font-size="29.1042" fill="none" stroke-opacity="1" stroke-linejoin="bevel" stroke="#000000" stroke-dasharray="5.2,2.6" font-family="MS Shell Dlg 2" font-style="normal" font-weight="400">
    <path vector-effect="none" d="M104.348,495.462 L-104.348,495.462" fill-rule="evenodd"/>
   </g>
   <g stroke-width="1.3" transform="matrix(1,0,0,1,1485,-195.462)" stroke-dashoffset="0" stroke-linecap="round" font-size="29.1042" fill="none" stroke-opacity="1" stroke-linejoin="bevel" stroke="#000000" stroke-dasharray="5.2,2.6" font-family="MS Shell Dlg 2" font-style="normal" font-weight="400">
    <path vector-effect="none" d="M104.348,547.636 L-104.348,547.636" fill-rule="evenodd"/>
   </g>
   <g stroke-width="2.5" transform="matrix(1,0,0,1,1485,-195.462)" stroke-linecap="round" font-size="29.1042" fill="none" stroke-opacity="1" stroke-linejoin="bevel" stroke="#000000" font-family="MS Shell Dlg 2" font-style="normal" font-weight="400">
    <path vector-effect="none" d="M-52.1739,-548.016 L52.1739,-548.016" fill-rule="evenodd"/>
   </g>
   <g stroke-width="2.5" transform="matrix(1,0,0,1,1485,-195.462)" stroke-linecap="round" font-size="29.1042" fill="none" stroke-opacity="1" stroke-linejoin="bevel" stroke="#000000" font-family="MS Shell Dlg 2" font-style="normal" font-weight="400">
    <path vector-effect="none" d="M-52.1739,-548.016 L-52.1739,495.462" fill-rule="evenodd"/>
   </g>
   <g stroke-width="2.5" transform="matrix(1,0,0,1,1485,-195.462)" stroke-linecap="round" font-size="29.1042" fill="none" stroke-opacity="1" stroke-linejoin="bevel" stroke="#000000" font-family="MS Shell Dlg 2" font-style="normal" font-weight="400">
    <path vector-effect="none" d="M-104.348,495.462 L104.348,495.462" fill-rule="evenodd"/>
   </g>
   <g stroke-width="2.5" transform="matrix(1,0,0,1,1485,-195.462)" stroke-linecap="round" font-size="29.1042" fill="none" stroke-opacity="1" stroke-linejoin="bevel" stroke="#000000" font-family="MS Shell Dlg 2" font-style="normal" font-weight="400">
    <path vector-effect="none" d="M-104.348,495.462 L-104.348,547.636" fill-rule="evenodd"/>
   </g>
   <g stroke-width="2.5" transform="matrix(1,0,0,1,1485,-195.462)" stroke-linecap="round" font-size="29.1042" fill="none" stroke-opacity="1" stroke-linejoin="bevel" stroke="#000000" font-family="MS Shell Dlg 2" font-style="normal" font-weight="400">
    <path vector-effect="none" d="M-104.348,547.636 L104.348,547.636" fill-rule="evenodd"/>
   </g>
   <g stroke-width="2.5" transform="matrix(1,0,0,1,1485,-195.462)" stroke-linecap="round" font-size="29.1042" fill="none" stroke-opacity="1" stroke-linejoin="bevel" stroke="#000000" font-family="MS Shell Dlg 2" font-style="normal" font-weight="400">
    <path vector-effect="none" d="M52.1739,495.462 L52.1739,-548.016" fill-rule="evenodd"/>
   </g>
   <g stroke-width="2.5" transform="matrix(1,0,0,1,1485,-195.462)" stroke-linecap="round" font-size="29.1042" fill="none" stroke-opacity="1" stroke-linejoin="bevel" stroke="#000000" font-family="MS Shell Dlg 2" font-style="normal" font-weight="400">
    <path vector-effect="none" d="M104.348,547.636 L104.348,495.462" fill-rule="evenodd"/>
   </g>
   <g transform="matrix(1,0,0,1,2730.46,1050)" font-size="29.1042" fill="#ffffff" stroke="none" font-family="MS Shell Dlg 2" font-style="normal" fill-opacity="1" font-weight="400">
    <path vector-effect="non-scaling-stroke" d="M-547.636,-104.348 L-495.462,-104.348 L-495.462,-103.692 L-495.462,-101.732 L-495.462,-98.4922 L-495.462,-94.0141 L-495.462,-88.3538 L-495.462,-81.5824 L-495.462,-73.7851 L-495.462,-65.0598 L-495.462,-55.5164 L-495.462,-52.1739 L548.016,-52.1739 L548.016,1.03909e-14 L548.016,52.1739 L-495.462,52.1739 L-495.462,55.5164 L-495.462,65.0598 L-495.462,73.7851 L-495.462,81.5824 L-495.462,88.3538 L-495.462,94.0141 L-495.462,98.4922 L-495.462,101.732 L-495.462,103.692 L-495.462,104.348 L-547.636,104.348 L-547.636,-2.38797e-15 L-547.636,-104.348" fill-rule="evenodd"/>
   </g>
   <g transform="matrix(1,0,0,1,2730.46,1050)" font-size="29.1042" fill="#ffffff" stroke="none" font-family="MS Shell Dlg 2" font-style="normal" fill-opacity="1" font-weight="400">
    <path vector-effect="non-scaling-stroke" d="M-495.462,-52.1739 L548.016,-52.1739 L548.016,1.03909e-14 L548.016,52.1739 L-495.462,52.1739 L-495.462,45.2748 L-495.462,34.4639 L-495.462,23.2196 L-495.462,11.6832 L-495.462,1.11022e-14 L-495.462,-1.55431e-14 L-495.462,-11.6832 L-495.462,-23.2196 L-495.462,-34.4639 L-495.462,-45.2748 L-495.462,-52.1739" fill-rule="evenodd"/>
   </g>
   <g transform="matrix(1,0,0,1,2730.46,1050)" font-size="29.1042" fill="#ffffff" stroke="none" font-family="MS Shell Dlg 2" font-style="normal" fill-opacity="1" font-weight="400">
    <path vector-effect="non-scaling-stroke" d="M-547.636,-104.348 L-495.462,-104.348 L-495.462,-103.692 L-495.462,-101.732 L-495.462,-98.4922 L-495.462,-94.0141 L-495.462,-88.3538 L-495.462,-81.5824 L-495.462,-73.7851 L-495.462,-65.0598 L-495.462,-55.5164 L-495.462,-52.1739 L-495.462,-45.2748 L-495.462,-34.4639 L-495.462,-23.2196 L-495.462,-11.6832 L-495.462,-1.55431e-14 L-495.462,1.11022e-14 L-495.462,11.6832 L-495.462,23.2196 L-495.462,34.4639 L-495.462,45.2748 L-495.462,52.1739 L-495.462,55.5164 L-495.462,65.0598 L-495.462,73.7851 L-495.462,81.5824 L-495.462,88.3538 L-495.462,94.0141 L-495.462,98.4922 L-495.462,101.732 L-495.462,103.692 L-495.462,104.348 L-547.636,104.348 L-547.636,-2.38797e-15 L-547.636,-104.348" fill-rule="evenodd"/>
   </g>
   <g stroke-width="1.3" transform="matrix(1,0,0,1,2730.46,1050)" stroke-dashoffset="0" stroke-linecap="round" font-size="29.1042" fill="none" stroke-opacity="1" stroke-linejoin="bevel" stroke="#000000" stroke-dasharray="5.2,2.6" font-family="MS Shell Dlg 2" font-style="normal" font-weight="400">
    <path vector-effect="none" d="M548.016,52.1739 L548.016,-52.1739" fill-rule="evenodd"/>
   </g>
   <g stroke-width="1.3" transform="matrix(1,0,0,1,2730.46,1050)" stroke-dashoffset="0" stroke-linecap="round" font-size="29.1042" fill="none" stroke-opacity="1" stroke-linejoin="bevel" stroke="#000000" stroke-dasharray="5.2,2.6" font-family="MS Shell Dlg 2" font-style="normal" font-weight="400">
    <path vector-effect="none" d="M-495.462,2.95593e-14 L-495.462,-52.1739" fill-rule="evenodd"/>
   </g>
   <g stroke-width="1.3" transform="matrix(1,0,0,1,2730.46,1050)" stroke-dashoffset="0" stroke-linecap="round" font-size="29.1042" fill="none" stroke-opacity="1" stroke-linejoin="bevel" stroke="#000000" stroke-dasharray="5.2,2.6" font-family="MS Shell Dlg 2" font-style="normal" font-weight="400">
    <path vector-effect="none" d="M-495.462,-52.1739 L-495.462,52.1739" fill-rule="evenodd"/>
   </g>
   <g stroke-width="1.3" transform="matrix(1,0,0,1,2730.46,1050)" stroke-dashoffset="0" stroke-linecap="round" font-size="29.1042" fill="none" stroke-opacity="1" stroke-linejoin="bevel" stroke="#000000" stroke-dasharray="5.2,2.6" font-family="MS Shell Dlg 2" font-style="normal" font-weight="400">
    <path vector-effect="none" d="M-495.462,52.1739 L-495.462,4.23383e-14" fill-rule="evenodd"/>
   </g>
   <g stroke-width="1.3" transform="matrix(1,0,0,1,2730.46,1050)" stroke-dashoffset="0" stroke-linecap="round" font-size="29.1042" fill="none" stroke-opacity="1" stroke-linejoin="bevel" stroke="#000000" stroke-dasharray="5.2,2.6" font-family="MS Shell Dlg 2" font-style="normal" font-weight="400">
    <path vector-effect="none" d="M-495.462,104.348 L-495.462,-104.348" fill-rule="evenodd"/>
   </g>
   <g stroke-width="1.3" transform="matrix(1,0,0,1,2730.46,1050)" stroke-dashoffset="0" stroke-linecap="round" font-size="29.1042" fill="none" stroke-opacity="1" stroke-linejoin="bevel" stroke="#000000" stroke-dasharray="5.2,2.6" font-family="MS Shell Dlg 2" font-style="normal" font-weight="400">
    <path vector-effect="none" d="M-547.636,104.348 L-547.636,-104.348" fill-rule="evenodd"/>
   </g>
   <g stroke-width="2.5" transform="matrix(1,0,0,1,2730.46,1050)" stroke-linecap="round" font-size="29.1042" fill="none" stroke-opacity="1" stroke-linejoin="bevel" stroke="#000000" font-family="MS Shell Dlg 2" font-style="normal" font-weight="400">
    <path vector-effect="none" d="M548.016,1.67804e-14 L548.016,52.1739" fill-rule="evenodd"/>
   </g>
   <g stroke-width="2.5" transform="matrix(1,0,0,1,2730.46,1050)" stroke-linecap="round" font-size="29.1042" fill="none" stroke-opacity="1" stroke-linejoin="bevel" stroke="#000000" font-family="MS Shell Dlg 2" font-style="normal" font-weight="400">
    <path vector-effect="none" d="M548.016,-52.1739 L548.016,4.00149e-15" fill-rule="evenodd"/>
   </g>
   <g stroke-width="2.5" transform="matrix(1,0,0,1,2730.46,1050)" stroke-linecap="round" font-size="29.1042" fill="none" stroke-opacity="1" stroke-linejoin="bevel" stroke="#000000" font-family="MS Shell Dlg 2" font-style="normal" font-weight="400">
    <path vector-effect="none" d="M-495.462,1.03909e-14 L-495.462,104.348" fill-rule="evenodd"/>
   </g>
   <g stroke-width="2.5" transform="matrix(1,0,0,1,2730.46,1050)" stroke-linecap="round" font-size="29.1042" fill="none" stroke-opacity="1" stroke-linejoin="bevel" stroke="#000000" font-family="MS Shell Dlg 2" font-style="normal" font-weight="400">
    <path vector-effect="none" d="M-495.462,-104.348 L-495.462,-1.51669e-14" fill-rule="evenodd"/>
   </g>
   <g stroke-width="2.5" transform="matrix(1,0,0,1,2730.46,1050)" stroke-linecap="round" font-size="29.1042" fill="none" stroke-opacity="1" stroke-linejoin="bevel" stroke="#000000" font-family="MS Shell Dlg 2" font-style="normal" font-weight="400">
    <path vector-effect="none" d="M-547.636,1.03909e-14 L-547.636,104.348" fill-rule="evenodd"/>
   </g>
   <g stroke-width="2.5" transform="matrix(1,0,0,1,2730.46,1050)" stroke-linecap="round" font-size="29.1042" fill="none" stroke-opacity="1" stroke-linejoin="bevel" stroke="#000000" font-family="MS Shell Dlg 2" font-style="normal" font-weight="400">
    <path vector-effect="none" d="M-547.636,-104.348 L-547.636,-1.51669e-14" fill-rule="evenodd"/>
   </g>
   <g stroke-width="2.5" transform="matrix(1,0,0,1,2730.46,1050)" stroke-linecap="round" font-size="29.1042" fill="none" stroke-opacity="1" stroke-linejoin="bevel" stroke="#000000" font-family="MS Shell Dlg 2" font-style="normal" font-weight="400">
    <path vector-effect="none" d="M-495.462,52.1739 L548.016,52.1739" fill-rule="evenodd"/>
   </g>
   <g stroke-width="2.5" transform="matrix(1,0,0,1,2730.46,1050)" stroke-linecap="round" font-size="29.1042" fill="none" stroke-opacity="1" stroke-linejoin="bevel" stroke="#000000" font-family="MS Shell Dlg 2" font-style="normal" font-weight="400">
    <path vector-effect="none" d="M-495.462,-52.1739 L548.016,-52.1739" fill-rule="evenodd"/>
   </g>
   <g stroke-width="2.5" transform="matrix(1,0,0,1,2730.46,1050)" stroke-linecap="round" font-size="29.1042" fill="none" stroke-opacity="1" stroke-linejoin="bevel" stroke="#000000" font-family="MS Shell Dlg 2" font-style="normal" font-weight="400">
    <path vector-effect="none" d="M-547.636,104.348 L-495.462,104.348" fill-rule="evenodd"/>
   </g>
   <g stroke-width="2.5" transform="matrix(1,0,0,1,2730.46,1050)" stroke-linecap="round" font-size="29.1042" fill="none" stroke-opacity="1" stroke-linejoin="bevel" stroke="#000000" font-family="MS Shell Dlg 2" font-style="normal" font-weight="400">
    <path vector-effect="none" d="M-547.636,-104.348 L-495.462,-104.348" fill-rule="evenodd"/>
   </g>
  </g>
 </g>
</svg>
