<?xml version='1.0' encoding='UTF-8' standalone='no'?>
<svg width="297mm" height="210mm" xmlns:xlink="http://www.w3.org/1999/xlink" baseProfile="tiny" xmlns:svg="http://www.w3.org/2000/svg" version="1.2" xmlns:cc="http://creativecommons.org/ns#" xmlns:sodipodi="http://sodipodi.sourceforge.net/DTD/sodipodi-0.dtd" xmlns:dc="http://purl.org/dc/elements/1.1/" xmlns:rdf="http://www.w3.org/1999/02/22-rdf-syntax-ns#" xmlns:freecad="http://www.freecadweb.org/wiki/index.php?title=Svg_Namespace" xmlns:inkscape="http://www.inkscape.org/namespaces/inkscape" xmlns="http://www.w3.org/2000/svg" viewBox="0 0 5000 3000">
 <title>FreeCAD SVG Export</title>
 <desc>Drawing page: Page exported from FreeCAD document: Unnamed</desc>
 <defs/>
 <g inkscape:groupmode="layer" id="Page" inkscape:label="TechDraw">
  <g stroke-width="1" stroke-linecap="square" fill="none" stroke-linejoin="bevel" id="DrawingContent" stroke="black" fill-rule="evenodd">
   <g stroke-width="1" transform="matrix(1,0,0,1,1485,1050)" stroke-linecap="square" font-size="29.1042" fill="none" stroke-opacity="1" stroke-linejoin="bevel" stroke="#000000" font-family="MS Shell Dlg 2" font-style="normal" font-weight="400">
    <rect x="0" width="0" height="0" y="0"/>
   </g>
   <g transform="matrix(1,0,0,1,1485,1050)" font-size="29.1042" fill="#ffffff" stroke="none" font-family="MS Shell Dlg 2" font-style="normal" fill-opacity="1" font-weight="400">
    <path vector-effect="non-scaling-stroke" d="M-54.1074,-562.796 L-54.1074,692.495 L54.1074,692.495 L54.1074,-562.796 L52.7508,-562.796 L48.7491,-562.796 L42.3028,-562.796 L33.7354,-562.796 L32.4644,-562.796 L32.4644,-692.653 L-32.4644,-692.653 L-32.4644,-562.796 L-33.7354,-562.796 L-42.3028,-562.796 L-48.7491,-562.796 L-52.7508,-562.796 L-54.1074,-562.796" fill-rule="evenodd"/>
   </g>
   <g transform="matrix(1,0,0,1,1485,1050)" font-size="29.1042" fill="#ffffff" stroke="none" font-family="MS Shell Dlg 2" font-style="normal" fill-opacity="1" font-weight="400">
    <path vector-effect="non-scaling-stroke" d="M-54.1074,-562.796 L-54.1074,692.495 L54.1074,692.495 L54.1074,-562.796 L52.7508,-562.796 L48.7491,-562.796 L42.3028,-562.796 L33.7354,-562.796 L32.4644,-562.796 L23.4763,-562.796 L12.04,-562.796 L-8.88178e-15,-562.796 L-12.04,-562.796 L-23.4763,-562.796 L-32.4644,-562.796 L-33.7354,-562.796 L-42.3028,-562.796 L-48.7491,-562.796 L-52.7508,-562.796 L-54.1074,-562.796" fill-rule="evenodd"/>
   </g>
   <g transform="matrix(1,0,0,1,1485,1050)" font-size="29.1042" fill="#ffffff" stroke="none" font-family="MS Shell Dlg 2" font-style="normal" fill-opacity="1" font-weight="400">
    <path vector-effect="non-scaling-stroke" d="M-32.4644,-562.796 L-32.4644,-692.653 L32.4644,-692.653 L32.4644,-562.796 L23.4763,-562.796 L12.04,-562.796 L-8.88178e-15,-562.796 L-12.04,-562.796 L-23.4763,-562.796 L-32.4644,-562.796" fill-rule="evenodd"/>
   </g>
   <g stroke-width="1.3" transform="matrix(1,0,0,1,1485,1050)" stroke-dashoffset="0" stroke-linecap="round" font-size="29.1042" fill="none" stroke-opacity="1" stroke-linejoin="bevel" stroke="#000000" stroke-dasharray="5.2,2.6" font-family="MS Shell Dlg 2" font-style="normal" font-weight="400">
    <path vector-effect="none" d="M32.4644,-692.653 L-32.4644,-692.653" fill-rule="evenodd"/>
   </g>
   <g stroke-width="1.3" transform="matrix(1,0,0,1,1485,1050)" stroke-dashoffset="0" stroke-linecap="round" font-size="29.1042" fill="none" stroke-opacity="1" stroke-linejoin="bevel" stroke="#000000" stroke-dasharray="5.2,2.6" font-family="MS Shell Dlg 2" font-style="normal" font-weight="400">
    <path vector-effect="none" d="M32.4644,-562.796 L-32.4644,-562.796" fill-rule="evenodd"/>
   </g>
   <g stroke-width="1.3" transform="matrix(1,0,0,1,1485,1050)" stroke-dashoffset="0" stroke-linecap="round" font-size="29.1042" fill="none" stroke-opacity="1" stroke-linejoin="bevel" stroke="#000000" stroke-dasharray="5.2,2.6" font-family="MS Shell Dlg 2" font-style="normal" font-weight="400">
    <path vector-effect="none" d="M-32.4644,-562.796 L32.4644,-562.796" fill-rule="evenodd"/>
   </g>
   <g stroke-width="1.3" transform="matrix(1,0,0,1,1485,1050)" stroke-dashoffset="0" stroke-linecap="round" font-size="29.1042" fill="none" stroke-opacity="1" stroke-linejoin="bevel" stroke="#000000" stroke-dasharray="5.2,2.6" font-family="MS Shell Dlg 2" font-style="normal" font-weight="400">
    <path vector-effect="none" d="M54.1074,-562.796 L-54.1074,-562.796" fill-rule="evenodd"/>
   </g>
   <g stroke-width="1.3" transform="matrix(1,0,0,1,1485,1050)" stroke-dashoffset="0" stroke-linecap="round" font-size="29.1042" fill="none" stroke-opacity="1" stroke-linejoin="bevel" stroke="#000000" stroke-dasharray="5.2,2.6" font-family="MS Shell Dlg 2" font-style="normal" font-weight="400">
    <path vector-effect="none" d="M54.1074,692.495 L-54.1074,692.495" fill-rule="evenodd"/>
   </g>
   <g stroke-width="2.5" transform="matrix(1,0,0,1,1485,1050)" stroke-linecap="round" font-size="29.1042" fill="none" stroke-opacity="1" stroke-linejoin="bevel" stroke="#000000" font-family="MS Shell Dlg 2" font-style="normal" font-weight="400">
    <path vector-effect="none" d="M-32.4644,-692.653 L32.4644,-692.653" fill-rule="evenodd"/>
   </g>
   <g stroke-width="2.5" transform="matrix(1,0,0,1,1485,1050)" stroke-linecap="round" font-size="29.1042" fill="none" stroke-opacity="1" stroke-linejoin="bevel" stroke="#000000" font-family="MS Shell Dlg 2" font-style="normal" font-weight="400">
    <path vector-effect="none" d="M32.4644,-692.653 L32.4644,-562.796" fill-rule="evenodd"/>
   </g>
   <g stroke-width="2.5" transform="matrix(1,0,0,1,1485,1050)" stroke-linecap="round" font-size="29.1042" fill="none" stroke-opacity="1" stroke-linejoin="bevel" stroke="#000000" font-family="MS Shell Dlg 2" font-style="normal" font-weight="400">
    <path vector-effect="none" d="M-54.1074,-562.796 L54.1074,-562.796" fill-rule="evenodd"/>
   </g>
   <g stroke-width="2.5" transform="matrix(1,0,0,1,1485,1050)" stroke-linecap="round" font-size="29.1042" fill="none" stroke-opacity="1" stroke-linejoin="bevel" stroke="#000000" font-family="MS Shell Dlg 2" font-style="normal" font-weight="400">
    <path vector-effect="none" d="M-54.1074,-562.796 L-54.1074,692.495" fill-rule="evenodd"/>
   </g>
   <g stroke-width="2.5" transform="matrix(1,0,0,1,1485,1050)" stroke-linecap="round" font-size="29.1042" fill="none" stroke-opacity="1" stroke-linejoin="bevel" stroke="#000000" font-family="MS Shell Dlg 2" font-style="normal" font-weight="400">
    <path vector-effect="none" d="M-54.1074,692.495 L54.1074,692.495" fill-rule="evenodd"/>
   </g>
   <g stroke-width="2.5" transform="matrix(1,0,0,1,1485,1050)" stroke-linecap="round" font-size="29.1042" fill="none" stroke-opacity="1" stroke-linejoin="bevel" stroke="#000000" font-family="MS Shell Dlg 2" font-style="normal" font-weight="400">
    <path vector-effect="none" d="M-32.4644,-562.796 L-32.4644,-692.653" fill-rule="evenodd"/>
   </g>
   <g stroke-width="2.5" transform="matrix(1,0,0,1,1485,1050)" stroke-linecap="round" font-size="29.1042" fill="none" stroke-opacity="1" stroke-linejoin="bevel" stroke="#000000" font-family="MS Shell Dlg 2" font-style="normal" font-weight="400">
    <path vector-effect="none" d="M54.1074,692.495 L54.1074,-562.796" fill-rule="evenodd"/>
   </g>
   <g transform="matrix(1,0,0,1,1485,153.239)" font-size="29.1042" fill="#ffffff" stroke="none" font-family="MS Shell Dlg 2" font-style="normal" fill-opacity="1" font-weight="400">
    <path vector-effect="non-scaling-stroke" d="M54.1074,-7.10543e-15 C54.1074,29.8827 29.8827,54.1074 0,54.1074 C-29.8827,54.1074 -54.1074,29.8827 -54.1074,-7.10543e-15 C-54.1074,-29.8827 -29.8827,-54.1074 0,-54.1074 C29.8827,-54.1074 54.1074,-29.8827 54.1074,-7.10543e-15 " fill-rule="evenodd"/>
   </g>
   <g stroke-width="1.3" transform="matrix(1,0,0,1,1485,153.239)" stroke-dashoffset="0" stroke-linecap="round" font-size="29.1042" fill="none" stroke-opacity="1" stroke-linejoin="bevel" stroke="#000000" stroke-dasharray="5.2,2.6" font-family="MS Shell Dlg 2" font-style="normal" font-weight="400">
    <path vector-effect="none" d="M32.4644,-1.42109e-14 C32.4644,17.9296 17.9296,32.4644 0,32.4644 C-17.9296,32.4644 -32.4644,17.9296 -32.4644,-1.42109e-14 C-32.4644,-17.9296 -17.9296,-32.4644 0,-32.4644 C17.9296,-32.4644 32.4644,-17.9296 32.4644,-1.42109e-14 " fill-rule="evenodd"/>
   </g>
   <g stroke-width="1.3" transform="matrix(1,0,0,1,1485,153.239)" stroke-dashoffset="0" stroke-linecap="round" font-size="29.1042" fill="none" stroke-opacity="1" stroke-linejoin="bevel" stroke="#000000" stroke-dasharray="5.2,2.6" font-family="MS Shell Dlg 2" font-style="normal" font-weight="400">
    <path vector-effect="none" d="M32.4644,-1.42109e-14 C32.4644,17.9296 17.9296,32.4644 0,32.4644 C-17.9296,32.4644 -32.4644,17.9296 -32.4644,-1.42109e-14 C-32.4644,-17.9296 -17.9296,-32.4644 0,-32.4644 C17.9296,-32.4644 32.4644,-17.9296 32.4644,-1.42109e-14 " fill-rule="evenodd"/>
   </g>
   <g stroke-width="1.3" transform="matrix(1,0,0,1,1485,153.239)" stroke-dashoffset="0" stroke-linecap="round" font-size="29.1042" fill="none" stroke-opacity="1" stroke-linejoin="bevel" stroke="#000000" stroke-dasharray="5.2,2.6" font-family="MS Shell Dlg 2" font-style="normal" font-weight="400">
    <path vector-effect="none" d="M54.1074,-7.10543e-15 C54.1074,29.8827 29.8827,54.1074 0,54.1074 C-29.8827,54.1074 -54.1074,29.8827 -54.1074,-7.10543e-15 C-54.1074,-29.8827 -29.8827,-54.1074 0,-54.1074 C29.8827,-54.1074 54.1074,-29.8827 54.1074,-7.10543e-15 " fill-rule="evenodd"/>
   </g>
   <g stroke-width="2.5" transform="matrix(1,0,0,1,1485,153.239)" stroke-linecap="round" font-size="29.1042" fill="none" stroke-opacity="1" stroke-linejoin="bevel" stroke="#000000" font-family="MS Shell Dlg 2" font-style="normal" font-weight="400">
    <path vector-effect="none" d="M54.1074,-7.10543e-15 C54.1074,29.8827 29.8827,54.1074 0,54.1074 C-29.8827,54.1074 -54.1074,29.8827 -54.1074,-7.10543e-15 C-54.1074,-29.8827 -29.8827,-54.1074 0,-54.1074 C29.8827,-54.1074 54.1074,-29.8827 54.1074,-7.10543e-15 " fill-rule="evenodd"/>
   </g>
   <g transform="matrix(1,0,0,1,1743.21,1050)" font-size="29.1042" fill="#ffffff" stroke="none" font-family="MS Shell Dlg 2" font-style="normal" fill-opacity="1" font-weight="400">
    <path vector-effect="non-scaling-stroke" d="M-54.1074,692.495 L-9.64821e-15,692.495 L54.1074,692.495 L54.1074,-562.796 L53.7671,-562.796 L52.7508,-562.796 L51.071,-562.796 L48.7491,-562.796 L45.814,-562.796 L42.3028,-562.796 L38.2597,-562.796 L33.7354,-562.796 L32.4644,-562.796 L32.4644,-692.653 L-32.4644,-692.653 L-32.4644,-562.796 L-33.7354,-562.796 L-38.2597,-562.796 L-42.3028,-562.796 L-45.814,-562.796 L-48.7491,-562.796 L-51.071,-562.796 L-52.7508,-562.796 L-53.7671,-562.796 L-54.1074,-562.796 L-54.1074,692.495" fill-rule="evenodd"/>
   </g>
   <g transform="matrix(1,0,0,1,1743.21,1050)" font-size="29.1042" fill="#ffffff" stroke="none" font-family="MS Shell Dlg 2" font-style="normal" fill-opacity="1" font-weight="400">
    <path vector-effect="non-scaling-stroke" d="M-54.1074,692.495 L-9.64821e-15,692.495 L54.1074,692.495 L54.1074,-562.796 L53.7671,-562.796 L52.7508,-562.796 L51.071,-562.796 L48.7491,-562.796 L45.814,-562.796 L42.3028,-562.796 L38.2597,-562.796 L33.7354,-562.796 L32.4644,-562.796 L28.7869,-562.796 L23.4763,-562.796 L17.8705,-562.796 L12.04,-562.796 L6.0581,-562.796 L-3.33067e-15,-562.796 L-1.66533e-14,-562.796 C-4.05298,-562.796 -8.06632,-562.796 -12.04,-562.796 C-13.9835,-562.796 -15.927,-562.796 -17.8705,-562.796 C-19.7391,-562.796 -21.6077,-562.796 -23.4763,-562.796 C-25.2465,-562.796 -27.0167,-562.796 -28.7869,-562.796 C-30.0127,-562.796 -31.2386,-562.796 -32.4644,-562.796 L-33.7354,-562.796 L-38.2597,-562.796 L-42.3028,-562.796 L-45.814,-562.796 L-48.7491,-562.796 L-51.071,-562.796 L-52.7508,-562.796 L-53.7671,-562.796 L-54.1074,-562.796 L-54.1074,692.495" fill-rule="evenodd"/>
   </g>
   <g transform="matrix(1,0,0,1,1743.21,1050)" font-size="29.1042" fill="#ffffff" stroke="none" font-family="MS Shell Dlg 2" font-style="normal" fill-opacity="1" font-weight="400">
    <path vector-effect="non-scaling-stroke" d="M-32.4644,-562.796 C-31.2386,-562.796 -30.0127,-562.796 -28.7869,-562.796 C-27.0167,-562.796 -25.2465,-562.796 -23.4763,-562.796 C-21.6077,-562.796 -19.7391,-562.796 -17.8705,-562.796 C-15.927,-562.796 -13.9835,-562.796 -12.04,-562.796 C-8.06632,-562.796 -4.05298,-562.796 -1.66533e-14,-562.796 L-3.33067e-15,-562.796 L6.0581,-562.796 L12.04,-562.796 L17.8705,-562.796 L23.4763,-562.796 L28.7869,-562.796 L32.4644,-562.796 L32.4644,-692.653 L-32.4644,-692.653 L-32.4644,-562.796" fill-rule="evenodd"/>
   </g>
   <g stroke-width="1.3" transform="matrix(1,0,0,1,1743.21,1050)" stroke-dashoffset="0" stroke-linecap="round" font-size="29.1042" fill="none" stroke-opacity="1" stroke-linejoin="bevel" stroke="#000000" stroke-dasharray="5.2,2.6" font-family="MS Shell Dlg 2" font-style="normal" font-weight="400">
    <path vector-effect="none" d="M1.71914e-14,-692.653 L-32.4644,-692.653" fill-rule="evenodd"/>
   </g>
   <g stroke-width="1.3" transform="matrix(1,0,0,1,1743.21,1050)" stroke-dashoffset="0" stroke-linecap="round" font-size="29.1042" fill="none" stroke-opacity="1" stroke-linejoin="bevel" stroke="#000000" stroke-dasharray="5.2,2.6" font-family="MS Shell Dlg 2" font-style="normal" font-weight="400">
    <path vector-effect="none" d="M32.4644,-692.653 L2.51429e-14,-692.653" fill-rule="evenodd"/>
   </g>
   <g stroke-width="1.3" transform="matrix(1,0,0,1,1743.21,1050)" stroke-dashoffset="0" stroke-linecap="round" font-size="29.1042" fill="none" stroke-opacity="1" stroke-linejoin="bevel" stroke="#000000" stroke-dasharray="5.2,2.6" font-family="MS Shell Dlg 2" font-style="normal" font-weight="400">
    <path vector-effect="none" d="M9.23993e-15,-562.796 L32.4644,-562.796" fill-rule="evenodd"/>
   </g>
   <g stroke-width="1.3" transform="matrix(1,0,0,1,1743.21,1050)" stroke-dashoffset="0" stroke-linecap="round" font-size="29.1042" fill="none" stroke-opacity="1" stroke-linejoin="bevel" stroke="#000000" stroke-dasharray="5.2,2.6" font-family="MS Shell Dlg 2" font-style="normal" font-weight="400">
    <path vector-effect="none" d="M32.4644,-562.796 L-32.4644,-562.796" fill-rule="evenodd"/>
   </g>
   <g stroke-width="1.3" transform="matrix(1,0,0,1,1743.21,1050)" stroke-dashoffset="0" stroke-linecap="round" font-size="29.1042" fill="none" stroke-opacity="1" stroke-linejoin="bevel" stroke="#000000" stroke-dasharray="5.2,2.6" font-family="MS Shell Dlg 2" font-style="normal" font-weight="400">
    <path vector-effect="none" d="M-32.4644,-562.796 L1.28844e-15,-562.796" fill-rule="evenodd"/>
   </g>
   <g stroke-width="1.3" transform="matrix(1,0,0,1,1743.21,1050)" stroke-dashoffset="0" stroke-linecap="round" font-size="29.1042" fill="none" stroke-opacity="1" stroke-linejoin="bevel" stroke="#000000" stroke-dasharray="5.2,2.6" font-family="MS Shell Dlg 2" font-style="normal" font-weight="400">
    <path vector-effect="none" d="M54.1074,-562.796 L-54.1074,-562.796" fill-rule="evenodd"/>
   </g>
   <g stroke-width="1.3" transform="matrix(1,0,0,1,1743.21,1050)" stroke-dashoffset="0" stroke-linecap="round" font-size="29.1042" fill="none" stroke-opacity="1" stroke-linejoin="bevel" stroke="#000000" stroke-dasharray="5.2,2.6" font-family="MS Shell Dlg 2" font-style="normal" font-weight="400">
    <path vector-effect="none" d="M54.1074,692.495 L-54.1074,692.495" fill-rule="evenodd"/>
   </g>
   <g stroke-width="2.5" transform="matrix(1,0,0,1,1743.21,1050)" stroke-linecap="round" font-size="29.1042" fill="none" stroke-opacity="1" stroke-linejoin="bevel" stroke="#000000" font-family="MS Shell Dlg 2" font-style="normal" font-weight="400">
    <path vector-effect="none" d="M-32.4644,-692.653 L32.4644,-692.653" fill-rule="evenodd"/>
   </g>
   <g stroke-width="2.5" transform="matrix(1,0,0,1,1743.21,1050)" stroke-linecap="round" font-size="29.1042" fill="none" stroke-opacity="1" stroke-linejoin="bevel" stroke="#000000" font-family="MS Shell Dlg 2" font-style="normal" font-weight="400">
    <path vector-effect="none" d="M-3.02197e-15,-562.796 L54.1074,-562.796" fill-rule="evenodd"/>
   </g>
   <g stroke-width="2.5" transform="matrix(1,0,0,1,1743.21,1050)" stroke-linecap="round" font-size="29.1042" fill="none" stroke-opacity="1" stroke-linejoin="bevel" stroke="#000000" font-family="MS Shell Dlg 2" font-style="normal" font-weight="400">
    <path vector-effect="none" d="M-54.1074,-562.796 L-1.62744e-14,-562.796" fill-rule="evenodd"/>
   </g>
   <g stroke-width="2.5" transform="matrix(1,0,0,1,1743.21,1050)" stroke-linecap="round" font-size="29.1042" fill="none" stroke-opacity="1" stroke-linejoin="bevel" stroke="#000000" font-family="MS Shell Dlg 2" font-style="normal" font-weight="400">
    <path vector-effect="none" d="M-3.02197e-15,692.495 L54.1074,692.495" fill-rule="evenodd"/>
   </g>
   <g stroke-width="2.5" transform="matrix(1,0,0,1,1743.21,1050)" stroke-linecap="round" font-size="29.1042" fill="none" stroke-opacity="1" stroke-linejoin="bevel" stroke="#000000" font-family="MS Shell Dlg 2" font-style="normal" font-weight="400">
    <path vector-effect="none" d="M-54.1074,692.495 L-1.62744e-14,692.495" fill-rule="evenodd"/>
   </g>
   <g stroke-width="2.5" transform="matrix(1,0,0,1,1743.21,1050)" stroke-linecap="round" font-size="29.1042" fill="none" stroke-opacity="1" stroke-linejoin="bevel" stroke="#000000" font-family="MS Shell Dlg 2" font-style="normal" font-weight="400">
    <path vector-effect="none" d="M32.4644,-562.796 L32.4644,-692.653" fill-rule="evenodd"/>
   </g>
   <g stroke-width="2.5" transform="matrix(1,0,0,1,1743.21,1050)" stroke-linecap="round" font-size="29.1042" fill="none" stroke-opacity="1" stroke-linejoin="bevel" stroke="#000000" font-family="MS Shell Dlg 2" font-style="normal" font-weight="400">
    <path vector-effect="none" d="M-32.4644,-562.796 L-32.4644,-692.653" fill-rule="evenodd"/>
   </g>
   <g stroke-width="2.5" transform="matrix(1,0,0,1,1743.21,1050)" stroke-linecap="round" font-size="29.1042" fill="none" stroke-opacity="1" stroke-linejoin="bevel" stroke="#000000" font-family="MS Shell Dlg 2" font-style="normal" font-weight="400">
    <path vector-effect="none" d="M54.1074,692.495 L54.1074,-562.796" fill-rule="evenodd"/>
   </g>
   <g stroke-width="2.5" transform="matrix(1,0,0,1,1743.21,1050)" stroke-linecap="round" font-size="29.1042" fill="none" stroke-opacity="1" stroke-linejoin="bevel" stroke="#000000" font-family="MS Shell Dlg 2" font-style="normal" font-weight="400">
    <path vector-effect="none" d="M-54.1074,692.495 L-54.1074,-562.796" fill-rule="evenodd"/>
   </g>
  </g>
 </g>
</svg>
