999
DXF file: D:\School\Spring 2018\ENGR 450-71 Engineering Capstone II\week 11 models\BEARING_ADAPTER_DRAWING_2dxf
999
Pro/ENGINEER 2017300 by Parametric Technology Corporation
  0
SECTION
  2
HEADER
  9
$ACADVER
  1
AC1027
  9
$DWGCODEPAGE
  3
ANSI_1252
  9
$EXTMAX
 10
11.6929133858
 20
8.2677165354
 30
0.0
  9
$EXTMIN
 10
0.0
 20
0.0
 30
0.0
  9
$LIMMIN
 10
0.0
 20
0.0
  9
$LIMMAX
 10
11.6929133858
 20
8.2677165354
  9
$VIEWCTR
 10
5.8464566929
 20
4.1338582677
  9
$VIEWSIZE
 40
8.2677165354
  9
$CLAYER
  8
0
  9
$LTSCALE
 40
0.6431102362
  9
$CELTYPE
  6
BYLAYER
  9
$DIMSCALE
 40
1.0
  9
$DIMASZ
 40
0.1875
  9
$DIMEXO
 40
0.0625
  9
$DIMDLI
 40
0.4443307087
  9
$DIMEXE
 40
0.125
  9
$DIMCEN
 40
0.1052362205
  9
$DIMLFAC
 40
1.0
  9
$DIMBLK
  1
_CLOSED
  9
$DIMALT
 70
0
  9
$DIMALTF
 40
25.4
  9
$DIMTXT
 40
0.15625
  9
$DIMTOL
 70
0
  9
$DIMLIM
 70
0
  9
$DIMTFAC
 40
1.0
  9
$DIMGAP
 40
0.09
  9
$DIMDSEP
 70
46
  9
$AUNITS
 70
0
  9
$PDMODE
 70
3
  9
$PDSIZE
 40
0.3125
  9
$HANDSEED
  5
2C2
  9
$TILEMODE
 70
1
  9
$MEASUREMENT
 70
0
  9
$INSUNITS
 70
1
  0
ENDSEC
  0
SECTION
  2
CLASSES
  0
CLASS
  1
ACDBDICTIONARYWDFLT
  2
AcDbDictionaryWithDefault
  3
AutoCAD 2000
 90
0
 91
1
280
0
281
0
  0
CLASS
  1
ACDBPLACEHOLDER
  2
AcDbPlaceHolder
  3
AutoCAD 2000
 90
0
 91
1
280
0
281
0
  0
CLASS
  1
LAYOUT
  2
AcDbLayout
  3
AutoCAD 2000
 90
0
 91
0
280
0
281
0
  0
CLASS
  1
TABLESTYLE
  2
AcDbTableStyle
  3
ObjectDBX Classes
 90
2047
 91
1
280
0
281
0
  0
CLASS
  1
ACAD_TABLE
  2
AcDbTable
  3
ObjectDBX Classes
 90
1025
 91
1
280
0
281
1
  0
ENDSEC
  0
SECTION
  2
TABLES
  0
TABLE
  2
VPORT
  5
8
100
AcDbSymbolTable
 70
2
  0
VPORT
  5
1F4
100
AcDbSymbolTableRecord
100
AcDbViewportTableRecord
  2
*ACTIVE
 70
0
 10
0.0
 20
0.0
 11
1.0
 21
1.0
 12
5.8464566929
 22
4.1338582677
 13
0.0
 23
0.0
 14
1.0
 24
1.0
 15
0.0
 25
0.0
 16
0.0
 26
0.0
 36
1.0
 17
0.0
 27
0.0
 37
0.0
 40
8.2677165354
 41
1.4142857143
 42
50.0
 43
0.0
 44
0.0
 50
0.0
 51
0.0
 71
0
 72
100
 73
1
 74
1
 75
0
 76
0
 77
0
 78
0
  0
ENDTAB
  0
TABLE
  2
LTYPE
  5
5
100
AcDbSymbolTable
 70
6
  0
LTYPE
  5
14
100
AcDbSymbolTableRecord
100
AcDbLinetypeTableRecord
  2
BYBLOCK
 70
0
  3

 72
65
 73
0
 40
0.0
  0
LTYPE
  5
15
100
AcDbSymbolTableRecord
100
AcDbLinetypeTableRecord
  2
BYLAYER
 70
0
  3

 72
65
 73
0
 40
0.0
  0
LTYPE
  5
16
100
AcDbSymbolTableRecord
100
AcDbLinetypeTableRecord
  2
CONTINUOUS
 70
64
  3
Solid line
 72
65
 73
0
 40
0.0
  0
LTYPE
  5
1F5
100
AcDbSymbolTableRecord
100
AcDbLinetypeTableRecord
  2
CENTER
 70
64
  3
____ _ ____ _ ____ _ ____ _ ____ _ ____ _ ____
 72
65
 73
4
 40
0.6
 49
0.375
 74
0
 49
-0.075
 74
0
 49
0.075
 74
0
 49
-0.075
 74
0
  0
LTYPE
  5
1F6
100
AcDbSymbolTableRecord
100
AcDbLinetypeTableRecord
  2
HIDDEN
 70
64
  3
- - - - - - - - - - - - - - - - - - - -
 72
65
 73
2
 40
0.2
 49
0.1
 74
0
 49
-0.1
 74
0
  0
LTYPE
  5
1F7
100
AcDbSymbolTableRecord
100
AcDbLinetypeTableRecord
  2
PHANTOM
 70
64
  3
_____ _ _ _____ _ _ _____ _ _ _____
 72
65
 73
6
 40
0.8
 49
0.45
 74
0
 49
-0.05
 74
0
 49
0.1
 74
0
 49
-0.05
 74
0
 49
0.1
 74
0
 49
-0.05
 74
0
  0
LTYPE
  5
1F8
100
AcDbSymbolTableRecord
100
AcDbLinetypeTableRecord
  2
DOT
 70
64
  3
. . . . . . . . . . . . . . . . . . . .
 72
65
 73
2
 40
0.2
 49
0.1
 74
0
 49
-0.1
 74
0
  0
LTYPE
  5
1F9
100
AcDbSymbolTableRecord
100
AcDbLinetypeTableRecord
  2
DASHED
 70
64
  3
- - - - - - - - - - - - - - - - - - - -
 72
65
 73
2
 40
0.2
 49
0.1
 74
0
 49
-0.1
 74
0
  0
ENDTAB
  0
TABLE
  2
LAYER
  5
2
100
AcDbSymbolTable
 70
36
  0
LAYER
  5
10
100
AcDbSymbolTableRecord
100
AcDbLayerTableRecord
  2
0
 70
0
 62
7
  6
CONTINUOUS
370
-3
390
F
  0
LAYER
  5
1FA
100
AcDbSymbolTableRecord
100
AcDbLayerTableRecord
  2
DEFAULT_1
 70
0
 62
7
  6
CENTER
370
-3
390
F
  0
LAYER
  5
1FB
100
AcDbSymbolTableRecord
100
AcDbLayerTableRecord
  2
DEFAULT_2
 70
0
 62
8
  6
HIDDEN
370
-3
390
F
  0
LAYER
  5
1FC
100
AcDbSymbolTableRecord
100
AcDbLayerTableRecord
  2
DEFAULT_3
 70
0
 62
7
  6
PHANTOM
370
-3
390
F
  0
LAYER
  5
1FD
100
AcDbSymbolTableRecord
100
AcDbLayerTableRecord
  2
01___PRT_ALL_DTM_PLN
 70
0
 62
7
  6
CONTINUOUS
370
-3
390
F
  0
LAYER
  5
1FE
100
AcDbSymbolTableRecord
100
AcDbLayerTableRecord
  2
01___PRT_DEF_DTM_PLN
 70
0
 62
7
  6
CONTINUOUS
370
-3
390
F
  0
LAYER
  5
1FF
100
AcDbSymbolTableRecord
100
AcDbLayerTableRecord
  2
02___PRT_ALL_AXES
 70
0
 62
7
  6
CONTINUOUS
370
-3
390
F
  0
LAYER
  5
200
100
AcDbSymbolTableRecord
100
AcDbLayerTableRecord
  2
03___PRT_ALL_CURVES
 70
0
 62
7
  6
CONTINUOUS
370
-3
390
F
  0
LAYER
  5
201
100
AcDbSymbolTableRecord
100
AcDbLayerTableRecord
  2
04___PRT_ALL_DTM_PNT
 70
0
 62
7
  6
CONTINUOUS
370
-3
390
F
  0
LAYER
  5
202
100
AcDbSymbolTableRecord
100
AcDbLayerTableRecord
  2
05___PRT_ALL_DTM_CSYS
 70
0
 62
7
  6
CONTINUOUS
370
-3
390
F
  0
LAYER
  5
203
100
AcDbSymbolTableRecord
100
AcDbLayerTableRecord
  2
05___PRT_DEF_DTM_CSYS
 70
0
 62
7
  6
CONTINUOUS
370
-3
390
F
  0
LAYER
  5
204
100
AcDbSymbolTableRecord
100
AcDbLayerTableRecord
  2
06___PRT_ALL_SURFS
 70
0
 62
7
  6
CONTINUOUS
370
-3
390
F
  0
LAYER
  5
205
100
AcDbSymbolTableRecord
100
AcDbLayerTableRecord
  2
1
 70
0
 62
7
  6
CONTINUOUS
370
-3
390
F
  0
ENDTAB
  0
TABLE
  2
STYLE
  5
3
100
AcDbSymbolTable
 70
1
  0
STYLE
  5
11
100
AcDbSymbolTableRecord
100
AcDbTextStyleTableRecord
  2
STANDARD
 70
0
 40
0.0
 41
0.8
 50
0.0
 71
0
 42
0.2
  3
txt
  4

  0
STYLE
  5
206
100
AcDbSymbolTableRecord
100
AcDbTextStyleTableRecord
  2
TEXTSTYLE_1
 70
0
 40
0.0
 41
0.8
 50
0.0
 71
0
 42
0.2
  3
gdt
  4

  0
STYLE
  5
207
100
AcDbSymbolTableRecord
100
AcDbTextStyleTableRecord
  2
TEXTSTYLE_2
 70
0
 40
0.0
 41
0.8
 50
0.0
 71
0
 42
0.2
  3
txt
  4

  0
ENDTAB
  0
TABLE
  2
VIEW
  5
6
100
AcDbSymbolTable
 70
0
  0
ENDTAB
  0
TABLE
  2
UCS
  5
7
100
AcDbSymbolTable
 70
0
  0
ENDTAB
  0
TABLE
  2
APPID
  5
9
100
AcDbSymbolTable
 70
1
  0
APPID
  5
208
100
AcDbSymbolTableRecord
100
AcDbRegAppTableRecord
  2
ACAD
 70
0
  0
ENDTAB
  0
TABLE
  2
BLOCK_RECORD
  5
1
100
AcDbSymbolTable
 70
0
  0
BLOCK_RECORD
  5
209
100
AcDbSymbolTableRecord
100
AcDbBlockTableRecord
  2
*Model_Space
  0
BLOCK_RECORD
  5
20A
100
AcDbSymbolTableRecord
100
AcDbBlockTableRecord
  2
*Paper_Space
  0
BLOCK_RECORD
  5
20B
100
AcDbSymbolTableRecord
100
AcDbBlockTableRecord
  2
_CLOSED
  0
BLOCK_RECORD
  5
20C
100
AcDbSymbolTableRecord
100
AcDbBlockTableRecord
  2
*D0
  0
BLOCK_RECORD
  5
20D
100
AcDbSymbolTableRecord
100
AcDbBlockTableRecord
  2
*D1
  0
BLOCK_RECORD
  5
20E
100
AcDbSymbolTableRecord
100
AcDbBlockTableRecord
  2
*D2
  0
BLOCK_RECORD
  5
20F
100
AcDbSymbolTableRecord
100
AcDbBlockTableRecord
  2
*D3
  0
BLOCK_RECORD
  5
210
100
AcDbSymbolTableRecord
100
AcDbBlockTableRecord
  2
*T1
  0
ENDTAB
  0
TABLE
  2
DIMSTYLE
  5
A
100
AcDbSymbolTable
 70
1
100
AcDbDimStyleTable
 71
0
  0
DIMSTYLE
105
211
100
AcDbSymbolTableRecord
100
AcDbDimStyleTableRecord
  2
STANDARD
 70
0
  3

  4

 40
1.0
 41
0.1875
 42
0.0625
 43
0.38
 44
0.125
 45
0.0
 46
0.0
 47
0.001
 48
0.001
140
0.15625
141
0.09
142
0.0
143
25.4
144
1.0
145
0.0
146
1.0
147
0.09
 71
0.0
 72
0.0
 73
1
 74
1
 75
0
 76
0
 77
0
 78
4
 79
1
170
0
171
2
172
0
173
0
174
0
175
0
176
0
177
0
178
0
270
2
179
3
271
3
272
3
273
2
274
2
275
0
280
0
281
0
282
0
283
1
284
4
285
0
286
0
287
3
288
0
340
11
278
46
341
20B
342
20B
343
20B
344
20B
  0
DIMSTYLE
105
212
100
AcDbSymbolTableRecord
100
AcDbDimStyleTableRecord
  2
DIMSTYLE_1
 70
0
  3

  4

 40
1.0
 41
0.1875
 42
0.0625
 43
0.38
 44
0.125
 45
0.0
 46
0.0
 47
0.0
 48
0.0
140
0.125
141
0.09
142
0.0
143
25.4
144
4.0
145
0.0
146
1.0
147
0.0625
 71
0.0
 72
0.0
 73
1
 74
1
 75
0
 76
0
 77
0
 78
4
 79
1
170
0
171
2
172
0
173
0
174
0
175
0
176
0
177
0
178
0
270
2
179
1
271
1
272
3
273
2
274
2
275
0
280
0
281
0
282
0
283
1
284
4
285
0
286
0
287
3
288
0
340
11
278
46
341
20B
342
20B
343
20B
344
20B
  0
DIMSTYLE
105
213
100
AcDbSymbolTableRecord
100
AcDbDimStyleTableRecord
  2
DIMSTYLE_2
 70
0
  3

  4

 40
1.0
 41
0.1875
 42
0.0625
 43
0.38
 44
0.125
 45
0.0
 46
0.0
 47
0.0
 48
0.0
140
0.15625
141
0.09
142
0.0
143
25.4
144
4.0
145
0.0
146
1.0
147
0.078125
 71
0.0
 72
0.0
 73
1
 74
1
 75
0
 76
0
 77
0
 78
4
 79
1
170
0
171
2
172
0
173
0
174
0
175
0
176
0
177
0
178
0
270
2
179
1
271
1
272
3
273
2
274
2
275
0
280
0
281
0
282
0
283
1
284
4
285
0
286
0
287
3
288
0
340
11
278
46
341
20B
342
20B
343
20B
344
20B
  0
DIMSTYLE
105
214
100
AcDbSymbolTableRecord
100
AcDbDimStyleTableRecord
  2
DIMSTYLE_3
 70
0
  3

  4

 40
1.0
 41
0.1875
 42
0.0625
 43
0.38
 44
0.125
 45
0.0
 46
0.0
 47
0.0
 48
0.0
140
0.15625
141
0.09
142
0.0
143
25.4
144
4.0
145
0.0
146
1.0
147
0.078125
 71
0.0
 72
0.0
 73
1
 74
1
 75
0
 76
0
 77
0
 78
4
 79
1
170
0
171
2
172
0
173
0
174
0
175
0
176
0
177
0
178
0
270
2
179
3
271
3
272
3
273
2
274
2
275
0
280
0
281
0
282
0
283
1
284
4
285
0
286
0
287
3
288
0
340
11
278
46
341
20B
342
20B
343
20B
344
20B
  0
ENDTAB
  0
ENDSEC
  0
SECTION
  2
BLOCKS
  0
BLOCK
  5
20
100
AcDbEntity
  8
0
100
AcDbBlockBegin
  2
*Model_Space
 70
0
 10
0.0
 20
0.0
 30
0.0
  3
*Model_Space
  1

  0
ENDBLK
  5
21
100
AcDbEntity
  8
0
100
AcDbBlockEnd
  0
BLOCK
  5
1C
100
AcDbEntity
  8
0
100
AcDbBlockBegin
  2
*Paper_Space
 70
0
 10
0.0
 20
0.0
 30
0.0
  3
*Paper_Space
  1

  0
ENDBLK
  5
1D
100
AcDbEntity
  8
0
100
AcDbBlockEnd
  0
BLOCK
  5
215
100
AcDbEntity
  8
0
100
AcDbBlockBegin
  2
_CLOSED
 70
64
 10
0.0
 20
0.0
  3
_CLOSED
  1

  0
LINE
  5
216
100
AcDbEntity
  8
0
  6
BYBLOCK
 62
0
100
AcDbLine
 10
0.0
 20
0.0
 11
-1.0
 21
0.1666666667
  0
LINE
  5
217
100
AcDbEntity
  8
0
  6
BYBLOCK
 62
0
100
AcDbLine
 10
-1.0
 20
0.1666666667
 11
-1.0
 21
-0.1666666667
  0
LINE
  5
218
100
AcDbEntity
  8
0
  6
BYBLOCK
 62
0
100
AcDbLine
 10
-1.0
 20
-0.1666666667
 11
0.0
 21
0.0
  0
LINE
  5
219
100
AcDbEntity
  8
0
  6
BYBLOCK
 62
0
100
AcDbLine
 10
-1.0
 20
0.0
 11
0.0
 21
0.0
  0
ENDBLK
  5
21A
100
AcDbEntity
  8
0
  6
BYBLOCK
 62
0
100
AcDbBlockEnd
  0
BLOCK
  5
21B
100
AcDbEntity
  8
0
100
AcDbBlockBegin
 62
2
  6
CONTINUOUS
  2
*D0
 70
65
 10
0.0
 20
0.0
  3
*D0
  1

  0
MTEXT
  5
21C
100
AcDbEntity
  8
0
100
AcDbMText
 62
2
  6
CONTINUOUS
  7
STANDARD
 71
2
 72
1
 10
4.3994009591
 20
7.0419820757
 30
0.0
 11
1.0
 21
0.0
 31
0.0
 73
2
 44
0.9
  1
21.0
 40
0.125
 41
0.4
  0
LINE
  5
21D
100
AcDbEntity
  8
0
100
AcDbLine
 62
2
  6
CONTINUOUS
 10
7.0244009591
 20
6.4403976114
 11
7.0244009591
 21
7.1044820757
  0
LINE
  5
21E
100
AcDbEntity
  8
0
100
AcDbLine
 62
2
  6
CONTINUOUS
 10
1.7744009591
 20
6.4403976114
 11
1.7744009591
 21
7.1044820757
  0
LINE
  5
21F
100
AcDbEntity
  8
0
100
AcDbLine
 62
2
  6
CONTINUOUS
 10
7.0244009591
 20
6.9794820757
 11
4.8780467925
 21
6.9794820757
  0
LINE
  5
220
100
AcDbEntity
  8
0
100
AcDbLine
 62
2
  6
CONTINUOUS
 10
1.7744009591
 20
6.9794820757
 11
3.9207551258
 21
6.9794820757
  0
INSERT
  5
221
100
AcDbEntity
  8
0
100
AcDbBlockReference
 62
2
  6
CONTINUOUS
  2
_CLOSED
 10
7.0244009591
 20
6.9794820757
 41
0.1875
 42
0.1875
 43
0.1875
  0
INSERT
  5
222
100
AcDbEntity
  8
0
100
AcDbBlockReference
 62
2
  6
CONTINUOUS
  2
_CLOSED
 10
1.7744009591
 20
6.9794820757
 41
0.1875
 42
0.1875
 43
0.1875
 50
180.0
  0
ENDBLK
  5
223
100
AcDbEntity
  8
0
  6
BYBLOCK
 62
0
100
AcDbBlockEnd
  0
BLOCK
  5
224
100
AcDbEntity
  8
0
100
AcDbBlockBegin
 62
2
  6
CONTINUOUS
  2
*D1
 70
65
 10
0.0
 20
0.0
  3
*D1
  1

  0
MTEXT
  5
225
100
AcDbEntity
  8
0
100
AcDbMText
 62
2
  6
CONTINUOUS
  7
STANDARD
 71
2
 72
1
 10
7.8392458243
 20
6.3299758596
 30
0.0
 11
1.0
 21
0.0
 31
0.0
 73
2
 44
0.9
  1
2.0
 40
0.125
 41
0.3
  0
LINE
  5
226
100
AcDbEntity
  8
0
100
AcDbLine
 62
2
  6
CONTINUOUS
 10
7.0869009591
 20
6.3778976114
 11
7.9642458243
 21
6.3778976114
  0
LINE
  5
227
100
AcDbEntity
  8
0
100
AcDbLine
 62
2
  6
CONTINUOUS
 10
7.0869009591
 20
5.8778976114
 11
7.9642458243
 21
5.8778976114
  0
LINE
  5
228
100
AcDbEntity
  8
0
100
AcDbLine
 62
2
  6
CONTINUOUS
 10
7.8392458243
 20
6.3778976114
 11
7.8392458243
 21
6.8778976114
  0
LINE
  5
229
100
AcDbEntity
  8
0
100
AcDbLine
 62
2
  6
CONTINUOUS
 10
7.8392458243
 20
5.8778976114
 11
7.8392458243
 21
5.3778976114
  0
INSERT
  5
22A
100
AcDbEntity
  8
0
100
AcDbBlockReference
 62
2
  6
CONTINUOUS
  2
_CLOSED
 10
7.8392458243
 20
6.3778976114
 41
0.1875
 42
0.1875
 43
0.1875
 50
270.0
  0
INSERT
  5
22B
100
AcDbEntity
  8
0
100
AcDbBlockReference
 62
2
  6
CONTINUOUS
  2
_CLOSED
 10
7.8392458243
 20
5.8778976114
 41
0.1875
 42
0.1875
 43
0.1875
 50
90.0
  0
ENDBLK
  5
22C
100
AcDbEntity
  8
0
  6
BYBLOCK
 62
0
100
AcDbBlockEnd
  0
BLOCK
  5
22D
100
AcDbEntity
  8
0
100
AcDbBlockBegin
 62
2
  6
CONTINUOUS
  2
*D2
 70
65
 10
0.0
 20
0.0
  3
*D2
  1

  0
MTEXT
  5
22E
100
AcDbEntity
  8
0
100
AcDbMText
 62
2
  6
CONTINUOUS
  7
STANDARD
 71
2
 72
1
 10
4.2495495888
 20
2.9760791172
 30
0.0
 11
1.0
 21
0.0
 31
0.0
 73
2
 44
0.9
  1
13.5
 40
0.15625
 41
0.5
  0
LINE
  5
22F
100
AcDbEntity
  8
0
100
AcDbLine
 62
2
  6
CONTINUOUS
 10
6.0727639733
 20
3.6869836295
 11
6.0727639733
 21
2.7729541172
  0
LINE
  5
230
100
AcDbEntity
  8
0
100
AcDbLine
 62
2
  6
CONTINUOUS
 10
2.6977639733
 20
3.6869836295
 11
2.6977639733
 21
2.7729541172
  0
LINE
  5
231
100
AcDbEntity
  8
0
100
AcDbLine
 62
2
  6
CONTINUOUS
 10
6.0727639733
 20
2.8979541172
 11
4.9103568805
 21
2.8979541172
  0
LINE
  5
232
100
AcDbEntity
  8
0
100
AcDbLine
 62
2
  6
CONTINUOUS
 10
2.6977639733
 20
2.8979541172
 11
3.5887422972
 21
2.8979541172
  0
INSERT
  5
233
100
AcDbEntity
  8
0
100
AcDbBlockReference
 62
2
  6
CONTINUOUS
  2
_CLOSED
 10
6.0727639733
 20
2.8979541172
 41
0.1875
 42
0.1875
 43
0.1875
  0
INSERT
  5
234
100
AcDbEntity
  8
0
100
AcDbBlockReference
 62
2
  6
CONTINUOUS
  2
_CLOSED
 10
2.6977639733
 20
2.8979541172
 41
0.1875
 42
0.1875
 43
0.1875
 50
180.0
  0
ENDBLK
  5
235
100
AcDbEntity
  8
0
  6
BYBLOCK
 62
0
100
AcDbBlockEnd
  0
BLOCK
  5
236
100
AcDbEntity
  8
0
100
AcDbBlockBegin
 62
2
  6
CONTINUOUS
  2
*D3
 70
65
 10
0.0
 20
0.0
  3
*D3
  1

  0
MTEXT
  5
237
100
AcDbEntity
  8
0
100
AcDbMText
 62
2
  6
CONTINUOUS
  7
STANDARD
 71
1
 72
1
 10
2.6926733257
 20
2.1443322583
 30
0.0
 11
1.0
 21
0.0
 31
0.0
 73
2
 44
0.9
  1
.875
 40
0.15625
 41
0.5
  0
LINE
  5
238
100
AcDbEntity
  8
0
100
AcDbLine
 62
2
  6
CONTINUOUS
 10
2.6352639733
 20
3.7494836295
 11
2.2052440005
 21
3.7494836295
  0
LINE
  5
239
100
AcDbEntity
  8
0
100
AcDbLine
 62
2
  6
CONTINUOUS
 10
2.6352639733
 20
3.5307336295
 11
2.2052440005
 21
3.5307336295
  0
LINE
  5
23A
100
AcDbEntity
  8
0
100
AcDbLine
 62
2
  6
CONTINUOUS
 10
2.3302440005
 20
3.7494836295
 11
2.3302440005
 21
4.2494836295
  0
LINE
  5
23B
100
AcDbEntity
  8
0
100
AcDbLine
 62
2
  6
CONTINUOUS
 10
2.3302440005
 20
3.5307336295
 11
2.3302440005
 21
2.0662072583
  0
LINE
  5
23C
100
AcDbEntity
  8
0
100
AcDbLine
 62
2
  6
CONTINUOUS
 10
2.3302440005
 20
2.0662072583
 11
2.6145483257
 21
2.0662072583
  0
INSERT
  5
23D
100
AcDbEntity
  8
0
100
AcDbBlockReference
 62
2
  6
CONTINUOUS
  2
_CLOSED
 10
2.3302440005
 20
3.7494836295
 41
0.1875
 42
0.1875
 43
0.1875
 50
270.0
  0
INSERT
  5
23E
100
AcDbEntity
  8
0
100
AcDbBlockReference
 62
2
  6
CONTINUOUS
  2
_CLOSED
 10
2.3302440005
 20
3.5307336295
 41
0.1875
 42
0.1875
 43
0.1875
 50
90.0
  0
ENDBLK
  5
23F
100
AcDbEntity
  8
0
  6
BYBLOCK
 62
0
100
AcDbBlockEnd
  0
BLOCK
  5
240
100
AcDbEntity
  8
0
100
AcDbBlockBegin
  2
*T1
 70
1
 10
0.0
 20
0.0
  3
*T1
  1

  0
LINE
  5
241
100
AcDbEntity
  8
0
100
AcDbLine
 62
2
  6
CONTINUOUS
 10
0.0
 20
0.0
 11
4.5
 21
0.0
  0
LINE
  5
242
100
AcDbEntity
  8
0
100
AcDbLine
 62
2
  6
CONTINUOUS
 10
0.0
 20
0.0
 11
0.0
 21
-1.90625
  0
LINE
  5
243
100
AcDbEntity
  8
0
100
AcDbLine
 62
2
  6
CONTINUOUS
 10
0.0
 20
-0.46875
 11
4.5
 21
-0.46875
  0
LINE
  5
244
100
AcDbEntity
  8
0
100
AcDbLine
 62
2
  6
CONTINUOUS
 10
0.0
 20
-1.28125
 11
4.5
 21
-1.28125
  0
LINE
  5
245
100
AcDbEntity
  8
0
100
AcDbLine
 62
2
  6
CONTINUOUS
 10
0.0
 20
-1.59375
 11
4.5
 21
-1.59375
  0
LINE
  5
246
100
AcDbEntity
  8
0
100
AcDbLine
 62
2
  6
CONTINUOUS
 10
0.0
 20
-1.90625
 11
4.5
 21
-1.90625
  0
LINE
  5
247
100
AcDbEntity
  8
0
100
AcDbLine
 62
2
  6
CONTINUOUS
 10
1.0
 20
-1.28125
 11
1.0
 21
-1.90625
  0
LINE
  5
248
100
AcDbEntity
  8
0
100
AcDbLine
 62
2
  6
CONTINUOUS
 10
2.25
 20
-0.46875
 11
2.25
 21
-1.28125
  0
LINE
  5
249
100
AcDbEntity
  8
0
100
AcDbLine
 62
2
  6
CONTINUOUS
 10
3.5
 20
0.0
 11
3.5
 21
-0.46875
  0
LINE
  5
24A
100
AcDbEntity
  8
0
100
AcDbLine
 62
2
  6
CONTINUOUS
 10
3.5
 20
-1.28125
 11
3.5
 21
-1.59375
  0
LINE
  5
24B
100
AcDbEntity
  8
0
100
AcDbLine
 62
2
  6
CONTINUOUS
 10
4.5
 20
0.0
 11
4.5
 21
-1.90625
  0
MTEXT
  5
24C
100
AcDbEntity
  8
0
100
AcDbMText
 62
2
  6
CONTINUOUS
  7
TEXTSTYLE_2
 71
1
 72
1
 10
0.0625
 20
-0.078125
 30
0.0
 11
1.0
 21
0.0
 31
0.0
 73
2
 44
0.9
  1
TITLE: BEARING ADAPTER
 40
0.125
 41
3.8458333333
  0
MTEXT
  5
24D
100
AcDbEntity
  8
0
100
AcDbMText
 62
2
  6
CONTINUOUS
  7
TEXTSTYLE_2
 71
1
 72
1
 10
3.5625
 20
-0.078125
 30
0.0
 11
1.0
 21
0.0
 31
0.0
 73
2
 44
0.9
  1
Page \P2 of2
 40
0.125
 41
0.8833333333
  0
MTEXT
  5
24E
100
AcDbEntity
  8
0
100
AcDbMText
 62
2
  6
CONTINUOUS
  7
TEXTSTYLE_2
 71
1
 72
1
 10
0.0625
 20
-0.546875
 30
0.0
 11
1.0
 21
0.0
 31
0.0
 73
2
 44
0.9
  1
Unless otherwise specified\Pdimensions are in inches\Pper ASME Y14.5
 40
0.125
 41
3.8375
  0
MTEXT
  5
24F
100
AcDbEntity
  8
0
100
AcDbMText
 62
2
  6
CONTINUOUS
  7
TEXTSTYLE_2
 71
1
 72
1
 10
2.3125
 20
-0.546875
 30
0.0
 11
1.0
 21
0.0
 31
0.0
 73
2
 44
0.9
  1
.X: \fgdt;{\fgdt;`}\ftxt;.05\P.XX: \fgdt;{\fgdt;`}\ftxt;.005\P.XXX: \fgdt;{\fgdt;`}\ftxt;.0005\PANGLES: \fgdt;{\fgdt;`}\ftxt;1/4\fgdt;{\fgdt;~}
 40
0.125
 41
2.3125
  0
MTEXT
  5
250
100
AcDbEntity
  8
0
100
AcDbMText
 62
2
  6
CONTINUOUS
  7
TEXTSTYLE_2
 71
1
 72
1
 10
0.0625
 20
-1.359375
 30
0.0
 11
1.0
 21
0.0
 31
0.0
 73
2
 44
0.9
  1
 A4
 40
0.125
 41
0.6
  0
MTEXT
  5
251
100
AcDbEntity
  8
0
100
AcDbMText
 62
2
  6
CONTINUOUS
  7
TEXTSTYLE_2
 71
1
 72
1
 10
1.0625
 20
-1.359375
 30
0.0
 11
1.0
 21
0.0
 31
0.0
 73
2
 44
0.9
  1
 LAST UPDATE: 6/30/2018
 40
0.125
 41
4.0708333333
  0
MTEXT
  5
252
100
AcDbEntity
  8
0
100
AcDbMText
 62
2
  6
CONTINUOUS
  7
TEXTSTYLE_2
 71
1
 72
1
 10
3.5625
 20
-1.359375
 30
0.0
 11
1.0
 21
0.0
 31
0.0
 73
2
 44
0.9
  1
4/9/2018
 40
0.125
 41
1.35
  0
MTEXT
  5
253
100
AcDbEntity
  8
0
100
AcDbMText
 62
2
  6
CONTINUOUS
  7
TEXTSTYLE_2
 71
1
 72
1
 10
0.0625
 20
-1.671875
 30
0.0
 11
1.0
 21
0.0
 31
0.0
 73
2
 44
0.9
  1
SCALE 1:4
 40
0.125
 41
1.4875
  0
MTEXT
  5
254
100
AcDbEntity
  8
0
100
AcDbMText
 62
2
  6
CONTINUOUS
  7
TEXTSTYLE_2
 71
1
 72
1
 10
1.0625
 20
-1.671875
 30
0.0
 11
1.0
 21
0.0
 31
0.0
 73
2
 44
0.9
  1
 DRAWN BY: JORDAN T & Garrett H
 40
0.125
 41
5.6041666667
  0
ENDBLK
  5
255
100
AcDbEntity
  8
0
  6
BYBLOCK
 62
0
100
AcDbBlockEnd
  0
ENDSEC
  0
SECTION
  2
ENTITIES
  0
HATCH
  5
256
100
AcDbEntity
  8
0
100
AcDbHatch
 62
2
  6
CONTINUOUS
 10
0.0
 20
0.0
 30
0.0
210
0.0
220
0.0
230
1.0
  2
XSEC0002
 70
0
 71
0
 91
3
 92
1
 93
4
 72
1
 10
7.0102639733
 20
3.5307336295
 11
6.6880014733
 21
3.5307336295
 72
1
 10
6.6880014733
 20
3.5307336295
 11
6.6880014733
 21
4.0307336295
 72
1
 10
7.0102639733
 20
4.0307336295
 11
6.6880014733
 21
4.0307336295
 72
1
 10
7.0102639733
 20
4.0307336295
 11
7.0102639733
 21
3.5307336295
 97
0
 92
1
 93
8
 72
1
 10
6.5825264733
 20
3.5307336295
 11
6.0727639733
 21
3.5307336295
 72
1
 10
6.0727639733
 20
3.7494836295
 11
6.0727639733
 21
3.5307336295
 72
1
 10
6.0727639733
 20
3.7494836295
 11
2.6977639733
 21
3.7494836295
 72
1
 10
2.6977639733
 20
3.7494836295
 11
2.6977639733
 21
3.5307336295
 72
1
 10
2.6977639733
 20
3.5307336295
 11
2.1880014733
 21
3.5307336295
 72
1
 10
2.1880014733
 20
3.5307336295
 11
2.1880014733
 21
4.0307336295
 72
1
 10
6.5825264733
 20
4.0307336295
 11
2.1880014733
 21
4.0307336295
 72
1
 10
6.5825264733
 20
3.5307336295
 11
6.5825264733
 21
4.0307336295
 97
0
 92
1
 93
4
 72
1
 10
2.0825264733
 20
3.5307336295
 11
1.7602639733
 21
3.5307336295
 72
1
 10
1.7602639733
 20
4.0307336295
 11
1.7602639733
 21
3.5307336295
 72
1
 10
2.0825264733
 20
4.0307336295
 11
1.7602639733
 21
4.0307336295
 72
1
 10
2.0825264733
 20
3.5307336295
 11
2.0825264733
 21
4.0307336295
 97
0
 75
0
 76
0
 52
45.0
 41
0.0625517537
 77
0
 78
1
 53
45.0
 43
0.0
 44
0.0
 45
-0.0442307692
 46
0.0442307692
 79
0
 98
1
 10
0.0
 20
0.0
  0
SOLID
  5
257
100
AcDbEntity
  8
01___PRT_ALL_DTM_PLN
100
AcDbTrace
 62
2
  6
CONTINUOUS
 10
1.0815007868
 20
3.5307336295
 11
1.2619227459
 21
3.5307336295
 12
1.1717117664
 22
3.3744836295
 13
1.1717117664
 23
3.3744836295
  0
MTEXT
  5
258
100
AcDbEntity
  8
01___PRT_ALL_DTM_PLN
100
AcDbMText
 62
2
  6
CONTINUOUS
  7
STANDARD
 71
1
 72
1
 10
1.1092117664
 20
2.7115165629
 30
0.0
 11
1.0
 21
0.0
 31
0.0
 73
2
 44
0.9
  1
A
 40
0.15625
 41
0.125
  0
TEXT
  5
259
100
AcDbEntity
  8
0
100
AcDbText
 62
2
  6
CONTINUOUS
 10
3.9832551258
 20
6.6669820757
  7
TEXTSTYLE_1
 40
0.125
  1
r
 41
1.0
 72
0
100
AcDbText
  0
TEXT
  5
25A
100
AcDbEntity
  8
0
100
AcDbText
 62
2
  6
CONTINUOUS
 10
4.3061717925
 20
6.6669820757
  7
STANDARD
 40
0.125
  1
.05
 41
0.8
 72
0
100
AcDbText
  0
TEXT
  5
25B
100
AcDbEntity
  8
0
100
AcDbText
 62
2
  6
CONTINUOUS
 10
4.7155467925
 20
6.6669820757
  7
STANDARD
 40
0.125
  1
B
 41
0.8
 72
0
100
AcDbText
  0
DIMENSION
  5
25C
100
AcDbEntity
  8
0
100
AcDbDimension
 62
2
  6
CONTINUOUS
  2
*D0
 10
1.7744009591
 20
6.9794820757
 11
4.3994010319
 21
6.9794822525
 70
160
 71
2
 42
21.0
  3
DIMSTYLE_1
100
AcDbAlignedDimension
 13
7.0244009591
 23
6.3778976114
 14
1.7744009591
 24
6.3778976114
 50
180.0
100
AcDbRotatedDimension
  0
TEXT
  5
25D
100
AcDbEntity
  8
0
100
AcDbText
 62
2
  6
CONTINUOUS
 10
7.4204958243
 20
5.9549758596
  7
TEXTSTYLE_1
 40
0.125
  1
f
 41
1.0
 72
0
100
AcDbText
  0
TEXT
  5
25E
100
AcDbEntity
  8
0
100
AcDbText
 62
2
  6
CONTINUOUS
 10
7.7486208243
 20
5.9549758596
  7
STANDARD
 40
0.125
  1
.05
 41
0.8
 72
0
100
AcDbText
  0
TEXT
  5
25F
100
AcDbEntity
  8
0
100
AcDbText
 62
2
  6
CONTINUOUS
 10
8.1579958243
 20
5.9549758596
  7
STANDARD
 40
0.125
  1
A
 41
0.8
 72
0
100
AcDbText
  0
DIMENSION
  5
260
100
AcDbEntity
  8
0
100
AcDbDimension
 62
2
  6
CONTINUOUS
  2
*D1
 10
7.8392458243
 20
5.8778976114
 11
7.8392459359
 21
6.2674756064
 70
160
 71
2
 42
2.0
  3
DIMSTYLE_1
100
AcDbAlignedDimension
 13
7.0244009591
 23
6.3778976114
 14
7.0244009591
 24
5.8778976114
 50
270.0
100
AcDbRotatedDimension
  0
TEXT
  5
261
100
AcDbEntity
  8
0
100
AcDbText
 62
2
  6
CONTINUOUS
 10
3.6668672972
 20
2.5073291172
  7
TEXTSTYLE_1
 40
0.15625
  1
r
 41
1.0
 72
0
100
AcDbText
  0
TEXT
  5
262
100
AcDbEntity
  8
0
100
AcDbText
 62
2
  6
CONTINUOUS
 10
4.0705131305
 20
2.5073291172
  7
STANDARD
 40
0.15625
  1
.005
 41
0.8
 72
0
100
AcDbText
  0
TEXT
  5
263
100
AcDbEntity
  8
0
100
AcDbText
 62
2
  6
CONTINUOUS
 10
4.7072318805
 20
2.5073291172
  7
STANDARD
 40
0.15625
  1
B
 41
0.8
 72
0
100
AcDbText
  0
DIMENSION
  5
264
100
AcDbEntity
  8
0
100
AcDbDimension
 62
2
  6
CONTINUOUS
  2
*D2
 10
2.6977639733
 20
2.8979541172
 11
4.2690807859
 21
2.897954113
 70
160
 71
2
 42
13.5
  3
DIMSTYLE_2
100
AcDbAlignedDimension
 13
6.0727639733
 23
3.7494836295
 14
2.6977639733
 24
3.7494836295
 50
180.0
100
AcDbRotatedDimension
  0
TEXT
  5
265
100
AcDbEntity
  8
0
100
AcDbText
 62
2
  6
CONTINUOUS
 10
2.7707983257
 20
1.6755822583
  7
TEXTSTYLE_1
 40
0.15625
  1
f
 41
1.0
 72
0
100
AcDbText
  0
TEXT
  5
266
100
AcDbEntity
  8
0
100
AcDbText
 62
2
  6
CONTINUOUS
 10
3.1809545757
 20
1.6755822583
  7
STANDARD
 40
0.15625
  1
.005
 41
0.8
 72
0
100
AcDbText
  0
TEXT
  5
267
100
AcDbEntity
  8
0
100
AcDbText
 62
2
  6
CONTINUOUS
 10
3.8176733257
 20
1.6755822583
  7
STANDARD
 40
0.15625
  1
A
 41
0.8
 72
0
100
AcDbText
  0
DIMENSION
  5
268
100
AcDbEntity
  8
0
100
AcDbDimension
 62
2
  6
CONTINUOUS
  2
*D3
 10
2.3302440005
 20
3.5307336295
 11
2.958298344
 21
2.0662073307
 70
160
 71
1
 42
0.875
  3
DIMSTYLE_3
100
AcDbAlignedDimension
 13
2.6977639733
 23
3.7494836295
 14
2.6977639733
 24
3.5307336295
 50
270.0
100
AcDbRotatedDimension
  0
SOLID
  5
269
100
AcDbEntity
  8
02___PRT_ALL_AXES
100
AcDbTrace
 62
2
  6
CONTINUOUS
 10
4.3994009591
 20
5.3138034038
 11
4.3994009591
 21
5.1333814447
 12
4.5556509591
 22
5.2235924243
 13
4.5556509591
 23
5.2235924243
  0
MTEXT
  5
26A
100
AcDbEntity
  8
02___PRT_ALL_AXES
100
AcDbMText
 62
2
  6
CONTINUOUS
  7
STANDARD
 71
1
 72
1
 10
4.8525259591
 20
5.3017174243
 30
0.0
 11
1.0
 21
0.0
 31
0.0
 73
2
 44
0.9
  1
B
 40
0.15625
 41
0.125
  0
ACAD_TABLE
  5
26B
100
AcDbEntity
  8
0
 62
2
  6
CONTINUOUS
100
AcDbBlockReference
  2
*T1
 10
7.13807635
 20
1.9497225124
 30
0.0
100
AcDbTable
342
       2C0
343
210
 11
1.0
 21
0.0
 31
0.0
 90
22
 91
4
 92
4
 93
16
 94
0
 95
0
 96
0
 41
0.053
141
0.46875
141
0.8125
141
0.3125
141
0.3125
142
1.0
142
1.25
142
1.25
142
1.0
171
1
172
0
173
0
174
0
175
3
176
1
 91
49
178
0
145
0.0
  7
TEXTSTYLE_2
301
CELL_VALUE
 90
4
  1
TITLE: BEARING ADAPTER
304
ACVALUE_END
170
1
140
0.125
171
1
172
0
173
1
174
0
175
1
176
1
 91
1
178
0
145
0.0
170
1
171
1
172
0
173
1
174
0
175
1
176
1
 91
1
178
0
145
0.0
170
1
171
1
172
0
173
0
174
0
175
1
176
1
 91
49
178
0
145
0.0
  7
TEXTSTYLE_2
301
CELL_VALUE
 90
4
  1
Page \P2 of2
304
ACVALUE_END
170
1
140
0.125
171
1
172
0
173
0
174
0
175
2
176
1
 91
49
178
0
145
0.0
  7
TEXTSTYLE_2
301
CELL_VALUE
 90
4
  1
Unless otherwise specified\Pdimensions are in inches\Pper ASME Y14.5
304
ACVALUE_END
170
1
140
0.125
171
1
172
0
173
1
174
0
175
1
176
1
 91
1
178
0
145
0.0
170
1
171
1
172
0
173
0
174
0
175
2
176
1
 91
49
178
0
145
0.0
  7
TEXTSTYLE_2
301
CELL_VALUE
 90
4
  1
.X: \fgdt;{\fgdt;`}\ftxt;.05\P.XX: \fgdt;{\fgdt;`}\ftxt;.005\P.XXX: \fgdt;{\fgdt;`}\ftxt;.0005\PANGLES: \fgdt;{\fgdt;`}\ftxt;1/4\fgdt;{\fgdt;~}
304
ACVALUE_END
170
1
140
0.125
171
1
172
0
173
1
174
0
175
1
176
1
 91
1
178
0
145
0.0
170
1
171
1
172
0
173
0
174
0
175
1
176
1
 91
49
178
0
145
0.0
  7
TEXTSTYLE_2
301
CELL_VALUE
 90
4
  1
 A4
304
ACVALUE_END
170
1
140
0.125
171
1
172
0
173
0
174
0
175
2
176
1
 91
49
178
0
145
0.0
  7
TEXTSTYLE_2
301
CELL_VALUE
 90
4
  1
 LAST UPDATE: 6/30/2018
304
ACVALUE_END
170
1
140
0.125
171
1
172
0
173
1
174
0
175
1
176
1
 91
1
178
0
145
0.0
170
1
171
1
172
0
173
0
174
0
175
1
176
1
 91
49
178
0
145
0.0
  7
TEXTSTYLE_2
301
CELL_VALUE
 90
4
  1
4/9/2018
304
ACVALUE_END
170
1
140
0.125
171
1
172
0
173
0
174
0
175
1
176
1
 91
49
178
0
145
0.0
  7
TEXTSTYLE_2
301
CELL_VALUE
 90
4
  1
SCALE 1:4
304
ACVALUE_END
170
1
140
0.125
171
1
172
0
173
0
174
0
175
3
176
1
 91
49
178
0
145
0.0
  7
TEXTSTYLE_2
301
CELL_VALUE
 90
4
  1
 DRAWN BY: JORDAN T & Garrett H
304
ACVALUE_END
170
1
140
0.125
171
1
172
0
173
1
174
0
175
1
176
1
 91
1
178
0
145
0.0
170
1
171
1
172
0
173
1
174
0
175
1
176
1
 91
1
178
0
145
0.0
170
1
  0
TEXT
  5
26C
100
AcDbEntity
  8
0
100
AcDbText
 62
2
  6
CONTINUOUS
 10
7.2849770616
 20
3.1450079773
  7
TEXTSTYLE_1
 40
0.125
  1
c
 41
1.0
 72
0
100
AcDbText
  0
TEXT
  5
26D
100
AcDbEntity
  8
0
100
AcDbText
 62
2
  6
CONTINUOUS
 10
7.6860187282
 20
3.1450079773
  7
STANDARD
 40
0.125
  1
.0005
 41
0.8
 72
0
100
AcDbText
  0
LEADER
  5
26E
100
AcDbEntity
  8
0
100
AcDbLeader
 62
2
  6
CONTINUOUS
  3
STANDARD
 71
1
 72
0
 73
3
 75
0
 76
3
 10
6.8235208026
 20
3.5307336295
 30
0.0
 10
6.9724770616
 20
3.2075079773
 30
0.0
 10
7.2224770616
 20
3.2075079773
 30
0.0
1001
ACAD
1000
DSTYLE
1002
{
1070
77
1070
0
1002
}
  0
TEXT
  5
26F
100
AcDbEntity
  8
0
100
AcDbText
 62
2
  6
CONTINUOUS
 10
7.4497858297
 20
4.4204845303
  7
TEXTSTYLE_1
 40
0.125
  1
f
 41
1.0
 72
0
100
AcDbText
  0
TEXT
  5
270
100
AcDbEntity
  8
0
100
AcDbText
 62
2
  6
CONTINUOUS
 10
7.7779108297
 20
4.4204845303
  7
STANDARD
 40
0.125
  1
.0005
 41
0.8
 72
0
100
AcDbText
  0
TEXT
  5
271
100
AcDbEntity
  8
0
100
AcDbText
 62
2
  6
CONTINUOUS
 10
8.3872858297
 20
4.4204845303
  7
STANDARD
 40
0.125
  1
A
 41
0.8
 72
0
100
AcDbText
  0
LEADER
  5
272
100
AcDbEntity
  8
0
100
AcDbLeader
 62
2
  6
CONTINUOUS
  3
STANDARD
 71
1
 72
0
 73
3
 75
0
 76
3
 10
6.7753357199
 20
4.0307336295
 30
0.0
 10
7.1372858297
 20
4.4829845303
 30
0.0
 10
7.3872858297
 20
4.4829845303
 30
0.0
1001
ACAD
1000
DSTYLE
1002
{
1070
77
1070
0
1002
}
  0
LINE
  5
273
100
AcDbEntity
  8
0
100
AcDbLine
 62
7
  6
CONTINUOUS
 10
0.0
 20
0.0
 11
0.0
 21
8.2677165354
  0
LINE
  5
274
100
AcDbEntity
  8
0
100
AcDbLine
 62
7
  6
CONTINUOUS
 10
0.0
 20
0.0
 11
11.6929133858
 21
0.0
  0
LINE
  5
275
100
AcDbEntity
  8
0
100
AcDbLine
 62
7
  6
CONTINUOUS
 10
0.0
 20
8.2677165354
 11
11.6929133858
 21
8.2677165354
  0
LINE
  5
276
100
AcDbEntity
  8
0
100
AcDbLine
 62
7
  6
CONTINUOUS
 10
11.6929133858
 20
0.0
 11
11.6929133858
 21
8.2677165354
  0
LINE
  5
277
100
AcDbEntity
  8
01___PRT_ALL_DTM_PLN
100
AcDbLine
 62
2
  6
CONTINUOUS
 10
1.0310867664
 20
2.4771415629
 11
1.0310867664
 21
2.7896415629
  0
LINE
  5
278
100
AcDbEntity
  8
01___PRT_ALL_DTM_PLN
100
AcDbLine
 62
2
  6
CONTINUOUS
 10
1.1717117664
 20
3.3744836295
 11
1.1717117664
 21
2.7896415629
  0
LINE
  5
279
100
AcDbEntity
  8
01___PRT_ALL_DTM_PLN
100
AcDbLine
 62
2
  6
CONTINUOUS
 10
1.3123367664
 20
2.7896415629
 11
1.3123367664
 21
2.4771415629
  0
LINE
  5
27A
100
AcDbEntity
  8
0
100
AcDbLine
 62
7
  6
CONTINUOUS
 10
1.7602639733
 20
4.0307336295
 11
1.7602639733
 21
3.5307336295
  0
LINE
  5
27B
100
AcDbEntity
  8
DEFAULT_2
100
AcDbLine
 62
8
  6
HIDDEN
 10
2.0727639733
 20
3.5307336295
 11
2.0727639733
 21
4.0307336295
  0
LINE
  5
27C
100
AcDbEntity
  8
0
100
AcDbLine
 62
7
  6
CONTINUOUS
 10
2.0825264733
 20
3.5307336295
 11
2.0825264733
 21
4.0307336295
  0
LINE
  5
27D
100
AcDbEntity
  8
02___PRT_ALL_AXES
100
AcDbLine
 62
7
  6
CENTER
 10
2.1352639733
 20
4.1307336295
 11
2.1352639733
 21
3.4307336295
  0
LINE
  5
27E
100
AcDbEntity
  8
0
100
AcDbLine
 62
7
  6
CONTINUOUS
 10
2.1880014733
 20
3.5307336295
 11
2.1880014733
 21
4.0307336295
  0
LINE
  5
27F
100
AcDbEntity
  8
DEFAULT_2
100
AcDbLine
 62
8
  6
HIDDEN
 10
2.1977639733
 20
3.5307336295
 11
2.1977639733
 21
4.0307336295
  0
LINE
  5
280
100
AcDbEntity
  8
0
100
AcDbLine
 62
2
  6
CONTINUOUS
 10
2.6926733257
 20
1.5974572583
 11
4.0207983257
 21
1.5974572583
  0
LINE
  5
281
100
AcDbEntity
  8
0
100
AcDbLine
 62
2
  6
CONTINUOUS
 10
4.0207983257
 20
1.9099572583
 11
2.6926733257
 21
1.9099572583
  0
LINE
  5
282
100
AcDbEntity
  8
0
100
AcDbLine
 62
2
  6
CONTINUOUS
 10
2.6926733257
 20
1.9099572583
 11
2.6926733257
 21
1.5974572583
  0
LINE
  5
283
100
AcDbEntity
  8
0
100
AcDbLine
 62
7
  6
CONTINUOUS
 10
2.6977639733
 20
3.7494836295
 11
2.6977639733
 21
3.5307336295
  0
LINE
  5
284
100
AcDbEntity
  8
0
100
AcDbLine
 62
2
  6
CONTINUOUS
 10
3.1223608257
 20
1.5974572583
 11
3.1223608257
 21
1.9099572583
  0
LINE
  5
285
100
AcDbEntity
  8
0
100
AcDbLine
 62
2
  6
CONTINUOUS
 10
3.5887422972
 20
2.4292041172
 11
4.9103568805
 21
2.4292041172
  0
LINE
  5
286
100
AcDbEntity
  8
01___PRT_ALL_DTM_PLN
100
AcDbLine
 62
2
  6
CONTINUOUS
 10
1.3123367664
 20
2.4771415629
 11
1.0310867664
 21
2.4771415629
  0
LINE
  5
287
100
AcDbEntity
  8
0
100
AcDbLine
 62
2
  6
CONTINUOUS
 10
4.9103568805
 20
2.7417041172
 11
3.5887422972
 21
2.7417041172
  0
LINE
  5
288
100
AcDbEntity
  8
01___PRT_ALL_DTM_PLN
100
AcDbLine
 62
2
  6
CONTINUOUS
 10
1.0310867664
 20
2.7896415629
 11
1.3123367664
 21
2.7896415629
  0
LINE
  5
289
100
AcDbEntity
  8
0
100
AcDbLine
 62
2
  6
CONTINUOUS
 10
3.5887422972
 20
2.7417041172
 11
3.5887422972
 21
2.4292041172
  0
LINE
  5
28A
100
AcDbEntity
  8
0
100
AcDbLine
 62
2
  6
CONTINUOUS
 10
7.2224770616
 20
3.0825079773
 11
8.2485187282
 21
3.0825079773
  0
LINE
  5
28B
100
AcDbEntity
  8
0
100
AcDbLine
 62
2
  6
CONTINUOUS
 10
3.7590795757
 20
1.5974572583
 11
3.7590795757
 21
1.9099572583
  0
LINE
  5
28C
100
AcDbEntity
  8
0
100
AcDbLine
 62
2
  6
CONTINUOUS
 10
4.0119193805
 20
2.4292041172
 11
4.0119193805
 21
2.7417041172
  0
LINE
  5
28D
100
AcDbEntity
  8
0
100
AcDbLine
 62
2
  6
CONTINUOUS
 10
4.0207983257
 20
1.5974572583
 11
4.0207983257
 21
1.9099572583
  0
LINE
  5
28E
100
AcDbEntity
  8
0
100
AcDbLine
 62
2
  6
CONTINUOUS
 10
8.2485187282
 20
3.3325079773
 11
7.2224770616
 21
3.3325079773
  0
LINE
  5
28F
100
AcDbEntity
  8
0
100
AcDbLine
 62
7
  6
CONTINUOUS
 10
7.0102639733
 20
3.5307336295
 11
1.7602639733
 21
3.5307336295
  0
LINE
  5
290
100
AcDbEntity
  8
01___PRT_ALL_DTM_PLN
100
AcDbLine
 62
2
  6
CONTINUOUS
 10
7.0474767217
 20
3.5307336295
 11
1.1717117664
 21
3.5307336295
  0
LINE
  5
291
100
AcDbEntity
  8
02___PRT_ALL_AXES
100
AcDbLine
 62
7
  6
CENTER
 10
4.3852639733
 20
4.1307336295
 11
4.3852639733
 21
3.4307336295
  0
LINE
  5
292
100
AcDbEntity
  8
0
100
AcDbLine
 62
7
  6
CONTINUOUS
 10
6.0727639733
 20
3.7494836295
 11
2.6977639733
 21
3.7494836295
  0
LINE
  5
293
100
AcDbEntity
  8
0
100
AcDbLine
 62
2
  6
CONTINUOUS
 10
4.6486381305
 20
2.4292041172
 11
4.6486381305
 21
2.7417041172
  0
LINE
  5
294
100
AcDbEntity
  8
0
100
AcDbLine
 62
7
  6
CONTINUOUS
 10
7.0102639733
 20
4.0307336295
 11
1.7602639733
 21
4.0307336295
  0
LINE
  5
295
100
AcDbEntity
  8
03___PRT_ALL_CURVES
100
AcDbLine
 62
2
  6
PHANTOM
 10
2.1352639733
 20
4.0307336295
 11
6.6352639733
 21
4.0307336295
  0
LINE
  5
296
100
AcDbEntity
  8
0
100
AcDbLine
 62
2
  6
CONTINUOUS
 10
4.9103568805
 20
2.4292041172
 11
4.9103568805
 21
2.7417041172
  0
LINE
  5
297
100
AcDbEntity
  8
0
100
AcDbLine
 62
2
  6
CONTINUOUS
 10
7.3872858297
 20
4.3579845303
 11
8.5497858297
 21
4.3579845303
  0
LINE
  5
298
100
AcDbEntity
  8
0
100
AcDbLine
 62
2
  6
CONTINUOUS
 10
8.5497858297
 20
4.6079845303
 11
7.3872858297
 21
4.6079845303
  0
LINE
  5
299
100
AcDbEntity
  8
0
100
AcDbLine
 62
7
  6
CONTINUOUS
 10
6.0727639733
 20
3.7494836295
 11
6.0727639733
 21
3.5307336295
  0
LINE
  5
29A
100
AcDbEntity
  8
DEFAULT_2
100
AcDbLine
 62
8
  6
HIDDEN
 10
6.5727639733
 20
3.5307336295
 11
6.5727639733
 21
4.0307336295
  0
LINE
  5
29B
100
AcDbEntity
  8
0
100
AcDbLine
 62
7
  6
CONTINUOUS
 10
6.5825264733
 20
3.5307336295
 11
6.5825264733
 21
4.0307336295
  0
LINE
  5
29C
100
AcDbEntity
  8
02___PRT_ALL_AXES
100
AcDbLine
 62
7
  6
CENTER
 10
6.6352639733
 20
4.1307336295
 11
6.6352639733
 21
3.4307336295
  0
LINE
  5
29D
100
AcDbEntity
  8
0
100
AcDbLine
 62
7
  6
CONTINUOUS
 10
6.6880014733
 20
3.5307336295
 11
6.6880014733
 21
4.0307336295
  0
LINE
  5
29E
100
AcDbEntity
  8
DEFAULT_2
100
AcDbLine
 62
8
  6
HIDDEN
 10
6.6977639733
 20
3.5307336295
 11
6.6977639733
 21
4.0307336295
  0
LINE
  5
29F
100
AcDbEntity
  8
0
100
AcDbLine
 62
7
  6
CONTINUOUS
 10
7.0102639733
 20
4.0307336295
 11
7.0102639733
 21
3.5307336295
  0
LINE
  5
2A0
100
AcDbEntity
  8
0
100
AcDbLine
 62
2
  6
CONTINUOUS
 10
7.2224770616
 20
3.3325079773
 11
7.2224770616
 21
3.0825079773
  0
LINE
  5
2A1
100
AcDbEntity
  8
0
100
AcDbLine
 62
2
  6
CONTINUOUS
 10
7.3872858297
 20
4.6079845303
 11
7.3872858297
 21
4.3579845303
  0
LINE
  5
2A2
100
AcDbEntity
  8
0
100
AcDbLine
 62
2
  6
CONTINUOUS
 10
7.6391437282
 20
3.0825079773
 11
7.6391437282
 21
3.3325079773
  0
LINE
  5
2A3
100
AcDbEntity
  8
0
100
AcDbLine
 62
2
  6
CONTINUOUS
 10
7.7310358297
 20
4.3579845303
 11
7.7310358297
 21
4.6079845303
  0
LINE
  5
2A4
100
AcDbEntity
  8
0
100
AcDbLine
 62
2
  6
CONTINUOUS
 10
8.2485187282
 20
3.0825079773
 11
8.2485187282
 21
3.3325079773
  0
LINE
  5
2A5
100
AcDbEntity
  8
0
100
AcDbLine
 62
2
  6
CONTINUOUS
 10
8.3404108297
 20
4.3579845303
 11
8.3404108297
 21
4.6079845303
  0
LINE
  5
2A6
100
AcDbEntity
  8
0
100
AcDbLine
 62
2
  6
CONTINUOUS
 10
8.5497858297
 20
4.3579845303
 11
8.5497858297
 21
4.6079845303
  0
LINE
  5
2A7
100
AcDbEntity
  8
0
100
AcDbLine
 62
7
  6
CONTINUOUS
 10
1.7744009591
 20
5.8778976114
 11
1.7744009591
 21
6.3778976114
  0
LINE
  5
2A8
100
AcDbEntity
  8
02___PRT_ALL_AXES
100
AcDbLine
 62
2
  6
CONTINUOUS
 10
5.0556509591
 20
5.0673424243
 11
4.7744009591
 21
5.0673424243
  0
LINE
  5
2A9
100
AcDbEntity
  8
02___PRT_ALL_AXES
100
AcDbLine
 62
2
  6
CONTINUOUS
 10
4.5556509591
 20
5.2235924243
 11
4.7744009591
 21
5.2235924243
  0
LINE
  5
2AA
100
AcDbEntity
  8
02___PRT_ALL_AXES
100
AcDbLine
 62
2
  6
CONTINUOUS
 10
4.7744009591
 20
5.3798424243
 11
5.0556509591
 21
5.3798424243
  0
LINE
  5
2AB
100
AcDbEntity
  8
0
100
AcDbLine
 62
2
  6
CONTINUOUS
 10
3.9207551258
 20
6.8544820757
 11
3.9207551258
 21
6.6044820757
  0
LINE
  5
2AC
100
AcDbEntity
  8
0
100
AcDbLine
 62
7
  6
CONTINUOUS
 10
7.0244009591
 20
5.8778976114
 11
1.7744009591
 21
5.8778976114
  0
LINE
  5
2AD
100
AcDbEntity
  8
0
100
AcDbLine
 62
2
  6
CONTINUOUS
 10
7.3579958243
 20
5.8924758596
 11
8.3204958243
 21
5.8924758596
  0
LINE
  5
2AE
100
AcDbEntity
  8
0
100
AcDbLine
 62
2
  6
CONTINUOUS
 10
4.2592967925
 20
6.6044820757
 11
4.2592967925
 21
6.8544820757
  0
LINE
  5
2AF
100
AcDbEntity
  8
02___PRT_ALL_AXES
100
AcDbLine
 62
2
  6
CENTER
 10
4.3994009591
 20
5.2235924243
 11
4.3994009591
 21
6.4778976114
  0
LINE
  5
2B0
100
AcDbEntity
  8
0
100
AcDbLine
 62
2
  6
CONTINUOUS
 10
8.3204958243
 20
6.1424758596
 11
7.3579958243
 21
6.1424758596
  0
LINE
  5
2B1
100
AcDbEntity
  8
0
100
AcDbLine
 62
2
  6
CONTINUOUS
 10
4.6686717925
 20
6.6044820757
 11
4.6686717925
 21
6.8544820757
  0
LINE
  5
2B2
100
AcDbEntity
  8
02___PRT_ALL_AXES
100
AcDbLine
 62
2
  6
CONTINUOUS
 10
4.7744009591
 20
5.0673424243
 11
4.7744009591
 21
5.3798424243
  0
LINE
  5
2B3
100
AcDbEntity
  8
0
100
AcDbLine
 62
7
  6
CONTINUOUS
 10
7.0244009591
 20
6.3778976114
 11
1.7744009591
 21
6.3778976114
  0
LINE
  5
2B4
100
AcDbEntity
  8
0
100
AcDbLine
 62
2
  6
CONTINUOUS
 10
4.8780467925
 20
6.6044820757
 11
4.8780467925
 21
6.8544820757
  0
LINE
  5
2B5
100
AcDbEntity
  8
0
100
AcDbLine
 62
2
  6
CONTINUOUS
 10
3.9207551258
 20
6.6044820757
 11
4.8780467925
 21
6.6044820757
  0
LINE
  5
2B6
100
AcDbEntity
  8
02___PRT_ALL_AXES
100
AcDbLine
 62
2
  6
CONTINUOUS
 10
5.0556509591
 20
5.3798424243
 11
5.0556509591
 21
5.0673424243
  0
LINE
  5
2B7
100
AcDbEntity
  8
0
100
AcDbLine
 62
2
  6
CONTINUOUS
 10
4.8780467925
 20
6.8544820757
 11
3.9207551258
 21
6.8544820757
  0
LINE
  5
2B8
100
AcDbEntity
  8
0
100
AcDbLine
 62
7
  6
CONTINUOUS
 10
7.0244009591
 20
5.8778976114
 11
7.0244009591
 21
6.3778976114
  0
LINE
  5
2B9
100
AcDbEntity
  8
0
100
AcDbLine
 62
2
  6
CONTINUOUS
 10
7.3579958243
 20
6.1424758596
 11
7.3579958243
 21
5.8924758596
  0
LINE
  5
2BA
100
AcDbEntity
  8
0
100
AcDbLine
 62
2
  6
CONTINUOUS
 10
7.7017458243
 20
5.8924758596
 11
7.7017458243
 21
6.1424758596
  0
LINE
  5
2BB
100
AcDbEntity
  8
0
100
AcDbLine
 62
2
  6
CONTINUOUS
 10
8.1111208243
 20
5.8924758596
 11
8.1111208243
 21
6.1424758596
  0
LINE
  5
2BC
100
AcDbEntity
  8
0
100
AcDbLine
 62
2
  6
CONTINUOUS
 10
8.3204958243
 20
5.8924758596
 11
8.3204958243
 21
6.1424758596
  0
ENDSEC
  0
SECTION
  2
OBJECTS
  0
DICTIONARY
  5
C
100
AcDbDictionary
280
0
281
1
  3
ACAD_GROUP
350
D
  3
ACAD_MLINESTYLE
350
17
  3
ACAD_LAYOUT
350
1A
  3
ACAD_PLOTSETTINGS
350
19
  3
ACAD_PLOTSTYLENAME
350
E
  3
ACAD_TABLESTYLE
350
       2BD
  0
DICTIONARY
  5
D
102
{ACAD_REACTORS
330
C
102
}
100
AcDbDictionary
280
0
281
1
  0
ACDBDICTIONARYWDFLT
  5
E
102
{ACAD_REACTORS
330
C
102
}
100
AcDbDictionary
281
1
  3
Normal
350
F
100
AcDbDictionaryWithDefault
340
F
  0
DICTIONARY
  5
17
102
{ACAD_REACTORS
330
C
102
}
100
AcDbDictionary
280
0
281
1
  3
Standard
350
18
  0
DICTIONARY
  5
2BD
330
C
100
AcDbDictionary
281
1
  3
Standard
350
       2C0
  3
Standard1
350
       2C1
  0
DICTIONARY
  5
19
102
{ACAD_REACTORS
330
C
102
}
100
AcDbDictionary
281
1
  0
DICTIONARY
  5
1A
102
{ACAD_REACTORS
330
C
102
}
100
AcDbDictionary
281
1
  3
Model
350
2BE
  3
Layout1
350
2BF
  0
ACDBPLACEHOLDER
  5
F
102
{ACAD_REACTORS
330
E
102
}
  0
MLINESTYLE
  5
18
102
{ACAD_REACTORS
330
17
102
}
100
AcDbMlineStyle
  2
STANDARD
 70
0
  3

 62
256
 51
90.0
 52
90.0
 71
2
 49
0.5
 62
256
  6
BYLAYER
 49
-0.5
 62
256
  6
BYLAYER
  0
LAYOUT
  5
2BE
102
{ACAD_REACTORS
330
1A
102
}
100
AcDbPlotSettings
  1

  2
none_device
  4
ISO_A4_(297.00_x_210.00_MM)
  6

 40
0.0
 41
0.0
 42
0.0
 43
0.0
 44
297.0
 45
210.0
 46
0.0
 47
0.0
 48
0.0
 49
0.0
140
0.0
141
0.0
142
1.0
143
1.0
 70
1024
 72
0
 73
0
 74
0
  7

 75
0
147
1.0
148
0.0
149
0.0
100
AcDbLayout
  1
Model
 70
0
 71
0
 10
0.0
 20
0.0
 11
11.6929133858
 21
8.2677165354
 12
0.0
 22
0.0
 32
0.0
 14
0.0
 24
0.0
 34
0.0
 15
0.0
 25
0.0
 35
0.0
146
0.0
 13
0.0
 23
0.0
 33
0.0
 16
1.0
 26
0.0
 36
0.0
 17
0.0
 27
1.0
 37
0.0
 76
0
330
209
345
0
346
0
  0
LAYOUT
  5
2BF
102
{ACAD_REACTORS
330
1A
102
}
100
AcDbPlotSettings
  1

  2
none_device
  4
ISO_A4_(297.00_x_210.00_MM)
  6

 40
0.0
 41
0.0
 42
0.0
 43
0.0
 44
297.0
 45
210.0
 46
0.0
 47
0.0
 48
0.0
 49
0.0
140
0.0
141
0.0
142
1.0
143
1.0
 70
0
 72
0
 73
0
 74
0
  7

 75
0
147
1.0
148
0.0
149
0.0
100
AcDbLayout
  1
Layout1
 70
0
 71
1
 10
0.0
 20
0.0
 11
11.6929133858
 21
8.2677165354
 12
0.0
 22
0.0
 32
0.0
 14
0.0
 24
0.0
 34
0.0
 15
0.0
 25
0.0
 35
0.0
146
0.0
 13
0.0
 23
0.0
 33
0.0
 16
1.0
 26
0.0
 36
0.0
 17
0.0
 27
1.0
 37
0.0
 76
0
330
20A
345
0
346
0
  0
TABLESTYLE
  5
2C0
102
{ACAD_REACTORS
330
2BD
330
26B
102
}
330
2BD
100
AcDbTableStyle
  3
Standard
 70
0
 71
0
 40
0.06
 41
0.06
280
1
281
1
  7
Standard
140
0.18
170
1
 62
0
 63
7
283
0
  7
Standard
140
0.18
170
1
 62
0
 63
7
283
0
  7
Standard
140
0.18
170
1
 62
0
 63
7
283
0
  0
TABLESTYLE
  5
2C1
102
{ACAD_REACTORS
330
2BD
102
}
330
2BD
100
AcDbTableStyle
  3
Standard1
 70
1
 71
0
 40
0.06
 41
0.06
280
1
281
1
  7
Standard
140
0.18
170
1
 62
0
 63
7
283
0
  7
Standard
140
0.18
170
1
 62
0
 63
7
283
0
  7
Standard
140
0.18
170
1
 62
0
 63
7
283
0
  0
ENDSEC
  0
EOF
